<svg width="40" height="40" viewBox="0 0 40 40" fill="none" xmlns="http://www.w3.org/2000/svg">
<path d="M26.5044 30.7227C26.5077 31.1114 26.0857 31.355 25.7508 31.1578L19.9149 27.7226C19.5965 27.5352 19.2201 27.4718 18.8579 27.5448L11.9561 28.9345C11.5724 29.0117 11.2528 28.6381 11.3884 28.271L13.6334 22.1964C13.822 21.6858 13.7193 21.1131 13.365 20.6999L9.07848 15.7016C8.81512 15.3945 9.0065 14.9181 9.40911 14.8785L15.8047 14.2499C16.2112 14.21 16.5839 14.006 16.8366 13.685L21.4447 7.83194C21.6928 7.51687 22.1922 7.60733 22.3139 7.98939L24.363 14.418C24.5106 14.8809 24.8733 15.2438 25.3362 15.3915L31.7493 17.4377C32.1146 17.5542 32.2181 18.0217 31.9362 18.2816L26.931 22.8963C26.6197 23.1833 26.4442 23.5885 26.4478 24.0118L26.5044 30.7227Z" fill="#FAB82B" stroke="#413930"/>
</svg>
