<svg width="40" height="40" viewBox="0 0 40 40" fill="none" xmlns="http://www.w3.org/2000/svg">
<path d="M30.2855 25.653L30.2819 25.65C29.6852 25.0983 28.9129 24.9685 28.3492 24.8736L28.3077 24.8664C27.7638 24.7768 27.6779 24.7161 27.4314 24.4956C27.2848 24.3652 27.1099 24.156 27.1099 23.8982C27.1099 23.6404 27.2848 23.4313 27.4308 23.3009L29.2506 21.6861C30.8084 20.3093 31.6666 18.4613 31.6666 16.4824C31.6666 14.5034 30.8102 12.6554 29.2506 11.278C27.0937 9.37959 24.1422 8.33331 20.9347 8.33331C17.2272 8.33331 13.5179 9.73776 10.7534 12.1861C8.11682 14.516 6.66663 17.6374 6.66663 20.9745C6.66663 24.3117 8.11862 27.4331 10.7534 29.7624C12.0605 30.9186 13.6075 31.8165 15.3521 32.4319C17.0302 33.0204 18.7947 33.3251 20.5729 33.3333H20.6817C24.3478 33.3333 27.8389 32.0971 30.2609 29.9439C30.8439 29.4295 31.1714 28.6921 31.1828 27.867C31.1954 27.0154 30.8601 26.1873 30.2855 25.653ZM10.513 17.9487C10.513 17.5683 10.6258 17.1965 10.8371 16.8803C11.0484 16.564 11.3488 16.3176 11.7002 16.172C12.0516 16.0265 12.4383 15.9884 12.8113 16.0626C13.1844 16.1368 13.5271 16.3199 13.796 16.5889C14.065 16.8578 14.2481 17.2005 14.3224 17.5735C14.3966 17.9466 14.3585 18.3332 14.2129 18.6846C14.0674 19.036 13.8209 19.3364 13.5046 19.5477C13.1883 19.759 12.8165 19.8718 12.4361 19.8718C11.9261 19.8718 11.4369 19.6692 11.0762 19.3085C10.7156 18.9479 10.513 18.4587 10.513 17.9487ZM12.9169 26.0617C12.5366 26.0617 12.1647 25.9489 11.8485 25.7376C11.5322 25.5263 11.2857 25.2259 11.1401 24.8745C10.9946 24.5231 10.9565 24.1365 11.0307 23.7634C11.1049 23.3904 11.2881 23.0477 11.557 22.7788C11.826 22.5098 12.1687 22.3267 12.5417 22.2525C12.9148 22.1783 13.3015 22.2164 13.6529 22.3619C14.0043 22.5075 14.3047 22.7539 14.516 23.0702C14.7273 23.3864 14.8401 23.7583 14.8401 24.1386C14.8401 24.6486 14.6375 25.1378 14.2768 25.4984C13.9161 25.8591 13.427 26.0617 12.9169 26.0617ZM15.3209 14.1025C15.3209 13.7222 15.4337 13.3504 15.645 13.0341C15.8563 12.7179 16.1567 12.4714 16.5081 12.3259C16.8595 12.1803 17.2462 12.1422 17.6192 12.2164C17.9923 12.2906 18.335 12.4738 18.6039 12.7427C18.8729 13.0117 19.0561 13.3543 19.1303 13.7274C19.2045 14.1004 19.1664 14.4871 19.0208 14.8385C18.8753 15.1899 18.6288 15.4902 18.3125 15.7015C17.9962 15.9128 17.6244 16.0256 17.2441 16.0256C16.734 16.0256 16.2448 15.823 15.8842 15.4624C15.5235 15.1017 15.3209 14.6126 15.3209 14.1025ZM19.1672 30.3886C18.5967 30.3886 18.0389 30.2194 17.5645 29.9025C17.0901 29.5855 16.7204 29.135 16.5021 28.6079C16.2837 28.0808 16.2266 27.5008 16.3379 26.9412C16.4492 26.3817 16.724 25.8677 17.1274 25.4643C17.5308 25.0608 18.0449 24.7861 18.6044 24.6748C19.164 24.5635 19.7441 24.6206 20.2712 24.8389C20.7983 25.0573 21.2488 25.427 21.5658 25.9014C21.8828 26.3758 22.052 26.9335 22.052 27.504C22.052 28.269 21.7481 29.0027 21.2071 29.5437C20.6661 30.0847 19.9323 30.3886 19.1672 30.3886ZM23.4944 16.0256C23.114 16.0256 22.7422 15.9128 22.4259 15.7015C22.1096 15.4902 21.8631 15.1899 21.7176 14.8385C21.572 14.4871 21.5339 14.1004 21.6081 13.7274C21.6823 13.3543 21.8655 13.0117 22.1345 12.7427C22.4034 12.4738 22.7461 12.2906 23.1192 12.2164C23.4922 12.1422 23.8789 12.1803 24.2303 12.3259C24.5817 12.4714 24.8821 12.7179 25.0934 13.0341C25.3047 13.3504 25.4175 13.7222 25.4175 14.1025C25.4175 14.6126 25.2149 15.1017 24.8542 15.4624C24.4936 15.823 24.0044 16.0256 23.4944 16.0256Z" fill="#F15D22" stroke="#413930"/>
</svg>
