<svg width="40" height="40" viewBox="0 0 40 40" fill="none" xmlns="http://www.w3.org/2000/svg">
<path d="M8 18L10 32C10 32 14 34.5 20.5 34.5C27 34.5 30 32 30 32L32 18L27.5 22.5L20.5 11L13.5 22.5L8 18Z" fill="#FAB82B" stroke="#413930" stroke-linecap="round" stroke-linejoin="round"/>
<circle cx="20.5" cy="7.5" r="2" fill="#FAB82B" stroke="#413930"/>
<circle cx="32.5" cy="14.5" r="2" fill="#FAB82B" stroke="#413930"/>
<circle cx="7.5" cy="14.5" r="2" fill="#FAB82B" stroke="#413930"/>
<path d="M20.1053 25.3219C20.3055 25.0645 20.6945 25.0645 20.8947 25.3219L23.1278 28.193C23.2682 28.3736 23.2682 28.6264 23.1278 28.807L20.8947 31.6781C20.6945 31.9355 20.3055 31.9355 20.1053 31.6781L17.8722 28.807L17.4775 29.1139L17.8722 28.807C17.7318 28.6264 17.7318 28.3736 17.8722 28.193L20.1053 25.3219Z" fill="#5E91FF" stroke="#413930"/>
</svg>
