<svg width="40" height="40" viewBox="0 0 40 40" fill="none" xmlns="http://www.w3.org/2000/svg">
<circle cx="20" cy="20" r="13.5" fill="#5E91FF" stroke="#413930"/>
<path d="M29.7205 19.1337C29.7205 23.5572 25.3826 27.2907 19.8322 27.2907C18.2705 27.2907 16.796 26.9918 15.4862 26.4615C15.2478 26.365 15.0205 26.4372 14.9075 26.4818C14.7736 26.5346 14.6408 26.6144 14.5225 26.6941C14.2918 26.8495 14.0308 27.0641 13.7945 27.2584L13.7723 27.2766C13.6578 27.3708 13.5491 27.4598 13.4476 27.5403C13.4719 27.436 13.499 27.3251 13.5273 27.2096L13.5358 27.1748C13.6049 26.8933 13.6804 26.5858 13.7206 26.334C13.7412 26.205 13.7575 26.0618 13.7514 25.9306C13.7483 25.8649 13.7388 25.7795 13.7085 25.6913C13.6785 25.6036 13.6149 25.4763 13.4799 25.3828C11.2972 23.8706 9.94385 21.619 9.94385 19.1337C9.94385 14.7103 14.2818 10.9768 19.8322 10.9768C25.3826 10.9768 29.7205 14.7103 29.7205 19.1337ZM12.9234 27.8929C12.9236 27.8926 12.9268 27.8915 12.9326 27.8902C12.9262 27.8924 12.9233 27.8931 12.9234 27.8929Z" fill="#5E91FF" stroke="#413930"/>
<circle cx="14.9265" cy="19.4223" r="1.44282" fill="#F2EFED"/>
<circle cx="20.1206" cy="19.4223" r="1.44282" fill="#F2EFED"/>
<circle cx="25.3149" cy="19.4223" r="1.44282" fill="#F2EFED"/>
<circle cx="11" cy="8" r="3" fill="#F15D22"/>
</svg>
