<svg width="40" height="40" viewBox="0 0 40 40" fill="none" xmlns="http://www.w3.org/2000/svg">
<circle cx="20" cy="20" r="14.5" fill="#FAB82B" stroke="#413930"/>
<path d="M32.9166 18.5237C32.6098 15.7927 31.4565 13.2306 29.6228 11.2059C27.789 9.18116 25.3692 7.79813 22.7112 7.25563C20.0533 6.71313 17.2941 7.03911 14.8304 8.1867C12.3667 9.33429 10.3254 11.2444 9 13.6423H10.0763C10.4681 12.9591 10.9252 12.3167 11.441 11.7242C12.3807 10.6336 13.5378 9.75734 14.836 9.1533C15.9357 8.65905 17.1178 8.3805 18.3198 8.33239C20.2143 8.27837 22.0732 8.86127 23.6067 9.99023C24.7215 10.7828 25.6484 11.8169 26.3203 13.0176C26.9128 14.1148 27.2604 15.3883 27.0767 16.6437C26.8792 18.0312 26.0359 19.1885 24.9497 20.0214C25.3912 20.3512 25.7796 20.7483 26.1011 21.1987C26.8513 22.3111 27.1563 23.6711 26.9543 25.003C26.7524 26.3848 26.1791 27.6837 25.2973 28.7571C24.2084 30.0549 22.7419 30.9697 21.1084 31.3701C19.5561 31.7805 18.6358 31.8846 16.3883 31.314H16.3725C14.9268 30.8995 14.2455 30.7313 12.314 29.0935L10.8861 28.9574C12.7383 30.9326 15.156 32.2677 17.7974 32.7739C20.4389 33.28 23.1705 32.9317 25.606 31.778C28.0415 30.6243 30.0577 28.7237 31.3696 26.3449C32.6815 23.9661 33.2227 21.2294 32.9166 18.5217V18.5237Z" fill="#F2EFED"/>
<path d="M17.194 12V18.5314C17.952 17.3096 20.0715 16.638 21.433 16.638C25.201 16.638 28 18.747 28 22.819C28 26.7001 25.147 29 21.3545 29C19.7845 29 18.1875 28.5216 17.1842 27.1089L16.9732 28.7372H14V12H17.194ZM17.4025 22.828C17.4025 24.9617 19.1197 26.3026 21.1435 26.3026C23.1673 26.3026 24.8085 24.8876 24.8085 22.828C24.8085 20.6965 23.1845 19.3781 21.1435 19.3781C20.6476 19.3704 20.1552 19.4546 19.6957 19.6255C19.2362 19.7965 18.8193 20.0507 18.4698 20.373C18.1204 20.6952 17.8457 21.0788 17.6623 21.5007C17.4789 21.9226 17.3905 22.374 17.4025 22.828Z" fill="#FAB82B"/>
</svg>
