<svg width="40" height="40" viewBox="0 0 40 40" fill="none" xmlns="http://www.w3.org/2000/svg">
<path d="M33.5 19.5352C33.5 26.7185 27.4719 32.5704 20 32.5704C18.4792 32.5704 17.0183 32.3277 15.6558 31.8809C15.1031 31.6996 14.4931 31.764 13.9362 31.9102C13.3715 32.0585 12.8032 32.3069 12.3024 32.5584C11.8702 32.7755 11.4727 33.0032 11.1631 33.1806C11.1134 33.209 11.0661 33.2361 11.0211 33.2617C11.0148 33.2654 11.0085 33.269 11.0022 33.2725C11.0025 33.261 11.0028 33.2493 11.0032 33.2373C11.0099 33.0215 11.0299 32.7883 11.0525 32.5239C11.0697 32.324 11.0883 32.1061 11.104 31.8644C11.1381 31.337 11.1521 30.7462 11.0646 30.1935C10.9775 29.6424 10.7814 29.0764 10.3512 28.6519C7.96629 26.299 6.5 23.0815 6.5 19.5352C6.5 12.3518 12.5281 6.5 20 6.5C27.4719 6.5 33.5 12.3518 33.5 19.5352ZM11.0285 33.6531C11.0285 33.6532 11.0275 33.6512 11.026 33.6463C11.0279 33.6504 11.0286 33.6529 11.0285 33.6531Z" fill="#5E91FF" stroke="#413930"/>
<path fill-rule="evenodd" clip-rule="evenodd" d="M17.861 14.5735C17.5797 15.0132 17.4779 15.6581 17.4779 16.3104C17.4778 17.293 16.6813 18.0896 15.6986 18.0895C14.716 18.0895 13.9194 17.2929 13.9194 16.3103C13.9194 15.4468 14.0263 13.9646 14.8633 12.6561C15.7917 11.2046 17.4112 10.2769 19.7539 10.2769C22.3487 10.2769 24.1893 11.0317 25.2149 12.5762C26.0868 13.8892 26.0827 15.4302 26.0805 16.2067C26.0805 16.243 26.0804 16.2775 26.0804 16.3103C26.0804 17.6464 25.6262 18.6793 24.8652 19.4606C24.266 20.0759 23.5053 20.4841 23.0108 20.7495C22.9634 20.7749 22.9184 20.7991 22.8763 20.822C22.2899 21.1403 22.0041 21.328 21.8193 21.5451C21.6972 21.6886 21.5331 21.9436 21.5331 22.5852C21.5331 23.5678 20.7365 24.3644 19.7539 24.3644C18.7713 24.3644 17.9747 23.5678 17.9747 22.5852C17.9747 21.197 18.379 20.0971 19.1095 19.2388C19.7756 18.4561 20.6241 17.9956 21.1746 17.6968L21.1788 17.6945C21.834 17.3389 22.1202 17.179 22.316 16.9779C22.4077 16.8838 22.5219 16.7513 22.5219 16.3103C22.5219 15.3854 22.4748 14.8823 22.2506 14.5446C22.1394 14.3772 21.7063 13.8353 19.7539 13.8353C18.4588 13.8353 18.0507 14.2768 17.861 14.5735Z" fill="#F2EFED" stroke="#413930" stroke-linecap="round" stroke-linejoin="round"/>
<circle cx="19.5832" cy="27.6934" r="2.02975" fill="#F2EFED" stroke="#413930"/>
</svg>
