<svg width="40" height="40" viewBox="0 0 40 40" fill="none" xmlns="http://www.w3.org/2000/svg">
<circle cx="20" cy="20" r="13.3" fill="#EEF4FF" stroke="#413930" stroke-width="1.4"/>
<path d="M29.5205 19.1337C29.5205 23.4142 25.3078 27.0907 19.8322 27.0907C18.2959 27.0907 16.847 26.7966 15.5612 26.2761C15.2485 26.1495 14.9586 26.2467 14.8342 26.2957C14.6804 26.3564 14.5336 26.4454 14.4108 26.5282C14.209 26.6641 13.9868 26.8422 13.7819 27.0099C13.8348 26.7901 13.8866 26.5622 13.9181 26.3656C13.9393 26.2324 13.9583 26.0731 13.9512 25.9212C13.9476 25.8452 13.9363 25.7392 13.8977 25.6265C13.8593 25.5145 13.7757 25.3444 13.5938 25.2184C11.4548 23.7365 10.1438 21.5419 10.1438 19.1337C10.1438 14.8533 14.3565 11.1768 19.8322 11.1768C25.3078 11.1768 29.5205 14.8533 29.5205 19.1337Z" fill="#5E91FF" stroke="#413930" stroke-width="1.4"/>
<circle cx="14.927" cy="19.4223" r="1.44282" fill="#F2EFED"/>
<circle cx="20.1213" cy="19.4223" r="1.44282" fill="#F2EFED"/>
<circle cx="25.3151" cy="19.4223" r="1.44282" fill="#F2EFED"/>
<circle cx="11" cy="8" r="3" fill="#F15D22"/>
</svg>
