<svg width="40" height="40" viewBox="0 0 40 40" fill="none" xmlns="http://www.w3.org/2000/svg">
<path d="M12.6952 15.1877L14.7368 25.9514C15.56 30.2916 19.7466 33.1468 24.0878 32.3287C28.429 31.5106 31.2808 27.3289 30.4576 22.9886L29.3731 17.2705C29.0833 15.7429 27.6097 14.7379 26.0817 15.0258L25.5604 12.2774C25.2277 10.5234 23.5358 9.36956 21.7814 9.70019L21.6608 9.06454C21.4998 8.21582 20.6812 7.6575 19.8323 7.81748C18.9834 7.97747 18.4257 8.79517 18.5867 9.64389L18.8326 10.9404C18.6475 9.96469 17.7063 9.32281 16.7304 9.50674C15.7544 9.69066 15.1133 10.6308 15.2984 11.6065L15.8644 14.5904C15.6984 13.7155 14.8544 13.1399 13.9793 13.3048C13.1042 13.4698 12.5293 14.3127 12.6952 15.1877Z" fill="#413930"/>
<path d="M8.05387 18.1563L11.7604 28.474C13.2535 32.6305 17.8358 34.7963 21.9953 33.3117C26.1548 31.827 28.3163 27.254 26.8231 23.0975L24.8531 17.6136C24.3275 16.1506 22.7146 15.3883 21.2506 15.9109L19.1215 11.5878C18.5469 10.4211 16.9394 10.2758 16.1678 11.3209L15.9488 10.7111C15.6568 9.89837 14.7607 9.47484 13.9474 9.76516C13.134 10.0555 12.7113 10.9497 13.0033 11.7625L13.4495 13.0046C13.1139 12.0702 12.0837 11.5833 11.1486 11.9171C10.2135 12.2509 9.72758 13.2789 10.0633 14.2133L11.0904 17.0725C10.7894 16.2346 9.86561 15.798 9.02711 16.0972C8.1886 16.3965 7.75287 17.3184 8.05387 18.1563Z" fill="#F15D22"/>
<path d="M19.2617 19.9333L16.1678 11.3209M16.1678 11.3209L15.9488 10.7111C15.6568 9.89837 14.7607 9.47484 13.9474 9.76516V9.76516C13.134 10.0555 12.7113 10.9497 13.0033 11.7625L16.3162 20.9846L13.4495 13.0046C13.1139 12.0702 12.0837 11.5833 11.1486 11.9171V11.9171C10.2135 12.2509 9.72758 13.2789 10.0633 14.2133L12.93 22.1933L11.0904 17.0725C10.7894 16.2346 9.86561 15.798 9.02711 16.0972V16.0972C8.1886 16.3965 7.75287 17.3184 8.05387 18.1563L11.7604 28.474C13.2535 32.6305 17.8358 34.7963 21.9953 33.3117V33.3117C26.1548 31.827 28.3163 27.254 26.8231 23.0975L24.8531 17.6136C24.3275 16.1506 22.7146 15.3883 21.2506 15.9109V15.9109M16.1678 11.3209V11.3209C16.9394 10.2758 18.5469 10.4211 19.1215 11.5878L21.2506 15.9109M23.2897 21.5872L21.2506 15.9109" stroke="#413930" stroke-linecap="round" stroke-linejoin="round"/>
<path d="M25.354 9.67026L26.4041 7.20694" stroke="#413930" stroke-linecap="round" stroke-linejoin="round"/>
<path d="M26.5877 11.0944L28.8612 9.67034" stroke="#413930" stroke-linecap="round" stroke-linejoin="round"/>
<path d="M27.5639 13.1527L30.1586 12.4642" stroke="#413930" stroke-linecap="round" stroke-linejoin="round"/>
</svg>
