<svg width="40" height="40" viewBox="0 0 40 40" fill="none" xmlns="http://www.w3.org/2000/svg">
<rect x="7.5" y="7.5" width="11" height="11" rx="0.5" fill="#F2EFED" stroke="#413930"/>
<rect x="7.5" y="21.5" width="11" height="11" rx="0.5" fill="#F2EFED" stroke="#413930"/>
<rect x="21.5" y="7.5" width="11" height="11" rx="0.5" fill="#5E91FF" stroke="#413930"/>
<rect x="21.5" y="21.5" width="11" height="11" rx="0.5" fill="#F2EFED" stroke="#413930"/>
<path d="M13.8127 9.36621V16.5H12.636V10.7627L10.8928 11.3535V10.3818L13.6711 9.36621H13.8127Z" fill="#413930"/>
<path d="M29.8672 15.5625V16.5H25.1016V15.6943L27.416 13.1699C27.6699 12.8835 27.8701 12.6361 28.0166 12.4277C28.1631 12.2194 28.2656 12.0322 28.3242 11.8662C28.3861 11.6969 28.417 11.5326 28.417 11.373C28.417 11.1484 28.3747 10.9515 28.29 10.7822C28.2087 10.6097 28.0882 10.4746 27.9287 10.377C27.7692 10.276 27.5755 10.2256 27.3477 10.2256C27.084 10.2256 26.8626 10.2826 26.6836 10.3965C26.5046 10.5104 26.3695 10.6683 26.2783 10.8701C26.1872 11.0687 26.1416 11.2965 26.1416 11.5537H24.9648C24.9648 11.1403 25.0592 10.7627 25.248 10.4209C25.4368 10.0758 25.7103 9.80241 26.0684 9.60059C26.4264 9.39551 26.8577 9.29297 27.3623 9.29297C27.8376 9.29297 28.2412 9.37272 28.5732 9.53223C28.9053 9.69173 29.1576 9.91797 29.3301 10.2109C29.5059 10.5039 29.5938 10.8506 29.5938 11.251C29.5938 11.4723 29.5579 11.6921 29.4863 11.9102C29.4147 12.1283 29.3122 12.3464 29.1787 12.5645C29.0485 12.7793 28.8939 12.9958 28.7148 13.2139C28.5358 13.4287 28.3389 13.6468 28.124 13.8682L26.5859 15.5625H29.8672Z" fill="#F2EFED"/>
<path d="M11.9817 26.4131H12.6848C12.9583 26.4131 13.1845 26.3659 13.3635 26.2715C13.5458 26.1771 13.6809 26.0469 13.7688 25.8809C13.8567 25.7148 13.9006 25.5244 13.9006 25.3096C13.9006 25.085 13.8599 24.8929 13.7786 24.7334C13.7004 24.5706 13.58 24.4453 13.4172 24.3574C13.2577 24.2695 13.0543 24.2256 12.8069 24.2256C12.5986 24.2256 12.4097 24.2679 12.2405 24.3525C12.0745 24.4339 11.9426 24.5511 11.845 24.7041C11.7473 24.8538 11.6985 25.0329 11.6985 25.2412H10.5168C10.5168 24.8636 10.6161 24.5283 10.8147 24.2354C11.0133 23.9424 11.2834 23.7129 11.6252 23.5469C11.9703 23.3776 12.3577 23.293 12.7874 23.293C13.2463 23.293 13.6467 23.3695 13.9885 23.5225C14.3336 23.6722 14.6021 23.8968 14.7942 24.1963C14.9862 24.4958 15.0823 24.8669 15.0823 25.3096C15.0823 25.5114 15.0351 25.7165 14.9407 25.9248C14.8463 26.1331 14.7063 26.3236 14.5208 26.4961C14.3352 26.6654 14.1041 26.8037 13.8274 26.9111C13.5507 27.0153 13.2301 27.0674 12.8655 27.0674H11.9817V26.4131ZM11.9817 27.3311V26.6865H12.8655C13.2821 26.6865 13.637 26.7354 13.9299 26.833C14.2262 26.9307 14.467 27.0658 14.6526 27.2383C14.8381 27.4076 14.9732 27.6012 15.0579 27.8193C15.1458 28.0374 15.1897 28.2686 15.1897 28.5127C15.1897 28.8447 15.1295 29.141 15.009 29.4014C14.8918 29.6585 14.7242 29.8766 14.5061 30.0557C14.288 30.2347 14.0325 30.3698 13.7395 30.4609C13.4498 30.5521 13.134 30.5977 12.7922 30.5977C12.4862 30.5977 12.1933 30.5553 11.9133 30.4707C11.6334 30.3861 11.3827 30.2607 11.1614 30.0947C10.94 29.9255 10.7642 29.7155 10.634 29.4648C10.5071 29.2109 10.4436 28.918 10.4436 28.5859H11.6204C11.6204 28.7975 11.6692 28.9847 11.7668 29.1475C11.8678 29.307 12.0077 29.4323 12.1868 29.5234C12.3691 29.6146 12.5774 29.6602 12.8118 29.6602C13.0592 29.6602 13.2724 29.6162 13.4514 29.5283C13.6305 29.4404 13.7672 29.3102 13.8616 29.1377C13.9592 28.9652 14.0081 28.7568 14.0081 28.5127C14.0081 28.236 13.9543 28.0114 13.8469 27.8389C13.7395 27.6663 13.5865 27.5394 13.3879 27.458C13.1894 27.3734 12.955 27.3311 12.6848 27.3311H11.9817Z" fill="#413930"/>
<path d="M29.5928 27.9658V28.9033H24.4658L24.4268 28.1953L27.4932 23.3906H28.4355L27.415 25.1387L25.6523 27.9658H29.5928ZM28.7041 23.3906V30.5H27.5273V23.3906H28.7041Z" fill="#413930"/>
</svg>
