<svg width="40" height="40" viewBox="0 0 40 40" fill="none" xmlns="http://www.w3.org/2000/svg">
<circle cx="20" cy="20" r="13.3" fill="#FEF7E9" stroke="#413930" stroke-width="1.4"/>
<path d="M10.8177 23.3307C9.47602 22.6599 14.3177 20.8307 15.3177 20.3307L19.8177 24.8307L12.8177 28.3307L13.8177 24.8307L10.8177 23.3307Z" fill="#5E91FF" stroke="#413930" stroke-width="1.4" stroke-linecap="round" stroke-linejoin="round"/>
<path d="M29.5847 23.3307C30.9263 22.6599 26.0847 20.8307 25.0847 20.3307L20.5847 24.8307L27.5847 28.3307L26.5847 24.8307L29.5847 23.3307Z" fill="#5E91FF" stroke="#413930" stroke-width="1.4" stroke-linecap="round" stroke-linejoin="round"/>
<path d="M23.2436 10.3252C23.5077 10.2828 23.7728 10.3945 23.9269 10.6131L25.3001 12.562C25.4338 12.7517 25.598 12.918 25.786 13.054L27.7178 14.4512C27.9345 14.6079 28.0429 14.8744 27.9973 15.1379L27.5902 17.487C27.5506 17.7156 27.5492 17.9493 27.586 18.1785L27.964 20.5324C28.0064 20.7964 27.8946 21.0615 27.676 21.2156L25.7271 22.5888C25.5374 22.7225 25.3712 22.8867 25.2351 23.0748L23.838 25.0065C23.6812 25.2232 23.4147 25.3317 23.1512 25.286L20.8022 24.879C20.5735 24.8393 20.3398 24.8379 20.1107 24.8747L17.7567 25.2527C17.4927 25.2951 17.2276 25.1833 17.0735 24.9647L15.7003 23.0159C15.5666 22.8261 15.4024 22.6599 15.2144 22.5239L13.2826 21.1267C13.0659 20.97 12.9575 20.7035 13.0031 20.44L13.4102 18.0909C13.4498 17.8622 13.4512 17.6285 13.4144 17.3994L12.7233 17.5104L13.4144 17.3994L13.0364 15.0455C12.994 14.7814 13.1058 14.5163 13.3244 14.3623L15.2733 12.989C15.463 12.8554 15.6292 12.6912 15.7652 12.5031L17.1624 10.5713C17.3192 10.3546 17.5856 10.2462 17.8491 10.2918L20.1982 10.6989C20.4269 10.7385 20.6606 10.74 20.8897 10.7032L23.2436 10.3252Z" fill="#F2EFED" stroke="#413930" stroke-width="1.4"/>
<path d="M20.5 14L21.7931 16.2202L24.3042 16.7639L22.5923 18.6798L22.8511 21.2361L20.5 20.2L18.1489 21.2361L18.4077 18.6798L16.6958 16.7639L19.2069 16.2202L20.5 14Z" fill="#FAB82B" stroke="#413930" stroke-width="1.4" stroke-linejoin="round"/>
<circle cx="11" cy="8" r="3" fill="#F15D22"/>
</svg>
