<svg width="40" height="40" viewBox="0 0 40 40" fill="none" xmlns="http://www.w3.org/2000/svg">
<circle cx="20" cy="20" r="13.5" fill="#FAB82B" stroke="#413930"/>
<path d="M10.8177 23.3307C9.47602 22.6599 14.3177 20.8307 15.3177 20.3307L19.8177 24.8307L12.8177 28.3307L13.8177 24.8307L10.8177 23.3307Z" fill="#5E91FF" stroke="#413930" stroke-linecap="round" stroke-linejoin="round"/>
<path d="M29.5847 23.3307C30.9263 22.6599 26.0847 20.8307 25.0847 20.3307L20.5847 24.8307L27.5847 28.3307L26.5847 24.8307L29.5847 23.3307Z" fill="#5E91FF" stroke="#413930" stroke-linecap="round" stroke-linejoin="round"/>
<path d="M15.2124 12.7871L14.9244 12.3784L15.2124 12.7871C15.3479 12.6916 15.4667 12.5743 15.5638 12.44L17.1465 10.2518C17.2584 10.097 17.4488 10.0195 17.637 10.0521L20.2979 10.5132C20.4613 10.5415 20.6282 10.5426 20.7918 10.5163L20.7126 10.0226L20.7918 10.5163L23.4583 10.0881C23.6469 10.0578 23.8362 10.1376 23.9463 10.2938L25.5018 12.5014C25.5973 12.6369 25.7146 12.7556 25.8489 12.8528L28.0371 14.4355C28.1919 14.5474 28.2693 14.7378 28.2367 14.926L27.7756 17.5869C27.7473 17.7502 27.7463 17.9171 27.7726 18.0808L28.2008 20.7472C28.2311 20.9358 28.1512 21.1252 27.9951 21.2352L25.7875 22.7908C25.652 22.8862 25.5332 23.0035 25.4361 23.1379L23.8534 25.3261C23.7415 25.4808 23.5511 25.5583 23.3629 25.5257L20.702 25.0646C20.5386 25.0363 20.3717 25.0353 20.2081 25.0616L17.5416 25.4898C17.353 25.52 17.1637 25.4402 17.0536 25.2841L15.4981 23.0765C15.4026 22.941 15.2853 22.8222 15.151 22.7251L12.9628 21.1424C12.808 21.0304 12.7306 20.8401 12.7632 20.6519L13.2243 17.991C13.2526 17.8276 13.2536 17.6607 13.2273 17.497L12.7991 14.8306C12.7688 14.642 12.8487 14.4526 13.0048 14.3426L15.2124 12.7871Z" fill="#F2EFED" stroke="#413930"/>
<path d="M20.5 14L21.7931 16.2202L24.3042 16.7639L22.5923 18.6798L22.8511 21.2361L20.5 20.2L18.1489 21.2361L18.4077 18.6798L16.6958 16.7639L19.2069 16.2202L20.5 14Z" fill="#FAB82B" stroke="#413930" stroke-linejoin="round"/>
<circle cx="11" cy="8" r="3" fill="#F15D22"/>
</svg>
