<svg width="40" height="40" viewBox="0 0 40 40" fill="none" xmlns="http://www.w3.org/2000/svg">
<path d="M10.5878 24.2313L10.541 24.4622C11.2405 24.6055 11.9522 24.6772 12.6664 24.676C12.6665 24.676 12.6665 24.676 12.6666 24.676L10.5878 24.2313ZM10.5878 24.2313L10.5398 24.462C10.3913 24.4311 10.2371 24.482 10.1367 24.5945L10.1359 24.5955C10.0349 24.708 10.0014 24.8658 10.049 25.0115C10.8982 27.589 12.631 29.7852 14.9391 31.2108L14.9391 31.2109C17.2487 32.6378 19.9871 33.2043 22.6736 32.8107C25.3585 32.4171 27.8199 31.0877 29.6215 29.0577L29.6217 29.0575C31.4243 27.0288 32.4532 24.4277 32.5263 21.7148C32.5995 19.0004 31.7136 16.3483 30.024 14.2242C28.3345 12.1002 25.9489 10.6401 23.2894 10.1012C23.1409 10.0716 22.9874 10.1239 22.8879 10.2371L22.8878 10.2372C22.7869 10.352 22.7551 10.51 22.8033 10.6541C23.1667 11.7311 23.349 12.8612 23.3454 13.997C23.3454 13.9973 23.3454 13.9976 23.3454 13.9979L10.5878 24.2313Z" fill="#5E91FF" stroke="#413930"/>
<path d="M17.2916 9.49237C17.3169 9.49754 17.3421 9.5027 17.3673 9.50785C17.3421 9.513 17.3169 9.51817 17.2917 9.52334C15.464 9.89115 14.037 11.318 13.6692 13.1445C13.664 13.1698 13.6588 13.1951 13.6537 13.2203C13.6485 13.1951 13.6434 13.1699 13.6382 13.1447C13.2703 11.3181 11.8434 9.89115 10.0158 9.52337C9.99062 9.51819 9.96543 9.51301 9.94024 9.50785C9.96542 9.5027 9.99061 9.49753 10.0158 9.49235C11.8435 9.12445 13.2704 7.69752 13.6382 5.8699C13.6434 5.84467 13.6485 5.81944 13.6537 5.79423C13.6588 5.81942 13.664 5.84464 13.6692 5.86986C14.037 7.69761 15.464 9.12461 17.2916 9.49237ZM9.91618 9.00237C9.50789 9.08633 9.10074 9.16684 8.73729 9.23815L13.1482 5.77037C12.8204 7.40127 11.5472 8.67446 9.91618 9.00237Z" fill="#5E91FF" stroke="#413930"/>
<path d="M6.71662 20.9722C6.76962 20.7073 6.82453 20.4314 6.87641 20.1708C6.89829 20.0609 6.91963 19.9537 6.94006 19.8512C7.06346 19.2367 7.5428 18.7574 8.15725 18.634C8.5041 18.5651 8.9016 18.4859 9.27831 18.4105C9.4238 18.382 9.52902 18.2533 9.52772 18.1066C9.52902 17.9585 9.4238 17.8299 9.27831 17.8026C8.9016 17.7259 8.5041 17.6467 8.15725 17.5779L6.71662 20.9722ZM6.71662 20.9722C6.68804 21.1177 6.55944 21.2229 6.41265 21.2203C6.26457 21.2229 6.13596 21.1177 6.10868 20.9722C6.04011 20.6351 5.96945 20.2804 5.90602 19.9619L6.71662 20.9722ZM6.37438 16.4593C6.38662 16.3977 6.39919 16.3344 6.41201 16.27C6.42482 16.3344 6.43739 16.3977 6.44962 16.4593L6.44989 16.4607C6.61293 17.2707 7.24641 17.9066 8.0598 18.0683L8.05991 18.0683C8.12158 18.0805 8.18482 18.0931 8.24925 18.1059C8.1848 18.1187 8.12155 18.1313 8.05991 18.1435L8.0588 18.1438C7.24674 18.3069 6.61294 18.9406 6.44984 19.7527L6.4497 19.7535C6.43743 19.815 6.42484 19.8782 6.41201 19.9427C6.40675 19.9163 6.40153 19.8901 6.39636 19.8641C6.38891 19.8267 6.38156 19.7898 6.37431 19.7535C6.2127 18.9406 5.57838 18.3068 4.76654 18.1438L4.76544 18.1435C4.70379 18.1313 4.64054 18.1187 4.57608 18.1059C4.64052 18.0931 4.70377 18.0805 4.76543 18.0683L4.76553 18.0683C5.57877 17.9067 6.21281 17.2707 6.37432 16.4597L6.37438 16.4593ZM6.22627 15.3374C6.22626 15.3373 6.22625 15.3373 6.22624 15.3372L6.22627 15.3374Z" fill="#5E91FF" stroke="#413930"/>
</svg>
