<svg width="40" height="40" viewBox="0 0 40 40" fill="none" xmlns="http://www.w3.org/2000/svg">
<path d="M30.8333 9.93588H25.4166L23.869 8.33331H16.1309L14.5833 9.93588H9.16663V13.141H30.8333M10.7142 30.1282C10.7142 30.9782 11.0403 31.7935 11.6208 32.3946C12.2013 32.9956 12.9886 33.3333 13.8095 33.3333H26.1904C27.0113 33.3333 27.7986 32.9956 28.3791 32.3946C28.9596 31.7935 29.2857 30.9782 29.2857 30.1282V15.7051H10.7142V30.1282Z" fill="#F15D22"/>
<path d="M30.8333 9.93588H25.4166L23.869 8.33331H16.1309L14.5833 9.93588H9.16663V13.141H30.8333V9.93588ZM10.7142 30.1282C10.7142 30.9782 11.0403 31.7935 11.6208 32.3946C12.2013 32.9956 12.9886 33.3333 13.8095 33.3333H26.1904C27.0113 33.3333 27.7986 32.9956 28.3791 32.3946C28.9596 31.7935 29.2857 30.9782 29.2857 30.1282V15.7051H10.7142V30.1282Z" stroke="#413930"/>
</svg>
