<svg width="40" height="40" viewBox="0 0 40 40" fill="none" xmlns="http://www.w3.org/2000/svg">
<g clip-path="url(#clip0_497_294)">
<path d="M15.6474 29.4011L15.6719 29.3257V29.2463V23.5079C15.6719 23.2317 15.8958 23.0079 16.1719 23.0079H19.9999H23.8278C24.1039 23.0079 24.3278 23.2317 24.3278 23.5079V29.2463V29.3257L24.3523 29.4011L29.121 44.0521C29.144 44.1227 29.1557 44.1966 29.1557 44.2709V64.0623C29.1557 64.4529 28.8391 64.7695 28.4485 64.7695H11.5512C11.1606 64.7695 10.844 64.4529 10.844 64.0623V44.2709C10.844 44.1966 10.8557 44.1227 10.8787 44.0521L15.6474 29.4011Z" fill="#F2EFED" stroke="#534C44"/>
<path d="M18.0206 17.1155L17.2412 22.5079H22.7588L21.9795 17.1155C21.6492 14.8303 18.3509 14.8303 18.0206 17.1155Z" fill="#534C44"/>
</g>
<defs>
<clipPath id="clip0_497_294">
<rect width="40" height="40" fill="white"/>
</clipPath>
</defs>
</svg>
