<svg width="40" height="40" viewBox="0 0 40 40" fill="none" xmlns="http://www.w3.org/2000/svg">
<circle cx="23.5743" cy="13.8448" r="6.64804" fill="#5E91FF" stroke="#413930"/>
<path d="M31.4122 25.4653C33.3728 27.4259 34.5231 30.0454 34.6475 32.8033L12.501 32.8033C12.6254 30.0454 13.7757 27.4259 15.7363 25.4653C17.8151 23.3866 20.6345 22.2187 23.5743 22.2188C26.5141 22.2188 29.3335 23.3866 31.4122 25.4653Z" fill="#5E91FF" stroke="#413930"/>
<circle cx="16.4259" cy="13.8448" r="6.64804" fill="#5E91FF" stroke="#413930"/>
<path d="M24.2638 25.4653C26.2244 27.4259 27.3747 30.0454 27.4991 32.8033L5.35258 32.8033C5.47701 30.0454 6.62729 27.4259 8.58789 25.4653C10.6666 23.3866 13.486 22.2187 16.4258 22.2188C19.3656 22.2188 22.185 23.3866 24.2638 25.4653Z" fill="#5E91FF" stroke="#413930"/>
<path d="M12.6367 13.787C12.6367 14.2585 13.8573 16.2792 16.4004 16.2792C18.4349 16.2792 20.2151 14.7323 20.2151 13.787" stroke="#413930" stroke-linecap="round"/>
</svg>
