<svg width="40" height="40" viewBox="0 0 40 40" fill="none" xmlns="http://www.w3.org/2000/svg">
<rect x="8.5" y="7.83313" width="18.5368" height="18.5368" rx="0.5" fill="#F15D22" stroke="#413930"/>
<mask id="path-2-inside-1_497_139" fill="white">
<path fill-rule="evenodd" clip-rule="evenodd" d="M33 14.6876C33 13.8332 31.9979 13.3723 31.3492 13.9283L12.5191 30.0685C11.8142 30.6727 12.2414 31.8277 13.1699 31.8277L32 31.8277C32.5523 31.8277 33 31.38 33 30.8277L33 14.6876ZM28.7079 27.5355L28.7079 22.1704L22.2698 27.5355H28.7079Z"/>
</mask>
<path fill-rule="evenodd" clip-rule="evenodd" d="M33 14.6876C33 13.8332 31.9979 13.3723 31.3492 13.9283L12.5191 30.0685C11.8142 30.6727 12.2414 31.8277 13.1699 31.8277L32 31.8277C32.5523 31.8277 33 31.38 33 30.8277L33 14.6876ZM28.7079 27.5355L28.7079 22.1704L22.2698 27.5355H28.7079Z" fill="#F2EFED"/>
<path d="M31.3492 13.9283L32 14.6876V14.6876L31.3492 13.9283ZM33 14.6876H32V14.6876L33 14.6876ZM12.5191 30.0685L13.1698 30.8277H13.1698L12.5191 30.0685ZM33 30.8277H34H33ZM28.7079 22.1704L29.7079 22.1704C29.7079 21.7824 29.4834 21.4294 29.132 21.2648C28.7807 21.1003 28.3658 21.1538 28.0677 21.4022L28.7079 22.1704ZM28.7079 27.5355V28.5355C28.9731 28.5355 29.2275 28.4302 29.415 28.2426C29.6025 28.0551 29.7079 27.8007 29.7079 27.5355L28.7079 27.5355ZM22.2698 27.5355L21.6296 26.7673C21.3062 27.0368 21.1862 27.4801 21.3295 27.8759C21.4728 28.2718 21.8488 28.5355 22.2698 28.5355V27.5355ZM32 14.6876L32 14.6876H34C34 12.9789 31.9958 12.0571 30.6984 13.1691L32 14.6876ZM13.1698 30.8277L32 14.6876L30.6984 13.1691L11.8683 29.3092L13.1698 30.8277ZM13.1699 30.8277H13.1698L11.8683 29.3092C10.4585 30.5176 11.313 32.8277 13.1699 32.8277V30.8277ZM32 30.8277L13.1699 30.8277V32.8277H32V30.8277ZM32 30.8277V30.8277V32.8277C33.1046 32.8277 34 31.9323 34 30.8277H32ZM32 14.6876L32 30.8277H34L34 14.6876L32 14.6876ZM27.7079 22.1704L27.7079 27.5355L29.7079 27.5355L29.7079 22.1704L27.7079 22.1704ZM22.91 28.3037L29.3481 22.9386L28.0677 21.4022L21.6296 26.7673L22.91 28.3037ZM28.7079 26.5355H22.2698V28.5355H28.7079V26.5355Z" fill="#413930" mask="url(#path-2-inside-1_497_139)"/>
</svg>
