<svg width="40" height="40" viewBox="0 0 40 40" fill="none" xmlns="http://www.w3.org/2000/svg">
<path d="M33.5205 16.887C35.0049 16.8884 36.2096 18.0917 36.211 19.5775V20.1946V20.1932C36.2096 21.679 35.0049 22.8823 33.5205 22.8837H32.462C32.0487 22.8837 31.7127 22.5491 31.7127 22.1345V19.8854C31.7156 17.0135 30.6191 14.25 28.6484 12.161C26.6776 10.0722 23.9828 8.8155 21.1166 8.64964C18.2489 8.48377 15.4276 9.42135 13.2292 11.2698C11.0321 13.1183 9.6249 15.7371 9.29599 18.5893C8.96706 21.4415 9.7416 24.3117 11.4621 26.6116C13.1813 28.9113 15.7157 30.466 18.5456 30.9565C18.8267 30.5952 19.2597 30.383 19.7179 30.3816H21.2178H21.2164C22.0443 30.3816 22.7163 31.0521 22.7163 31.88C22.7163 32.708 22.0443 33.3799 21.2164 33.3799H19.7179C19.1064 33.3785 18.5568 33.006 18.3291 32.4395C15.8761 32.0206 13.5988 30.8918 11.78 29.1938C9.96133 27.4957 8.67909 25.303 8.09296 22.8837H7.41401C5.9282 22.8823 4.72491 21.679 4.72351 20.1932V19.5761V19.5775C4.72492 18.0917 5.9282 16.8884 7.41401 16.887H8.09296C8.9926 13.1564 11.5271 10.0299 14.9907 8.3782C18.4557 6.72794 22.4789 6.72794 25.944 8.3782C29.4076 10.0299 31.9421 13.156 32.8417 16.887H33.5205Z" fill="#F2EFED" stroke="#413930"/>
<circle cx="20.4673" cy="20" r="7.97833" fill="#F15D22" stroke="#413930"/>
</svg>
