<svg width="40" height="40" viewBox="0 0 40 40" fill="none" xmlns="http://www.w3.org/2000/svg">
<path d="M27.7498 20.388C28.1186 19.5141 30.1841 15.9063 31.2367 18.5459C32.0422 20.5656 31.2026 29.1423 26.1363 32.6021C24.5814 33.664 21.4324 33.3625 19.3316 33.3625C10.3859 33.3625 11.7979 27.7683 10.3859 21.3052C9.45943 15.7693 9.18035 12.7041 10.3859 12.1264C12.993 10.8772 14.5125 17.7063 14.5313 16.706C14.5586 15.2504 14.9772 11.3307 14.9772 8.96011C14.9772 4.96718 18.7908 6.59028 18.7907 9.93927C18.8535 10.9127 19.1786 17.42 19.3316 15.9063C19.4299 14.934 19.2347 8.65996 20.4397 6.64104C21.6447 4.62211 24.614 6.64103 23.6391 15.1864C23.639 21.1575 23.4481 7.49311 26.9149 8.67733C30.3818 9.86156 26.6218 23.0618 27.7498 20.388Z" fill="#FAB82B" stroke="#413930" stroke-linecap="round"/>
<path d="M16.2371 21.3945C18.8764 20.5898 22.0482 20.3583 24.2406 21.2061" stroke="#413930" stroke-linecap="round"/>
</svg>
