<svg width="40" height="40" viewBox="0 0 40 40" fill="none" xmlns="http://www.w3.org/2000/svg">
<g clip-path="url(#clip0_497_323)">
<path d="M17 5.86791C17 4.9705 17.9444 4.38682 18.7471 4.78816L21.5207 6.17498C21.9297 6.37948 22.1881 6.79749 22.1881 7.25474V13.5402C22.1881 14.2069 21.6476 14.7474 20.9809 14.7474H18.2072C17.5405 14.7474 17 14.2069 17 13.5402V5.86791Z" fill="#5E91FF"/>
<path d="M11.5 25.5872C11.5 25.458 11.5354 25.3312 11.6024 25.2206L11.1783 24.9636L11.6024 25.2206L16.2528 17.5475C16.4145 17.2807 16.5 16.9747 16.5 16.6627V12.19C16.5 11.7994 16.8166 11.4828 17.2072 11.4828H21.7928C22.1834 11.4828 22.5 11.7994 22.5 12.19V16.6627C22.5 16.9747 22.5855 17.2807 22.7472 17.5475L27.3976 25.2206L27.8252 24.9615L27.3976 25.2207C27.4646 25.3312 27.5 25.458 27.5 25.5872V40.2928C27.5 40.6834 27.1834 41 26.7928 41H12.2072C11.8166 41 11.5 40.6834 11.5 40.2928V25.5872Z" fill="#F2EFED" stroke="#534C44"/>
<rect x="12.0001" y="29" width="15" height="5" fill="#5E91FF"/>
</g>
<defs>
<clipPath id="clip0_497_323">
<rect width="40" height="40" fill="white"/>
</clipPath>
</defs>
</svg>
