<svg width="40" height="40" viewBox="0 0 40 40" fill="none" xmlns="http://www.w3.org/2000/svg">
<path d="M12.3268 32.2361C9.73971 29.7414 8.81492 24.8616 8.44756 22.1681C7.81311 17.5163 11.7336 16.7348 11.7851 16.7248C11.4587 13.9992 11.2945 11.3187 11.7856 10.6317C12.8691 9.11588 14.743 9.08459 15.4325 9.24219C16.122 9.39979 16.4432 9.96475 16.5156 10.3246C16.6198 9.89343 16.9575 8.90177 17.4748 8.38438C18.1216 7.73765 19.9631 7.66092 20.8576 7.85149C21.4175 7.97077 21.8051 9.19165 22.0497 10.5847C22.0571 10.2496 22.1451 8.22452 23.201 7.93076C23.9546 7.72107 25.3813 7.54304 25.9706 8.2778C26.3121 8.70368 26.57 9.32002 26.7643 9.99696C27.4093 9.38432 28.852 8.85347 30.3198 11.1601C31.8674 13.5919 34.2011 27.709 28.3805 32.2361C26.4403 33.7452 15.0355 34.848 12.3268 32.2361Z" fill="#F2EFED"/>
<path d="M12.3268 32.2361L11.9798 32.596L12.3268 32.2361ZM8.44756 22.1681L7.95215 22.2357L8.44756 22.1681ZM11.7856 16.7247L12.2798 16.6486C12.2592 16.5146 12.185 16.3947 12.0743 16.3164C11.9636 16.2381 11.8258 16.2082 11.6926 16.2334L11.7856 16.7247ZM12.8083 23.3652L12.3169 23.4575C12.3673 23.7257 12.6235 23.904 12.8925 23.8581C13.1616 23.8121 13.344 23.5589 13.3025 23.2891L12.8083 23.3652ZM11.7856 10.6317L11.3789 10.3409L11.7856 10.6317ZM30.3198 11.1601L30.7416 10.8916V10.8916L30.3198 11.1601ZM28.3805 32.2361L28.0736 31.8414L28.3805 32.2361ZM16.5156 10.3246L16.0255 10.4233V10.4233L16.5156 10.3246ZM16.6263 15.1141C16.6263 15.3902 16.8501 15.6141 17.1263 15.6141C17.4024 15.6141 17.6263 15.3902 17.6263 15.1141H16.6263ZM17.4748 8.38438L17.8284 8.73794V8.73794L17.4748 8.38438ZM20.8576 7.85149L20.7534 8.34052L20.8576 7.85149ZM21.8848 14.2166C21.8848 14.4927 22.1086 14.7166 22.3848 14.7166C22.6609 14.7166 22.8848 14.4927 22.8848 14.2166H21.8848ZM23.201 7.93076L23.0669 7.44905V7.44905L23.201 7.93076ZM25.9706 8.2778L25.5805 8.59062L25.5805 8.59062L25.9706 8.2778ZM26.844 14.2166C26.844 14.4927 27.0679 14.7166 27.344 14.7166C27.6202 14.7166 27.844 14.4927 27.844 14.2166H26.844ZM12.6739 31.8762C11.4677 30.7131 10.6214 28.9615 10.0308 27.1237C9.44315 25.2952 9.12491 23.4346 8.94297 22.1006L7.95215 22.2357C8.13757 23.5952 8.4654 25.5212 9.07877 27.4297C9.68914 29.3288 10.5989 31.2645 11.9798 32.596L12.6739 31.8762ZM8.94297 22.1006C8.64901 19.9452 9.4044 18.7545 10.1846 18.0853C10.9956 17.3898 11.889 17.2139 11.881 17.2155L11.6893 16.234C11.6298 16.2457 10.5371 16.4656 9.53361 17.3263C8.49931 18.2133 7.61165 19.7392 7.95215 22.2357L8.94297 22.1006ZM11.8815 17.2154C11.8811 17.2155 11.8807 17.2156 11.8802 17.2157C11.88 17.2157 11.8797 17.2157 11.8795 17.2158C11.8793 17.2158 11.8792 17.2158 11.8791 17.2159C11.879 17.2159 11.879 17.2159 11.8789 17.2159C11.8789 17.2159 11.8788 17.2159 11.8788 17.2159C11.8788 17.2159 11.8788 17.2159 11.8787 17.2159C11.8787 17.2159 11.8787 17.2159 11.8787 17.2159C11.8787 17.2159 11.8787 17.2159 11.8787 17.2159C11.8787 17.2159 11.8787 17.2159 11.8787 17.2159C11.8787 17.2159 11.8787 17.2159 11.7856 16.7247C11.6926 16.2334 11.6926 16.2334 11.6926 16.2334C11.6926 16.2334 11.6926 16.2334 11.6926 16.2334C11.6926 16.2334 11.6926 16.2334 11.6926 16.2334C11.6925 16.2334 11.6925 16.2334 11.6925 16.2334C11.6925 16.2334 11.6925 16.2334 11.6925 16.2334C11.6924 16.2334 11.6924 16.2334 11.6924 16.2334C11.6923 16.2335 11.6922 16.2335 11.6922 16.2335C11.692 16.2335 11.6919 16.2335 11.6917 16.2336C11.6914 16.2336 11.6911 16.2337 11.6908 16.2337C11.6902 16.2339 11.6895 16.234 11.6888 16.2341L11.8815 17.2154ZM11.2915 16.8008L12.3141 23.4413L13.3025 23.2891L12.2798 16.6486L11.2915 16.8008ZM12.8083 23.3652C13.2997 23.2729 13.2997 23.2729 13.2997 23.2729C13.2997 23.2729 13.2997 23.2729 13.2997 23.2728C13.2997 23.2728 13.2997 23.2726 13.2996 23.2725C13.2996 23.2721 13.2995 23.2715 13.2993 23.2707C13.299 23.2692 13.2986 23.2669 13.298 23.2637C13.2968 23.2574 13.2951 23.248 13.2927 23.2355C13.2881 23.2105 13.2812 23.1732 13.2723 23.1246C13.2545 23.0272 13.2285 22.8842 13.196 22.7022C13.1312 22.3382 13.0405 21.8184 12.9376 21.1962C12.7317 19.951 12.4772 18.2989 12.2816 16.6653L11.2887 16.7842C11.4867 18.4381 11.7438 20.1062 11.951 21.3594C12.0547 21.9863 12.1461 22.5102 12.2116 22.8776C12.2443 23.0614 12.2706 23.206 12.2887 23.3049C12.2977 23.3543 12.3048 23.3923 12.3095 23.418C12.3119 23.4308 12.3138 23.4406 12.315 23.4472C12.3156 23.4506 12.3161 23.4531 12.3164 23.4548C12.3166 23.4556 12.3167 23.4563 12.3168 23.4567C12.3168 23.457 12.3168 23.4571 12.3169 23.4573C12.3169 23.4573 12.3169 23.4574 12.3169 23.4574C12.3169 23.4574 12.3169 23.4575 12.8083 23.3652ZM12.2816 16.6653C12.1191 15.3086 11.9987 13.9764 11.9787 12.9045C11.9687 12.3676 11.9842 11.9093 12.0286 11.552C12.0759 11.172 12.1476 10.9852 12.1924 10.9224L11.3789 10.3409C11.1781 10.6217 11.0862 11.0276 11.0363 11.4286C10.9836 11.8523 10.9685 12.3633 10.9789 12.9231C10.9998 14.0446 11.1247 15.4154 11.2887 16.7842L12.2816 16.6653ZM29.898 11.4285C30.2304 11.9509 30.653 13.2073 30.9978 14.9401C31.3376 16.648 31.589 18.7513 31.6133 20.918C31.6376 23.087 31.4341 25.3001 30.8763 27.2367C30.3176 29.1761 29.4158 30.7975 28.0736 31.8414L28.6875 32.6308C30.2556 31.4112 31.2447 29.5703 31.8372 27.5135C32.4305 25.4539 32.6382 23.1369 32.6132 20.9068C32.5882 18.6743 32.3297 16.5094 31.9786 14.7449C31.6324 13.0054 31.183 11.5852 30.7416 10.8916L29.898 11.4285ZM28.0736 31.8414C27.8984 31.9777 27.5722 32.1385 27.0851 32.3027C26.6086 32.4633 26.0154 32.615 25.3372 32.7496C23.9812 33.0188 22.3151 33.2139 20.6218 33.2819C18.9269 33.3499 17.2223 33.29 15.7852 33.0567C14.3224 32.8192 13.2345 32.4167 12.6739 31.8762L11.9798 32.596C12.7735 33.3614 14.1269 33.8006 15.625 34.0438C17.1487 34.2911 18.9244 34.3509 20.6619 34.2811C22.4009 34.2112 24.1191 34.0109 25.5319 33.7305C26.238 33.5903 26.8753 33.4287 27.4045 33.2503C27.923 33.0755 28.3776 32.8718 28.6875 32.6308L28.0736 31.8414ZM12.1924 10.9224C12.6507 10.2812 13.2774 9.94909 13.8814 9.79363C14.4954 9.63562 15.0554 9.66888 15.3211 9.72962L15.5439 8.75476C15.1202 8.6579 14.3984 8.62801 13.6322 8.82519C12.8561 9.02492 12.004 9.46632 11.3789 10.3409L12.1924 10.9224ZM15.3211 9.72962C15.7701 9.83225 15.9809 10.2019 16.0255 10.4233L17.0058 10.2259C16.9054 9.72764 16.4739 8.96732 15.5439 8.75476L15.3211 9.72962ZM16.0255 10.4233C16.3358 11.9643 16.6263 14.1847 16.6263 15.1141H17.6263C17.6263 14.0853 17.3204 11.7884 17.0058 10.2259L16.0255 10.4233ZM17.0016 10.442C17.0471 10.254 17.1481 9.92684 17.2975 9.58909C17.4501 9.24412 17.6339 8.9324 17.8284 8.73794L17.1213 8.03083C16.7984 8.35376 16.5546 8.79656 16.383 9.18455C16.2082 9.57976 16.0884 9.96398 16.0296 10.2072L17.0016 10.442ZM17.8284 8.73794C17.9151 8.65124 18.0722 8.55688 18.3126 8.47446C18.5473 8.39399 18.8292 8.33583 19.1312 8.30058C19.7415 8.22937 20.3695 8.25873 20.7534 8.34052L20.9618 7.36246C20.4511 7.25368 19.7111 7.22613 19.0153 7.30732C18.6644 7.34828 18.3087 7.41865 17.9883 7.52851C17.6736 7.63641 17.358 7.79416 17.1213 8.03083L17.8284 8.73794ZM20.7534 8.34052C20.7321 8.33597 20.769 8.33445 20.8509 8.43979C20.9299 8.54149 21.0179 8.70143 21.1076 8.92594C21.2863 9.37333 21.4373 9.98785 21.5573 10.6712L22.5422 10.4983C22.4176 9.78853 22.2524 9.09607 22.0362 8.55493C21.9285 8.28517 21.7993 8.03046 21.6405 7.82616C21.4846 7.62551 21.2631 7.42664 20.9618 7.36246L20.7534 8.34052ZM21.5573 10.6712C21.7838 11.9611 21.8848 13.4059 21.8848 14.2166H22.8848C22.8848 13.3496 22.779 11.8469 22.5422 10.4983L21.5573 10.6712ZM30.7416 10.8916C29.9625 9.66727 29.1225 9.09228 28.2962 8.98775C27.4785 8.88431 26.8143 9.25988 26.42 9.63446L27.1087 10.3595C27.3593 10.1214 27.7389 9.92522 28.1707 9.97985C28.594 10.0334 29.2093 10.3463 29.898 11.4285L30.7416 10.8916ZM26.42 9.63446C26.376 9.67622 26.3347 9.71862 26.296 9.76123L27.0369 10.4328C27.0587 10.4088 27.0826 10.3842 27.1087 10.3595L26.42 9.63446ZM22.0491 10.6317C22.5491 10.6317 22.5491 10.6317 22.5491 10.6317C22.5491 10.6317 22.5491 10.6317 22.5491 10.6317C22.5491 10.6317 22.5491 10.6318 22.5491 10.6318C22.5491 10.6318 22.5491 10.6318 22.5491 10.6318C22.5491 10.6319 22.5491 10.6319 22.5491 10.632C22.5491 10.632 22.5491 10.6321 22.5491 10.6321C22.5491 10.6322 22.5491 10.6322 22.5491 10.6322C22.5491 10.6321 22.5491 10.6318 22.5491 10.6312C22.5491 10.6301 22.5491 10.6279 22.5491 10.6249C22.5492 10.6188 22.5493 10.6089 22.5496 10.5957L21.5499 10.5738C21.5495 10.591 21.5493 10.6046 21.5492 10.6144C21.5491 10.6192 21.5491 10.6231 21.5491 10.626C21.5491 10.6275 21.5491 10.6287 21.5491 10.6296C21.5491 10.6301 21.5491 10.6305 21.5491 10.6308C21.5491 10.631 21.5491 10.6311 21.5491 10.6313C21.5491 10.6313 21.5491 10.6314 21.5491 10.6315C21.5491 10.6315 21.5491 10.6315 21.5491 10.6316C21.5491 10.6316 21.5491 10.6316 21.5491 10.6316C21.5491 10.6316 21.5491 10.6316 21.5491 10.6316C21.5491 10.6316 21.5491 10.6316 22.0491 10.6317ZM22.5496 10.5957C22.553 10.4415 22.5757 9.89794 22.7155 9.37024C22.7854 9.10617 22.878 8.87246 22.9933 8.69868C23.1067 8.52776 23.2215 8.44404 23.335 8.41246L23.0669 7.44905C22.6525 7.56435 22.3603 7.84393 22.16 8.14581C21.9616 8.44483 21.8338 8.7934 21.7488 9.11422C21.5788 9.75628 21.5538 10.3928 21.5499 10.5738L22.5496 10.5957ZM23.335 8.41246C23.6777 8.31712 24.1691 8.23125 24.6273 8.24971C25.1043 8.26892 25.4232 8.39445 25.5805 8.59062L26.3606 7.96499C25.9287 7.42639 25.2396 7.27356 24.6675 7.25052C24.0767 7.22672 23.4779 7.33471 23.0669 7.44905L23.335 8.41246ZM25.5805 8.59062C25.8605 8.93976 26.0961 9.48114 26.2838 10.1349L27.2449 9.85899C27.0439 9.15889 26.7637 8.4676 26.3606 7.96499L25.5805 8.59062ZM26.2838 10.1349C26.7662 11.8153 26.844 13.9107 26.844 14.2166H27.844C27.844 13.8734 27.765 11.6705 27.2449 9.85899L26.2838 10.1349Z" fill="#413930"/>
</svg>
