<svg width="40" height="40" viewBox="0 0 40 40" fill="none" xmlns="http://www.w3.org/2000/svg">
<path d="M29.674 8.31244H10.3257C9.22111 8.31244 8.32568 9.20787 8.32568 10.3124V29.6876C8.32568 30.7921 9.22111 31.6876 10.3257 31.6876H24.0527C24.2679 31.6876 24.481 31.6575 24.6768 31.5684C26.998 30.5117 31.674 25.6725 31.674 25.1133V10.3124C31.674 9.20787 30.7786 8.31244 29.674 8.31244Z" fill="#F2EFED" stroke="#413930"/>
<path d="M24.3777 24.7123V32.017L28.7555 28.3646L31.674 24.7123H24.3777Z" fill="#413930"/>
<line x1="12.7036" y1="13.5536" x2="27.2963" y2="13.5536" stroke="#413930"/>
<line x1="12.7036" y1="17.5536" x2="27.2963" y2="17.5536" stroke="#413930"/>
<line x1="12.7036" y1="21.5536" x2="27.2963" y2="21.5536" stroke="#413930"/>
<line x1="12.7036" y1="25.5536" x2="20" y2="25.5536" stroke="#413930"/>
</svg>
