<svg width="40" height="40" viewBox="0 0 40 40" fill="none" xmlns="http://www.w3.org/2000/svg">
<path d="M26.1104 19.9997C26.1104 23.3746 23.3749 26.1101 20 26.1101C16.6251 26.1101 13.8896 23.3746 13.8896 19.9997C13.8896 16.6248 16.6251 13.8893 20 13.8893C23.3749 13.8893 26.1104 16.6248 26.1104 19.9997Z" fill="#FAB82B" stroke="#413930"/>
<path d="M21.1418 9.72361V6.29809C21.1418 5.66721 20.6309 5.15625 20 5.15625C19.3691 5.15625 18.8582 5.66721 18.8582 6.29809V9.72361C18.8582 10.3545 19.3691 10.8655 20 10.8655C20.6309 10.8655 21.1418 10.3545 21.1418 9.72361Z" fill="#FAB82B" stroke="#413930"/>
<path d="M21.1418 33.7023V30.2767C21.1418 29.6458 20.6309 29.1349 20 29.1349C19.3691 29.1349 18.8582 29.6458 18.8582 30.2767V33.7023C18.8582 34.3331 19.3691 34.8441 20 34.8441C20.6309 34.8441 21.1418 34.3331 21.1418 33.7023Z" fill="#FAB82B" stroke="#413930"/>
<path d="M33.7021 18.8582H30.2766C29.6457 18.8582 29.1348 19.3691 29.1348 20C29.1348 20.6309 29.6457 21.1418 30.2766 21.1418H33.7021C34.333 21.1418 34.844 20.6309 34.844 20C34.844 19.3691 34.333 18.8582 33.7021 18.8582Z" fill="#FAB82B" stroke="#413930"/>
<path d="M6.29785 21.1418H9.72337C10.3542 21.1418 10.8652 20.6309 10.8652 20C10.8652 19.3691 10.3542 18.8582 9.72337 18.8582H6.29785C5.66697 18.8582 5.15601 19.3691 5.15601 20C5.15601 20.6309 5.66697 21.1418 6.29785 21.1418Z" fill="#FAB82B" stroke="#413930"/>
<path d="M11.1192 9.50379C10.6711 9.07131 9.95884 9.07844 9.51781 9.51806C9.07821 9.95908 9.07105 10.6713 9.50354 11.1195L11.9257 13.5416V13.5402C12.3739 13.9741 13.0861 13.967 13.5271 13.5273C13.9667 13.0863 13.9739 12.3741 13.5399 11.9259L11.1192 9.50379Z" fill="#FAB82B" stroke="#413930"/>
<path d="M30.4965 28.8804L28.0744 26.4583V26.4597C27.6262 26.0258 26.914 26.033 26.473 26.4726C26.0334 26.9136 26.0262 27.6258 26.4601 28.074L28.8822 30.4961H28.8808C29.329 30.9286 30.0412 30.9215 30.4822 30.4819C30.9218 30.0408 30.929 29.3286 30.4965 28.8804Z" fill="#FAB82B" stroke="#413930"/>
<path d="M30.4965 9.50344C30.0497 9.0581 29.3275 9.0581 28.8808 9.50344L26.4601 11.9256C26.2388 12.1382 26.1132 12.4308 26.1104 12.7377C26.1089 13.0432 26.2288 13.3386 26.4458 13.5541C26.6613 13.7711 26.9567 13.891 27.2622 13.8896C27.5691 13.8867 27.8617 13.7611 28.0744 13.5399L30.4965 11.1177V11.1192C30.9418 10.6724 30.9418 9.95021 30.4965 9.50345L30.4965 9.50344Z" fill="#FAB82B" stroke="#413930"/>
<path d="M9.50342 30.4961C9.95018 30.9415 10.6724 30.9415 11.1191 30.4961L13.5413 28.074H13.5398C13.9737 27.6258 13.9666 26.9136 13.527 26.4726C13.086 26.033 12.3737 26.0258 11.9256 26.4597L9.50344 28.8804C9.0581 29.3272 9.0581 30.0494 9.50344 30.4962L9.50342 30.4961Z" fill="#FAB82B" stroke="#413930"/>
</svg>
