<svg width="40" height="40" viewBox="0 0 40 40" fill="none" xmlns="http://www.w3.org/2000/svg">
<path d="M15.9258 10.6343C16.001 8.52628 16.6114 7.25049 16.9588 6.7365C17.0802 6.55694 17.2642 6.43855 17.4734 6.38188C18.0209 6.23356 19.104 6.07821 20.6934 6.20047C22.0102 6.30176 22.6433 8.08992 22.9108 9.85709C23.1042 11.1348 24.2287 12.147 25.5087 11.9692C27.225 11.7309 29.7518 13.9239 30.0855 15.7356C30.184 16.2702 30.1342 16.8169 30.0097 17.3236C29.6966 18.598 29.6803 20.0366 29.9797 21.3143C30.0383 21.5643 30.077 21.8212 30.0855 22.0765C30.097 22.4205 30.0427 22.7386 29.9516 23.0232C29.6633 23.9238 29.3731 24.9937 29.4181 25.9382C29.4496 26.5995 29.1582 27.653 28.9304 28.3312C28.8469 28.58 28.7858 28.8353 28.7553 29.0959C28.6673 29.8481 28.4959 31.0733 28.2739 31.993C27.9401 33.3756 25.6994 33.7094 24.1261 34.1861C23.3109 34.4331 22.2517 34.0802 21.3993 33.6454C20.6425 33.2593 19.7841 33.0463 18.9349 33.0235C17.7628 32.9921 16.0367 32.7498 14.0187 31.993C10.2047 30.5628 10.1094 23.7451 10.6815 19.8834C11.2536 16.0217 15.8305 13.3041 15.9258 10.6343Z" fill="#5E91FF"/>
<path d="M24.4905 12.0548C21.9743 12.0954 19.9147 14.7962 19.9553 16.5412C19.9553 17.515 20.2912 18.3399 20.8864 18.9792C19.6713 19.5597 19.1401 24.8794 25.0586 25.5956C26.6688 25.7905 28.2118 25.5956 29.1193 24.6355C29.2599 25.6095 29.236 26.9995 28.7548 28.1839C27.9013 29.6233 25.8399 30.3246 23.8737 30.1093C21.9074 29.8941 20.3245 29.1201 19.8229 27.6789C18.9706 29.6119 19.1401 34.6646 24.734 34.0912C28.1201 33.7441 29.2791 30.3424 28.7548 28.1839C29.236 26.9995 29.2599 25.6095 29.1193 24.6355C28.2118 25.5956 26.6688 25.7905 25.0586 25.5956C19.1401 24.8794 19.6713 19.5597 20.8864 18.9792C21.7795 19.9386 23.2565 20.4802 25.0586 20.4802C28.355 20.4802 29.8068 18.6292 29.9691 16.1537C30.1315 13.6781 27.6584 12.0037 24.4905 12.0548Z" fill="#5E91FF"/>
<path d="M22.8191 12.458C23.8006 8.88936 21.3127 5.86267 19.1401 5.86267C16.9674 5.86267 16.1964 7.05415 16.0562 10.138C15.9161 13.2218 10.8698 17.7073 10.169 21.2817C8.79005 28.3141 12.7457 34.749 20.7425 33.1442M28.7549 19.1799C30.2999 20.1983 30.4048 23.2755 29.1193 24.6355M20.8864 18.9792C19.6713 19.5597 19.1401 24.8794 25.0586 25.5956C26.6688 25.7905 28.2118 25.5956 29.1193 24.6355M29.1193 24.6355C29.2599 25.6095 29.236 26.9995 28.7548 28.1839M20.6746 23.2755C19.5152 24.3569 19.347 26.3117 19.8229 27.6789M28.7548 28.1839C27.9013 29.6233 25.8399 30.3246 23.8737 30.1093C21.9074 29.8941 20.3245 29.1201 19.8229 27.6789M28.7548 28.1839C29.2791 30.3424 28.1201 33.7441 24.734 34.0912C19.1401 34.6646 18.9706 29.6119 19.8229 27.6789M19.9553 16.5412C19.9147 14.7962 21.9743 12.0954 24.4905 12.0548C27.6584 12.0037 30.1315 13.6781 29.9691 16.1537C29.8068 18.6292 28.355 20.4802 25.0586 20.4802C22.0555 20.4802 19.9553 18.9762 19.9553 16.5412Z" stroke="#413930"/>
</svg>
