<svg width="40" height="40" viewBox="0 0 40 40" fill="none" xmlns="http://www.w3.org/2000/svg">
<path d="M33.5 19.5352C33.5 26.7185 27.4719 32.5704 20 32.5704C18.4792 32.5704 17.0183 32.3277 15.6558 31.8809C15.1031 31.6996 14.4931 31.764 13.9362 31.9102C13.3715 32.0585 12.8032 32.3069 12.3024 32.5584C11.8702 32.7755 11.4727 33.0032 11.1631 33.1806C11.1134 33.209 11.0661 33.2361 11.0211 33.2617C11.0148 33.2654 11.0085 33.269 11.0022 33.2725C11.0025 33.261 11.0028 33.2493 11.0032 33.2373C11.0099 33.0215 11.0299 32.7883 11.0525 32.5239C11.0697 32.324 11.0883 32.1061 11.104 31.8644C11.1381 31.337 11.1521 30.7462 11.0646 30.1935C10.9775 29.6424 10.7814 29.0764 10.3512 28.6519C7.96629 26.299 6.5 23.0815 6.5 19.5352C6.5 12.3518 12.5281 6.5 20 6.5C27.4719 6.5 33.5 12.3518 33.5 19.5352ZM11.0285 33.6531C11.0285 33.6532 11.0275 33.6512 11.026 33.6463C11.0279 33.6504 11.0286 33.6529 11.0285 33.6531Z" fill="#F2EFED" stroke="#413930"/>
<circle cx="28" cy="12" r="7.5" fill="#F2EFED" stroke="#F15D22"/>
<line x1="23.1821" y1="17.182" x2="33.1821" y2="7.18197" stroke="#F15D22"/>
</svg>
