<svg width="40" height="40" viewBox="0 0 40 40" fill="none" xmlns="http://www.w3.org/2000/svg">
<g filter="url(#filter0_d_497_521)">
<path fill-rule="evenodd" clip-rule="evenodd" d="M31.6667 25.538L25.5399 31.6666L9.2085 15.3375C9.02757 15.1639 8.91557 14.9312 8.89341 14.6813L8.33342 8.33331L14.688 8.87627C14.9342 8.91444 15.1607 9.0314 15.3354 9.20869L31.6667 25.538Z" fill="#5E91FF"/>
<path d="M31.6667 25.538L32.0204 25.8915C32.2156 25.6962 32.2155 25.3797 32.0203 25.1844L31.6667 25.538ZM25.5399 31.6666L25.1864 32.0202C25.2802 32.114 25.4074 32.1667 25.54 32.1666C25.6726 32.1666 25.7998 32.1139 25.8935 32.0201L25.5399 31.6666ZM9.2085 15.3375L9.5621 14.9839L9.55466 14.9767L9.2085 15.3375ZM8.89341 14.6813L8.39535 14.7253L8.39537 14.7255L8.89341 14.6813ZM8.33342 8.33331L8.37598 7.83513C8.22884 7.82255 8.08366 7.87567 7.97938 7.98025C7.87509 8.08482 7.82237 8.23014 7.83535 8.37725L8.33342 8.33331ZM14.688 8.87627L14.7646 8.38217L14.7477 8.37955L14.7306 8.37809L14.688 8.87627ZM15.3354 9.20869L14.9794 9.55972L14.9819 9.56227L15.3354 9.20869ZM31.3131 25.1845L25.1863 31.3131L25.8935 32.0201L32.0204 25.8915L31.3131 25.1845ZM25.8935 31.3131L9.56203 14.984L8.85497 15.6911L25.1864 32.0202L25.8935 31.3131ZM9.55466 14.9767C9.46065 14.8865 9.4029 14.7662 9.39146 14.6372L8.39537 14.7255C8.42824 15.0963 8.59449 15.4413 8.86233 15.6983L9.55466 14.9767ZM9.39148 14.6374L8.83148 8.28937L7.83535 8.37725L8.39535 14.7253L9.39148 14.6374ZM8.29085 8.8315L14.6455 9.37446L14.7306 8.37809L8.37598 7.83513L8.29085 8.8315ZM14.6114 9.37037C14.7502 9.39189 14.8791 9.45798 14.9794 9.55971L15.6915 8.85767C15.4422 8.60482 15.1181 8.43698 14.7646 8.38217L14.6114 9.37037ZM14.9819 9.56227L31.3132 25.8916L32.0203 25.1844L15.689 8.85512L14.9819 9.56227Z" fill="#413930"/>
</g>
<defs>
<filter id="filter0_d_497_521" x="3.8335" y="5.83331" width="32.3333" height="32.3333" filterUnits="userSpaceOnUse" color-interpolation-filters="sRGB">
<feFlood flood-opacity="0" result="BackgroundImageFix"/>
<feColorMatrix in="SourceAlpha" type="matrix" values="0 0 0 0 0 0 0 0 0 0 0 0 0 0 0 0 0 0 127 0" result="hardAlpha"/>
<feOffset dy="2"/>
<feGaussianBlur stdDeviation="2"/>
<feComposite in2="hardAlpha" operator="out"/>
<feColorMatrix type="matrix" values="0 0 0 0 0 0 0 0 0 0 0 0 0 0 0 0 0 0 0.25 0"/>
<feBlend mode="normal" in2="BackgroundImageFix" result="effect1_dropShadow_497_521"/>
<feBlend mode="normal" in="SourceGraphic" in2="effect1_dropShadow_497_521" result="shape"/>
</filter>
</defs>
</svg>
