<svg width="40" height="40" viewBox="0 0 40 40" fill="none" xmlns="http://www.w3.org/2000/svg">
<circle cx="20.244" cy="16.9915" r="13.2862" fill="#5E91FF"/>
<path d="M27.2278 21.0313L25.4913 10.8053C25.195 9.06015 23.79 7.65557 22.0205 7.61009C20.9904 7.58362 19.8193 7.62982 18.5854 7.83935C17.293 8.05882 16.1892 8.39063 15.2604 8.74154C13.6045 9.36714 12.7494 11.1735 13.0457 12.9186L14.7822 23.1447C15.0538 24.7439 16.2676 26.0324 17.8863 26.1377C18.9977 26.2101 20.3383 26.2065 21.6661 25.9811C22.9938 25.7556 24.2605 25.3164 25.2857 24.8813C26.7788 24.2475 27.4993 22.6305 27.2278 21.0313Z" fill="#FAB82B" stroke="#413930"/>
<circle cx="16.3454" cy="17.7" r="1.00775" stroke="#413930"/>
<path d="M16.3455 18.7976L16.3455 25.0601C16.3455 26.717 17.6886 28.0601 19.3455 28.0601H22.7675C24.4244 28.0601 25.7675 26.7169 25.7675 25.0601V24.4426" stroke="#413930"/>
<ellipse cx="21.0563" cy="32.7262" rx="7.02698" ry="1.73491" stroke="#413930"/>
<path d="M20.2439 28.0601H21.8688V32.6069C21.8688 32.6069 21.4892 32.7262 21.0278 32.7262C20.5665 32.7262 20.2439 32.6069 20.2439 32.6069V28.0601Z" fill="#5E91FF" stroke="#413930"/>
</svg>
