<svg width="40" height="40" viewBox="0 0 40 40" fill="none" xmlns="http://www.w3.org/2000/svg">
<path d="M11.7766 18.5L18.4043 11.8723L16.1113 9.57928L8.97576 9.07145L9.4836 16.207L11.7766 18.5Z" fill="#5E91FF"/>
<rect x="13.2002" y="17.9143" width="6.66667" height="18.0941" transform="rotate(-45 13.2002 17.9143)" fill="#F2EFED"/>
<g filter="url(#filter0_d_497_528)">
<path d="M31.8862 25.7576L32.2398 26.1111C32.4351 25.9158 32.435 25.5993 32.2398 25.404L31.8862 25.7576ZM25.7594 31.8862L25.4059 32.2398C25.4997 32.3336 25.6269 32.3863 25.7595 32.3862C25.8921 32.3862 26.0193 32.3335 26.113 32.2398L25.7594 31.8862ZM9.42798 15.5571L9.78158 15.2035L9.77415 15.1964L9.42798 15.5571ZM9.1129 14.9009L8.61483 14.9449L8.61485 14.9451L9.1129 14.9009ZM8.5529 8.55292L8.59546 8.05473C8.44832 8.04216 8.30314 8.09528 8.19886 8.19985C8.09457 8.30442 8.04185 8.44974 8.05483 8.59686L8.5529 8.55292ZM14.9075 9.09588L14.9841 8.60178L14.9672 8.59915L14.9501 8.59769L14.9075 9.09588ZM15.5549 9.4283L15.1988 9.77932L15.2014 9.78187L15.5549 9.4283ZM15.8334 13.3332L15.6279 12.8774C15.4486 12.9582 15.3334 13.1365 15.3334 13.3332L15.8334 13.3332ZM15.8334 15.8332L15.8334 16.3332C15.966 16.3332 16.0932 16.2805 16.1869 16.1867C16.2807 16.093 16.3334 15.9658 16.3334 15.8332L15.8334 15.8332ZM13.3334 15.8332L13.3334 15.3332C13.1182 15.3332 12.9271 15.4709 12.859 15.6751L13.3334 15.8332ZM31.5326 25.4041L25.4058 31.5328L26.113 32.2398L32.2398 26.1111L31.5326 25.4041ZM26.1129 31.5327L9.78151 15.2036L9.07445 15.9107L25.4059 32.2398L26.1129 31.5327ZM9.77415 15.1964C9.68013 15.1061 9.62238 14.9858 9.61094 14.8568L8.61485 14.9451C8.64772 15.3159 8.81397 15.6609 9.08182 15.9179L9.77415 15.1964ZM9.61096 14.857L9.05096 8.50898L8.05483 8.59686L8.61483 14.9449L9.61096 14.857ZM8.51033 9.0511L14.8649 9.59406L14.9501 8.59769L8.59546 8.05473L8.51033 9.0511ZM14.8309 9.58997C14.9697 9.6115 15.0986 9.67758 15.1988 9.77932L15.911 9.07728C15.6617 8.82443 15.3376 8.65659 14.9841 8.60178L14.8309 9.58997ZM15.2014 9.78187L31.5327 26.1112L32.2398 25.404L15.9084 9.07472L15.2014 9.78187ZM18.1279 11.7506L15.6279 12.8774L16.0388 13.789L18.5388 12.6623L18.1279 11.7506ZM15.3334 13.3332L15.3334 15.8332L16.3334 15.8332L16.3334 13.3332L15.3334 13.3332ZM15.8334 15.3332L13.3334 15.3332L13.3334 16.3332L15.8334 16.3332L15.8334 15.3332ZM12.859 15.6751L12.0257 18.1751L12.9744 18.4913L13.8077 15.9913L12.859 15.6751Z" fill="#413930"/>
</g>
<defs>
<filter id="filter0_d_497_528" x="4.05298" y="6.05292" width="32.3333" height="32.3333" filterUnits="userSpaceOnUse" color-interpolation-filters="sRGB">
<feFlood flood-opacity="0" result="BackgroundImageFix"/>
<feColorMatrix in="SourceAlpha" type="matrix" values="0 0 0 0 0 0 0 0 0 0 0 0 0 0 0 0 0 0 127 0" result="hardAlpha"/>
<feOffset dy="2"/>
<feGaussianBlur stdDeviation="2"/>
<feComposite in2="hardAlpha" operator="out"/>
<feColorMatrix type="matrix" values="0 0 0 0 0 0 0 0 0 0 0 0 0 0 0 0 0 0 0.25 0"/>
<feBlend mode="normal" in2="BackgroundImageFix" result="effect1_dropShadow_497_528"/>
<feBlend mode="normal" in="SourceGraphic" in2="effect1_dropShadow_497_528" result="shape"/>
</filter>
</defs>
</svg>
