<svg width="40" height="40" viewBox="0 0 40 40" fill="none" xmlns="http://www.w3.org/2000/svg">
<path d="M20 5.5C22.5422 5.5 24.905 7.04567 26.655 9.67075C28.4028 12.2923 29.5 15.9428 29.5 20C29.5 24.0572 28.4028 27.7077 26.655 30.3293C24.905 32.9543 22.5422 34.5 20 34.5C17.4578 34.5 15.095 32.9543 13.345 30.3293C11.5972 27.7077 10.5 24.0572 10.5 20C10.5 15.9428 11.5972 12.2923 13.345 9.67075C15.095 7.04567 17.4578 5.5 20 5.5Z" stroke="#413930"/>
<circle cx="20" cy="28" r="2" fill="#F15D22" stroke="#413930"/>
<circle cx="20" cy="12" r="2" fill="#F15D22" stroke="#413930"/>
<circle cx="11" cy="21" r="2" fill="#5E91FF" stroke="#413930"/>
</svg>
