<svg width="40" height="40" viewBox="0 0 40 40" fill="none" xmlns="http://www.w3.org/2000/svg">
<path d="M27.2279 21.0313L25.4914 10.8053C25.1951 9.06018 23.7902 7.6556 22.0206 7.61012C20.9905 7.58365 19.8194 7.62985 18.5856 7.83938C17.2931 8.05885 16.1893 8.39066 15.2605 8.74157C13.6046 9.36717 12.7495 11.1735 13.0459 12.9187L14.7823 23.1447C15.0539 24.7439 16.2678 26.0324 17.8864 26.1378C18.9978 26.2101 20.3384 26.2066 21.6662 25.9811C22.9939 25.7556 24.2606 25.3165 25.2858 24.8813C26.779 24.2475 27.4994 22.6305 27.2279 21.0313Z" fill="#F2EFED" stroke="#E5E1DE"/>
<circle cx="16.3454" cy="17.7" r="1.00775" stroke="#E5E1DE"/>
<path d="M16.3455 18.7975L16.3455 25.0601C16.3455 26.7169 17.6886 28.0601 19.3455 28.0601H22.7675C24.4244 28.0601 25.7675 26.7169 25.7675 25.0601V24.4425" stroke="#E5E1DE"/>
<ellipse cx="21.0563" cy="32.7262" rx="7.02698" ry="1.73491" stroke="#E5E1DE"/>
<path d="M20.2439 28.0601H21.8688V32.6069C21.8688 32.6069 21.4892 32.7262 21.0278 32.7262C20.5665 32.7262 20.2439 32.6069 20.2439 32.6069V28.0601Z" fill="#F2EFED" stroke="#E5E1DE"/>
<line x1="34" y1="6.70711" x2="7.70711" y2="33" stroke="#F15D22" stroke-linecap="round"/>
</svg>
