<svg width="40" height="40" viewBox="0 0 40 40" fill="none" xmlns="http://www.w3.org/2000/svg">
<path d="M16.5545 12.8596L13.8071 15.607L17.9305 23.1388L27.2979 32.5062L33.6577 26.1463L24.2903 16.7789L16.5545 12.8596Z" fill="#F2EFED"/>
<rect x="21.6343" y="29.1504" width="9.62891" height="7.37467" transform="rotate(-45 21.6343 29.1504)" fill="#FAB82B"/>
<path d="M13.8264 11.0697L10.6219 14.2741L13.1574 16.8096L16.3618 13.6051L13.8264 11.0697Z" fill="#FAB82B"/>
<path d="M7.8379 9.68474L10.1857 13.6913L12.9848 10.8922L8.97819 8.54444C8.23767 8.11051 7.40397 8.94422 7.8379 9.68474Z" fill="#FAB82B"/>
<path d="M13.0176 17.1314L14.7669 21.9932L27.2425 34.4689L33.6488 28.0626L21.1732 15.5869L16.4219 13.7271M13.0176 17.1314L16.4219 13.7271M13.0176 17.1314L10.0655 14.1794L11.7677 12.4772L13.4699 10.7751L16.4219 13.7271" stroke="#413930" stroke-linejoin="round"/>
</svg>
