<svg width="40" height="40" viewBox="0 0 40 40" fill="none" xmlns="http://www.w3.org/2000/svg">
<circle cx="26.088" cy="9.60769" r="5.10769" fill="#5E91FF" stroke="#413930"/>
<path d="M32.1609 18.8004C33.6532 20.2928 34.5396 22.2778 34.6617 24.3732L17.5146 24.3732C17.6367 22.2778 18.5231 20.2928 20.0154 18.8004C21.626 17.1899 23.8104 16.285 26.0881 16.285C28.3659 16.285 30.5503 17.1899 32.1609 18.8004Z" fill="#5E91FF" stroke="#413930"/>
<path d="M23.1155 9.56226C23.1155 9.93217 24.073 11.5174 26.0681 11.5174C27.6642 11.5174 29.0608 10.3039 29.0608 9.56226" stroke="#413930" stroke-linecap="round"/>
<path d="M16.9999 30.2059C16.9999 31.1267 16.6342 32.0097 15.9831 32.6608C15.3321 33.3118 14.449 33.6776 13.5283 33.6776C12.6076 33.6776 11.7245 33.3118 11.0735 32.6608C10.4224 32.0097 10.0566 31.1267 10.0566 30.2059L16.9999 30.2059Z" fill="#FAB82B" stroke="#413930" stroke-linejoin="round"/>
<path d="M4.87873 26.3118L4.87873 26.3117C6.16384 23.5901 6.82197 20.8204 6.82197 18.0804L6.82197 17.9359C6.82448 16.2542 7.50047 14.6397 8.70504 13.4478C9.9084 12.2572 11.5424 11.5863 13.2468 11.5837C14.9522 11.5851 16.5864 12.2569 17.7898 13.4477C18.9943 14.6396 19.6703 16.2538 19.6729 17.9354C19.6729 17.9356 19.6729 17.9358 19.6729 17.9361L19.6729 18.0881C19.6729 20.8268 20.3297 23.5939 21.6135 26.3118C21.7673 26.6375 21.9778 27.2575 21.9953 27.7639C22.0042 28.0201 21.9607 28.1732 21.9105 28.2488C21.8839 28.2888 21.8297 28.355 21.617 28.355L4.87397 28.355C4.66499 28.355 4.61236 28.2897 4.58568 28.249C4.53505 28.1716 4.49198 28.0157 4.50127 27.7575C4.51962 27.2474 4.72991 26.6269 4.87873 26.3118Z" fill="#FAB82B" stroke="#413930"/>
<circle cx="26.3254" cy="28.3254" r="7.82538" fill="#09CC91" stroke="#413930"/>
<path d="M22.1625 29.6063L25.2845 32.4881L31.5285 26.2441" stroke="#413930" stroke-linecap="round" stroke-linejoin="round"/>
</svg>
