<svg width="40" height="40" viewBox="0 0 40 40" fill="none" xmlns="http://www.w3.org/2000/svg">
<g clip-path="url(#clip0_497_280)">
<path d="M11.5 48.5V36.5H27.5V48.5H11.5Z" fill="#F2EFED"/>
<path d="M13 37.0001C12.282 37.0001 12 36.0001 11.5 36.0001L19.5 17L27.5 36.0001C26.9896 36.0001 26.8058 37.0001 26 37.0001C25.3948 37.0001 24.4126 36.0001 23.6917 36.0001C23.0565 36.0001 22.3848 37.0001 21.6917 37.0001C21.0399 37.0001 20.3691 36.0001 19.6917 36.0001C19.0274 36.0001 18.3569 37.0001 17.6917 37.0001C17.0153 37.0001 16.3445 36.0001 15.6917 36.0001C15 36.0001 13.6367 37.0001 13 37.0001Z" fill="#F2EFED"/>
<path d="M11.5 35.5047C11.5 35.4063 11.5205 35.309 11.5603 35.219L18.8531 18.703C19.1012 18.1409 19.8988 18.1409 20.1469 18.703L27.4397 35.219C27.4795 35.309 27.5 35.4063 27.5 35.5047V47.7928C27.5 48.1834 27.1834 48.5 26.7928 48.5H12.2072C11.8166 48.5 11.5 48.1834 11.5 47.7928V35.5047Z" stroke="#534C44"/>
<path d="M19.5 16L17 22H22L19.5 16Z" fill="#534C44"/>
<path d="M11.5 36.0001C12 36.0001 12.282 37.0001 13 37.0001C13.6367 37.0001 15 36.0001 15.6917 36.0001C16.3445 36.0001 17.0153 37.0001 17.6917 37.0001C18.3569 37.0001 19.0274 36.0001 19.6917 36.0001C20.3691 36.0001 21.0399 37.0001 21.6917 37.0001C22.3848 37.0001 23.0565 36.0001 23.6917 36.0001C24.4126 36.0001 25.3948 37.0001 26 37.0001C26.8058 37.0001 26.9896 36.0001 27.5 36.0001" stroke="#534C44" stroke-linecap="square" stroke-linejoin="round"/>
</g>
<defs>
<clipPath id="clip0_497_280">
<rect width="40" height="40" fill="white"/>
</clipPath>
</defs>
</svg>
