<svg width="40" height="40" viewBox="0 0 40 40" fill="none" xmlns="http://www.w3.org/2000/svg">
<path d="M5.31821 8.48606C2.47732 10.9211 3.37338 13.8136 5.31807 14.4477C6.06345 13.9134 7.70826 12.7088 8.32443 12.1651C8.94061 11.6214 10.7839 10.5674 11.6286 10.1084C11.6286 8.24364 8.1591 6.051 5.31821 8.48606Z" fill="#413930" stroke="#413930"/>
<path d="M34.8378 11.9095C36.9485 14.9991 34.3958 18.0257 32.3531 18.1328C32.0481 17.5524 31.3788 16.1804 31.1412 15.3357C30.9036 14.4911 29.1632 12.651 28.3227 11.8366C28.8072 10.0358 32.7272 8.81993 34.8378 11.9095Z" fill="#413930" stroke="#413930"/>
<path d="M27.0813 30.6955C32.8425 27.9823 33.8977 21.056 31.7818 16.3772C28.1801 8.4129 17.649 5.83122 8.32489 11.7476C1.36382 16.1646 1.93132 27.5749 9.26663 30.6955C14.7624 33.0336 21.3201 33.4088 27.0813 30.6955Z" fill="#F2EFED" stroke="#413930" stroke-linecap="square"/>
<path d="M6.90771 18.877C5.54836 16.3332 9.35752 12.3676 11.429 11.9427C16.8157 10.8376 16.9695 16.0941 13.8848 18.877C12.1846 20.4109 8.62462 22.0899 6.90771 18.877Z" fill="#413930"/>
<path d="M29.5173 19.849C32.5875 16.8298 26.4754 13.0385 24.4039 12.6136C19.9422 11.9762 19.1335 17.6186 22.6384 19.849C24.3913 20.9645 26.8238 22.4978 29.5173 19.849Z" fill="#413930"/>
<path d="M18.8132 17.7481C18.3037 17.5669 17.4902 17.6726 17.1472 17.7481C17.1472 18.072 17.428 18.5943 18.1206 18.5363C18.6747 18.4899 18.8132 17.9915 18.8132 17.7481Z" fill="#413930" stroke="#413930" stroke-linecap="round" stroke-linejoin="round"/>
<ellipse cx="11.628" cy="14.5539" rx="0.988943" ry="1.09506" transform="rotate(17.555 11.628 14.5539)" fill="#F2EFED"/>
<ellipse cx="23.9744" cy="15.2381" rx="1.04104" ry="1.06907" fill="#F2EFED"/>
<path d="M20.6773 21.0975C20.37 21.3234 18.3996 21.4866 16.6134 21.3451C15.6865 21.2716 14.5827 22.4071 15.1023 23.1782C15.6769 24.0309 16.4732 24.734 17.5413 24.7632C20.5441 24.8454 21.568 20.4431 20.6773 21.0975Z" fill="#F2EFED"/>
<path d="M15.0691 17.0147C15.8035 15.5357 20.1836 15.5112 20.8917 17.0147" stroke="#413930" stroke-linecap="round"/>
</svg>
