<svg width="40" height="40" viewBox="0 0 40 40" fill="none" xmlns="http://www.w3.org/2000/svg">
<g clip-path="url(#clip0_497_305)">
<path d="M10.5 17.2072C10.5 16.8166 10.8166 16.5 11.2072 16.5H24.0104C24.1397 16.5 24.2665 16.5354 24.3771 16.6025L31.1595 20.7151C31.3709 20.8433 31.5 21.0726 31.5 21.3198V43.7928C31.5 44.1834 31.1834 44.5 30.7928 44.5H11.2072C10.8166 44.5 10.5 44.1834 10.5 43.7928V17.2072Z" fill="#F2EFED" stroke="#534C44"/>
<path d="M9.5 28.2072C9.5 27.8166 9.81663 27.5 10.2072 27.5H31.7928C32.1834 27.5 32.5 27.8166 32.5 28.2072V47.7928C32.5 48.1834 32.1834 48.5 31.7928 48.5H10.2072C9.81663 48.5 9.5 48.1834 9.5 47.7928V28.2072Z" fill="#F15D22" stroke="#534C44"/>
<path d="M10 38.5H32V45.5H10V38.5Z" fill="#F15D22"/>
<path d="M10 36H32V37.5H10V36Z" fill="#F15D22"/>
</g>
<defs>
<clipPath id="clip0_497_305">
<rect width="40" height="40" fill="white"/>
</clipPath>
</defs>
</svg>
