<svg width="40" height="40" viewBox="0 0 40 40" fill="none" xmlns="http://www.w3.org/2000/svg">
<circle cx="20.5" cy="22.1369" r="13" fill="#FAB82B" stroke="#413930"/>
<path d="M12.3999 22.7613C12.4825 23.9845 15.6134 29.039 21.399 28.6483C26.0274 28.3357 29.8063 24.0492 29.6406 21.5969" stroke="#413930" stroke-linecap="round"/>
<path d="M19.2505 4.46205C18.821 4.41585 17.9265 6.67312 17.8302 7.56795L14.3778 9.36902L18.0206 10.8471L20.3585 14.3573L21.2997 10.6568L24.8099 8.31879C23.7554 8.02431 21.5389 7.42379 21.1094 7.37759C20.5725 7.31983 19.7874 4.51981 19.2505 4.46205Z" fill="#5E91FF" stroke="#413930" stroke-linecap="round" stroke-linejoin="round"/>
<ellipse cx="11.1183" cy="18.4212" rx="3.28793" ry="1.82663" fill="#F15D22" stroke="#413930"/>
<ellipse cx="30.0774" cy="18.3622" rx="3.1817" ry="1.76761" fill="#F15D22" stroke="#413930"/>
<path d="M16.7864 15.1101C17.0341 15.5653 17.266 15.9998 17.3915 16.5018" stroke="#413930" stroke-linecap="round"/>
<path d="M23.6689 14.7615C23.9859 15.2717 24.2089 15.8415 24.2135 16.3348" stroke="#413930" stroke-linecap="round"/>
</svg>
