<svg width="40" height="40" viewBox="0 0 40 40" fill="none" xmlns="http://www.w3.org/2000/svg">
<path d="M10.6391 11.096L25.9602 6.99072C27.8273 6.49043 29.7465 7.59847 30.2468 9.4656L32.3866 17.4512C32.6324 18.3685 32.4948 19.3463 32.0055 20.1603L26.3718 29.5321C25.9046 30.3093 25.1539 30.8748 24.2779 31.1095L16.5561 33.1786C14.689 33.6789 12.7698 32.5709 12.2695 30.7037L8.16424 15.3826C7.66394 13.5155 8.77198 11.5963 10.6391 11.096Z" fill="#5E91FF" stroke="#413930"/>
<circle cx="14.5765" cy="17.0889" r="1.90257" transform="rotate(-15 14.5765 17.0889)" fill="#5E91FF"/>
<circle cx="25.5472" cy="14.1492" r="1.90257" transform="rotate(-15 25.5472 14.1492)" fill="#5E91FF"/>
<path d="M17.0303 22.8156C17.0303 22.8156 19.0146 26.6884 22.7589 25.6851C26.5032 24.6818 26.2853 20.3357 26.2853 20.3357" stroke="#413930" stroke-linecap="round"/>
<path d="M25.4801 29.6611L23.4615 22.1276C23.39 21.8609 23.5483 21.5867 23.815 21.5152L31.3486 19.4966C31.7788 19.3813 32.1337 19.8438 31.911 20.2296L29.1535 25.0056L26.3961 29.7817C26.1733 30.1675 25.5954 30.0914 25.4801 29.6611Z" fill="#5E91FF" stroke="#413930" stroke-linejoin="round"/>
</svg>
