<svg width="41" height="40" viewBox="0 0 41 40" fill="none" xmlns="http://www.w3.org/2000/svg">
<path d="M13.4496 13.555L24.6126 7.11012L35.7755 13.555V26.4449L24.6126 32.8898L13.4496 26.4449V13.555Z" stroke="#5E91FF" stroke-width="4"/>
<path d="M13.9072 15.4619C11.3455 15.4619 9.25931 17.4975 9.17782 20.0393C6.63594 20.1208 4.60034 22.207 4.60034 24.7687C4.60034 27.3304 6.63594 29.4167 9.17782 29.4982C9.25934 32.04 11.3455 34.0756 13.9072 34.0756C16.4689 34.0756 18.5552 32.04 18.6367 29.4982C21.1785 29.4167 23.2141 27.3304 23.2141 24.7687C23.2141 22.2071 21.1785 20.1209 18.6367 20.0393C18.5552 17.4974 16.4689 15.4619 13.9072 15.4619Z" fill="#F2EFED" stroke="#F2EFED"/>
<path d="M13.9072 11.4619C10.3089 11.4619 7.22011 13.6382 5.88313 16.7446C2.77669 18.0816 0.600342 21.1704 0.600342 24.7687C0.600342 28.367 2.77669 31.4559 5.88315 32.7929C7.22015 35.8993 10.3089 38.0756 13.9072 38.0756C17.5055 38.0756 20.5943 35.8993 21.9313 32.7929C25.0378 31.4558 27.2141 28.367 27.2141 24.7687C27.2141 21.1704 25.0378 18.0817 21.9314 16.7447C20.5944 13.6382 17.5055 11.4619 13.9072 11.4619ZM10.1754 20.1937C10.1754 18.1327 11.8462 16.4619 13.9072 16.4619C15.9683 16.4619 17.6391 18.1327 17.6391 20.1937C17.6391 20.6593 18.0165 21.0369 18.4822 21.0369C20.5433 21.0369 22.2141 22.7077 22.2141 24.7687C22.2141 26.8298 20.5433 28.5007 18.4822 28.5007C18.0166 28.5007 17.6391 28.8781 17.6391 29.3437C17.6391 31.4048 15.9683 33.0756 13.9072 33.0756C11.8462 33.0756 10.1754 31.4048 10.1754 29.3437C10.1754 28.878 9.79777 28.5007 9.33222 28.5007C7.27116 28.5007 5.60034 26.8298 5.60034 24.7687C5.60034 22.7077 7.27116 21.0369 9.33222 21.0369C9.79786 21.0369 10.1754 20.6594 10.1754 20.1937Z" fill="#F15D22" stroke="#F2EFED"/>
</svg>
