<svg width="40" height="40" viewBox="0 0 40 40" fill="none" xmlns="http://www.w3.org/2000/svg">
<rect x="8.08118" y="6.12006" width="19.2112" height="12.7994" rx="0.5" fill="#5E91FF" stroke="#413930" stroke-linejoin="round"/>
<path d="M7.99406 19.3495C8.07308 19.1661 8.25358 19.0474 8.45322 19.0474H26.1774C26.4535 19.0474 26.6774 19.2712 26.6774 19.5474V23.3365C26.6774 23.6127 26.4535 23.8365 26.1774 23.8365H6.81992C6.46051 23.8365 6.21849 23.4687 6.36076 23.1386L7.99406 19.3495Z" fill="#5E91FF" stroke="#413930" stroke-linejoin="round"/>
<rect x="21.5454" y="14.7936" width="10.9546" height="17.7468" rx="0.5" fill="#5E91FF" stroke="#413930" stroke-linejoin="round"/>
<path d="M13.4534 24.3365C13.4534 23.0252 13.5948 21.9071 13.7097 21.2154C13.7426 21.0177 13.9189 20.8615 14.1529 20.8615L16.4963 20.8615C16.7724 20.8615 16.9963 21.0854 16.9963 21.3615L16.9963 27.3116C16.9963 27.5877 16.7724 27.8116 16.4963 27.8116L14.1529 27.8116C13.9189 27.8116 13.7426 27.6554 13.7097 27.4577C13.5948 26.766 13.4534 25.6479 13.4534 24.3365Z" fill="#5E91FF" stroke="#413930"/>
<path d="M16.2927 24.3365C16.2927 22.372 16.5711 21.1081 16.7256 20.558C16.7492 20.4739 16.8145 20.3903 16.9273 20.3343L21.7418 17.9425C22.0287 17.8 22.328 17.9612 22.3813 18.2344C22.627 19.4936 22.9589 21.6862 22.9589 24.3365C22.9589 26.9869 22.627 29.1795 22.3813 30.4387C22.328 30.7119 22.0287 30.8731 21.7418 30.7306L16.9273 28.3388C16.8145 28.2827 16.7492 28.1992 16.7256 28.1151C16.5711 27.565 16.2927 26.3011 16.2927 24.3365Z" fill="#FAB82B" stroke="#413930"/>
<path d="M24.3107 18.09C26.9491 18.9541 29.1375 21.4242 29.1375 24.3365C29.1375 27.2489 26.9491 29.719 24.3107 30.583" stroke="#413930" stroke-linecap="round"/>
<path d="M24.202 22.1115C25.2363 22.3239 26.0141 23.2394 26.0141 24.3365C26.0141 25.4336 25.2363 26.349 24.202 26.5615" stroke="#413930" stroke-linecap="round"/>
</svg>
