<svg width="40" height="40" viewBox="0 0 40 40" fill="none" xmlns="http://www.w3.org/2000/svg">
<path d="M6.5 20C6.5 17.2503 6.84891 14.9793 7.0592 13.861C7.09777 13.6559 7.28024 13.5 7.51381 13.5L13 13.5C13.2761 13.5 13.5 13.7239 13.5 14L13.5 26C13.5 26.2761 13.2761 26.5 13 26.5L7.51381 26.5C7.28024 26.5 7.09777 26.3441 7.0592 26.139C6.84891 25.0207 6.5 22.7497 6.5 20Z" fill="#5E91FF" stroke="#413930"/>
<path d="M11.5 20C11.5 16.148 12.1015 13.7961 12.3548 12.9765C12.3835 12.8838 12.455 12.797 12.5667 12.7415L22.1347 7.98818C22.4205 7.84618 22.7304 8.00437 22.7916 8.28604C23.2207 10.2605 24 14.5924 24 20C24 25.4076 23.2207 29.7395 22.7916 31.714C22.7304 31.9956 22.4205 32.1538 22.1347 32.0118L12.5667 27.2585L12.3443 27.7063L12.5667 27.2585C12.455 27.203 12.3835 27.1162 12.3548 27.0235C12.1015 26.2039 11.5 23.852 11.5 20Z" fill="#FAB82B" stroke="#413930"/>
<path d="M26 9C30.6462 10.5216 34.5 14.8714 34.5 20C34.5 25.1286 30.6462 29.4784 26 31" stroke="#413930" stroke-linecap="round"/>
<path d="M25.8088 16.0818C27.6302 16.4559 28.9999 18.0679 28.9999 19.9999C28.9999 21.9319 27.6302 23.544 25.8088 23.9181" stroke="#413930" stroke-linecap="round"/>
</svg>
