<svg width="40" height="40" viewBox="0 0 40 40" fill="none" xmlns="http://www.w3.org/2000/svg">
<path d="M30.2984 17.0713L29.8396 15.9586C31.4132 12.3274 31.3109 12.2186 31.003 11.9086L28.9917 9.90255L28.7923 9.72959H28.5603C28.4359 9.72959 28.072 9.72959 25.0122 11.1439L23.8858 10.6799C22.4303 7 22.2827 7 21.8502 7H19.0184C18.5924 7 18.4268 7 17.0799 10.6936L15.9588 11.1577C13.8937 10.2665 12.6807 9.8077 12.3537 9.8077H12.0837L9.92371 11.9677C9.59253 12.3052 9.47654 12.416 11.1419 15.9913L10.6831 17.1008C7 18.5531 7 18.6934 7 19.1501V21.9797C7 22.4248 7 22.582 10.6966 23.9341L11.1554 25.0415C9.58178 28.6728 9.68619 28.7816 9.99205 29.0915L12.0033 31.1007L12.2027 31.2758H12.4379C12.5592 31.2758 12.9209 31.2758 15.9827 29.8583L17.106 30.3255C18.5615 34 18.7102 34 19.15 34H21.9766C22.4112 34 22.5652 34 23.9183 30.3085L25.0447 29.8445C27.1098 30.7357 28.3174 31.1945 28.6433 31.1945H28.9133L31.0944 29.0155C31.4045 28.6969 31.5131 28.5862 29.8583 25.0246L30.315 23.915C34 22.4469 34 22.2929 34 21.8499V19.0203C34 18.5752 34.0004 18.4182 30.2984 17.0713ZM20.5003 25.2221C19.2463 25.2253 18.0429 24.7296 17.1548 23.8447C16.2656 22.9598 15.7657 21.7575 15.7647 20.5034C15.7626 19.2505 16.2593 18.047 17.1453 17.1589C18.0312 16.2719 19.2336 15.773 20.4876 15.772C21.7416 15.772 22.944 16.2698 23.8311 17.1568C24.7181 18.0438 25.2148 19.2462 25.2148 20.5002C25.2127 21.7511 24.7149 22.9492 23.8321 23.8342C22.9483 24.7191 21.7513 25.2179 20.5003 25.2221Z" fill="#5E91FF" stroke="#413930" stroke-width="1.4" stroke-linejoin="round"/>
</svg>
