<svg width="40" height="40" viewBox="0 0 40 40" fill="none" xmlns="http://www.w3.org/2000/svg">
<rect x="8.5" y="7.83313" width="18.5368" height="18.5368" rx="0.5" fill="#F15D22" stroke="#413930"/>
<mask id="path-2-inside-1_497_346" fill="white">
<path fill-rule="evenodd" clip-rule="evenodd" d="M33.0001 14.6876C33.0001 13.8332 31.998 13.3723 31.3493 13.9283L12.5192 30.0685C11.8143 30.6727 12.2416 31.8277 13.17 31.8277L32.0001 31.8277C32.5524 31.8277 33.0001 31.38 33.0001 30.8277L33.0001 14.6876ZM28.708 27.5355L28.708 22.1704L22.2699 27.5355H28.708Z"/>
</mask>
<path fill-rule="evenodd" clip-rule="evenodd" d="M33.0001 14.6876C33.0001 13.8332 31.998 13.3723 31.3493 13.9283L12.5192 30.0685C11.8143 30.6727 12.2416 31.8277 13.17 31.8277L32.0001 31.8277C32.5524 31.8277 33.0001 31.38 33.0001 30.8277L33.0001 14.6876ZM28.708 27.5355L28.708 22.1704L22.2699 27.5355H28.708Z" fill="#F2EFED"/>
<path d="M31.3493 13.9283L32.0001 14.6876V14.6876L31.3493 13.9283ZM33.0001 14.6876H32.0001V14.6876L33.0001 14.6876ZM12.5192 30.0685L13.17 30.8277H13.17L12.5192 30.0685ZM33.0001 30.8277H34.0001H33.0001ZM28.708 22.1704L29.708 22.1704C29.708 21.7824 29.4836 21.4294 29.1322 21.2648C28.7808 21.1003 28.3659 21.1538 28.0678 21.4022L28.708 22.1704ZM28.708 27.5355V28.5355C28.9732 28.5355 29.2276 28.4302 29.4151 28.2426C29.6027 28.0551 29.708 27.8007 29.708 27.5355L28.708 27.5355ZM22.2699 27.5355L21.6297 26.7673C21.3063 27.0368 21.1863 27.4801 21.3296 27.8759C21.4729 28.2718 21.8489 28.5355 22.2699 28.5355V27.5355ZM32.0001 14.6876L32.0001 14.6876H34.0001C34.0001 12.9789 31.9959 12.0571 30.6985 13.1691L32.0001 14.6876ZM13.17 30.8277L32.0001 14.6876L30.6985 13.1691L11.8684 29.3092L13.17 30.8277ZM13.17 30.8277H13.17L11.8684 29.3092C10.4586 30.5176 11.3132 32.8277 13.17 32.8277V30.8277ZM32.0001 30.8277L13.17 30.8277V32.8277H32.0001V30.8277ZM32.0001 30.8277V30.8277V32.8277C33.1047 32.8277 34.0001 31.9323 34.0001 30.8277H32.0001ZM32.0001 14.6876L32.0001 30.8277H34.0001L34.0001 14.6876L32.0001 14.6876ZM27.708 22.1704L27.708 27.5355L29.708 27.5355L29.708 22.1704L27.708 22.1704ZM22.9101 28.3037L29.3482 22.9386L28.0678 21.4022L21.6297 26.7673L22.9101 28.3037ZM28.708 26.5355H22.2699V28.5355H28.708V26.5355Z" fill="#413930" mask="url(#path-2-inside-1_497_346)"/>
</svg>
