<svg width="40" height="40" viewBox="0 0 40 40" fill="none" xmlns="http://www.w3.org/2000/svg">
<path d="M33.0572 15.1894C32.9059 15.859 32.6496 16.4994 32.2989 17.0871L27.0057 13.3478L21.7125 9.60852C22.1492 9.08157 22.6671 8.62607 23.2476 8.25963C23.9695 7.804 24.774 7.495 25.6152 7.35028C26.4564 7.20556 27.3179 7.22794 28.1505 7.41616C28.9831 7.60438 29.7704 7.95475 30.4676 8.44726C31.1648 8.93977 31.7581 9.56477 32.2138 10.2866C32.6694 11.0084 32.9784 11.8129 33.1231 12.6541C33.2679 13.4954 33.2455 14.3569 33.0572 15.1894Z" fill="#F15D22" stroke="#413930"/>
<path d="M7.41615 15.1894C7.56752 15.859 7.82376 16.4994 8.17448 17.0871L13.4677 13.3478L18.7609 9.60852C18.3241 9.08157 17.8063 8.62607 17.2257 8.25963C16.5039 7.804 15.6994 7.495 14.8582 7.35028C14.017 7.20556 13.1555 7.22794 12.3229 7.41616C11.4903 7.60438 10.7029 7.95475 10.0058 8.44726C9.30859 8.93977 8.71525 9.56477 8.25961 10.2866C7.80398 11.0084 7.49498 11.8129 7.35026 12.6541C7.20554 13.4954 7.22793 14.3569 7.41615 15.1894Z" fill="#F15D22" stroke="#413930"/>
<circle cx="20" cy="20.9999" r="12.5" fill="#F2EFED" stroke="#413930"/>
<circle cx="19.9999" cy="20.9999" r="9.9281" fill="#F2EFED" stroke="#413930"/>
<line x1="11.817" y1="35.647" x2="13.817" y2="32.1829" stroke="#413930" stroke-linecap="round"/>
<line x1="0.5" y1="-0.5" x2="4.5" y2="-0.5" transform="matrix(-0.5 -0.866025 -0.866025 0.5 28.5 36.33)" stroke="#413930" stroke-linecap="round"/>
<path d="M19.6121 14.2739L19.6121 21.2739L24.5299 25.6014" stroke="#413930" stroke-linecap="round" stroke-linejoin="round"/>
</svg>
