<svg width="40" height="40" viewBox="0 0 40 40" fill="none" xmlns="http://www.w3.org/2000/svg">
<circle cx="19.7732" cy="19.7732" r="13.5" fill="#F15D22" stroke="#413930"/>
<path d="M25.7732 11.7732H13.7732C12.6686 11.7732 11.7732 12.6686 11.7732 13.7732V25.7732C11.7732 26.8778 12.6686 27.7732 13.7732 27.7732H22.4486C22.6636 27.7732 22.8793 27.7427 23.0718 27.647C24.691 26.842 27.7732 23.6486 27.7732 23.2732V13.7732C27.7732 12.6686 26.8778 11.7732 25.7732 11.7732Z" fill="#F2EFED" stroke="#413930"/>
<path d="M22.7732 22.7732V27.7732L25.7732 25.2732L27.7732 22.7732H22.7732Z" fill="#413930"/>
<line x1="14.7732" y1="16.2732" x2="24.7732" y2="16.2732" stroke="#413930"/>
<line x1="14.7732" y1="19.2732" x2="24.7732" y2="19.2732" stroke="#413930"/>
<line x1="14.7732" y1="22.2732" x2="19.7732" y2="22.2732" stroke="#413930"/>
<path d="M13.7732 20L14.9047 21.9426L17.1019 22.4184L15.604 24.0949L15.8304 26.3316L13.7732 25.425L11.7159 26.3316L11.9424 24.0949L10.4445 22.4184L12.6417 21.9426L13.7732 20Z" fill="#FAB82B" stroke="#413930" stroke-linejoin="round"/>
<circle cx="11" cy="8" r="3" fill="#F15D22"/>
</svg>
