<svg width="40" height="40" viewBox="0 0 40 40" fill="none" xmlns="http://www.w3.org/2000/svg">
<path d="M12 30.9139C14.1342 29.6468 17.8163 27.9704 20.3687 28.0004C22.0082 28.0197 22.3174 30.0767 23.5011 30.9139C25.3795 32.2425 27.6999 31.9104 29.7056 31.0573C32.1069 30.0361 33.3226 29.452 35.5 28.0004" stroke="#413930" stroke-linecap="round"/>
<path d="M12.6165 31.4546L12.6071 31.464L12.5982 31.4739C12.5895 31.4835 12.5652 31.5 12.5227 31.5H8.6388C8.59405 31.5 8.56109 31.4835 8.53881 31.4612C8.51652 31.4389 8.5 31.4059 8.5 31.3612V27.4773C8.5 27.4325 8.51013 27.406 8.54519 27.3709L22.1303 13.7858L26.214 17.8696L12.6165 31.4546Z" fill="#F2EFED" stroke="#413930"/>
<path d="M30.2728 12.7168C30.5758 13.0198 30.5758 13.5081 30.2728 13.8111L28.2883 15.7956L24.2044 11.7117L26.1889 9.72725C26.4919 9.42425 26.9802 9.42425 27.2832 9.72725L30.2728 12.7168Z" fill="#F15D22" stroke="#413930"/>
<path d="M10.4752 25.5C10.3542 25.842 10.4809 26.2404 10.4752 26.6219C10.4674 27.1462 11.4126 27.0939 11.7497 27.0852C12.0057 27.0787 12.0078 27.1242 11.9683 27.4119C11.9363 27.6452 11.7956 28.0174 11.9324 28.2377C12.0642 28.4501 12.5957 28.3885 12.7877 28.372C13.0037 28.3534 13.6285 28.1596 13.5331 28.5226C13.4784 28.7306 13.3329 29.3159 13.5 29.4999C13.737 29.7609 14.1831 29.5542 14.5 29.4999" stroke="#413930" stroke-linecap="round"/>
</svg>
