<svg width="40" height="40" viewBox="0 0 40 40" fill="none" xmlns="http://www.w3.org/2000/svg">
<circle cx="19.7734" cy="19.7732" r="13.3" fill="#FEF7E9" stroke="#413930" stroke-width="1.4"/>
<path d="M24.9734 11.7732H14.5734C13.027 11.7732 11.7734 13.0268 11.7734 14.5732V24.9732C11.7734 26.5196 13.027 27.7732 14.5734 27.7732H22.3191C22.62 27.7732 22.9213 27.7311 23.1859 27.5878C24.8312 26.6967 27.7734 23.6399 27.7734 23.2732V14.5732C27.7734 13.0268 26.5198 11.7732 24.9734 11.7732Z" fill="#F2EFED" stroke="#413930" stroke-width="1.4"/>
<path d="M22.7734 22.7732V27.7732L25.7734 25.2732L27.7734 22.7732H22.7734Z" fill="#413930"/>
<line x1="14.7734" y1="16.0732" x2="24.7734" y2="16.0732" stroke="#413930" stroke-width="1.4"/>
<line x1="14.7734" y1="19.0732" x2="24.7734" y2="19.0732" stroke="#413930" stroke-width="1.4"/>
<line x1="14.7734" y1="22.0732" x2="19.7734" y2="22.0732" stroke="#413930" stroke-width="1.4"/>
<path d="M13.7734 20L14.9049 21.9426L17.1021 22.4184L15.6042 24.0949L15.8307 26.3316L13.7734 25.425L11.7162 26.3316L11.9427 24.0949L10.4447 22.4184L12.642 21.9426L13.7734 20Z" fill="#FAB82B" stroke="#413930" stroke-width="1.4" stroke-linejoin="round"/>
<circle cx="11" cy="8" r="3" fill="#F15D22"/>
</svg>
