<svg width="40" height="40" viewBox="0 0 40 40" fill="none" xmlns="http://www.w3.org/2000/svg">
<path d="M12.5 9C12.5 8.17157 13.1716 7.5 14 7.5H32C32.8284 7.5 33.5 8.17157 33.5 9V22.7143V26.9042C33.5 27.7187 32.85 28.3844 32.0357 28.4038L27.994 28.5H14C13.1716 28.5 12.5 27.8284 12.5 27V9Z" fill="#F15D22" stroke="#413930"/>
<path d="M6.5 15C6.5 14.1716 7.17157 13.5 8 13.5H26C26.8284 13.5 27.5 14.1716 27.5 15V28.514L24.6383 31.5119L21.786 34.5H8C7.17157 34.5 6.5 33.8284 6.5 33V15Z" fill="#F2EFED" stroke="#413930"/>
<path d="M10.2026 19C9.5 20.5 12.2026 21.5001 12.7026 20C13.2026 18.5 12.036 18 11.7026 18" stroke="#413930" stroke-linecap="round"/>
<path d="M10.2026 24C9.5 25.5 12.2026 26.5001 12.7026 25C13.2026 23.5 12.036 23 11.7026 23" stroke="#413930" stroke-linecap="round"/>
<path d="M10.2026 29C9.5 30.5 12.2026 31.5001 12.7026 30C13.2026 28.5 12.036 28 11.7026 28" stroke="#413930" stroke-linecap="round"/>
<path d="M15 18.9948C16.1751 18.6567 17.3313 18.4979 18.5378 18.5009C19.6 18.5036 20.6692 18.5478 21.7222 18.6818C22.5113 18.7823 23.2545 19.0063 24.0271 19.1878" stroke="#413930" stroke-linecap="round"/>
<path d="M15 23.9948C16.1751 23.6567 17.3313 23.4979 18.5378 23.5009C19.6 23.5036 20.6692 23.5478 21.7222 23.6818C22.5113 23.7823 23.2545 24.0063 24.0271 24.1878" stroke="#413930" stroke-linecap="round"/>
<path d="M15 28.9948C16.1751 28.6566 17.3314 28.4979 18.5378 28.5009" stroke="#413930" stroke-linecap="round"/>
</svg>
