<svg width="40" height="40" viewBox="0 0 40 40" fill="none" xmlns="http://www.w3.org/2000/svg">
<path d="M17 27.5C16.8106 27.5 16.6375 27.607 16.5528 27.7764L15.4472 29.9875C15.263 30.3561 14.737 30.3561 14.5528 29.9875L13.4472 27.7764C13.3625 27.607 13.1894 27.5 13 27.5H10C8.067 27.5 6.5 25.933 6.5 24V12C6.5 10.067 8.067 8.5 10 8.5H29C30.933 8.5 32.5 10.067 32.5 12V24C32.5 25.933 30.933 27.5 29 27.5H17Z" fill="#F2EFED" stroke="#413930" stroke-linejoin="round"/>
<circle cx="13" cy="18" r="1.5" fill="#F15D22" stroke="#413930"/>
<circle cx="19" cy="18" r="1.5" fill="#F15D22" stroke="#413930"/>
<circle cx="25" cy="18" r="1.5" fill="#F15D22" stroke="#413930"/>
</svg>
