<svg width="40" height="40" viewBox="0 0 40 40" fill="none" xmlns="http://www.w3.org/2000/svg">
<path d="M14.2998 19.2502L15.9226 31.4376C15.9394 31.6402 15.8707 31.8391 15.7358 31.9853L15.7349 31.9864C15.5979 32.1356 15.4074 32.2159 15.2114 32.2109L15.2114 32.2108H15.1987H7.61339C7.06224 32.1917 6.59224 31.7784 6.5012 31.2118C6.50064 31.2056 6.50003 31.1948 6.5 31.1778C6.5 31.1775 6.5 31.1771 6.5 31.1767L6.56268 19.3063L6.56285 19.2739L6.55882 19.2416C6.53257 19.0318 6.59882 18.8212 6.73774 18.6655L6.73775 18.6655C6.87569 18.5109 7.07202 18.4271 7.27188 18.433L7.27915 18.4332H7.28642H13.2273C13.6935 18.4499 14.1097 18.7479 14.2808 19.1999L14.2998 19.2502ZM32.5913 20.6252L32.0419 21.019L32.5793 21.4291C33.1005 21.8268 33.4329 22.4346 33.4898 23.1004C33.5691 24.0696 33.1874 24.7053 32.5048 25.0283L31.9726 25.2801L32.3073 25.7645C32.6617 26.2772 32.7898 26.9187 32.6609 27.5341L32.6582 27.547L32.6562 27.5601C32.5605 28.1782 32.0994 28.6669 31.5064 28.7947L31.1117 28.8798V29.2835C31.1117 29.2957 31.112 29.3062 31.1123 29.314L31.1131 29.3292V29.3326L31.1138 29.3456C31.1139 29.3472 31.1141 29.3525 31.1144 29.3601C31.1155 29.385 31.1177 29.4352 31.1197 29.4687L31.125 29.5607L31.1627 29.6448C31.3569 30.0769 31.3795 30.5698 31.2251 31.0176C31.0572 31.4931 30.6977 31.7611 30.2863 31.9173C29.8662 32.0768 29.4344 32.1005 29.2326 32.1005H29.2325L22.4571 32.102C22.4571 32.102 22.457 32.102 22.457 32.102C21.8634 32.1019 20.9451 31.8851 19.9916 31.5909C19.1967 31.3457 18.4205 31.0606 17.8663 30.8469L16.2432 18.6549C16.4626 18.4096 16.7239 18.0601 16.9951 17.6666C17.358 17.1397 17.7646 16.4948 18.1537 15.822C18.5427 15.1495 18.9178 14.4429 19.2158 13.7927C19.5094 13.1521 19.7445 12.532 19.8297 12.0434L19.8303 12.0396C19.9692 11.2058 19.9224 10.3528 19.693 9.53945L19.6901 9.52905L19.6867 9.51879C19.5844 9.20834 19.5571 8.87665 19.6076 8.55381C19.6783 8.31355 19.886 8.09269 20.2483 7.92118C20.6181 7.74608 21.0871 7.65558 21.5268 7.65558C21.657 7.65558 21.7886 7.66423 21.9204 7.68063C22.2042 7.71658 22.5649 7.91441 22.9836 8.40703L22.9837 8.40721C23.3772 8.86976 23.7888 9.56346 24.0911 10.3367C24.3941 11.1117 24.5714 11.9263 24.5349 12.6322L24.5349 12.633C24.4785 13.7569 24.4787 15.0178 24.4887 15.8178L24.4949 16.3115H24.9886H30.4038V16.3117L30.4171 16.3113C31.1378 16.2921 31.8362 16.5862 32.3346 17.1217C32.9261 17.8115 33.2177 18.7161 33.1409 19.6293L33.1408 19.6293L33.1403 19.6361C33.1122 20.0348 32.9093 20.3973 32.5913 20.6252Z" fill="#5E91FF" stroke="#413930"/>
</svg>
