<svg width="40" height="40" viewBox="0 0 40 40" fill="none" xmlns="http://www.w3.org/2000/svg">
<circle cx="21" cy="19" r="13.7" fill="#5E91FF" stroke="#212638" stroke-width="0.6"/>
<path fill-rule="evenodd" clip-rule="evenodd" d="M19.404 14.8134C19.1611 15.1932 19.0732 15.7502 19.0732 16.3135C19.0732 17.1621 18.3852 17.8501 17.5366 17.85C16.6879 17.85 16 17.1621 16 16.3134C16 15.5677 16.0923 14.2876 16.8151 13.1575C17.617 11.9039 19.0156 11.1027 21.0389 11.1027C23.2799 11.1027 24.8694 11.7546 25.7552 13.0885C26.5082 14.2225 26.5046 15.5533 26.5028 16.224C26.5027 16.2553 26.5026 16.2851 26.5026 16.3135C26.5026 17.4673 26.1104 18.3594 25.4532 19.0342C24.9357 19.5656 24.2787 19.9181 23.8517 20.1473C23.8107 20.1692 23.7719 20.1901 23.7355 20.2099C23.229 20.4848 22.9822 20.6469 22.8226 20.8344C22.7172 20.9583 22.5755 21.1786 22.5755 21.7326C22.5755 22.5813 21.8875 23.2692 21.0389 23.2692C20.1902 23.2692 19.5023 22.5813 19.5023 21.7326C19.5023 20.5338 19.8514 19.5839 20.4823 18.8426C21.0576 18.1666 21.7904 17.7689 22.2659 17.5108L22.2694 17.5089C22.8353 17.2018 23.0824 17.0637 23.2516 16.89C23.3308 16.8087 23.4294 16.6943 23.4294 16.3135C23.4294 15.5147 23.3887 15.0801 23.1951 14.7885C23.099 14.6439 22.725 14.1759 21.0389 14.1759C19.9204 14.1759 19.5679 14.5572 19.404 14.8134Z" fill="white" stroke="#212638" stroke-width="0.6" stroke-linecap="round" stroke-linejoin="round"/>
<ellipse cx="20.8914" cy="26.1444" rx="1.75297" ry="1.75297" fill="white" stroke="#212638" stroke-width="0.6"/>
</svg>
