<svg width="40" height="40" viewBox="0 0 40 40" fill="none" xmlns="http://www.w3.org/2000/svg">
<path d="M25.7005 20.6991L24.0775 8.29757C24.06 8.08599 24.1308 7.87964 24.267 7.72939L24.268 7.72833C24.4059 7.57542 24.5956 7.49525 24.7884 7.50022L24.7884 7.50039L24.8013 7.50039L32.3865 7.50039C32.9314 7.51963 33.4064 7.93713 33.4987 8.52326C33.4993 8.53016 33.5 8.54185 33.5 8.55999C33.5 8.56036 33.5 8.56074 33.5 8.56112L33.4373 20.638L33.4372 20.67L33.4411 20.7016C33.468 20.9206 33.3997 21.139 33.2594 21.2989L33.2594 21.2989C33.1205 21.4573 32.925 21.541 32.7284 21.5352L32.721 21.535L32.7136 21.535L26.7728 21.535C26.3116 21.518 25.8934 21.2175 25.7202 20.7519L25.7005 20.6991ZM7.41186 19.2866L7.94875 18.8952L7.42389 18.4877C6.9022 18.0827 6.56734 17.4617 6.5101 16.7789C6.43027 15.7848 6.81657 15.1353 7.49814 14.8072L8.02081 14.5555L7.69484 14.0757C7.33885 13.5516 7.20941 12.8946 7.33931 12.2636L7.34193 12.2509L7.34389 12.238C7.44081 11.6011 7.90617 11.1048 8.49527 10.9756L8.8882 10.8895L8.8882 10.4872C8.8882 10.4752 8.88788 10.4647 8.88756 10.4569L8.88678 10.4412L8.88678 10.4377L8.88613 10.425C8.88605 10.4234 8.88588 10.4194 8.88563 10.4136C8.8846 10.3898 8.88232 10.3358 8.88027 10.2998L8.87511 10.2092L8.83845 10.1262C8.64278 9.68317 8.61994 9.17712 8.77572 8.71756C8.94518 8.22912 9.30702 7.95659 9.71626 7.79851C10.1353 7.63664 10.5661 7.61253 10.7673 7.61253L10.7674 7.61253L17.5428 7.61106C17.5429 7.61106 17.5429 7.61106 17.5429 7.61106C18.1351 7.61108 19.0524 7.83129 20.0061 8.13067C20.8015 8.3804 21.5785 8.6707 22.1327 8.88822L23.7575 21.3056C23.5377 21.555 23.2752 21.9119 23.0026 22.3145C22.6398 22.8503 22.2334 23.5061 21.8444 24.1904C21.4556 24.8744 21.0806 25.593 20.7828 26.254C20.4892 26.9057 20.2549 27.5352 20.17 28.0301L20.1694 28.0338C20.0309 28.8796 20.0776 29.7449 20.3063 30.5702L20.3092 30.5804L20.3125 30.5906C20.4156 30.9091 20.4432 31.2496 20.392 31.5811C20.3201 31.8311 20.1096 32.0565 19.7486 32.2304C19.3796 32.4082 18.9117 32.5 18.4731 32.5C18.3433 32.5 18.2121 32.4912 18.0806 32.4746C17.7994 32.4383 17.4388 32.2382 17.0191 31.7357L17.0189 31.7355C16.6249 31.2642 16.2126 30.5574 15.9099 29.7694C15.6065 28.9798 15.4284 28.1487 15.4651 27.4272L15.4651 27.4264C15.5214 26.2836 15.5213 25.0012 15.5112 24.1874L15.5052 23.6935L15.0113 23.6935L9.59614 23.6935L9.59614 23.6933L9.58259 23.6937C8.86508 23.7132 8.16762 23.4155 7.66831 22.8697C7.07527 22.1664 6.78179 21.2422 6.8591 20.3079L6.85914 20.3079L6.8596 20.3012C6.88809 19.89 7.09369 19.5186 7.41186 19.2866Z" fill="#FAB82B" stroke="#413930"/>
</svg>
