<svg width="40" height="40" viewBox="0 0 40 40" fill="none" xmlns="http://www.w3.org/2000/svg">
<path d="M32.7644 15.1233C32.644 15.656 32.454 16.1692 32.2001 16.6502L27.1786 13.1028L22.157 9.55538C22.5255 9.15543 22.9457 8.80483 23.4075 8.51332C24.096 8.07872 24.8634 7.78398 25.6658 7.64594C26.4682 7.50789 27.29 7.52925 28.0841 7.70878C28.8783 7.88831 29.6293 8.22251 30.2943 8.69229C30.9593 9.16206 31.5252 9.75822 31.9598 10.4467C32.3944 11.1352 32.6892 11.9026 32.8272 12.705C32.9653 13.5074 32.9439 14.3291 32.7644 15.1233Z" fill="#F15D22" stroke="#413930" stroke-width="1.6"/>
<path d="M7.70901 15.1233C7.82943 15.656 8.01943 16.1692 8.27326 16.6502L13.2948 13.1028L18.3164 9.55538C17.9479 9.15543 17.5277 8.80483 17.0659 8.51332C16.3774 8.07872 15.61 7.78398 14.8076 7.64594C14.0052 7.50789 13.1834 7.52925 12.3893 7.70878C11.5951 7.88831 10.8441 8.22251 10.1791 8.69229C9.51411 9.16206 8.94815 9.75822 8.51355 10.4467C8.07894 11.1352 7.7842 11.9026 7.64616 12.705C7.50812 13.5074 7.52947 14.3291 7.70901 15.1233Z" fill="#F15D22" stroke="#413930" stroke-width="1.6"/>
<circle cx="20" cy="20.9999" r="12.2" fill="#5E91FF" stroke="#413930" stroke-width="1.6"/>
<path d="M29.628 21C29.628 26.3175 25.3173 30.6281 19.9999 30.6281C14.6824 30.6281 10.3718 26.3175 10.3718 21C10.3718 15.6825 14.6824 11.3719 19.9999 11.3719C25.3173 11.3719 29.628 15.6825 29.628 21Z" fill="#EEF4FF" stroke="#413930" stroke-width="1.6"/>
<line x1="11.7072" y1="35.2371" x2="13.4072" y2="32.2926" stroke="#413930" stroke-width="1.6" stroke-linecap="round"/>
<line x1="0.8" y1="-0.8" x2="4.2" y2="-0.8" transform="matrix(-0.5 -0.866025 -0.866025 0.5 28.5 36.33)" stroke="#413930" stroke-width="1.6" stroke-linecap="round"/>
<path d="M19.6121 14.2739L19.6121 21.2739L24.5299 25.6014" stroke="#413930" stroke-width="1.6" stroke-linecap="round" stroke-linejoin="round"/>
</svg>
