<svg width="40" height="40" viewBox="0 0 40 40" fill="none" xmlns="http://www.w3.org/2000/svg">
<rect x="7.94116" y="13.1875" width="19.5996" height="19.5996" fill="#F15D22" stroke="#413930" stroke-linejoin="round"/>
<path fill-rule="evenodd" clip-rule="evenodd" d="M33.9628 17.0062C34.9909 16.2793 35.6621 15.0812 35.6621 13.7263C35.6621 11.5092 33.8648 9.71198 31.6478 9.71198C31.468 9.71198 31.3223 9.56625 31.3223 9.38649C31.3223 7.16946 29.5251 5.37219 27.308 5.37219C25.9696 5.37219 24.7842 6.02718 24.0548 7.0341C23.3255 6.02718 22.14 5.37219 20.8016 5.37219C18.5846 5.37219 16.7873 7.16945 16.7873 9.38649C16.7873 9.56625 16.6416 9.71198 16.4619 9.71198C14.2448 9.71198 12.4476 11.5092 12.4476 13.7263C12.4476 15.0811 13.1188 16.2792 14.1468 17.0062C13.1188 17.7331 12.4476 18.9312 12.4476 20.286C12.4476 22.5031 14.2448 24.3004 16.4619 24.3004C16.6416 24.3004 16.7873 24.4461 16.7873 24.6258C16.7873 26.8428 18.5846 28.6401 20.8016 28.6401C22.14 28.6401 23.3254 27.9852 24.0548 26.9783C24.7842 27.9852 25.9695 28.6401 27.3079 28.6401C29.5249 28.6401 31.3222 26.8428 31.3222 24.6258C31.3222 24.4461 31.4679 24.3004 31.6476 24.3004C33.8647 24.3004 35.662 22.5031 35.662 20.286C35.662 18.9312 34.9908 17.7332 33.9628 17.0062Z" fill="#F2EFED"/>
<path d="M33.9628 17.0062L33.6741 16.598C33.5416 16.6917 33.4628 16.8439 33.4628 17.0062C33.4628 17.1685 33.5416 17.3207 33.6741 17.4145L33.9628 17.0062ZM24.0548 7.0341L23.6499 7.32741C23.744 7.45724 23.8945 7.5341 24.0548 7.5341C24.2151 7.5341 24.3657 7.45723 24.4598 7.32741L24.0548 7.0341ZM12.4476 13.7263L11.9476 13.7263L12.4476 13.7263ZM14.1468 17.0062L14.4355 17.4144C14.568 17.3207 14.6468 17.1685 14.6468 17.0062C14.6468 16.8439 14.568 16.6916 14.4355 16.5979L14.1468 17.0062ZM12.4476 20.286L11.9476 20.286L12.4476 20.286ZM20.8016 28.6401L20.8016 28.1401L20.8016 28.6401ZM24.0548 26.9783L24.4597 26.685C24.3657 26.5552 24.2151 26.4783 24.0548 26.4783C23.8945 26.4783 23.7439 26.5551 23.6499 26.685L24.0548 26.9783ZM27.3079 28.6401L27.3079 29.1401L27.3079 28.6401ZM34.2515 17.4145C35.4064 16.5978 36.1621 15.2503 36.1621 13.7263L35.1621 13.7263C35.1621 14.912 34.5754 15.9607 33.6741 16.598L34.2515 17.4145ZM36.1621 13.7263C36.1621 11.2331 34.141 9.21198 31.6478 9.21198L31.6478 10.212C33.5887 10.212 35.1621 11.7854 35.1621 13.7263L36.1621 13.7263ZM31.6478 9.21198C31.7443 9.21198 31.8223 9.2902 31.8223 9.38649L30.8223 9.38649C30.8223 9.8423 31.1918 10.212 31.6478 10.212L31.6478 9.21198ZM31.8223 9.38649C31.8223 6.89331 29.8012 4.87219 27.308 4.87219L27.308 5.87219C29.2489 5.87219 30.8223 7.4456 30.8223 9.38649L31.8223 9.38649ZM27.308 4.87219C25.8025 4.87219 24.4693 5.60962 23.6499 6.74078L24.4598 7.32741C25.0991 6.44473 26.1367 5.87219 27.308 5.87219L27.308 4.87219ZM24.4598 6.74078C23.6404 5.60962 22.3071 4.87219 20.8016 4.87219L20.8016 5.87219C21.973 5.87219 23.0105 6.44473 23.6499 7.32741L24.4598 6.74078ZM20.8016 4.87219C18.3085 4.87219 16.2873 6.89331 16.2873 9.38649L17.2873 9.38649C17.2873 7.4456 18.8607 5.87219 20.8016 5.87219L20.8016 4.87219ZM16.2873 9.38649C16.2873 9.29011 16.3655 9.21198 16.4619 9.21198L16.4619 10.212C16.9178 10.212 17.2873 9.84239 17.2873 9.38649L16.2873 9.38649ZM16.4619 9.21198C13.9687 9.21198 11.9476 11.2331 11.9476 13.7263L12.9476 13.7263C12.9476 11.7854 14.521 10.212 16.4619 10.212L16.4619 9.21198ZM11.9476 13.7263C11.9476 15.2503 12.7032 16.5978 13.8581 17.4144L14.4355 16.5979C13.5343 15.9607 12.9476 14.912 12.9476 13.7263L11.9476 13.7263ZM13.8581 16.5979C12.7032 17.4146 11.9476 18.762 11.9476 20.286L12.9476 20.286C12.9476 19.1003 13.5343 18.0517 14.4355 17.4144L13.8581 16.5979ZM11.9476 20.286C11.9476 22.7792 13.9687 24.8004 16.4619 24.8004L16.4619 23.8004C14.521 23.8004 12.9476 22.227 12.9476 20.286L11.9476 20.286ZM16.4619 24.8004C16.3656 24.8004 16.2873 24.7223 16.2873 24.6258L17.2873 24.6258C17.2873 24.1698 16.9177 23.8004 16.4619 23.8004L16.4619 24.8004ZM16.2873 24.6258C16.2873 27.119 18.3084 29.1401 20.8016 29.1401L20.8016 28.1401C18.8607 28.1401 17.2873 26.5667 17.2873 24.6258L16.2873 24.6258ZM20.8016 29.1401C22.3071 29.1401 23.6403 28.4027 24.4597 27.2716L23.6499 26.685C23.0105 27.5676 21.9729 28.1401 20.8016 28.1401L20.8016 29.1401ZM23.6499 27.2716C24.4692 28.4027 25.8025 29.1401 27.3079 29.1401L27.3079 28.1401C26.1366 28.1401 25.0991 27.5676 24.4597 26.685L23.6499 27.2716ZM27.3079 29.1401C29.8011 29.1401 31.8222 27.119 31.8222 24.6258L30.8222 24.6258C30.8222 26.5667 29.2488 28.1401 27.3079 28.1401L27.3079 29.1401ZM31.8222 24.6258C31.8222 24.7222 31.7441 24.8004 31.6476 24.8004L31.6476 23.8004C31.1918 23.8004 30.8222 24.1699 30.8222 24.6258L31.8222 24.6258ZM31.6476 24.8004C34.1408 24.8004 36.162 22.7792 36.162 20.286L35.162 20.286C35.162 22.2269 33.5885 23.8004 31.6476 23.8004L31.6476 24.8004ZM36.162 20.286C36.162 18.7621 35.4063 17.4146 34.2515 16.598L33.6741 17.4145C34.5753 18.0517 35.162 19.1004 35.162 20.286L36.162 20.286Z" fill="#413930"/>
<path d="M19.1781 13.208C21.6613 13.1791 26.6395 12.9932 29.1286 13.0219" stroke="#413930" stroke-linecap="round"/>
<path d="M18.7652 17.6251L29.3439 16.914" stroke="#413930" stroke-linecap="round"/>
<path d="M20.3805 21.5264L27.4262 21.5264" stroke="#413930" stroke-linecap="round"/>
</svg>
