<svg width="40" height="40" viewBox="0 0 40 40" fill="none" xmlns="http://www.w3.org/2000/svg">
<path d="M23.6338 12.3778C22.7227 12.6344 22.2107 13.6174 22.4848 14.5235L23.5503 18.0463L21.0742 11.0261C20.8002 10.12 19.8292 9.58557 18.9286 9.87688C18.0559 10.1592 17.5663 11.0897 17.833 11.9716L19.6724 19.2192L17.043 10.5258C16.769 9.61975 15.798 9.08532 14.8974 9.37663C14.0247 9.65893 13.5351 10.5894 13.8018 11.4713L16.4408 20.1966L13.977 13.2167C13.7029 12.3107 12.732 11.7763 11.8314 12.0676C10.9586 12.3499 10.469 13.2804 10.7357 14.1622L13.619 23.6951L11.8089 22.3238C11.0657 21.7609 10.0069 21.9069 9.44393 22.6501C8.88103 23.3932 9.02711 24.452 9.77025 25.015L16.9539 30.4569C19.2834 32.2215 21.9886 33.2162 25.0585 31.982C29.306 30.2743 28.6117 23.1193 27.5437 19.5879L25.7067 13.5142C25.44 12.6323 24.5167 12.1291 23.6338 12.3778Z" fill="#5E91FF" stroke="#413930" stroke-linejoin="round"/>
<path d="M27.2595 8.42596C27.2595 8.42596 28.9375 8.47232 30.2289 10.5838C31.5204 12.6954 30.7972 14.2103 30.7972 14.2103" stroke="#413930" stroke-linecap="round" stroke-linejoin="round"/>
<path d="M26.5493 10.9612C26.5493 10.9612 27.4014 10.9848 28.0571 12.0569C28.7129 13.1291 28.3457 13.8983 28.3457 13.8983" stroke="#413930" stroke-linecap="round" stroke-linejoin="round"/>
</svg>
