<svg width="40" height="40" viewBox="0 0 40 40" fill="none" xmlns="http://www.w3.org/2000/svg">
<circle cx="19.7732" cy="19.7732" r="13.2732" fill="#FAB82B" stroke="#413930"/>
<path d="M21 26L22.5 28.5C21.8333 29.1667 20.7 30.9 21.5 32.5C22.5 34.5 26.5 34.5 28 31.5C29.4597 28.5807 25.8333 26.8333 24 27.5L23 25L21 26Z" fill="#F2EFED" stroke="#413930" stroke-linecap="round"/>
<path d="M10.9834 17.5842C12.809 17.5462 13.9453 17.094 14.915 15.5514C15.2833 14.9655 15.326 14.3891 15.326 13.7241" stroke="#413930" stroke-linecap="round"/>
<path d="M28.3428 17.5842C26.5172 17.5462 25.3808 17.094 24.4112 15.5514C24.0429 14.9655 24.0002 14.3891 24.0002 13.7241" stroke="#413930" stroke-linecap="round"/>
<path d="M22.5 21.5C22.5 22.5231 21.4699 23.5 20 23.5C18.5301 23.5 17.5 22.5231 17.5 21.5C17.5 20.4769 18.5301 19.5 20 19.5C21.4699 19.5 22.5 20.4769 22.5 21.5Z" fill="#F15D22" stroke="#413930"/>
</svg>
