<svg width="40" height="40" viewBox="0 0 40 40" fill="none" xmlns="http://www.w3.org/2000/svg">
<path d="M4.23364 20.6249H35.7662L31.7918 16.6505" stroke="#413930" stroke-linecap="round" stroke-linejoin="round"/>
<path d="M9.87451 16.7974V20.5054M18.2176 16.7974V20.5054M25.7366 16.7974V20.5054" stroke="#413930" stroke-linecap="round" stroke-linejoin="round"/>
<path d="M11.1572 26.9178V27.7894C11.1572 28.2069 11.1157 28.5634 11.0327 28.8588C10.9521 29.1517 10.835 29.3898 10.6812 29.5729C10.5273 29.756 10.343 29.8903 10.1282 29.9757C9.91577 30.0612 9.67773 30.1039 9.41406 30.1039C9.2041 30.1039 9.00879 30.077 8.82812 30.0233C8.6499 29.9696 8.48877 29.8854 8.34473 29.7706C8.20068 29.6559 8.07739 29.5082 7.97485 29.3275C7.87476 29.1444 7.79663 28.9259 7.74048 28.672C7.68677 28.4181 7.65991 28.1239 7.65991 27.7894V26.9178C7.65991 26.4979 7.70142 26.1439 7.78442 25.8558C7.86743 25.5653 7.98584 25.3297 8.13965 25.149C8.29346 24.9659 8.47656 24.8329 8.68896 24.7499C8.90381 24.6669 9.14307 24.6254 9.40674 24.6254C9.61914 24.6254 9.81445 24.6522 9.99268 24.7059C10.1733 24.7572 10.3345 24.839 10.4761 24.9513C10.6201 25.0636 10.7422 25.2101 10.8423 25.3907C10.9448 25.569 11.0229 25.785 11.0767 26.0389C11.1304 26.2904 11.1572 26.5834 11.1572 26.9178ZM10.2747 27.9139V26.786C10.2747 26.5736 10.2625 26.3868 10.238 26.2257C10.2136 26.0621 10.177 25.9242 10.1282 25.8119C10.0818 25.6971 10.0232 25.6044 9.95239 25.5336C9.88159 25.4603 9.80103 25.4078 9.71069 25.3761C9.62036 25.3419 9.51904 25.3248 9.40674 25.3248C9.27002 25.3248 9.14795 25.3517 9.04053 25.4054C8.93311 25.4567 8.84277 25.5397 8.76953 25.6544C8.69629 25.7692 8.64014 25.9205 8.60107 26.1085C8.56445 26.2941 8.54614 26.5199 8.54614 26.786V27.9139C8.54614 28.1288 8.55835 28.318 8.58276 28.4816C8.60718 28.6451 8.6438 28.7855 8.69263 28.9027C8.74146 29.0175 8.80005 29.1127 8.86841 29.1884C8.93921 29.2616 9.01978 29.3153 9.11011 29.3495C9.20288 29.3837 9.3042 29.4008 9.41406 29.4008C9.55322 29.4008 9.67651 29.3739 9.78394 29.3202C9.89136 29.2665 9.98169 29.181 10.0549 29.0638C10.1282 28.9442 10.1831 28.7892 10.2197 28.5988C10.2563 28.4083 10.2747 28.1801 10.2747 27.9139Z" fill="#413930"/>
<path d="M18.5498 24.6803V30.0306H17.6672V25.7277L16.3599 26.1708V25.442L18.4436 24.6803H18.5498Z" fill="#413930"/>
<path d="M28.1726 29.3275V30.0306H24.5984V29.4264L26.3342 27.5331C26.5247 27.3182 26.6748 27.1327 26.7847 26.9764C26.8945 26.8202 26.9714 26.6798 27.0154 26.5553C27.0618 26.4283 27.085 26.3051 27.085 26.1854C27.085 26.017 27.0532 25.8693 26.9897 25.7423C26.9287 25.6129 26.8384 25.5116 26.7188 25.4384C26.5991 25.3627 26.4539 25.3248 26.283 25.3248C26.0852 25.3248 25.9192 25.3676 25.7849 25.453C25.6506 25.5385 25.5493 25.6569 25.481 25.8082C25.4126 25.9572 25.3784 26.1281 25.3784 26.3209H24.4958C24.4958 26.0109 24.5667 25.7277 24.7083 25.4713C24.8499 25.2125 25.0549 25.0074 25.3235 24.8561C25.592 24.7023 25.9155 24.6254 26.2939 24.6254C26.6504 24.6254 26.9531 24.6852 27.2021 24.8048C27.4512 24.9244 27.6404 25.0941 27.7698 25.3138C27.9016 25.5336 27.9675 25.7936 27.9675 26.0939C27.9675 26.2599 27.9407 26.4247 27.887 26.5883C27.8333 26.7518 27.7563 26.9154 27.6562 27.079C27.5586 27.2401 27.4426 27.4025 27.3083 27.566C27.1741 27.7272 27.0264 27.8907 26.8652 28.0568L25.7117 29.3275H28.1726Z" fill="#413930"/>
</svg>
