<svg width="40" height="40" viewBox="0 0 40 40" fill="none" xmlns="http://www.w3.org/2000/svg">
<path d="M29.5001 26.25V26.4571L29.6465 26.6036L32.8334 29.7904V30.75H7.16675V29.7904L10.3536 26.6036L10.5001 26.4571V26.25V17.9167C10.5001 12.9577 13.1089 8.93759 17.6154 7.86986L18.0001 7.77871V7.38333V6.25C18.0001 5.14281 18.8929 4.25 20.0001 4.25C21.1073 4.25 22.0001 5.14281 22.0001 6.25V7.38333V7.77839L22.3844 7.86977C26.8749 8.93743 29.5001 12.9748 29.5001 17.9167V26.25ZM22.7888 33.4167C22.5506 34.738 21.3868 35.75 20.0001 35.75C18.5998 35.75 17.4463 34.739 17.2108 33.4167H22.7888Z" fill="#09CC91" stroke="#413930"/>
<path d="M14.1667 20.8333L17.5001 24.1666L25.8334 15.8333" stroke="#413930" stroke-linejoin="round"/>
</svg>
