<svg width="108" height="108" viewBox="0 0 108 108" fill="none" xmlns="http://www.w3.org/2000/svg">
<path d="M55.4229 83.7654L55.4229 87.6575L90.9218 87.6575L90.9218 83.7654L55.4229 83.7654Z" fill="#F2EFED"/>
<path d="M55.8114 84.1543L90.5331 84.1543L90.5331 87.2683L55.8114 87.2683L55.8114 84.1543M55.0342 83.3762L55.0342 88.0464L91.3104 88.0464L91.3104 83.3762L55.0342 83.3762Z" fill="#413930"/>
<path d="M60.1499 87.2642L60.1499 84.1593L77.5758 84.1593L76.9434 87.2642L60.1499 87.2642Z" fill="#E5E1DE"/>
<rect x="33.0312" y="69.5564" width="45.3943" height="28.85" rx="14.425" fill="#F2EFED" stroke="#413930" stroke-width="1.5"/>
<path d="M92.6931 77.0206L92.1829 77.0206C87.9908 77.0206 84.5801 80.4348 84.5801 84.6313C84.5801 88.8277 87.9908 92.242 92.1829 92.242L92.6931 92.242L92.6931 77.0206V77.0206Z" fill="#F2EFED"/>
<path d="M84.9686 84.6313C84.9686 86.5604 85.7189 88.3737 87.0818 89.7376C88.4443 91.1015 90.2562 91.853 92.1828 91.853L92.3044 91.853L92.3044 77.4096L92.1828 77.4096C90.2557 77.4096 88.4443 78.1606 87.0818 79.525C85.7194 80.8888 84.9686 82.7026 84.9686 84.6313ZM84.1914 84.6313C84.1914 80.2133 87.7695 76.6315 92.1828 76.6315L93.0817 76.6315L93.0817 92.631L92.1828 92.631C87.7695 92.631 84.1914 89.0493 84.1914 84.6313Z" fill="#413930"/>
<path d="M34.123 77.0206C34.123 77.0206 37.8576 80.6727 49.799 85.2744C61.7404 89.8762 74.5862 92.9154 76.6167 90.7622C78.6472 88.6091 79.5398 80.1382 75.4951 75.3631C75.4951 75.3631 45.4033 80.8787 34.123 77.0206Z" fill="#E5E1DE"/>
<path d="M55.4233 91.3762L55.4233 95.2683L90.9223 95.2683L90.9223 91.3762L55.4233 91.3762Z" fill="#F2EFED"/>
<path d="M55.8119 91.7653L90.5336 91.7653L90.5336 94.8793L55.8119 94.8793L55.8119 91.7653ZM55.0347 90.9872L55.0347 95.6573L91.3109 95.6573L91.3109 90.9872L55.0347 90.9872Z" fill="#413930"/>
<path d="M49.3523 20.9817L47.1445 21.4603L49.5462 32.5389L51.754 32.0602L49.3523 20.9817Z" fill="#F2EFED"/>
<path d="M49.0551 21.4438L51.2921 31.7627L49.8446 32.0765L47.6077 21.7576L49.0551 21.4438M49.6508 20.5194L46.6826 21.1628L49.2489 33.001L52.2171 32.3575L49.6508 20.5194V20.5194Z" fill="#413930"/>
<path d="M47.9936 82.1459C44.7467 82.8498 41.4597 82.8975 38.2235 82.2873C35.0977 81.6981 32.1502 80.5233 29.4632 78.7957C26.7762 77.0681 24.4851 74.8748 22.6537 72.2768C20.7579 69.5871 19.4399 66.5789 18.7368 63.3354C18.0336 60.0919 17.9872 56.808 18.5994 53.5746C19.1905 50.4515 20.3677 47.5063 22.0981 44.8211C23.8285 42.1359 26.0249 39.846 28.6261 38.0152C31.3192 36.1201 34.3309 34.802 37.5777 34.0981L63.1089 28.5634C66.3558 27.8596 69.6428 27.8118 72.879 28.422C76.0049 29.0112 78.9523 30.186 81.6394 31.9136C84.3264 33.6412 86.6175 35.8345 88.4489 38.4325C90.3446 41.1222 91.6627 44.1304 92.3658 47.3739C93.0689 50.6174 93.1153 53.9013 92.5032 57.1347C91.912 60.2579 90.7348 63.203 89.0044 65.8882C87.274 68.5735 85.0777 70.8633 82.4764 72.6941C79.7833 74.5892 76.7717 75.9073 73.5248 76.6112L47.9936 82.1459Z" fill="#F2EFED"/>
<path d="M63.191 28.9433C66.3865 28.2506 69.6217 28.2037 72.8066 28.804C75.8831 29.3838 78.7839 30.5402 81.429 32.2404C84.0735 33.9407 86.3286 36.0997 88.131 38.6567C89.9969 41.3038 91.2938 44.2642 91.9859 47.4567C92.678 50.6493 92.7234 53.881 92.1212 57.0631C91.5395 60.137 90.3808 63.0355 88.6777 65.6783C86.9746 68.3212 84.8126 70.575 82.2524 72.3768C79.602 74.2421 76.6382 75.5391 73.4423 76.2319L47.9111 81.7666C44.7157 82.4593 41.4805 82.5061 38.2956 81.9059C35.2191 81.3261 32.3182 80.1697 29.6732 78.4695C27.0286 76.7692 24.7736 74.6106 22.9712 72.0531C21.1053 69.406 19.8083 66.4457 19.1162 63.2531C18.4242 60.0606 18.3787 56.8289 18.981 53.6467C19.5627 50.5729 20.7214 47.6743 22.4243 45.031C24.1274 42.3882 26.2894 40.1343 28.8497 38.3326C31.5001 36.4673 34.4638 35.1703 37.6597 34.4775L63.1909 28.9428M63.0263 28.1832L37.495 33.7179C24.0031 36.6432 15.4345 49.9399 18.3563 63.4178C21.2781 76.8958 34.5837 85.4506 48.0757 82.5257L73.6069 76.991C87.0989 74.0662 95.6675 60.7695 92.7457 47.2915C89.824 33.8136 76.5184 25.2588 63.0264 28.1837L63.0263 28.1832Z" fill="#413930"/>
<path d="M52.1658 18.4888C54.0695 15.5346 53.2164 11.599 50.2602 9.69837C47.3041 7.79774 43.3644 8.65179 41.4607 11.606C39.5569 14.5601 40.4101 18.4957 43.3663 20.3964C46.3224 22.297 50.2621 21.4429 52.1658 18.4888Z" fill="#F15D22"/>
<path d="M45.5431 9.18899C47.1096 8.84942 48.7146 9.13958 50.0619 10.0058C51.4092 10.8721 52.3383 12.2112 52.6775 13.776C53.0167 15.3408 52.7256 16.9444 51.858 18.2908C50.9903 19.6372 49.6495 20.566 48.0831 20.9056C46.5167 21.2451 44.9116 20.955 43.5643 20.0887C42.217 19.2225 41.2879 17.8834 40.9487 16.3186C40.6095 14.7538 40.9006 13.1502 41.7683 11.8037C42.6359 10.4573 43.9767 9.52856 45.5431 9.18899M45.3882 8.47407C41.7539 9.26191 39.446 12.8433 40.2331 16.4737C41.0201 20.1042 44.6039 22.4083 48.2381 21.6205C51.8723 20.8327 54.1802 17.2513 53.3932 13.6208C52.6062 9.99041 49.0224 7.68624 45.3882 8.47407V8.47407Z" fill="#413930"/>
<path d="M90.9226 85.7116L90.4124 85.7116C86.2203 85.7116 82.8096 89.1259 82.8096 93.3223C82.8096 97.5188 86.2203 100.933 90.4124 100.933L90.9226 100.933L90.9226 85.7116Z" fill="#F2EFED"/>
<path d="M83.1981 93.3223C83.1981 95.2514 83.9484 97.0648 85.3113 98.4286C86.6738 99.7925 88.4857 100.544 90.4123 100.544L90.5339 100.544L90.5339 86.1006L90.4123 86.1006C88.4852 86.1006 86.6738 86.8517 85.3113 88.216C83.9489 89.5799 83.1981 91.3937 83.1981 93.3223ZM82.4209 93.3223C82.4209 88.9044 85.999 85.3226 90.4123 85.3226L91.3112 85.3226L91.3112 101.322L90.4123 101.322C85.999 101.322 82.4209 97.7403 82.4209 93.3223Z" fill="#413930"/>
<path d="M47.6074 21.7576C47.6074 21.7576 48.4103 21.5943 49.0548 21.4439L49.4874 23.4394L47.8804 23.0168L47.6074 21.7576V21.7576Z" fill="#E5E1DE"/>
<path d="M90.5439 86.0825L90.5439 100.557C90.5439 100.557 85.7524 100.883 83.5903 95.8022C83.5903 95.8022 90.5439 101.731 90.5439 86.0825Z" fill="#E5E1DE"/>
<path d="M55.8569 94.8743L55.8569 91.7694L73.2828 91.7694L72.6505 94.8743L55.8569 94.8743Z" fill="#E5E1DE"/>
<rect x="31.5984" y="40.0278" width="53.9659" height="22.9741" rx="11.487" transform="rotate(-12.2314 31.5984 40.0278)" fill="#F15D22" stroke="#413930" stroke-width="1.5"/>
<path d="M39.9756 58.7242L84.7922 49.0088C83.7311 50.6234 80.7034 52.8273 79.1567 53.1626L47.4573 60.0345C45.9106 60.3698 41.5547 60.2842 39.9756 58.7242Z" fill="#C04A1B"/>
<circle cx="49.8573" cy="45.5791" r="8.73678" transform="rotate(1.64275 49.8573 45.5791)" fill="#413930" stroke="#413930"/>
<circle cx="51.6435" cy="41.4458" r="3.23714" transform="rotate(1.64275 51.6435 41.4458)" fill="#F2EFED"/>
<ellipse cx="46.3318" cy="40.0377" rx="1.16047" ry="1.16047" transform="rotate(1.64275 46.3318 40.0377)" fill="#F2EFED"/>
<path d="M85.8537 40.2024C85.7154 45.0256 81.6933 48.8235 76.8701 48.6851C72.0469 48.5468 68.249 44.5247 68.3873 39.7015C68.5257 34.8783 72.5478 31.0804 77.371 31.2188C82.1942 31.3571 85.9921 35.3792 85.8537 40.2024Z" fill="#413930" stroke="#413930"/>
<ellipse cx="78.5009" cy="35.6235" rx="3.23715" ry="3.23714" transform="rotate(1.64275 78.5009 35.6235)" fill="#F2EFED"/>
<circle cx="73.3118" cy="34.189" r="1.16047" transform="rotate(1.64275 73.3118 34.189)" fill="#F2EFED"/>
</svg>
