<svg width="108" height="108" viewBox="0 0 108 108" fill="none" xmlns="http://www.w3.org/2000/svg">
<path d="M30.4651 61.235L26.6479 97.2134L30.5926 97.6311L34.4097 61.6527L30.4651 61.235Z" fill="#F2EFED"/>
<path d="M30.8158 61.6664L33.9718 62.0005L30.2407 97.1912L27.0842 96.8571L30.8153 61.6664M30.1105 60.795L26.2124 97.5611L30.9459 98.0621L34.8441 61.296L30.1105 60.795Z" fill="#413930"/>
<path d="M49.1936 63.2172L45.3765 99.1956L49.3211 99.6132L53.1382 63.6348L49.1936 63.2172Z" fill="#F2EFED"/>
<path d="M49.5434 63.6478L52.6999 63.9819L48.9687 99.1725L45.8127 98.8384L49.5439 63.6478M48.8391 62.7764L44.9409 99.5425L49.6745 100.043L53.5726 63.2773L48.8391 62.7764Z" fill="#413930"/>
<path d="M56.6419 89.2803C54.0988 89.2803 51.5837 88.6052 49.3681 87.3279L26.373 74.0729C22.9991 72.1284 20.5852 68.9873 19.5763 65.2292C18.5674 61.4712 19.0837 57.5454 21.0302 54.175L23.5309 49.8456L71.7871 77.6613L69.2865 81.9907C67.9827 84.2474 66.1006 86.1141 63.8425 87.3885C61.6497 88.6261 59.1598 89.2803 56.6419 89.2803V89.2803Z" fill="#F2EFED"/>
<path d="M23.6761 50.3872L71.2458 77.8068L68.9434 81.7932C67.6751 83.9888 65.8438 85.8043 63.6477 87.0442C61.5147 88.2483 59.0919 88.8848 56.6421 88.8848C54.1923 88.8848 51.722 88.2283 49.5665 86.9855L26.5714 73.7309C24.9122 72.7748 23.4905 71.5227 22.3458 70.0097C21.2399 68.5484 20.4371 66.9054 19.9595 65.1277C19.4818 63.3496 19.3545 61.5262 19.5798 59.708C19.813 57.8259 20.4166 56.0315 21.3742 54.374L23.6766 50.3876M23.386 49.3056L20.6871 53.9779C16.5525 61.1357 19.0098 70.2869 26.1749 74.4169L49.17 87.6714C51.5279 89.0307 54.1023 89.677 56.6421 89.677C61.8202 89.677 66.8565 86.9916 69.63 82.1893L72.3289 77.517L23.386 49.3052V49.3056Z" fill="#413930"/>
<path d="M23.7666 63.4189C23.7666 63.4189 26.4118 70.5143 44.8912 80.5201L60.2888 88.409C60.2888 88.409 65.5112 87.1653 67.9479 83.2777C67.9479 83.2777 30.769 69.0749 23.7666 63.4194V63.4189Z" fill="#E5E1DE"/>
<path d="M70.8888 21.439L65.1079 31.4454L67.1021 32.5951L72.8829 22.5886L70.8888 21.439Z" fill="#F2EFED"/>
<path d="M71.0308 21.9763L72.3383 22.7298L66.9545 32.0506L65.647 31.2972L71.0308 21.9763ZM70.7402 20.8943L70.3437 21.5803L64.96 30.9011L64.5635 31.587L65.2501 31.9831L66.5576 32.7365L67.2442 33.1326L67.6407 32.4467L73.0244 23.1259L73.4209 22.44L72.7343 22.0439L71.4268 21.2904L70.7402 20.8943V20.8943Z" fill="#413930"/>
<path d="M65.5073 84.4799C61.1338 84.4799 56.8075 83.3187 52.997 81.1221L29.9357 67.8294C27.0031 66.1388 24.4899 63.9255 22.4655 61.2503C20.5101 58.6665 19.0907 55.7626 18.2469 52.6196C17.4031 49.4766 17.1773 46.253 17.5757 43.0383C17.988 39.7103 19.0552 36.5375 20.7475 33.6079C22.9893 29.7264 26.2269 26.5163 30.1106 24.3244C33.8814 22.1963 38.1634 21.071 42.4939 21.071C46.8245 21.071 51.1937 22.2322 55.0042 24.4288L78.0655 37.7215C80.9981 39.4121 83.5113 41.6255 85.5357 44.3006C87.4911 46.8844 88.9105 49.7883 89.7543 52.9313C90.5981 56.0743 90.8239 59.2979 90.4255 62.5126C90.0132 65.8406 88.946 69.0134 87.2537 71.943C85.0119 75.8245 81.7743 79.0346 77.8906 81.226C74.1198 83.3541 69.8378 84.4795 65.5073 84.4795V84.4799Z" fill="#F2EFED"/>
<path d="M42.494 21.4675C44.6108 21.4675 46.7196 21.7406 48.7617 22.2797C50.8673 22.8356 52.901 23.6739 54.806 24.7722L77.8674 38.065C80.7538 39.729 83.2274 41.9074 85.2196 44.5397C87.1441 47.0829 88.5407 49.9407 89.3715 53.0343C90.2022 56.1279 90.4242 59.3007 90.0324 62.4642C89.6266 65.739 88.5762 68.862 86.9105 71.7454C85.79 73.6848 84.4201 75.4569 82.8379 77.0123C81.3042 78.5197 79.5741 79.8216 77.6957 80.8817C73.9842 82.9767 69.7698 84.0839 65.5078 84.0839C63.3906 84.0839 61.2818 83.8108 59.2401 83.2717C57.1345 82.7158 55.1008 81.8775 53.1958 80.7792L30.1345 67.4864C27.2481 65.8224 24.7745 63.644 22.7823 61.0117C20.8577 58.4689 19.4611 55.6107 18.6304 52.5171C17.7996 49.4235 17.5776 46.2507 17.9694 43.0872C18.3752 39.8124 19.4257 36.6894 21.0914 33.806L21.0946 33.8004C22.2141 31.8629 23.5836 30.0931 25.164 28.5396C26.6977 27.0322 28.4277 25.7302 30.3061 24.6702C34.0177 22.5756 38.2321 21.468 42.4945 21.468M42.4945 20.6758C33.6879 20.6758 25.1224 25.2428 20.4048 33.4104C13.373 45.5844 17.5519 61.1483 29.7385 68.1728L52.7998 81.4656C56.8104 83.7773 61.1885 84.876 65.5083 84.876C74.3149 84.876 82.8803 80.309 87.598 72.1415C94.6298 59.9675 90.4508 44.4036 78.2643 37.3791L55.203 24.0863C51.1924 21.7746 46.8148 20.6758 42.4945 20.6758V20.6758Z" fill="#413930"/>
<path d="M71.5799 67.2208C69.6908 67.2208 67.8227 66.7194 66.1766 65.7707L36.6446 48.7478C34.1383 47.3033 32.3453 44.9702 31.5957 42.1785C30.8461 39.3869 31.2296 36.4704 32.6756 33.9672C33.6439 32.2906 35.0423 30.9043 36.7197 29.9575C38.3485 29.0381 40.198 28.5521 42.0685 28.5521C43.939 28.5521 45.8257 29.0535 47.4719 30.0022L77.0038 47.0246C79.5101 48.4691 81.3031 50.8023 82.0527 53.5939C82.8023 56.3855 82.4189 59.3021 80.9729 61.8057C80.0045 63.4823 78.6061 64.8685 76.9287 65.8154C75.2999 66.7348 73.4504 67.2208 71.5799 67.2208Z" fill="#F15D22"/>
<path d="M42.0694 28.9249C43.8928 28.9249 45.6966 29.409 47.2862 30.3251L76.8182 47.3475C78.0417 48.0525 79.0898 48.9756 79.9336 50.0907C80.749 51.168 81.3409 52.3796 81.6931 53.6903C82.0452 55.0016 82.1395 56.3459 81.9729 57.6865C81.8008 59.0742 81.3558 60.3971 80.6501 61.6193C79.7148 63.2381 78.3649 64.5768 76.7459 65.4906C75.173 66.3783 73.387 66.8475 71.5804 66.8475C69.7738 66.8475 67.9528 66.3634 66.3636 65.4473L36.8312 48.4249C35.6077 47.7198 34.5596 46.7967 33.7158 45.6817C32.9004 44.6044 32.3085 43.3928 31.9563 42.082C31.6041 40.7708 31.5099 39.4265 31.6764 38.0859C31.8486 36.6982 32.2935 35.3753 32.9993 34.1531C33.9345 32.5343 35.2844 31.1956 36.9035 30.2818C38.4764 29.3941 40.2624 28.9249 42.069 28.9249M42.069 28.1793C38.1956 28.1793 34.428 30.1881 32.3528 33.7808C29.2597 39.1357 31.098 45.9813 36.458 49.0712L65.99 66.0936C67.7541 67.1103 69.6796 67.5935 71.5799 67.5935C75.4533 67.5935 79.2209 65.5847 81.2961 61.9921C84.3892 56.6371 82.5509 49.7915 77.1909 46.7017L47.6589 29.6793C45.8948 28.6625 43.9693 28.1793 42.069 28.1793V28.1793Z" fill="#413930"/>
<path d="M31.7354 41.2462L76.4727 65.7288C76.4727 65.7288 72.784 67.157 71.2732 66.8094C69.7623 66.4618 69.1849 67.2805 64.3757 64.2992L36.3667 48.1799C36.3667 48.1799 32.8572 46.3225 31.7354 41.2462Z" fill="#C04A1B"/>
<path d="M42.7317 49.4146C41.0482 49.4146 39.3825 48.9677 37.9156 48.122C35.6817 46.8345 34.0837 44.7549 33.4157 42.2666C32.7477 39.7783 33.0897 37.1791 34.3785 34.9476C35.2414 33.4532 36.4877 32.2175 37.9827 31.3741C39.4343 30.5549 41.0828 30.1215 42.7499 30.1215C44.417 30.1215 46.099 30.5684 47.566 31.4141C49.7998 32.7016 51.3979 34.7812 52.0658 37.2695C52.7338 39.7578 52.3919 42.357 51.1031 44.5885C50.2401 46.0829 48.9938 47.3187 47.4988 48.1625C46.0472 48.9817 44.3988 49.4151 42.7317 49.4151V49.4146Z" fill="#413930"/>
<path d="M42.7502 30.3312C44.3968 30.3312 46.0261 30.7683 47.4614 31.5959C48.5659 32.2324 49.5124 33.066 50.2745 34.0735C51.0111 35.0464 51.5456 36.14 51.8633 37.3241C52.1809 38.5076 52.2663 39.722 52.1161 40.9326C51.9608 42.1856 51.5587 43.3803 50.9215 44.4837C50.0772 45.9455 48.8579 47.1542 47.3956 47.9799C45.9753 48.7814 44.3627 49.2054 42.7316 49.2054C41.1004 49.2054 39.4557 48.7683 38.0204 47.9408C36.9158 47.3043 35.9694 46.4706 35.2072 45.4632C34.4707 44.4903 33.9361 43.3966 33.6185 42.2126C33.3008 41.029 33.2155 39.8147 33.3657 38.6041C33.521 37.3511 33.9231 36.1564 34.5603 35.0529C35.4045 33.5912 36.6238 32.3824 38.0862 31.5567C39.5065 30.7553 41.119 30.3312 42.7502 30.3312M42.7502 29.9119C39.34 29.9119 36.0235 31.6802 34.1969 34.8428C31.4742 39.557 33.0923 45.5834 37.811 48.3033C39.3638 49.1984 41.0593 49.6239 42.732 49.6239C46.1422 49.6239 49.4587 47.8555 51.2853 44.693C54.008 39.9787 52.3899 33.9523 47.6713 31.2324C46.1185 30.3373 44.4229 29.9119 42.7502 29.9119V29.9119Z" fill="#413930"/>
<path d="M70.8995 65.6515C69.2161 65.6515 67.5504 65.2046 66.0834 64.3589C61.4721 61.701 59.8857 55.791 62.5463 51.1844C63.4093 49.6901 64.6556 48.4543 66.1506 47.6104C67.6022 46.7913 69.2506 46.3579 70.9177 46.3579C72.5848 46.3579 74.2668 46.8048 75.7338 47.6505C80.3447 50.3084 81.9316 56.2183 79.2709 60.8249C78.408 62.3193 77.1616 63.5551 75.6667 64.3989C74.2151 65.2181 72.5666 65.6515 70.8995 65.6515Z" fill="#413930"/>
<path d="M70.9182 46.5681C72.5648 46.5681 74.1941 47.0051 75.6293 47.8327C76.7339 48.4692 77.6803 49.3028 78.4425 50.3103C79.179 51.2832 79.7136 52.3769 80.0312 53.5609C80.3489 54.7445 80.4343 55.9588 80.2841 57.1694C80.1287 58.4224 79.7266 59.6171 79.0895 60.7205C78.2452 62.1823 77.0259 63.391 75.5636 64.2167C74.1432 65.0182 72.5307 65.4422 70.8995 65.4422C69.2683 65.4422 67.6236 65.0052 66.1884 64.1776C65.0838 63.5411 64.1374 62.7074 63.3752 61.7C62.6387 60.7271 62.1041 59.6334 61.7865 58.4494C61.4688 57.2658 61.3834 56.0515 61.5336 54.8409C61.689 53.5879 62.0911 52.3932 62.7282 51.2897C63.5725 49.828 64.7918 48.6193 66.2541 47.7936C67.6745 46.9921 69.287 46.5681 70.9182 46.5681M70.9182 46.1487C67.508 46.1487 64.1915 47.917 62.3649 51.0796C59.6422 55.7938 61.2603 61.8202 65.9789 64.5401C67.5317 65.4352 69.2273 65.8607 70.9 65.8607C74.3102 65.8607 77.6267 64.0923 79.4533 60.9298C82.176 56.2155 80.5579 50.1891 75.8392 47.4692C74.2864 46.5741 72.5909 46.1487 70.9182 46.1487Z" fill="#413930"/>
<path d="M41.505 38.5072C43.4683 38.5072 45.0598 36.9173 45.0598 34.956C45.0598 32.9948 43.4683 31.4048 41.505 31.4048C39.5417 31.4048 37.9502 32.9948 37.9502 34.956C37.9502 36.9173 39.5417 38.5072 41.505 38.5072Z" fill="#F2EFED" stroke="#413930" stroke-width="2.18351" stroke-miterlimit="10"/>
<path d="M36.3984 37.8697C37.0499 37.8697 37.5781 37.3421 37.5781 36.6913C37.5781 36.0404 37.0499 35.5128 36.3984 35.5128C35.7469 35.5128 35.2188 36.0404 35.2188 36.6913C35.2188 37.3421 35.7469 37.8697 36.3984 37.8697Z" fill="#F2EFED" stroke="#413930" stroke-width="0.725412" stroke-miterlimit="10"/>
<path d="M71.4235 53.5916C73.3868 53.5916 74.9783 52.0017 74.9783 50.0404C74.9783 48.0792 73.3868 46.4893 71.4235 46.4893C69.4602 46.4893 67.8687 48.0792 67.8687 50.0404C67.8687 52.0017 69.4602 53.5916 71.4235 53.5916Z" fill="#F2EFED" stroke="#413930" stroke-width="2.18351" stroke-miterlimit="10"/>
<path d="M66.2555 53.1298C66.9454 53.1298 67.5047 52.5711 67.5047 51.882C67.5047 51.1928 66.9454 50.6341 66.2555 50.6341C65.5656 50.6341 65.0063 51.1928 65.0063 51.882C65.0063 52.5711 65.5656 53.1298 66.2555 53.1298Z" fill="#F2EFED" stroke="#413930" stroke-width="0.766656" stroke-miterlimit="10"/>
<path d="M75.0237 22.851C73.892 22.851 72.773 22.5504 71.787 21.9824C70.2859 21.1171 69.2117 19.7197 68.7625 18.0473C68.3133 16.3749 68.5433 14.628 69.4095 13.128C70.5653 11.1271 72.7213 9.8844 75.0363 9.8844C76.1674 9.8844 77.2869 10.185 78.273 10.753C81.3721 12.5395 82.4384 16.5114 80.6505 19.6074C79.4946 21.6082 77.3387 22.851 75.0237 22.851V22.851Z" fill="#F15D22"/>
<path d="M75.0363 9.51117V10.2567C76.1021 10.2567 77.1568 10.54 78.0864 11.0754C79.5012 11.8909 80.5138 13.2082 80.9369 14.7846C81.36 16.361 81.1436 18.0072 80.3273 19.4205C79.7806 20.3669 78.9913 21.1497 78.0445 21.6842C77.1246 22.2033 76.0798 22.4778 75.0237 22.4778C73.9677 22.4778 72.9028 22.1945 71.9736 21.659C70.5588 20.8436 69.5462 19.5263 69.1231 17.9499C68.7 16.3735 68.9165 14.7273 69.7328 13.314C70.2794 12.3676 71.0687 11.5847 72.0156 11.0503C72.9354 10.5312 73.9803 10.2567 75.0363 10.2567V9.51117ZM75.0363 9.51117C72.6644 9.51117 70.3569 10.7413 69.0863 12.9412C67.192 16.2202 68.3175 20.4126 71.6004 22.3049C72.6807 22.9274 73.8599 23.2238 75.0237 23.2238C77.3956 23.2238 79.7031 21.9936 80.9738 19.7938C82.868 16.5147 81.7425 12.3224 78.4596 10.4301C77.3793 9.80706 76.2001 9.51117 75.0363 9.51117Z" fill="#413930"/>
<path d="M20.0381 100.43V99.9096C20.0381 95.6371 23.5178 92.1609 27.7947 92.1609C32.0716 92.1609 35.5513 95.6371 35.5513 99.9096V100.43H20.0381Z" fill="#F2EFED"/>
<path d="M27.7947 92.557C29.7608 92.557 31.6089 93.3217 32.9989 94.7108C34.3889 96.0994 35.1548 97.946 35.1548 99.9096V100.034H20.4346V99.9096C20.4346 97.9455 21.2 96.0994 22.5905 94.7108C23.9805 93.3222 25.8291 92.557 27.7947 92.557ZM27.7947 91.7649C23.292 91.7649 19.6416 95.4116 19.6416 99.9096V100.826H35.9478V99.9096C35.9478 95.4116 32.2974 91.7649 27.7947 91.7649V91.7649Z" fill="#413930"/>
<path d="M38.8706 100.43V99.9096C38.8706 95.6371 42.3503 92.1609 46.6272 92.1609C50.9041 92.1609 54.3838 95.6371 54.3838 99.9096V100.43H38.8706Z" fill="#F2EFED"/>
<path d="M46.6272 92.557C48.5933 92.557 50.4414 93.3217 51.8314 94.7108C53.2214 96.0994 53.9874 97.946 53.9874 99.9096V100.034H39.2671V99.9096C39.2671 97.9455 40.0325 96.0994 41.423 94.7108C42.8131 93.3222 44.6616 92.557 46.6272 92.557M46.6272 91.7649C42.1246 91.7649 38.4741 95.4116 38.4741 99.9096V100.826H54.7803V99.9096C54.7803 95.4116 51.1299 91.7649 46.6272 91.7649Z" fill="#413930"/>
<path d="M71.0298 21.9766C71.0298 21.9766 71.7518 22.4149 72.3519 22.7399L70.5488 25.863L69.892 23.9472L71.0298 21.9766Z" fill="#E5E1DE"/>
<path d="M39.2441 100.044H53.9961C53.9961 100.044 54.3282 95.1605 49.1502 92.9569C49.1502 92.9569 55.193 100.044 39.2441 100.044Z" fill="#E5E1DE"/>
<path d="M20.4165 100.044H35.1685C35.1685 100.044 35.5006 95.1605 30.3225 92.9569C30.3225 92.9569 36.3654 100.044 20.4165 100.044V100.044Z" fill="#E5E1DE"/>
<path d="M47.1377 86.5129L50.1323 88.1807L49.7815 91.5482L46.876 88.6979L47.1377 86.5129Z" fill="#E5E1DE"/>
<path d="M29.2997 76.2178L32.2929 77.9433L31.8535 81.993L28.9731 78.9945L29.2997 76.2178Z" fill="#E5E1DE"/>
</svg>
