<svg width="108" height="108" viewBox="0 0 108 108" fill="none" xmlns="http://www.w3.org/2000/svg">
<path d="M3.78934 61.3831C3.7152 60.9086 4.08207 60.48 4.56229 60.48H64.8342C65.3144 60.48 65.6812 60.9086 65.6071 61.3831L64.308 69.6975C62.0286 84.2856 49.4634 95.04 34.6982 95.04C19.933 95.04 7.36786 84.2857 5.08846 69.6975L3.78934 61.3831Z" fill="#FEF7E9"/>
<path d="M64.308 69.6975L65.6071 61.3831C65.6813 60.9086 65.3144 60.48 64.8342 60.48H54.4082C54.4982 65.16 54.4082 73.71 51.4382 80.46C49.7159 84.3745 46.8482 89.91 34.6982 95.04C49.4634 95.04 62.0286 84.2856 64.308 69.6975Z" fill="#FED67C"/>
<path d="M49.0058 74.0992L50.1383 76.4406C50.3736 76.9271 50.8524 77.2495 51.3917 77.2844L53.5482 77.424C53.943 77.4496 54.1531 77.9017 53.9181 78.22L51.8425 81.0308C51.6418 81.3026 51.5387 81.6343 51.55 81.972L51.6471 84.874C51.66 85.2587 51.2515 85.5131 50.9119 85.3318L48.521 84.0557C48.1607 83.8633 47.7375 83.8262 47.3492 83.953L44.3974 84.9168C44.0162 85.0412 43.651 84.6889 43.7617 84.3034L44.4686 81.8421C44.6282 81.2864 44.4542 80.6884 44.0214 80.3051L42.5673 79.0173C42.2848 78.767 42.3708 78.3059 42.7246 78.1743L45.8409 77.0158C46.1411 76.9042 46.3976 76.6995 46.573 76.4316L48.1374 74.043C48.3503 73.7178 48.8366 73.7493 49.0058 74.0992Z" fill="#FAB82B" stroke="#413930"/>
<path d="M37.066 68.6909L39.8293 70.6947C40.1678 70.9402 40.5934 71.0332 41.0034 70.9514L44.9191 70.1702C45.318 70.0907 45.64 70.4953 45.4727 70.8661L43.994 74.1452C43.8245 74.5209 43.8172 74.9498 43.9736 75.3311L45.3182 78.6095C45.4565 78.9466 45.1994 79.3136 44.8354 79.2988L41.4449 79.1616C41.0327 79.1449 40.6319 79.2987 40.3366 79.5868L37.7127 82.1475C37.4255 82.4278 36.9417 82.2725 36.8712 81.8774L36.2991 78.6682C36.2145 78.1938 35.9071 77.7889 35.4729 77.5799L32.9807 76.3804C32.5906 76.1926 32.6073 75.6316 33.0078 75.4673L35.0419 74.633C35.5693 74.4167 35.9285 73.9201 35.9689 73.3515L36.2737 69.0603C36.3015 68.669 36.7484 68.4606 37.066 68.6909Z" fill="#FAB82B" stroke="#413930"/>
<path d="M25.3813 79.5597L27.4461 80.8728C27.7579 81.0711 28.1319 81.1473 28.4964 81.0869L31.0346 80.6661C31.4208 80.6021 31.7274 80.9865 31.5792 81.3487L30.7526 83.3689C30.5464 83.8726 30.6294 84.4486 30.9693 84.8737L32.3281 86.5731C32.5807 86.8891 32.3731 87.3587 31.9693 87.3844L29.801 87.5224C29.3933 87.5483 29.0139 87.7394 28.7503 88.0514L26.997 90.1273C26.7382 90.4337 26.2422 90.3261 26.1337 89.9401L25.5078 87.7146C25.3762 87.2468 25.0262 86.8717 24.5687 86.7082L22.3236 85.9057C21.9625 85.7767 21.8751 85.3059 22.1658 85.0559L24.0299 83.4523C24.3509 83.1762 24.5402 82.7773 24.5512 82.3541L24.6132 79.9686C24.6233 79.5801 25.0534 79.3511 25.3813 79.5597Z" fill="#FAB82B" stroke="#413930"/>
<path d="M21.1548 71.222L20.1965 72.8499C20.0091 73.1683 19.9458 73.5447 20.0187 73.9069L20.4128 75.8642C20.4901 76.2479 20.1165 76.5676 19.7493 76.4319L18.2215 75.8673C17.7109 75.6786 17.1382 75.7813 16.725 76.1357L15.505 77.1819C15.1979 77.4453 14.7215 77.2539 14.6819 76.8513L14.5231 75.2351C14.4831 74.8285 14.2791 74.4559 13.9582 74.2032L12.3028 72.8999C11.9878 72.6519 12.0782 72.1525 12.4603 72.0307L14.1178 71.5024C14.5808 71.3548 14.9436 70.9921 15.0913 70.5292L15.6455 68.7921C15.7621 68.4268 16.2295 68.3233 16.4894 68.6052L17.776 70.0006C18.0629 70.3118 18.4681 70.4873 18.8914 70.4838L20.7197 70.4683C21.1084 70.4651 21.352 70.887 21.1548 71.222Z" fill="#FAB82B" stroke="#413930"/>
<path d="M54.2919 62.3264L52.664 61.3682C52.3455 61.1807 51.9692 61.1174 51.6069 61.1904L49.6496 61.5845C49.2659 61.6617 48.9462 61.2881 49.0819 60.921L49.6466 59.3931C49.8352 58.8825 49.7325 58.3098 49.3782 57.8967L48.332 56.6767C48.0686 56.3696 48.26 55.8931 48.6626 55.8536L50.2788 55.6947C50.6853 55.6548 51.058 55.4508 51.3107 55.1298L52.6139 53.4745C52.862 53.1594 53.3614 53.2499 53.4831 53.6319L54.0115 55.2894C54.159 55.7524 54.5217 56.1152 54.9847 56.2629L56.7217 56.8171C57.087 56.9337 57.1906 57.4012 56.9087 57.6611L55.5133 58.9476C55.202 59.2346 55.0265 59.6397 55.0301 60.0631L55.0455 61.8913C55.0488 62.28 54.6268 62.5236 54.2919 62.3264Z" fill="#FAB82B" stroke="#413930"/>
<path d="M33.3476 36.7441L31.4586 36.7282C31.0892 36.7251 30.7315 36.8585 30.4543 37.1027L28.9563 38.4227C28.6626 38.6814 28.199 38.5177 28.1329 38.1319L27.858 36.5264C27.7661 35.9899 27.3908 35.5453 26.8773 35.3647L25.3613 34.8313C24.9796 34.697 24.9072 34.1887 25.236 33.9531L26.5563 33.0074C26.8884 32.7696 27.1091 32.4066 27.1675 32.0023L27.4684 29.9171C27.5257 29.5202 28.0034 29.3488 28.2999 29.6188L29.5862 30.7901C29.9455 31.1173 30.441 31.2501 30.9158 31.1466L32.6972 30.758C33.0719 30.6763 33.3953 31.0294 33.2811 31.3954L32.7159 33.2073C32.5899 33.6114 32.6404 34.05 32.8552 34.4149L33.7827 35.9905C33.9799 36.3255 33.7362 36.7474 33.3476 36.7441Z" fill="#FAB82B" stroke="#413930"/>
<path d="M83.8294 22.5022C83.8294 22.5022 85.177 15.699 90.5267 16.1955L90.5268 17.3362C88.3396 16.6792 85.3696 19.9283 85.3696 22.8983L83.8294 22.5022Z" fill="#F2EFED" stroke="#413930"/>
<rect x="72.8823" y="52.9083" width="3.214" height="35.686" fill="#908B85" stroke="#413930"/>
<rect x="85.4287" y="52.9083" width="3.214" height="35.686" fill="#908B85" stroke="#413930"/>
<path d="M73.3823 55.9971H75.5964V61.3023L73.3823 60.6625V55.9971Z" fill="#E5E1DE"/>
<path d="M85.9287 56.9137H88.1428V64.8662L85.9287 63.9072V56.9137Z" fill="#E5E1DE"/>
<rect x="67.3118" y="35.6238" width="30.9296" height="19.6648" rx="9.83241" transform="rotate(9.47424 67.3118 35.6238)" fill="#F2EFED" stroke="#413930"/>
<path d="M65.6595 45.5783C65.6595 45.5783 66.1996 49.3584 76.1895 52.8683C86.1795 56.3783 89.1495 55.6841 91.3095 54.7583C93.4696 53.8326 96.2982 50.8193 96.7095 47.4683C96.7095 47.4683 71.8556 47.5049 65.6595 45.5783Z" fill="#E5E1DE"/>
<rect x="63.1614" y="17.3951" width="41.4595" height="28.6449" rx="14.3225" transform="rotate(13.8742 63.1614 17.3951)" fill="#F2EFED" stroke="#413930"/>
<rect x="65.9822" y="21.6669" width="30.0594" height="12.7048" rx="6.35242" transform="rotate(13.8742 65.9822 21.6669)" fill="#F15D22" stroke="#413930"/>
<path d="M64.6392 31.7783L91.4212 38.4573C91.4212 38.4573 89.512 39.8094 88.2393 39.8334C87.4183 39.8489 87.2268 40.3438 84.3727 39.4298L68.093 35.1539C68.093 35.1539 65.8678 34.2425 64.6392 31.7783Z" fill="#C04A1B"/>
<circle cx="70.3017" cy="29.9707" r="4.22685" transform="rotate(13.8742 70.3017 29.9707)" fill="#413930" stroke="#413930"/>
<ellipse cx="69.4439" cy="28.0587" rx="1.65659" ry="1.65659" transform="rotate(13.8742 69.4439 28.0587)" fill="#F2EFED"/>
<ellipse cx="0.593861" cy="0.593862" rx="0.593861" ry="0.593862" transform="matrix(0.970824 0.239791 -0.23979 0.970825 66.4341 29.0556)" fill="#F2EFED"/>
<path d="M89.5543 34.6027C88.96 37.0089 86.5276 38.4777 84.1214 37.8834C81.7152 37.2891 80.2463 34.8567 80.8407 32.4505C81.435 30.0443 83.8674 28.5754 86.2736 29.1698C88.6798 29.7641 90.1486 32.1965 89.5543 34.6027Z" fill="#413930" stroke="#413930"/>
<circle cx="91.876" cy="16.0594" r="2.57398" transform="rotate(21.2481 91.876 16.0594)" fill="#F15D22" stroke="#413930"/>
<path d="M79.5163 90.56C79.7568 91.1406 79.9051 91.7542 79.9568 92.3785L67.881 92.3785C67.9327 91.7542 68.081 91.1406 68.3215 90.56C68.626 89.8249 69.0723 89.157 69.6349 88.5945C70.1974 88.0319 70.8653 87.5856 71.6004 87.2811C72.3355 86.9767 73.1233 86.8199 73.9189 86.8199C74.7145 86.8199 75.5024 86.9767 76.2374 87.2811C76.9725 87.5856 77.6404 88.0319 78.203 88.5945C78.7655 89.157 79.2118 89.8249 79.5163 90.56Z" fill="#908B85" stroke="#413930"/>
<path d="M92.6335 90.56C92.874 91.1406 93.0223 91.7542 93.074 92.3785L80.9982 92.3785C81.0499 91.7542 81.1982 91.1406 81.4387 90.56C81.7432 89.8249 82.1895 89.157 82.752 88.5945C83.3146 88.0319 83.9825 87.5856 84.7176 87.2811C85.4526 86.9767 86.2405 86.8199 87.0361 86.8199C87.8317 86.8199 88.6195 86.9767 89.3546 87.2811C90.0897 87.5856 90.7576 88.0319 91.3201 88.5945C91.8827 89.157 92.329 89.8249 92.6335 90.56Z" fill="#908B85" stroke="#413930"/>
<ellipse cx="84.5359" cy="31.438" rx="1.83788" ry="1.83788" transform="rotate(13.8742 84.5359 31.438)" fill="#F2EFED"/>
<ellipse cx="0.593864" cy="0.593862" rx="0.593864" ry="0.593862" transform="matrix(0.970825 0.23979 -0.239791 0.970824 81.6582 32.6543)" fill="#F2EFED"/>
<path d="M69.6748 92.3369H79.9251C79.9251 92.3369 79.7282 88.9949 76.5665 87.4735C76.5665 87.4735 80.7568 92.3369 69.6748 92.3369Z" fill="#E5E1DE"/>
<path d="M82.7837 92.337H93.034C93.034 92.337 92.8332 88.9304 89.662 87.4642C89.662 87.4642 93.8657 92.337 82.7837 92.337Z" fill="#E5E1DE"/>
</svg>
