<svg width="108" height="108" viewBox="0 0 108 108" fill="none" xmlns="http://www.w3.org/2000/svg">
<path d="M21.6673 83.4131C19.9817 75.815 23.0631 71.5772 24.7698 69.1627L29.2924 71.5354C28.326 73.4173 25.4066 77.5476 26.3932 81.5801C27.4745 85.9999 29.0592 87.1035 30.3922 89.4253L26.3932 91.1431C25.2276 89.5612 22.5774 87.5156 21.6673 83.4131Z" fill="#F2EFED" stroke="#413930" stroke-width="1.6"/>
<path d="M86.8283 84.1244C88.5139 76.5263 85.4326 72.2885 83.7258 69.874L79.2032 72.2466C80.1696 74.1285 83.089 78.2588 82.1024 82.2914C81.0211 86.7112 79.4364 87.8148 78.1034 90.1365L82.1024 91.8543C83.268 90.2724 85.9182 88.2268 86.8283 84.1244Z" fill="#F2EFED" stroke="#413930" stroke-width="1.6"/>
<path d="M41.1184 84.2911C37.329 84.2911 33.7666 82.8171 31.0867 80.14C28.4069 77.463 26.9314 73.9048 26.9314 70.1189V65.3358H81.3547V70.1189C81.3547 73.9044 79.8792 77.463 77.1993 80.14C74.5195 82.8171 70.9576 84.2911 67.1676 84.2911H41.1184Z" fill="#F2EFED" stroke="#413930" stroke-width="0.242613"/>
<mask id="path-4-inside-1_522_3399" fill="white">
<path d="M81.0869 65.6037V70.1194C81.0869 71.9967 80.7189 73.8177 79.9935 75.5313C79.2923 77.1869 78.2886 78.6741 77.0103 79.9511C75.7316 81.2285 74.2432 82.2312 72.586 82.9311C70.8706 83.6558 69.0477 84.0234 67.1684 84.0234H41.1183C39.2391 84.0234 37.4162 83.6558 35.7008 82.9311C34.0436 82.2307 32.5547 81.2281 31.2764 79.9511C29.9977 78.6737 28.994 77.1869 28.2933 75.5313C27.5679 73.8177 27.1999 71.9967 27.1999 70.1194V65.6037H81.0869M81.8649 64.8264H26.4214V70.1194C26.4214 78.2279 33.0014 84.8011 41.1183 84.8011H67.1675C75.2844 84.8011 81.8645 78.2279 81.8645 70.1194V64.8264H81.8649Z"/>
</mask>
<path d="M81.0869 65.6037V70.1194C81.0869 71.9967 80.7189 73.8177 79.9935 75.5313C79.2923 77.1869 78.2886 78.6741 77.0103 79.9511C75.7316 81.2285 74.2432 82.2312 72.586 82.9311C70.8706 83.6558 69.0477 84.0234 67.1684 84.0234H41.1183C39.2391 84.0234 37.4162 83.6558 35.7008 82.9311C34.0436 82.2307 32.5547 81.2281 31.2764 79.9511C29.9977 78.6737 28.994 77.1869 28.2933 75.5313C27.5679 73.8177 27.1999 71.9967 27.1999 70.1194V65.6037H81.0869M81.8649 64.8264H26.4214V70.1194C26.4214 78.2279 33.0014 84.8011 41.1183 84.8011H67.1675C75.2844 84.8011 81.8645 78.2279 81.8645 70.1194V64.8264H81.8649Z" fill="#413930"/>
<path d="M79.9935 75.5313L80.2169 75.6259L80.2169 75.6259L79.9935 75.5313ZM77.0103 79.9511L77.1818 80.1227L77.0103 79.9511ZM72.586 82.9311L72.4916 82.7076L72.4916 82.7076L72.586 82.9311ZM35.7008 82.9311L35.6064 83.1546L35.6064 83.1546L35.7008 82.9311ZM31.2764 79.9511L31.4479 79.7795L31.2764 79.9511ZM28.2933 75.5313L28.5167 75.4368L28.5167 75.4367L28.2933 75.5313ZM27.1999 65.6037V65.361H26.9573V65.6037H27.1999ZM26.4214 64.8264V64.5838H26.1788V64.8264H26.4214ZM81.8645 64.8264V64.5838H81.6219V64.8264H81.8645ZM80.8443 65.6037V70.1194H81.3295V65.6037H80.8443ZM80.8443 70.1194C80.8443 71.9645 80.4827 73.7533 79.7701 75.4367L80.2169 75.6259C80.9551 73.8821 81.3295 72.0289 81.3295 70.1194H80.8443ZM79.7701 75.4367C79.0812 77.0633 78.0952 78.5245 76.8389 79.7795L77.1818 80.1227C78.4821 78.8238 79.5035 77.3104 80.2169 75.6259L79.7701 75.4367ZM76.8389 79.7795C75.5821 81.0349 74.1199 82.0199 72.4916 82.7076L72.6804 83.1546C74.3666 82.4424 75.8811 81.4221 77.1818 80.1227L76.8389 79.7795ZM72.4916 82.7076C70.8063 83.4196 69.0155 83.7808 67.1684 83.7808V84.266C69.0798 84.266 70.9349 83.892 72.6804 83.1546L72.4916 82.7076ZM67.1684 83.7808H41.1183V84.266H67.1684V83.7808ZM41.1183 83.7808C39.2712 83.7808 37.4804 83.4196 35.7952 82.7076L35.6064 83.1546C37.3519 83.892 39.207 84.266 41.1183 84.266V83.7808ZM35.7953 82.7077C34.1669 82.0194 32.7042 81.0344 31.4479 79.7795L31.105 80.1227C32.4053 81.4217 33.9202 82.442 35.6064 83.1546L35.7953 82.7077ZM31.4479 79.7795C30.1911 78.524 29.2052 77.0633 28.5167 75.4368L28.0699 75.6259C28.7828 77.3104 29.8042 78.8234 31.105 80.1227L31.4479 79.7795ZM28.5167 75.4367C27.8041 73.7533 27.4425 71.9645 27.4425 70.1194H26.9573C26.9573 72.0289 27.3317 73.8821 28.0699 75.6259L28.5167 75.4367ZM27.4425 70.1194V65.6037H26.9573V70.1194H27.4425ZM27.1999 65.8463H81.0869V65.361H27.1999V65.8463ZM81.8649 64.5838H26.4214V65.069H81.8649V64.5838ZM26.1788 64.8264V70.1194H26.664V64.8264H26.1788ZM26.1788 70.1194C26.1788 78.3621 32.8677 85.0437 41.1183 85.0437V84.5585C33.1352 84.5585 26.664 78.0937 26.664 70.1194H26.1788ZM41.1183 85.0437H67.1675V84.5585H41.1183V85.0437ZM67.1675 85.0437C75.4182 85.0437 82.1071 78.3621 82.1071 70.1194H81.6219C81.6219 78.0937 75.1507 84.5585 67.1675 84.5585V85.0437ZM82.1071 70.1194V64.8264H81.6219V70.1194H82.1071ZM81.8645 65.069H81.8649V64.5838H81.8645V65.069Z" fill="#413930" mask="url(#path-4-inside-1_522_3399)"/>
<path d="M76.9368 79.8536L76.9272 79.8629L60.0172 80.6986C60.0168 80.6986 60.0163 80.6986 60.0158 80.6986C49.7177 80.9728 43.1436 79.9273 39.1479 78.8163C37.1501 78.2608 35.797 77.689 34.9453 77.2576C34.6102 77.0879 34.3527 76.9399 34.1641 76.8232C36.4484 77.0816 40.2664 76.9462 44.7546 76.5919C49.6004 76.2093 55.2418 75.5702 60.6092 74.8883C65.9768 74.2064 71.0715 73.4815 74.8243 72.927C76.7006 72.6498 78.2416 72.4152 79.3135 72.2499C79.8494 72.1673 80.2681 72.1019 80.5528 72.0573L80.8414 72.0118C80.7242 74.1705 79.7619 76.1201 78.8122 77.5447C78.3272 78.2723 77.8471 78.8604 77.4885 79.2664C77.3093 79.4693 77.1605 79.6266 77.0568 79.733C77.0049 79.7862 76.9643 79.8266 76.9368 79.8536Z" fill="#E5E1DE" stroke="#413930" stroke-width="0.242613"/>
<path d="M53.2302 17.9945H55.2467V29.0878H53.2302V17.9945Z" fill="#F2EFED" stroke="#413930" stroke-width="0.242613"/>
<mask id="path-8-inside-2_522_3399" fill="white">
<path d="M54.9793 18.2619V28.8205H53.4983V18.2619H54.9793M55.7574 17.4846H52.7202V29.5977H55.7574V17.4846V17.4846Z"/>
</mask>
<path d="M54.9793 18.2619V28.8205H53.4983V18.2619H54.9793M55.7574 17.4846H52.7202V29.5977H55.7574V17.4846V17.4846Z" fill="#413930"/>
<path d="M54.9793 28.8205V29.0631H55.2219V28.8205H54.9793ZM53.4983 28.8205H53.2557V29.0631H53.4983V28.8205ZM53.4983 18.2619V18.0192H53.2557V18.2619H53.4983ZM52.7202 17.4846V17.242H52.4776V17.4846H52.7202ZM52.7202 29.5977H52.4776V29.8403H52.7202V29.5977ZM55.7574 29.5977V29.8403H56V29.5977H55.7574ZM54.7367 18.2619V28.8205H55.2219V18.2619H54.7367ZM54.9793 28.5779H53.4983V29.0631H54.9793V28.5779ZM53.7409 28.8205V18.2619H53.2557V28.8205H53.7409ZM53.4983 18.5045H54.9793V18.0192H53.4983V18.5045ZM55.7574 17.242H52.7202V17.7272H55.7574V17.242ZM52.4776 17.4846V29.5977H52.9628V17.4846H52.4776ZM52.7202 29.8403H55.7574V29.3551H52.7202V29.8403ZM56 29.5977V17.4846H55.5148V29.5977H56Z" fill="#413930" mask="url(#path-8-inside-2_522_3399)"/>
<path d="M18.519 43.2583L18.4151 43.2142L18.519 43.2583C19.7523 40.3457 21.5179 37.7299 23.7669 35.4832C26.0159 33.2365 28.6345 31.4728 31.5501 30.2408C34.5685 28.9656 37.7749 28.3187 41.0811 28.3187H67.2054C70.5116 28.3187 73.718 28.9652 76.7365 30.2408L76.7837 30.1291L76.7365 30.2408C79.6521 31.4728 82.2706 33.2365 84.5197 35.4832C86.7687 37.7299 88.5342 40.3457 89.7675 43.2583C91.044 46.2735 91.6916 49.4766 91.6916 52.7793C91.6916 56.082 91.0444 59.2851 89.7675 62.3003L89.8792 62.3476L89.7675 62.3003C88.5342 65.2128 86.7687 67.8287 84.5197 70.0753C82.2706 72.322 79.6521 74.0858 76.7365 75.3178C73.718 76.5929 70.5116 77.2399 67.2054 77.2399H41.0811C37.7749 77.2399 34.5685 76.5934 31.5501 75.3178C28.6345 74.0858 26.0159 72.322 23.7669 70.0753C21.5179 67.8287 19.7523 65.2128 18.519 62.3003C17.2425 59.285 16.5949 56.082 16.5949 52.7793C16.5949 49.4766 17.2421 46.2735 18.519 43.2583Z" fill="#F2EFED" stroke="#413930" stroke-width="0.242613"/>
<mask id="path-11-inside-3_522_3399" fill="white">
<path d="M67.2053 28.586C70.4749 28.586 73.6466 29.2256 76.6321 30.487C79.5159 31.7055 82.1059 33.4502 84.3307 35.6722C86.555 37.8942 88.3015 40.4819 89.5212 43.3627C90.7839 46.3451 91.4242 49.513 91.4242 52.7797C91.4242 56.0464 90.7839 59.2144 89.5212 62.1967C88.3015 65.0775 86.555 67.6648 84.3307 69.8868C82.1063 72.1088 79.5159 73.8535 76.6321 75.0719C73.6466 76.3334 70.4754 76.973 67.2053 76.973H41.081C37.8114 76.973 34.6396 76.3334 31.6542 75.0719C28.7704 73.8535 26.1804 72.1088 23.9556 69.8868C21.7313 67.6648 19.9848 65.0775 18.7651 62.1962C17.5024 59.2139 16.8621 56.046 16.8621 52.7793C16.8621 49.5125 17.5024 46.3446 18.7651 43.3623C19.9848 40.4815 21.7313 37.8942 23.9556 35.6717C26.1799 33.4497 28.7704 31.705 31.6542 30.4866C34.6396 29.2252 37.8109 28.5855 41.081 28.5855H67.2053M67.2053 27.8083H41.081C27.2756 27.8087 16.0845 38.9882 16.0845 52.7793C16.0845 66.5703 27.2756 77.7498 41.081 77.7498H67.2053C81.0107 77.7498 92.2018 66.5703 92.2018 52.7793C92.2018 38.9882 81.0107 27.8087 67.2053 27.8087V27.8083Z"/>
</mask>
<path d="M67.2053 28.586C70.4749 28.586 73.6466 29.2256 76.6321 30.487C79.5159 31.7055 82.1059 33.4502 84.3307 35.6722C86.555 37.8942 88.3015 40.4819 89.5212 43.3627C90.7839 46.3451 91.4242 49.513 91.4242 52.7797C91.4242 56.0464 90.7839 59.2144 89.5212 62.1967C88.3015 65.0775 86.555 67.6648 84.3307 69.8868C82.1063 72.1088 79.5159 73.8535 76.6321 75.0719C73.6466 76.3334 70.4754 76.973 67.2053 76.973H41.081C37.8114 76.973 34.6396 76.3334 31.6542 75.0719C28.7704 73.8535 26.1804 72.1088 23.9556 69.8868C21.7313 67.6648 19.9848 65.0775 18.7651 62.1962C17.5024 59.2139 16.8621 56.046 16.8621 52.7793C16.8621 49.5125 17.5024 46.3446 18.7651 43.3623C19.9848 40.4815 21.7313 37.8942 23.9556 35.6717C26.1799 33.4497 28.7704 31.705 31.6542 30.4866C34.6396 29.2252 37.8109 28.5855 41.081 28.5855H67.2053M67.2053 27.8083H41.081C27.2756 27.8087 16.0845 38.9882 16.0845 52.7793C16.0845 66.5703 27.2756 77.7498 41.081 77.7498H67.2053C81.0107 77.7498 92.2018 66.5703 92.2018 52.7793C92.2018 38.9882 81.0107 27.8087 67.2053 27.8087V27.8083Z" fill="#413930"/>
<path d="M76.6321 30.487L76.5376 30.7105L76.5376 30.7105L76.6321 30.487ZM84.3307 35.6722L84.5021 35.5005L84.5021 35.5005L84.3307 35.6722ZM89.5212 43.3627L89.2978 43.4573L89.2978 43.4573L89.5212 43.3627ZM89.5212 62.1967L89.2978 62.1021L89.2978 62.1021L89.5212 62.1967ZM76.6321 75.0719L76.5376 74.8485L76.5376 74.8485L76.6321 75.0719ZM31.6542 75.0719L31.7486 74.8485L31.7486 74.8485L31.6542 75.0719ZM23.9556 69.8868L23.7842 70.0585L23.7842 70.0585L23.9556 69.8868ZM18.7651 62.1962L18.9885 62.1017L18.9885 62.1016L18.7651 62.1962ZM18.7651 43.3623L18.9885 43.4569L18.9885 43.4569L18.7651 43.3623ZM23.9556 35.6717L23.7842 35.5001L23.7841 35.5001L23.9556 35.6717ZM31.6542 30.4866L31.7486 30.7101L31.7486 30.7101L31.6542 30.4866ZM67.2053 27.8083H67.4479V27.5657H67.2053V27.8083ZM41.081 27.8083L41.081 27.5657L41.081 27.5657L41.081 27.8083ZM67.2053 27.8087H66.9626V28.0514H67.2053V27.8087ZM67.2053 28.8286C70.4428 28.8286 73.5823 29.4618 76.5376 30.7105L76.7265 30.2635C73.7109 28.9894 70.5071 28.3434 67.2053 28.3434V28.8286ZM76.5376 30.7105C79.3925 31.9167 81.9564 33.6438 84.1592 35.8438L84.5021 35.5005C82.2553 33.2565 79.6392 31.4942 76.7265 30.2635L76.5376 30.7105ZM84.1592 35.8438C86.3615 38.0438 88.0903 40.6054 89.2978 43.4573L89.7446 43.2681C88.5126 40.3584 86.7484 37.7445 84.5021 35.5005L84.1592 35.8438ZM89.2978 43.4573C90.5477 46.4095 91.1816 49.5452 91.1816 52.7797H91.6668C91.6668 49.4808 91.0201 46.2807 89.7446 43.2681L89.2978 43.4573ZM91.1816 52.7797C91.1816 56.0142 90.5477 59.15 89.2978 62.1021L89.7446 62.2913C91.0201 59.2788 91.6668 56.0786 91.6668 52.7797H91.1816ZM89.2978 62.1021C88.0903 64.954 86.3615 67.5151 84.1592 69.7152L84.5021 70.0585C86.7484 67.8145 88.5126 65.2011 89.7446 62.2913L89.2978 62.1021ZM84.1592 69.7152C81.9569 71.9152 79.3926 73.6422 76.5376 74.8485L76.7265 75.2954C79.6392 74.0648 82.2558 72.3024 84.5021 70.0585L84.1592 69.7152ZM76.5376 74.8485C73.5823 76.0971 70.4432 76.7304 67.2053 76.7304V77.2156C70.5075 77.2156 73.7109 76.5696 76.7265 75.2954L76.5376 74.8485ZM67.2053 76.7304H41.081V77.2156H67.2053V76.7304ZM41.081 76.7304C37.8435 76.7304 34.7039 76.0971 31.7486 74.8485L31.5598 75.2954C34.5754 76.5696 37.7792 77.2156 41.081 77.2156V76.7304ZM31.7486 74.8485C28.8937 73.6422 26.3298 71.9152 24.1271 69.7152L23.7842 70.0585C26.0309 72.3024 28.647 74.0648 31.5598 75.2954L31.7486 74.8485ZM24.1271 69.7152C21.9248 67.5152 20.196 64.954 18.9885 62.1017L18.5417 62.2908C19.7736 65.2011 21.5378 67.8145 23.7842 70.0585L24.1271 69.7152ZM18.9885 62.1016C17.7386 59.1495 17.1047 56.0137 17.1047 52.7793H16.6195C16.6195 56.0782 17.2662 59.2783 18.5417 62.2908L18.9885 62.1016ZM17.1047 52.7793C17.1047 49.5448 17.7386 46.409 18.9885 43.4569L18.5417 43.2677C17.2662 46.2802 16.6195 49.4803 16.6195 52.7793H17.1047ZM18.9885 43.4569C20.196 40.605 21.9248 38.0438 24.1271 35.8433L23.7841 35.5001C21.5378 37.7445 19.7736 40.3579 18.5417 43.2677L18.9885 43.4569ZM24.1271 35.8433C26.3294 33.6433 28.8937 31.9163 31.7486 30.7101L31.5598 30.2631C28.6471 31.4937 26.0305 33.2561 23.7842 35.5001L24.1271 35.8433ZM31.7486 30.7101C34.7039 29.4614 37.843 28.8281 41.081 28.8281V28.3429C37.7788 28.3429 34.5754 28.9889 31.5598 30.2631L31.7486 30.7101ZM41.081 28.8281H67.2053V28.3429H41.081V28.8281ZM67.2053 27.5657H41.081V28.0509H67.2053V27.5657ZM41.081 27.5657C27.1419 27.5661 15.8419 38.854 15.8419 52.7793H16.3271C16.3271 39.1225 27.4094 28.0514 41.081 28.0509L41.081 27.5657ZM15.8419 52.7793C15.8419 66.7045 27.1419 77.9924 41.081 77.9924V77.5072C27.4094 77.5072 16.3271 66.436 16.3271 52.7793H15.8419ZM41.081 77.9924H67.2053V77.5072H41.081V77.9924ZM67.2053 77.9924C81.1444 77.9924 92.4444 66.7045 92.4444 52.7793H91.9592C91.9592 66.436 80.8769 77.5072 67.2053 77.5072V77.9924ZM92.4444 52.7793C92.4444 38.854 81.1444 27.5661 67.2053 27.5661V28.0514C80.8769 28.0514 91.9592 39.1225 91.9592 52.7793H92.4444ZM67.4479 27.8087V27.8083H66.9626V27.8087H67.4479Z" fill="#413930" mask="url(#path-11-inside-3_522_3399)"/>
<path d="M37.4163 57.7366C34.6094 57.7366 31.9711 56.6447 29.9865 54.6622C28.0018 52.6796 26.9089 50.0441 26.9089 47.2403C26.9089 44.4365 28.0018 41.8009 29.9865 39.8184C31.9711 37.8358 34.6094 36.744 37.4163 36.744H70.8702C73.6771 36.744 76.3154 37.8358 78.3 39.8184C80.2846 41.8009 81.3776 44.4365 81.3776 47.2403C81.3776 50.0441 80.2846 52.6796 78.3 54.6622C76.3154 56.6447 73.6771 57.7366 70.8702 57.7366H37.4163Z" fill="#F15D22" stroke="#413930" stroke-width="0.242613"/>
<mask id="path-14-inside-4_522_3399" fill="white">
<path d="M70.8706 36.9888C72.2565 36.9888 73.6002 37.26 74.8648 37.794C76.0868 38.3102 77.1843 39.0495 78.1271 39.9913C79.0699 40.9331 79.81 42.0295 80.3267 43.2502C80.8617 44.5135 81.1327 45.8563 81.1327 47.2407C81.1327 48.6251 80.8613 49.9674 80.3267 51.2307C79.81 52.4514 79.0699 53.5478 78.1271 54.4896C77.1843 55.4314 76.0868 56.1707 74.8648 56.6869C73.6002 57.2214 72.256 57.492 70.8706 57.492H37.4162C36.0303 57.492 34.6866 57.2209 33.422 56.6869C32.2 56.1707 31.1025 55.4314 30.1597 54.4896C29.2169 53.5478 28.4768 52.4514 27.9601 51.2307C27.4251 49.9674 27.1541 48.6246 27.1541 47.2402C27.1541 45.8558 27.4255 44.5135 27.9601 43.2502C28.4768 42.0295 29.2169 40.9331 30.1597 39.9913C31.1025 39.0495 32.2 38.3102 33.422 37.794C34.6866 37.2595 36.0308 36.9888 37.4162 36.9888H70.8701M70.8701 36.2573H37.4162C31.3442 36.2573 26.4214 41.1745 26.4214 47.2407C26.4214 53.3064 31.3437 58.224 37.4162 58.224H70.8701C76.9422 58.224 81.8649 53.3068 81.8649 47.2407C81.8649 41.1745 76.9426 36.2573 70.8701 36.2573V36.2573Z"/>
</mask>
<path d="M70.8706 36.9888C72.2565 36.9888 73.6002 37.26 74.8648 37.794C76.0868 38.3102 77.1843 39.0495 78.1271 39.9913C79.0699 40.9331 79.81 42.0295 80.3267 43.2502C80.8617 44.5135 81.1327 45.8563 81.1327 47.2407C81.1327 48.6251 80.8613 49.9674 80.3267 51.2307C79.81 52.4514 79.0699 53.5478 78.1271 54.4896C77.1843 55.4314 76.0868 56.1707 74.8648 56.6869C73.6002 57.2214 72.256 57.492 70.8706 57.492H37.4162C36.0303 57.492 34.6866 57.2209 33.422 56.6869C32.2 56.1707 31.1025 55.4314 30.1597 54.4896C29.2169 53.5478 28.4768 52.4514 27.9601 51.2307C27.4251 49.9674 27.1541 48.6246 27.1541 47.2402C27.1541 45.8558 27.4255 44.5135 27.9601 43.2502C28.4768 42.0295 29.2169 40.9331 30.1597 39.9913C31.1025 39.0495 32.2 38.3102 33.422 37.794C34.6866 37.2595 36.0308 36.9888 37.4162 36.9888H70.8701M70.8701 36.2573H37.4162C31.3442 36.2573 26.4214 41.1745 26.4214 47.2407C26.4214 53.3064 31.3437 58.224 37.4162 58.224H70.8701C76.9422 58.224 81.8649 53.3068 81.8649 47.2407C81.8649 41.1745 76.9426 36.2573 70.8701 36.2573V36.2573Z" fill="#413930"/>
<path d="M74.8648 37.794L74.9592 37.5705L74.9591 37.5705L74.8648 37.794ZM80.3267 43.2502L80.1033 43.3448L80.1033 43.3448L80.3267 43.2502ZM80.3267 51.2307L80.5501 51.3252L80.5501 51.3252L80.3267 51.2307ZM74.8648 56.6869L74.7704 56.4634L74.7703 56.4634L74.8648 56.6869ZM33.422 56.6869L33.3276 56.9104L33.3276 56.9104L33.422 56.6869ZM27.9601 51.2307L28.1835 51.1361L28.1835 51.1361L27.9601 51.2307ZM27.9601 43.2502L27.7367 43.1556L27.7367 43.1557L27.9601 43.2502ZM33.422 37.794L33.5164 38.0175L33.5165 38.0174L33.422 37.794ZM70.8706 37.2315C72.2243 37.2315 73.5359 37.4962 74.7704 38.0175L74.9591 37.5705C73.6645 37.0237 72.2886 36.7462 70.8706 36.7462V37.2315ZM74.7704 38.0175C75.9634 38.5214 77.0348 39.2431 77.9556 40.1629L78.2986 39.8196C77.3337 38.8558 76.2101 38.0989 74.9592 37.5705L74.7704 38.0175ZM77.9556 40.1629C78.8764 41.0828 79.5988 42.153 80.1033 43.3448L80.5501 43.1556C80.0211 41.906 79.2634 40.7835 78.2986 39.8196L77.9556 40.1629ZM80.1033 43.3448C80.6255 44.5778 80.89 45.8884 80.89 47.2407H81.3753C81.3753 45.8241 81.0979 44.4491 80.5501 43.1556L80.1033 43.3448ZM80.89 47.2407C80.89 48.5929 80.6251 49.903 80.1033 51.1361L80.5501 51.3252C81.0974 50.0318 81.3753 48.6573 81.3753 47.2407H80.89ZM80.1033 51.1361C79.5988 52.3279 78.8764 53.3981 77.9556 54.318L78.2986 54.6612C79.2634 53.6974 80.0211 52.5749 80.5501 51.3252L80.1033 51.1361ZM77.9556 54.318C77.0348 55.2378 75.9634 55.9595 74.7704 56.4634L74.9592 56.9104C76.2101 56.382 77.3337 55.625 78.2986 54.6612L77.9556 54.318ZM74.7703 56.4634C73.536 56.9851 72.2239 57.2494 70.8706 57.2494V57.7347C72.2881 57.7347 73.6644 57.4576 74.9592 56.9104L74.7703 56.4634ZM70.8706 57.2494H37.4162V57.7347H70.8706V57.2494ZM37.4162 57.2494C36.0625 57.2494 34.7509 56.9847 33.5164 56.4634L33.3276 56.9104C34.6223 57.4571 35.9982 57.7347 37.4162 57.7347V57.2494ZM33.5164 56.4634C32.3234 55.9595 31.252 55.2378 30.3312 54.318L29.9882 54.6612C30.953 55.625 32.0767 56.382 33.3276 56.9104L33.5164 56.4634ZM30.3312 54.318C29.4103 53.3981 28.688 52.3279 28.1835 51.1361L27.7367 51.3252C28.2657 52.5749 29.0234 53.6974 29.9882 54.6612L30.3312 54.318ZM28.1835 51.1361C27.6613 49.9031 27.3967 48.5925 27.3967 47.2402H26.9115C26.9115 48.6568 27.1889 50.0318 27.7367 51.3253L28.1835 51.1361ZM27.3967 47.2402C27.3967 45.888 27.6617 44.5779 28.1835 43.3448L27.7367 43.1557C27.1893 44.4491 26.9115 45.8236 26.9115 47.2402H27.3967ZM28.1835 43.3448C28.688 42.153 29.4103 41.0828 30.3312 40.1629L29.9882 39.8196C29.0234 40.7835 28.2657 41.906 27.7367 43.1556L28.1835 43.3448ZM30.3312 40.1629C31.252 39.2431 32.3234 38.5214 33.5164 38.0175L33.3276 37.5705C32.0767 38.0989 30.953 38.8558 29.9882 39.8196L30.3312 40.1629ZM33.5165 38.0174C34.7508 37.4958 36.0629 37.2315 37.4162 37.2315V36.7462C35.9987 36.7462 34.6224 37.0233 33.3276 37.5705L33.5165 38.0174ZM37.4162 37.2315H70.8701V36.7462H37.4162V37.2315ZM70.8701 36.0147H37.4162V36.4999H70.8701V36.0147ZM37.4162 36.0147C31.2104 36.0147 26.1788 41.0403 26.1788 47.2407H26.664C26.664 41.3088 31.4779 36.4999 37.4162 36.4999V36.0147ZM26.1788 47.2407C26.1788 53.4406 31.21 58.4666 37.4162 58.4666V57.9814C31.4775 57.9814 26.664 53.1721 26.664 47.2407H26.1788ZM37.4162 58.4666H70.8701V57.9814H37.4162V58.4666ZM70.8701 58.4666C77.0759 58.4666 82.1076 53.4411 82.1076 47.2407H81.6223C81.6223 53.1726 76.8084 57.9814 70.8701 57.9814V58.4666ZM82.1076 47.2407C82.1076 41.0403 77.0764 36.0147 70.8701 36.0147V36.4999C76.8089 36.4999 81.6223 41.3088 81.6223 47.2407H82.1076Z" fill="#413930" mask="url(#path-14-inside-4_522_3399)"/>
<path d="M68.6209 57.3685V57.3684L68.6169 57.3684L36.9007 57.3899V57.3899L36.8965 57.39L36.8965 57.39L36.8964 57.39L36.8962 57.39L36.8945 57.3901L36.8871 57.3902C36.8803 57.3904 36.8698 57.3905 36.8558 57.3906C36.8278 57.3907 36.7857 57.3904 36.7305 57.3887C36.6202 57.3853 36.4577 57.3763 36.2516 57.3538C35.8393 57.3089 35.2526 57.2103 34.5589 56.9952C33.2218 56.5807 31.4865 55.7334 29.8348 54.0027L79.3368 52.9059C79.2744 52.9803 79.1961 53.0725 79.1046 53.1783C78.8548 53.4673 78.5068 53.8569 78.1138 54.26C77.7205 54.6635 77.2838 55.079 76.8564 55.4204C76.4266 55.7639 76.0164 56.0241 75.6755 56.1283C75.3191 56.2373 75.0419 56.3777 74.7594 56.5207C74.7446 56.5283 74.7297 56.5358 74.7147 56.5434C74.4166 56.6942 74.103 56.8488 73.6642 56.9847C72.7851 57.2568 71.3908 57.4573 68.6209 57.3685Z" fill="#C04A1B" stroke="#413930" stroke-width="0.242613"/>
<path d="M47.5401 47.2407C47.5401 52.3999 43.3533 56.5825 38.1883 56.5825C33.0234 56.5825 28.8366 52.3999 28.8366 47.2407C28.8366 42.0814 33.0234 37.8988 38.1883 37.8988C43.3533 37.8988 47.5401 42.0814 47.5401 47.2407Z" fill="#413930" stroke="#413930" stroke-width="0.242613"/>
<mask id="path-18-inside-5_522_3399" fill="white">
<path d="M38.1882 37.9828C39.4395 37.9828 40.6533 38.2274 41.7952 38.7102C42.8987 39.1765 43.89 39.844 44.7408 40.6944C45.5921 41.5448 46.2603 42.5347 46.7271 43.637C47.2105 44.7782 47.4553 45.9902 47.4553 47.2402C47.4553 48.4902 47.2105 49.7027 46.7271 50.8434C46.2603 51.9457 45.5921 52.936 44.7408 53.7859C43.8895 54.6363 42.8987 55.3038 41.7952 55.7702C40.6528 56.253 39.4395 56.4976 38.1882 56.4976C36.937 56.4976 35.7232 56.253 34.5813 55.7702C33.4778 55.3038 32.4865 54.6363 31.6357 53.7859C30.7849 52.9355 30.1162 51.9457 29.6494 50.8434C29.166 49.7022 28.9212 48.4902 28.9212 47.2402C28.9212 45.9902 29.166 44.7777 29.6494 43.637C30.1162 42.5347 30.7844 41.5444 31.6357 40.6944C32.487 39.8445 33.4778 39.1765 34.5813 38.7102C35.7237 38.2274 36.937 37.9828 38.1882 37.9828M38.1882 37.5713C32.8426 37.5713 28.5093 41.9001 28.5093 47.2402C28.5093 52.5803 32.8426 56.9091 38.1882 56.9091C43.5339 56.9091 47.8672 52.5803 47.8672 47.2402C47.8672 41.9001 43.5339 37.5713 38.1882 37.5713V37.5713Z"/>
</mask>
<path d="M38.1882 37.9828C39.4395 37.9828 40.6533 38.2274 41.7952 38.7102C42.8987 39.1765 43.89 39.844 44.7408 40.6944C45.5921 41.5448 46.2603 42.5347 46.7271 43.637C47.2105 44.7782 47.4553 45.9902 47.4553 47.2402C47.4553 48.4902 47.2105 49.7027 46.7271 50.8434C46.2603 51.9457 45.5921 52.936 44.7408 53.7859C43.8895 54.6363 42.8987 55.3038 41.7952 55.7702C40.6528 56.253 39.4395 56.4976 38.1882 56.4976C36.937 56.4976 35.7232 56.253 34.5813 55.7702C33.4778 55.3038 32.4865 54.6363 31.6357 53.7859C30.7849 52.9355 30.1162 51.9457 29.6494 50.8434C29.166 49.7022 28.9212 48.4902 28.9212 47.2402C28.9212 45.9902 29.166 44.7777 29.6494 43.637C30.1162 42.5347 30.7844 41.5444 31.6357 40.6944C32.487 39.8445 33.4778 39.1765 34.5813 38.7102C35.7237 38.2274 36.937 37.9828 38.1882 37.9828M38.1882 37.5713C32.8426 37.5713 28.5093 41.9001 28.5093 47.2402C28.5093 52.5803 32.8426 56.9091 38.1882 56.9091C43.5339 56.9091 47.8672 52.5803 47.8672 47.2402C47.8672 41.9001 43.5339 37.5713 38.1882 37.5713V37.5713Z" fill="#413930"/>
<path d="M41.7952 38.7102L41.7007 38.9336L41.7008 38.9337L41.7952 38.7102ZM44.7408 40.6944L44.5693 40.866L44.5694 40.8661L44.7408 40.6944ZM46.7271 43.637L46.5037 43.7316L46.5037 43.7316L46.7271 43.637ZM46.7271 50.8434L46.5038 50.7487L46.5037 50.7488L46.7271 50.8434ZM44.7408 53.7859L44.5694 53.6142L44.5694 53.6143L44.7408 53.7859ZM41.7952 55.7702L41.7008 55.5467L41.7008 55.5467L41.7952 55.7702ZM34.5813 55.7702L34.6758 55.5467L34.6757 55.5467L34.5813 55.7702ZM29.6494 50.8434L29.8728 50.7488L29.8728 50.7488L29.6494 50.8434ZM29.6494 43.637L29.8727 43.7316L29.8728 43.7316L29.6494 43.637ZM34.5813 38.7102L34.6757 38.9337L34.6757 38.9336L34.5813 38.7102ZM38.1882 38.2254C39.4074 38.2254 40.589 38.4636 41.7007 38.9336L41.8897 38.4867C40.7176 37.9911 39.4717 37.7402 38.1882 37.7402V38.2254ZM41.7008 38.9337C42.7754 39.3878 43.7405 40.0377 44.5693 40.866L44.9123 40.5228C44.0395 39.6504 43.022 38.9652 41.8897 38.4867L41.7008 38.9337ZM44.5694 40.8661C45.3987 41.6945 46.0492 42.6582 46.5037 43.7316L46.9506 43.5424C46.4715 42.4111 45.7856 41.3952 44.9123 40.5228L44.5694 40.8661ZM46.5037 43.7316C46.9743 44.8426 47.2127 46.0224 47.2127 47.2402H47.6979C47.6979 45.958 47.4467 44.7137 46.9506 43.5424L46.5037 43.7316ZM47.2127 47.2402C47.2127 48.458 46.9743 49.6383 46.5038 50.7487L46.9505 50.938C47.4467 49.7671 47.6979 48.5224 47.6979 47.2402H47.2127ZM46.5037 50.7488C46.0492 51.8222 45.3986 52.7863 44.5694 53.6142L44.9122 53.9576C45.7856 53.0857 46.4715 52.0692 46.9506 50.938L46.5037 50.7488ZM44.5694 53.6143C43.7401 54.4427 42.7753 55.0926 41.7008 55.5467L41.8897 55.9937C43.022 55.5151 44.039 54.8299 44.9123 53.9576L44.5694 53.6143ZM41.7008 55.5467C40.5886 56.0168 39.4074 56.255 38.1882 56.255V56.7402C39.4717 56.7402 40.7171 56.4892 41.8897 55.9937L41.7008 55.5467ZM38.1882 56.255C36.9691 56.255 35.7875 56.0168 34.6758 55.5467L34.4868 55.9936C35.6589 56.4892 36.9048 56.7402 38.1882 56.7402V56.255ZM34.6757 55.5467C33.6011 55.0926 32.636 54.4427 31.8072 53.6143L31.4642 53.9575C32.337 54.83 33.3545 55.5151 34.4868 55.9937L34.6757 55.5467ZM31.8072 53.6143C30.9783 52.7859 30.3273 51.8221 29.8728 50.7488L29.4259 50.938C29.9051 52.0693 30.5914 53.0852 31.4642 53.9575L31.8072 53.6143ZM29.8728 50.7488C29.4022 49.6378 29.1638 48.458 29.1638 47.2402H28.6786C28.6786 48.5224 28.9298 49.7666 29.426 50.938L29.8728 50.7488ZM29.1638 47.2402C29.1638 46.0224 29.4023 44.8421 29.8727 43.7316L29.426 43.5423C28.9298 44.7133 28.6786 45.958 28.6786 47.2402H29.1638ZM29.8728 43.7316C30.3273 42.6582 30.9779 41.694 31.8071 40.8661L31.4643 40.5227C30.5909 41.3947 29.905 42.4111 29.4259 43.5424L29.8728 43.7316ZM31.8071 40.8661C32.6364 40.0381 33.6012 39.3878 34.6757 38.9337L34.4868 38.4867C33.3544 38.9653 32.3375 39.6509 31.4643 40.5227L31.8071 40.8661ZM34.6757 38.9336C35.7879 38.4636 36.9691 38.2254 38.1882 38.2254V37.7402C36.9048 37.7402 35.6594 37.9911 34.4868 38.4867L34.6757 38.9336ZM38.1882 37.3287C32.7088 37.3287 28.2667 41.7658 28.2667 47.2402H28.7519C28.7519 42.0343 32.9763 37.8139 38.1882 37.8139V37.3287ZM28.2667 47.2402C28.2667 52.7145 32.7088 57.1517 38.1882 57.1517V56.6665C32.9763 56.6665 28.7519 52.4461 28.7519 47.2402H28.2667ZM38.1882 57.1517C43.6677 57.1517 48.1098 52.7145 48.1098 47.2402H47.6246C47.6246 52.4461 43.4002 56.6665 38.1882 56.6665V57.1517ZM48.1098 47.2402C48.1098 41.7658 43.6677 37.3287 38.1882 37.3287V37.8139C43.4002 37.8139 47.6246 42.0343 47.6246 47.2402H48.1098Z" fill="#413930" mask="url(#path-18-inside-5_522_3399)"/>
<path d="M76.7107 40.6349C80.3627 44.2831 80.3627 50.1981 76.7107 53.8463C73.0586 57.4946 67.1375 57.4946 63.4854 53.8463C59.8334 50.1981 59.8334 44.2831 63.4854 40.6349C67.1375 36.9866 73.0586 36.9866 76.7107 40.6349Z" fill="#413930" stroke="#413930" stroke-width="0.242613"/>
<mask id="path-21-inside-6_522_3399" fill="white">
<path d="M70.0979 37.9828C71.3492 37.9828 72.563 38.2274 73.7049 38.7102C74.8083 39.1765 75.7997 39.844 76.6505 40.6944C77.5013 41.5448 78.17 42.5347 78.6368 43.637C79.1201 44.7782 79.365 45.9902 79.365 47.2402C79.365 48.4902 79.1201 49.7027 78.6368 50.8434C78.17 51.9457 77.5018 52.936 76.6505 53.7859C75.7992 54.6359 74.8083 55.3038 73.7049 55.7702C72.5625 56.253 71.3492 56.4976 70.0979 56.4976C68.8466 56.4976 67.6329 56.253 66.491 55.7702C65.3875 55.3038 64.3962 54.6363 63.5453 53.7859C62.6941 52.9355 62.0259 51.9457 61.559 50.8434C61.0757 49.7022 60.8309 48.4902 60.8309 47.2402C60.8309 45.9902 61.0757 44.7777 61.559 43.637C62.0259 42.5347 62.6941 41.5444 63.5453 40.6944C64.3966 39.844 65.3875 39.1765 66.491 38.7102C67.6333 38.2274 68.8466 37.9828 70.0979 37.9828M70.0979 37.5713C64.7522 37.5713 60.4189 41.9001 60.4189 47.2402C60.4189 52.5803 64.7522 56.9091 70.0979 56.9091C75.4436 56.9091 79.7769 52.5803 79.7769 47.2402C79.7769 41.9001 75.4436 37.5713 70.0979 37.5713V37.5713Z"/>
</mask>
<path d="M70.0979 37.9828C71.3492 37.9828 72.563 38.2274 73.7049 38.7102C74.8083 39.1765 75.7997 39.844 76.6505 40.6944C77.5013 41.5448 78.17 42.5347 78.6368 43.637C79.1201 44.7782 79.365 45.9902 79.365 47.2402C79.365 48.4902 79.1201 49.7027 78.6368 50.8434C78.17 51.9457 77.5018 52.936 76.6505 53.7859C75.7992 54.6359 74.8083 55.3038 73.7049 55.7702C72.5625 56.253 71.3492 56.4976 70.0979 56.4976C68.8466 56.4976 67.6329 56.253 66.491 55.7702C65.3875 55.3038 64.3962 54.6363 63.5453 53.7859C62.6941 52.9355 62.0259 51.9457 61.559 50.8434C61.0757 49.7022 60.8309 48.4902 60.8309 47.2402C60.8309 45.9902 61.0757 44.7777 61.559 43.637C62.0259 42.5347 62.6941 41.5444 63.5453 40.6944C64.3966 39.844 65.3875 39.1765 66.491 38.7102C67.6333 38.2274 68.8466 37.9828 70.0979 37.9828M70.0979 37.5713C64.7522 37.5713 60.4189 41.9001 60.4189 47.2402C60.4189 52.5803 64.7522 56.9091 70.0979 56.9091C75.4436 56.9091 79.7769 52.5803 79.7769 47.2402C79.7769 41.9001 75.4436 37.5713 70.0979 37.5713V37.5713Z" fill="#413930"/>
<path d="M73.7049 38.7102L73.6104 38.9336L73.6104 38.9337L73.7049 38.7102ZM78.6368 43.637L78.4134 43.7316L78.4134 43.7316L78.6368 43.637ZM78.6368 50.8434L78.4134 50.7487L78.4134 50.7488L78.6368 50.8434ZM73.7049 55.7702L73.6104 55.5467L73.6104 55.5467L73.7049 55.7702ZM66.491 55.7702L66.5854 55.5467L66.5854 55.5467L66.491 55.7702ZM63.5453 53.7859L63.7169 53.6143L63.7168 53.6143L63.5453 53.7859ZM61.559 50.8434L61.7824 50.7488L61.7824 50.7488L61.559 50.8434ZM61.559 43.637L61.7824 43.7316L61.7824 43.7316L61.559 43.637ZM63.5453 40.6944L63.7168 40.8661L63.7168 40.8661L63.5453 40.6944ZM66.491 38.7102L66.5854 38.9337L66.5854 38.9336L66.491 38.7102ZM70.0979 38.2254C71.3171 38.2254 72.4987 38.4636 73.6104 38.9336L73.7994 38.4867C72.6272 37.9911 71.3813 37.7402 70.0979 37.7402V38.2254ZM73.6104 38.9337C74.685 39.3878 75.6502 40.0377 76.479 40.866L76.822 40.5228C75.9491 39.6504 74.9317 38.9652 73.7993 38.4867L73.6104 38.9337ZM76.479 40.866C77.3079 41.6945 77.9589 42.6583 78.4134 43.7316L78.8602 43.5424C78.3811 42.4111 77.6947 41.3951 76.822 40.5228L76.479 40.866ZM78.4134 43.7316C78.8839 44.8426 79.1224 46.0224 79.1224 47.2402H79.6076C79.6076 45.958 79.3563 44.7137 78.8602 43.5424L78.4134 43.7316ZM79.1224 47.2402C79.1224 48.458 78.8839 49.6383 78.4134 50.7487L78.8602 50.938C79.3563 49.7671 79.6076 48.5224 79.6076 47.2402H79.1224ZM78.4134 50.7488C77.9588 51.8222 77.3083 52.7863 76.4791 53.6142L76.8219 53.9576C77.6952 53.0857 78.3811 52.0692 78.8602 50.938L78.4134 50.7488ZM76.4791 53.6142C75.6497 54.4423 74.6849 55.0926 73.6104 55.5467L73.7993 55.9937C74.9317 55.5151 75.9487 54.8295 76.8219 53.9576L76.4791 53.6142ZM73.6104 55.5467C72.4982 56.0168 71.3171 56.255 70.0979 56.255V56.7402C71.3813 56.7402 72.6268 56.4892 73.7993 55.9937L73.6104 55.5467ZM70.0979 56.255C68.8787 56.255 67.6971 56.0168 66.5854 55.5467L66.3965 55.9936C67.5686 56.4892 68.8145 56.7402 70.0979 56.7402V56.255ZM66.5854 55.5467C65.5108 55.0926 64.5456 54.4427 63.7169 53.6143L63.3738 53.9575C64.2467 54.83 65.2642 55.5151 66.3965 55.9937L66.5854 55.5467ZM63.7168 53.6143C62.8875 52.7859 62.237 51.8221 61.7824 50.7488L61.3356 50.938C61.8147 52.0692 62.5006 53.0852 63.3739 53.9576L63.7168 53.6143ZM61.7824 50.7488C61.3119 49.6378 61.0735 48.458 61.0735 47.2402H60.5882C60.5882 48.5224 60.8395 49.7666 61.3356 50.938L61.7824 50.7488ZM61.0735 47.2402C61.0735 46.0224 61.3119 44.8421 61.7824 43.7316L61.3356 43.5423C60.8395 44.7133 60.5882 45.958 60.5882 47.2402H61.0735ZM61.7824 43.7316C62.237 42.6582 62.8875 41.694 63.7168 40.8661L63.3739 40.5227C62.5006 41.3947 61.8147 42.4112 61.3356 43.5424L61.7824 43.7316ZM63.7168 40.8661C64.5461 40.0376 65.5108 39.3878 66.5854 38.9337L66.3965 38.4867C65.2641 38.9653 64.2472 39.6504 63.3739 40.5228L63.7168 40.8661ZM66.5854 38.9336C67.6976 38.4636 68.8788 38.2254 70.0979 38.2254V37.7402C68.8145 37.7402 67.569 37.9911 66.3965 38.4867L66.5854 38.9336ZM70.0979 37.3287C64.6185 37.3287 60.1763 41.7658 60.1763 47.2402H60.6616C60.6616 42.0343 64.886 37.8139 70.0979 37.8139V37.3287ZM60.1763 47.2402C60.1763 52.7145 64.6185 57.1517 70.0979 57.1517V56.6665C64.886 56.6665 60.6616 52.4461 60.6616 47.2402H60.1763ZM70.0979 57.1517C75.5774 57.1517 80.0195 52.7145 80.0195 47.2402H79.5343C79.5343 52.4461 75.3098 56.6665 70.0979 56.6665V57.1517ZM80.0195 47.2402C80.0195 41.7658 75.5774 37.3287 70.0979 37.3287V37.8139C75.3098 37.8139 79.5343 42.0343 79.5343 47.2402H80.0195Z" fill="#413930" mask="url(#path-21-inside-6_522_3399)"/>
<path d="M34.7765 47.2402C36.7029 47.2402 38.2645 45.6802 38.2645 43.7559C38.2645 41.8315 36.7029 40.2715 34.7765 40.2715C32.8502 40.2715 31.2886 41.8315 31.2886 43.7559C31.2886 45.6802 32.8502 47.2402 34.7765 47.2402Z" fill="#F2EFED" stroke="#413930" stroke-width="2.18351" stroke-miterlimit="10"/>
<path d="M31.2883 48.8885C31.9276 48.8885 32.4458 48.3708 32.4458 47.7322C32.4458 47.0936 31.9276 46.5759 31.2883 46.5759C30.6491 46.5759 30.1309 47.0936 30.1309 47.7322C30.1309 48.3708 30.6491 48.8885 31.2883 48.8885Z" fill="#F2EFED" stroke="#413930" stroke-width="0.725412" stroke-miterlimit="10"/>
<path d="M67.6081 45.4037C69.5344 45.4037 71.096 43.8437 71.096 41.9193C71.096 39.995 69.5344 38.435 67.6081 38.435C65.6817 38.435 64.1201 39.995 64.1201 41.9193C64.1201 43.8437 65.6817 45.4037 67.6081 45.4037Z" fill="#F2EFED" stroke="#413930" stroke-width="2.18351" stroke-miterlimit="10"/>
<path d="M64.1197 47.2406C64.7966 47.2406 65.3454 46.6925 65.3454 46.0163C65.3454 45.34 64.7966 44.7919 64.1197 44.7919C63.4428 44.7919 62.894 45.34 62.894 46.0163C62.894 46.6925 63.4428 47.2406 64.1197 47.2406Z" fill="#F2EFED" stroke="#413930" stroke-width="0.766656" stroke-miterlimit="10"/>
<path d="M58.5593 7.12397C60.9982 9.5604 60.9982 13.5106 58.5593 15.9471C56.1203 18.3835 52.1659 18.3835 49.727 15.9471C47.288 13.5106 47.288 9.5604 49.727 7.12397C52.1659 4.68753 56.1203 4.68753 58.5593 7.12397Z" fill="#F15D22" stroke="#413930" stroke-width="0.242613"/>
<mask id="path-28-inside-7_522_3399" fill="white">
<path d="M54.1435 5.54115C55.7463 5.54115 57.2535 6.16478 58.3867 7.29681C59.5199 8.42884 60.1442 9.9344 60.1442 11.5355C60.1442 13.1366 59.5199 14.6422 58.3867 15.7742C57.2535 16.9063 55.7463 17.5299 54.1435 17.5299C52.5408 17.5299 51.0336 16.9063 49.9004 15.7742C48.7672 14.6422 48.1429 13.1366 48.1429 11.5355C48.1429 9.9344 48.7672 8.42884 49.9004 7.29681C51.0336 6.16478 52.5408 5.54115 54.1435 5.54115M54.1435 4.80963C50.4249 4.80963 47.4106 7.82076 47.4106 11.5355C47.4106 15.2503 50.4249 18.2614 54.1435 18.2614C57.8622 18.2614 60.8764 15.2503 60.8764 11.5355C60.8764 7.82076 57.8622 4.80963 54.1435 4.80963V4.80963Z"/>
</mask>
<path d="M54.1435 5.54115C55.7463 5.54115 57.2535 6.16478 58.3867 7.29681C59.5199 8.42884 60.1442 9.9344 60.1442 11.5355C60.1442 13.1366 59.5199 14.6422 58.3867 15.7742C57.2535 16.9063 55.7463 17.5299 54.1435 17.5299C52.5408 17.5299 51.0336 16.9063 49.9004 15.7742C48.7672 14.6422 48.1429 13.1366 48.1429 11.5355C48.1429 9.9344 48.7672 8.42884 49.9004 7.29681C51.0336 6.16478 52.5408 5.54115 54.1435 5.54115M54.1435 4.80963C50.4249 4.80963 47.4106 7.82076 47.4106 11.5355C47.4106 15.2503 50.4249 18.2614 54.1435 18.2614C57.8622 18.2614 60.8764 15.2503 60.8764 11.5355C60.8764 7.82076 57.8622 4.80963 54.1435 4.80963V4.80963Z" fill="#413930"/>
<path d="M54.1435 4.80963H54.3862V4.56702H54.1435V4.80963ZM54.1435 4.80963H53.9009V5.05224H54.1435V4.80963ZM54.1435 5.78377C55.6821 5.78377 57.1275 6.38189 58.2152 7.46845L58.5581 7.12516C57.3794 5.94766 55.8106 5.29854 54.1435 5.29854V5.78377ZM58.2152 7.46845C59.3029 8.555 59.9015 9.99882 59.9015 11.5355H60.3868C60.3868 9.86998 59.7369 8.30268 58.5581 7.12516L58.2152 7.46845ZM59.9015 11.5355C59.9015 13.0722 59.3029 14.516 58.2152 15.6026L58.5581 15.9459C59.7369 14.7684 60.3868 13.2011 60.3868 11.5355H59.9015ZM58.2152 15.6026C57.1275 16.6891 55.6821 17.2873 54.1435 17.2873V17.7725C55.8106 17.7725 57.3794 17.1234 58.5581 15.9459L58.2152 15.6026ZM54.1435 17.2873C52.605 17.2873 51.1596 16.6891 50.0719 15.6026L49.7289 15.9459C50.9077 17.1234 52.4765 17.7725 54.1435 17.7725V17.2873ZM50.0719 15.6026C48.9842 14.516 48.3855 13.0722 48.3855 11.5355H47.9003C47.9003 13.2011 48.5502 14.7684 49.7289 15.9459L50.0719 15.6026ZM48.3855 11.5355C48.3855 9.99882 48.9842 8.555 50.0719 7.46845L49.7289 7.12516C48.5502 8.30268 47.9003 9.86998 47.9003 11.5355H48.3855ZM50.0719 7.46845C51.1596 6.38189 52.605 5.78377 54.1435 5.78377V5.29854C52.4765 5.29854 50.9077 5.94766 49.7289 7.12516L50.0719 7.46845ZM54.1435 4.56702C50.2912 4.56702 47.168 7.68653 47.168 11.5355H47.6533C47.6533 7.95499 50.5587 5.05224 54.1435 5.05224V4.56702ZM47.168 11.5355C47.168 15.3845 50.2912 18.504 54.1435 18.504V18.0188C50.5587 18.0188 47.6533 15.1161 47.6533 11.5355H47.168ZM54.1435 18.504C57.9959 18.504 61.1191 15.3845 61.1191 11.5355H60.6338C60.6338 15.1161 57.7284 18.0188 54.1435 18.0188V18.504ZM61.1191 11.5355C61.1191 7.68653 57.9959 4.56702 54.1435 4.56702V5.05224C57.7284 5.05224 60.6338 7.95499 60.6338 11.5355H61.1191ZM54.3862 4.80963V4.80963H53.9009V4.80963H54.3862Z" fill="#413930" mask="url(#path-28-inside-7_522_3399)"/>
<path d="M53.498 18.2618C53.498 18.2618 54.3173 18.2724 54.9791 18.2618V20.3037L53.498 19.5502V18.2618V18.2618Z" fill="#E5E1DE"/>
<path d="M61.9743 84.9225H64.8361V87.4187L61.9743 86.8358V84.9225Z" fill="#E5E1DE" stroke="#413930" stroke-width="0.242613"/>
<path d="M43.4729 84.9225H46.3351V87.4187L43.4729 86.8358V84.9225Z" fill="#E5E1DE" stroke="#413930" stroke-width="0.242613"/>
<path d="M79.5863 78.9398C78.998 73.9232 76.0077 66.807 70.2066 65.745C65.6966 64.9279 62.943 68.1961 61.7095 70.2141C61.5155 70.5287 61.1723 70.7207 60.8026 70.7207H57.6897L57.1668 68.7108C57.0136 68.1818 56.5234 67.8223 55.974 67.8365H54.9609V66.2597C54.9609 65.794 55.1468 65.3487 55.4756 65.0198C55.8065 64.693 56.2518 64.5092 56.7175 64.5112C58.5824 64.5072 60.0918 62.9936 60.0918 61.1287V58.7512C60.0918 58.2998 59.7262 57.9341 59.2748 57.9341C58.8234 57.9341 58.4578 58.2998 58.4578 58.7512V61.1205C58.4578 62.0825 57.6795 62.8649 56.7175 62.869C55.8167 62.8669 54.9548 63.2223 54.3175 63.8596C53.6803 64.4969 53.3248 65.3589 53.3269 66.2596V67.812H52.3301C51.7684 67.7956 51.268 68.1674 51.1209 68.7107L50.5899 70.7451H47.4933C47.1196 70.7492 46.7723 70.5572 46.5783 70.2386C45.3445 68.2286 42.5912 64.928 38.0812 65.7694C32.2802 66.8315 29.2903 73.9397 28.7015 78.9642C27.9988 85.1082 26.3648 98.5483 33.4402 100.574C37.4028 101.718 41.406 95.2964 43.7591 90.5171V90.4681C44.0798 89.8063 44.6782 89.3242 45.3931 89.1527C51.1366 87.7208 57.1478 87.7331 62.8856 89.1935C63.5944 89.3733 64.1908 89.8532 64.5196 90.5089C66.8808 95.3212 70.8843 101.743 74.8469 100.575C81.9222 98.5484 80.2881 85.1084 79.5856 78.9398L79.5863 78.9398Z" fill="#E5E1DE" stroke="#413930" stroke-width="1.33333"/>
<path d="M48.0977 75.6305H51.1942V73.9965H48.0977V75.6305Z" fill="#F2EFED"/>
<path d="M57.1016 75.6305H60.1817L60.1981 73.9965H57.1016V75.6305Z" fill="#F2EFED"/>
<path d="M48.0977 75.6305H51.1942V73.9965H48.0977V75.6305Z" stroke="#413930" stroke-width="1.33333"/>
<path d="M57.1016 75.6305H60.1817L60.1981 73.9965H57.1016V75.6305Z" stroke="#413930" stroke-width="1.33333"/>
<path d="M39.9522 82.5265H43.2857L43.302 79.5444H39.9685V76.2028H36.9864V79.5444H33.6284V82.5265H36.9864V85.8681H39.9522V82.5265Z" fill="#F2EFED"/>
<path d="M39.9522 82.5265H43.2857L43.302 79.5444H39.9685V76.2028H36.9864V79.5444H33.6284V82.5265H36.9864V85.8681H39.9522V82.5265Z" stroke="#413930" stroke-width="1.33333"/>
<circle cx="70.013" cy="76.9736" r="2.16" fill="#5E91FF" stroke="#413930" stroke-width="1.33"/>
<circle cx="66.2801" cy="81.2936" r="2.16" fill="#FAB82B" stroke="#413930" stroke-width="1.33"/>
<circle cx="73.9164" cy="81.2936" r="2.16" fill="#F15D22" stroke="#413930" stroke-width="1.33"/>
<circle cx="70.013" cy="85.1245" r="2.16" fill="#F2EFED" stroke="#413930" stroke-width="1.33"/>
<path d="M32.5662 100.39L32.0559 100.39C27.8638 100.39 24.4531 96.9759 24.4531 92.7795C24.4531 88.583 27.8638 85.1687 32.0559 85.1687L32.5662 85.1687L32.5662 100.39Z" fill="#F2EFED"/>
<path d="M24.8417 92.7795C24.8417 90.8504 25.592 89.0371 26.9549 87.6732C28.3173 86.3093 30.1292 85.5578 32.0559 85.5578L32.1775 85.5578L32.1775 100.001L32.0559 100.001C30.1288 100.001 28.3173 99.2501 26.9549 97.8858C25.5924 96.5219 24.8417 94.7081 24.8417 92.7795ZM24.0645 92.7795C24.0645 97.1974 27.6425 100.779 32.0559 100.779L32.9547 100.779L32.9547 84.7797L32.0559 84.7797C27.6425 84.7797 24.0645 88.3615 24.0645 92.7795Z" fill="#413930"/>
<path d="M32.1875 100.019L32.1875 85.5445C32.1875 85.5445 27.396 85.2187 25.2339 90.2993C25.2339 90.2993 32.1875 84.3701 32.1875 100.019Z" fill="#E5E1DE"/>
<path d="M74.9929 85.4922L75.5032 85.4922C79.6952 85.4922 83.106 88.9065 83.106 93.1029C83.106 97.2994 79.6952 100.714 75.5032 100.714L74.9929 100.714L74.9929 85.4922V85.4922Z" fill="#F2EFED"/>
<path d="M82.7174 93.1029C82.7174 95.032 81.9671 96.8453 80.6042 98.2092C79.2417 99.5731 77.4298 100.325 75.5032 100.325L75.3816 100.325L75.3816 85.8812L75.5032 85.8812C77.4303 85.8812 79.2417 86.6322 80.6042 87.9966C81.9667 89.3605 82.7174 91.1742 82.7174 93.1029ZM83.4946 93.1029C83.4946 88.6849 79.9166 85.1031 75.5032 85.1031L74.6043 85.1031L74.6043 101.103L75.5032 101.103C79.9166 101.103 83.4946 97.5209 83.4946 93.1029Z" fill="#413930"/>
<path d="M78.8845 91.685C78.0942 90.7484 76.4074 89.8003 75.4092 90.0805V85.8426C79.8574 86.1052 81.9666 88.8658 82.4842 91.1312C83.3433 94.8915 81.5896 97.4221 80.015 98.644C80.4707 96.0471 80.669 93.8 78.8845 91.685Z" fill="#908B85"/>
<path d="M85.2235 79.132C84.7358 76.3956 83.0678 74.0693 82.1021 72.837L84.1077 71.1773C84.8753 72.261 85.9189 74.252 86.5962 76.6362C87.2735 79.0204 86.7038 83.9843 85.9472 85.6292C85.9246 84.6132 85.7112 81.8684 85.2235 79.132Z" fill="#908B85"/>
</svg>
