<svg width="112" height="108" viewBox="0 0 112 108" fill="none" xmlns="http://www.w3.org/2000/svg">
<g filter="url(#filter0_d_518_2018)">
<path d="M56.4366 94.5925C54.4566 94.6901 53.4666 92.4909 53.4666 92.4909C52.9946 92.333 52.4619 91.1693 52.2612 90.6931L50.2842 80.8367H55.4422V88.5915C55.74 90.0916 55.9372 90.4939 57.0278 90.6931C57.9154 90.7902 60.8533 90.2972 62.0554 90.0954L62.0783 90.0916C62.1789 89.6932 60.5933 86.6932 60.5933 86.6932C60.0983 86.494 59.0346 81.5099 59.0346 77.9039L64.0588 77.4712C63.2812 80.1793 62.3511 85.7543 64.8516 86.3893C65.4472 86.7878 69.1094 86.2878 70.2966 86.3893C71.4838 86.4909 73.661 88.1901 73.661 88.1901C73.166 88.0925 72.0755 88.9909 72.0755 88.9909C72.671 89.0925 73.3633 90.5925 73.3633 90.5925L72.2727 90.3933L71.0855 90.4948C69.9949 90.3933 66.1354 90.4949 65.3427 90.8933C64.6465 91.2917 64.2521 91.5925 64.2521 91.5925C64.2521 91.5925 63.0648 90.9909 62.4693 90.4909C62.4693 90.5925 62.4693 90.6901 62.5698 90.7917C62.9682 91.3933 64.5499 91.5925 65.1454 92.0925C65.8377 92.5925 66.6304 92.9909 66.6304 92.9909C66.6304 92.9909 65.8415 93.0925 65.741 93.0925C65.5438 93.0925 64.8515 93.3933 64.0588 93.3933C63.266 93.3933 62.5738 94.2917 62.5738 94.2917L62.771 95.0925H61.286C60.0988 95.1941 58.4166 94.4909 56.4366 94.5925Z" fill="#F15D22"/>
<path d="M52.1788 90.4909C52.1788 90.4909 52.2086 90.5684 52.2612 90.6931M52.2612 90.6931C52.4619 91.1693 52.9946 92.333 53.4666 92.4909C53.4666 92.4909 54.4566 94.6901 56.4366 94.5925C58.4166 94.4909 60.0988 95.1941 61.286 95.0925H62.771L62.5738 94.2917C62.5738 94.2917 63.266 93.3933 64.0588 93.3933C64.8515 93.3933 65.5438 93.0925 65.741 93.0925C65.8415 93.0925 66.6304 92.9909 66.6304 92.9909C66.6304 92.9909 65.8377 92.5925 65.1454 92.0925C64.5499 91.5925 62.9682 91.3933 62.5698 90.7917C62.4693 90.6901 62.4693 90.5925 62.4693 90.4909C63.0648 90.9909 64.2521 91.5925 64.2521 91.5925C64.2521 91.5925 64.6465 91.2917 65.3427 90.8933C66.1354 90.4949 69.9949 90.3933 71.0855 90.4948L72.2727 90.3933L73.3633 90.5925C73.3633 90.5925 72.671 89.0925 72.0755 88.9909C72.0755 88.9909 73.166 88.0925 73.661 88.1901C73.661 88.1901 71.4838 86.4909 70.2966 86.3893C69.1094 86.2878 65.4472 86.7878 64.8516 86.3893C62.3511 85.7543 63.2812 80.1793 64.0588 77.4712L59.0346 77.9039C59.0346 81.5099 60.0983 86.494 60.5933 86.6932C60.5933 86.6932 62.1789 89.6932 62.0783 90.0916C60.8911 90.2908 57.9211 90.7908 57.0278 90.6931C55.9372 90.4939 55.74 90.0916 55.4422 88.5915V80.8367H50.2842L52.2612 90.6931Z" stroke="#413930"/>
<path d="M89.9955 37.0959C89.2027 37.6935 88.7077 37.9943 88.7077 37.9943L88.7087 37.9948C83.1631 41.5924 84.7487 43.5924 84.9498 43.3893C89.8031 52.7923 92.572 59.6903 85.7426 69.6903C81.0856 76.4909 69.4072 79.5885 62.3766 80.8893C58.3863 81.9899 56.3757 81.9899 54.5527 81.9899L50.8909 81.69C46.0415 80.9908 44.2587 78.8932 42.9709 78.7916C41.2887 78.694 34.2581 77.8932 34.2581 77.8932L36.0409 77.4947C34.0609 76.8971 31.3887 75.2955 31.3887 75.2955C27.9237 73.9987 21.4887 67.3971 21.4887 67.3971C21.4887 67.3971 24.5593 66.8971 25.2515 66.7956C24.2615 66.694 17.8265 66.3932 16.7359 65.9948C15.5487 65.5964 14.0637 65.4948 14.0637 65.4948L14.9532 64.7956L13.1704 65.0964L10.8926 63.9948C11.5848 63.6939 15.5448 62.8932 15.5448 62.8932L13.6654 61.3932C14.1604 61.4947 15.8426 61.3932 15.8426 61.3932L17.8226 60.6939C16.6314 60.1939 13.267 60.3932 13.267 60.3932C13.267 59.0924 20.2976 57.8932 20.2976 57.8932C19.5087 57.3932 17.4282 57.4947 17.4282 57.4947C19.3072 54.2915 35.6422 51.8931 35.6422 51.8931C45.6432 46.9947 54.9474 46.8931 62.1752 45.6978C69.4029 44.397 70.2924 40.9986 70.2924 40.9986C74.055 27.3966 76.9244 21.8966 83.3594 20.8966C89.7944 19.8966 91.5732 23.299 92.6638 25.1974C93.1588 26.1974 93.356 27.5958 93.356 28.6974C92.6639 29.0959 91.9716 28.5959 91.9716 28.5959C91.5772 28.3927 91.0822 28.4943 91.0822 28.4943C90.5872 28.6935 90.2894 29.2951 90.3899 29.7951C90.3899 29.8967 90.4905 31.5959 88.5105 32.8967L88.4883 32.9196C88.2986 33.1148 88.1123 33.3065 88.0155 33.4983C88.0155 33.6975 87.6211 34.6975 88.1161 35.6975C88.4099 36.1974 88.9049 36.7951 89.9955 37.0959Z" fill="#F2EFED" stroke="#413930" stroke-linejoin="round"/>
<path d="M87.0122 25.9213C87.0122 26.6725 86.1749 27.2814 85.1421 27.2814C84.1093 27.2814 83.272 26.6725 83.272 25.9213C83.272 25.1701 84.1093 24.1367 85.1421 24.1367C86.1749 24.1367 87.0122 25.1701 87.0122 25.9213Z" fill="#413930"/>
<path d="M81.1092 62.7005C84.1272 58.1799 85.4531 51.9255 84.2929 43.1666C86.0961 45.2643 89.7026 51.2261 89.7026 58.2919C89.7026 67.1242 81.9743 71.9819 79.1039 75.6252C76.2335 79.2686 55.8087 81.587 52.9382 81.6974C50.6418 81.7858 45.3572 79.5262 43.0019 78.3853C42.0818 78.2749 39.6235 77.9216 37.1505 77.3917C34.6775 76.8618 29.7902 74.006 27.6558 72.6444C34.1592 75.6252 41.8031 75.711 48.7643 73.5692C51.1196 73.8636 57.9854 73.8487 63.7791 72.6444C71.1764 71.1067 77.8968 67.5122 81.1092 62.7005Z" fill="#E5E1DE"/>
<path d="M89.9955 37.0959C89.2027 37.6935 88.7077 37.9943 88.7077 37.9943L88.7087 37.9948C83.1631 41.5924 84.7487 43.5924 84.9498 43.3893C89.8031 52.7923 92.572 59.6903 85.7426 69.6903C81.0856 76.4909 69.4072 79.5885 62.3766 80.8893C58.3863 81.9899 56.3757 81.9899 54.5527 81.9899L50.8909 81.69C46.0415 80.9908 44.2587 78.8932 42.9709 78.7916C41.2887 78.694 34.2581 77.8932 34.2581 77.8932L36.0409 77.4947C34.0609 76.8971 31.3887 75.2955 31.3887 75.2955C27.9237 73.9987 21.4887 67.3971 21.4887 67.3971C21.4887 67.3971 24.5593 66.8971 25.2515 66.7956C24.2615 66.694 17.8265 66.3932 16.7359 65.9948C15.5487 65.5964 14.0637 65.4948 14.0637 65.4948L14.9532 64.7956L13.1704 65.0964L10.8926 63.9948C11.5848 63.6939 15.5448 62.8932 15.5448 62.8932L13.6654 61.3932C14.1604 61.4947 15.8426 61.3932 15.8426 61.3932L17.8226 60.6939C16.6314 60.1939 13.267 60.3932 13.267 60.3932C13.267 59.0924 20.2976 57.8932 20.2976 57.8932C19.5087 57.3932 17.4282 57.4947 17.4282 57.4947C19.3072 54.2915 35.6422 51.8931 35.6422 51.8931C45.6432 46.9947 54.9474 46.8931 62.1752 45.6978C69.4029 44.397 70.2924 40.9986 70.2924 40.9986C74.055 27.3966 76.9244 21.8966 83.3594 20.8966C89.7944 19.8966 91.5732 23.299 92.6638 25.1974C93.1588 26.1974 93.356 27.5958 93.356 28.6974C92.6639 29.0959 91.9716 28.5959 91.9716 28.5959C91.5772 28.3927 91.0822 28.4943 91.0822 28.4943C90.5872 28.6935 90.2894 29.2951 90.3899 29.7951C90.3899 29.8967 90.4905 31.5959 88.5105 32.8967L88.4883 32.9196C88.2986 33.1148 88.1123 33.3065 88.0155 33.4983C88.0155 33.6975 87.6211 34.6975 88.1161 35.6975C88.4099 36.1974 88.9049 36.7951 89.9955 37.0959Z" stroke="#413930" stroke-linejoin="round"/>
<path d="M101.529 36.4846C99.9096 34.5535 92.8597 28.9109 92.561 27.728C92.561 27.728 91.3841 28.4703 90.0637 27.2815C90.0637 27.2815 90.5057 30.9929 86.5387 33.8112C86.5387 33.8112 85.6545 35.8873 88.0084 36.4846C90.3623 37.0762 93.5945 37.5227 93.5945 37.5227C93.5945 37.5227 88.1577 35.0001 87.8649 35.0001H87.4229C87.4229 35.0001 88.1 34.8493 91.3322 36.4846C94.7138 38.1201 99.3241 39.4538 101.971 39.0131C101.971 39.0073 103.297 38.2649 101.529 36.4846Z" fill="#F15D22" stroke="#413930" stroke-linejoin="round"/>
</g>
<defs>
<filter id="filter0_d_518_2018" x="3.39258" y="14.2166" width="108.556" height="91.3857" filterUnits="userSpaceOnUse" color-interpolation-filters="sRGB">
<feFlood flood-opacity="0" result="BackgroundImageFix"/>
<feColorMatrix in="SourceAlpha" type="matrix" values="0 0 0 0 0 0 0 0 0 0 0 0 0 0 0 0 0 0 127 0" result="hardAlpha"/>
<feOffset dx="1" dy="2"/>
<feGaussianBlur stdDeviation="4"/>
<feComposite in2="hardAlpha" operator="out"/>
<feColorMatrix type="matrix" values="0 0 0 0 0 0 0 0 0 0 0 0 0 0 0 0 0 0 0.3 0"/>
<feBlend mode="normal" in2="BackgroundImageFix" result="effect1_dropShadow_518_2018"/>
<feBlend mode="normal" in="SourceGraphic" in2="effect1_dropShadow_518_2018" result="shape"/>
</filter>
</defs>
</svg>
