<svg width="108" height="110" viewBox="0 0 108 110" fill="none" xmlns="http://www.w3.org/2000/svg">
<g filter="url(#filter0_d_518_2345)">
<path d="M68.6743 85.9686C68.4663 89.0257 69.2612 95.6263 69.6355 98.8039C70.9213 99.0001 73.6731 98.6593 73.7493 98.4665C73.8637 98.1773 75.5223 90.4382 75.595 86.9817" fill="#FDEEE8"/>
<path d="M68.6743 85.9686C68.4663 89.0257 69.2612 95.6263 69.6355 98.8039C70.9213 99.0001 73.6731 98.6593 73.7493 98.4665C73.8637 98.1773 75.5223 90.4382 75.595 86.9817" stroke="#413930" stroke-miterlimit="10"/>
<path d="M72.5453 98.7297C71.6598 98.5614 71.0687 92.0469 71.8598 85.3938L68.8076 86.3136C68.9307 87.0378 68.6864 91.0122 69.0555 93.5124C69.3105 95.2396 69.0669 97.8421 69.8355 98.7298C70.9732 98.9167 73.4309 98.8979 72.5453 98.7297Z" fill="#FC9E77"/>
<path d="M68.6743 85.9686C68.4663 89.0257 69.2612 95.6263 69.6355 98.8039C70.9213 99.0001 73.6731 98.6593 73.7493 98.4665C73.8637 98.1773 75.5223 90.4382 75.595 86.9817" stroke="#413930" stroke-miterlimit="10"/>
<path d="M28.024 62.5478C27.0913 62.8365 26.0805 62.9615 25.1391 62.7029C24.1977 62.4444 23.3388 61.7592 23.0655 60.8284C22.7922 59.8975 23.2303 58.7599 24.137 58.3979C22.3367 58.665 20.3671 57.4326 20.0418 55.6528C19.7164 53.873 21.3432 51.9424 23.1522 52.145C24.1414 52.2527 24.983 52.8905 25.7682 53.5024C25.2042 52.1794 24.6446 50.6237 25.3474 49.3654C25.881 48.4087 27.1087 47.9218 28.1845 48.1717C29.2604 48.4216 30.115 49.3482 30.358 50.4169C30.7831 49.4904 32.2972 49.6153 32.9088 50.4298C33.5205 51.2443 34.4675 53.5024 33.3513 54.7108" stroke="#413930" stroke-miterlimit="10" stroke-linejoin="round"/>
<path d="M39.4619 85.8238C39.5416 87.8274 40.4602 96.8724 41.1603 97.0997C43.0768 97.7125 45.2498 97.4611 47.26 97.2993C47.26 94.528 47.2387 86.8592 46.7466 84.8831" fill="#FDEEE8"/>
<path d="M39.4619 85.8238C39.5416 87.8274 40.4602 96.8724 41.1603 97.0997C43.0768 97.7125 45.2498 97.4611 47.26 97.2993C47.26 94.528 47.2387 86.8592 46.7466 84.8831" stroke="#413930" stroke-miterlimit="10"/>
<path d="M61.4622 85.9686C61.3201 88.2821 61.6188 95.7263 62.4055 98.1155C62.8318 99.4134 66.8347 98.9624 68.2556 98.7421C69.2884 95.0653 69.2157 89.4874 69.4028 86.4028" fill="#FDEEE8"/>
<path d="M61.4622 85.9686C61.3201 88.2821 61.6188 95.7263 62.4055 98.1155C62.8318 99.4134 66.8347 98.9624 68.2556 98.7421C69.2884 95.0653 69.2157 89.4874 69.4028 86.4028" stroke="#413930" stroke-miterlimit="10"/>
<path d="M30.2106 84.8831C30.3701 87.6303 31.1308 93.3092 32.1186 96.3629C32.784 98.4148 38.0623 97.53 38.1246 97.4646C38.1801 97.4026 38.8307 88.3645 38.5881 85.8961" fill="#FDEEE8"/>
<path d="M30.2106 84.8831C30.3701 87.6303 31.1308 93.3092 32.1186 96.3629C32.784 98.4148 38.0623 97.53 38.1246 97.4646C38.1801 97.4026 38.8307 88.3645 38.5881 85.8961" stroke="#413930" stroke-miterlimit="10"/>
<path d="M34.6491 97.3443C33.9718 97.1761 33.191 90.9202 32.8852 87.8132H30.8394C30.9335 88.5374 30.8394 89.6581 31.1217 92.1583C31.3167 93.8854 32.2974 96.1062 32.8852 96.9939C33.7554 97.1808 35.3265 97.5125 34.6491 97.3443Z" fill="#FC9E77"/>
<path d="M44.443 97.3443C43.5574 97.1761 42.5365 90.9202 42.1368 87.8132H39.4619C39.585 88.5374 39.4619 89.6581 39.831 92.1583C40.0861 93.8854 40.4088 96.4566 41.1774 97.3443C42.3151 97.5312 45.3286 97.5125 44.443 97.3443Z" fill="#FC9E77"/>
<path d="M66.409 98.7296C65.5234 98.5614 64.1603 92.0993 64.4722 87.1556H61.7973C61.9204 87.8797 61.428 91.0434 61.7971 93.5436C62.0521 95.2708 62.3749 97.8419 63.1434 98.7296C64.2812 98.9165 67.2946 98.8979 66.409 98.7296Z" fill="#FC9E77"/>
<path d="M39.4619 85.8238C39.5416 87.8274 40.4602 96.8724 41.1603 97.0997C43.0768 97.7125 45.2498 97.4611 47.26 97.2993C47.26 94.528 47.2387 86.8592 46.7466 84.8831" stroke="#413930" stroke-miterlimit="10"/>
<path d="M30.2106 84.8831C30.3701 87.6303 31.1308 93.3092 32.1186 96.3629C32.784 98.4148 38.0623 97.53 38.1246 97.4646C38.1801 97.4026 38.8307 88.3645 38.5881 85.8961" stroke="#413930" stroke-miterlimit="10"/>
<path d="M61.4622 85.9686C61.3201 88.2821 61.6188 95.7263 62.4055 98.1155C62.8318 99.4134 66.8347 98.9624 68.2556 98.7421C69.2884 95.0653 69.2157 89.4874 69.4028 86.4028" stroke="#413930" stroke-miterlimit="10"/>
<path d="M60.6779 8.1521C59.108 6.82889 56.2419 14.4918 55.5679 17.4749L60.6779 17.475L63.443 13.9899C63.0069 12.4836 62.2477 9.47532 60.6779 8.1521Z" fill="#FDEEE8" stroke="#413930"/>
<path d="M76.7993 8.46038C78.3692 7.13716 80.615 13.2751 81.2891 16.2582L76.7993 18.6211L74.0342 15.1359C74.4702 13.6296 75.2295 9.7836 76.7993 8.46038Z" fill="#FDEEE8" stroke="#413930"/>
<path d="M77.4795 11.0341C77.0302 11.6342 76.2376 14.7537 76.3248 15.9186" stroke="#413930" stroke-linecap="round" stroke-linejoin="round"/>
<path d="M65.2612 87.2226C65.3444 88.0282 64.8592 88.8578 64.1141 89.1849C63.3689 89.512 62.4228 89.302 61.8856 88.6926C60.2567 90.5344 57.0786 90.7272 55.2349 89.0954C55.1482 90.3382 53.3877 90.8615 52.3064 90.2315C51.2251 89.6015 50.7364 88.3208 50.4175 87.1158C50.0675 88.0763 49.6863 89.0782 48.9169 89.7564C48.1475 90.4346 46.8617 90.6549 46.1166 89.9526C45.1358 89.0265 45.5517 87.0952 44.3907 86.4135C44.5085 87.3809 43.5554 88.2313 42.5781 88.3139C41.6008 88.3965 40.6616 87.9145 39.8748 87.3362C40.3774 88.1762 39.7882 89.3708 38.8628 89.7013C37.9375 90.0318 36.8666 89.6566 36.1457 88.9887C35.4249 88.3208 34.9882 87.4085 34.6173 86.503C34.7698 87.887 32.8186 88.7924 31.616 88.0798C30.4134 87.3672 30.0599 85.725 30.403 84.3754C29.5435 85.3153 27.7968 84.6991 27.2943 83.5354C26.7918 82.3718 27.1903 81.0119 27.7829 79.8896C26.3066 79.9103 25.052 78.5917 24.7886 77.1492C24.5252 75.7067 25.0658 74.2229 25.8664 72.9939C25.9669 72.839 26.0813 72.6599 26.0397 72.4775C26.0016 72.3088 25.8491 72.1952 25.7104 72.0919C24.1024 70.8869 23.3087 68.6974 23.7731 66.7523C24.2375 64.8071 25.9323 63.2028 27.9146 62.8414C26.9858 61.3851 27.4502 59.4813 28.0186 57.8529C28.2335 57.2366 28.4692 56.6066 28.9301 56.1419C29.9767 55.0849 31.7061 55.2674 33.1721 55.5256L33.082 55.4946C32.6731 54.6443 33.1063 53.5633 33.8722 53.0021C34.6381 52.441 35.6397 52.3067 36.5893 52.3411C38.8524 52.4306 41.3478 53.8008 41.5661 56.0386C43.0529 53.5633 47.0107 53.071 49.0659 55.1056C48.1302 53.1329 48.9793 50.5096 50.8993 49.4527C49.4749 48.8399 48.4733 47.363 48.4386 45.8206C48.404 44.2783 49.3397 42.7566 50.7329 42.0819C49.3536 41.7066 48.1579 40.5464 47.9881 39.1349C47.8183 37.7234 48.8788 36.2121 50.3032 36.0881C49.2323 35.9917 48.6743 34.6284 49.0105 33.6128C49.3466 32.5972 50.2512 31.8915 51.1245 31.2683C50.4037 31.5472 49.5615 31.017 49.2808 30.3009C49.0001 29.5849 49.163 28.7724 49.4437 28.0563C50.1368 26.2971 51.5751 24.8408 53.3322 24.1179C52.4346 24.5654 51.2528 24.0008 50.8404 23.0919C50.4279 22.1831 50.6636 21.0814 51.2147 20.2483C51.7657 19.4151 52.594 18.8023 53.4292 18.248C54.1293 17.7833 55.0616 17.3461 55.7651 17.8108C55.7651 17.8108 56.3751 13.6865 58.8566 13.5797C61.338 13.473 62.3119 14.974 62.3119 14.974C62.3119 14.974 63.5006 12.5091 66.1969 12.7225C68.8933 12.936 70.2969 15.4044 70.2969 15.4044C70.2969 15.4044 72.7783 13.1529 75.0449 13.5832C77.3115 14.0135 78.067 16.4785 78.067 16.4785C78.067 16.4785 81.4114 15.2977 83.2483 17.5492C85.0851 19.8007 84.8668 20.6579 84.437 23.1229C84.0627 25.2608 87.3517 25.4812 87.4591 26.8755C87.5666 28.2698 85.8406 29.7708 85.8406 29.7708C85.8406 29.7708 87.9998 30.628 87.9998 32.9863C87.9998 35.3445 85.9481 36.8249 85.9481 36.8249C85.9481 36.8249 87.9998 39.097 87.9998 41.4553C87.9998 43.8135 84.3296 44.2439 84.3296 44.2439C84.3296 44.2439 85.6258 44.5641 85.955 47.5661C86.2842 50.5681 83.3592 50.7816 83.3592 50.7816C85.955 51.3186 86.0624 54.7613 85.4733 55.9628C84.8841 57.1643 83.7751 58.025 82.7042 58.8375C84.0211 59.2334 85.5391 59.8221 85.8892 61.1475C86.1387 62.0874 85.657 63.0996 84.9361 63.7537C84.2152 64.4078 83.2829 64.783 82.3715 65.1411C83.6538 65.7298 85.0643 66.4562 85.4975 67.792C85.851 68.873 85.4282 70.0848 84.7004 70.9627C83.9726 71.8406 82.978 72.4499 82.0006 73.0421C83.8236 73.1798 85.5218 74.729 85.5287 76.5433C85.5356 78.3576 83.5394 79.9826 81.8169 79.3801C83.5394 80.079 84.1078 82.5439 83.0369 84.0587C81.966 85.5735 79.6925 85.9729 78.0289 85.1363C78.9231 85.8661 78.7359 87.3017 78.1745 88.307C77.4293 89.6393 75.8108 90.741 74.4072 90.1282C73.1804 89.5911 72.7818 88.0798 72.5877 86.7612C72.002 88.035 70.7058 88.9611 69.3022 89.1092C67.8986 89.2572 66.4361 88.6169 65.5974 87.4911" fill="#F2EFED"/>
<path d="M65.2612 87.2226C65.3444 88.0282 64.8592 88.8578 64.1141 89.1849C63.3689 89.512 62.4228 89.302 61.8856 88.6926C60.2567 90.5344 57.0786 90.7272 55.2349 89.0954C55.1482 90.3382 53.3877 90.8615 52.3064 90.2315C51.2251 89.6015 50.7364 88.3208 50.4175 87.1158C50.0675 88.0763 49.6863 89.0782 48.9169 89.7564C48.1475 90.4346 46.8617 90.6549 46.1166 89.9526C45.1358 89.0265 45.5517 87.0952 44.3907 86.4135C44.5085 87.3809 43.5554 88.2313 42.5781 88.3139C41.6008 88.3965 40.6615 87.9145 39.8748 87.3362C40.3774 88.1762 39.7882 89.3708 38.8628 89.7013C37.9375 90.0318 36.8666 89.6566 36.1457 88.9887C35.4249 88.3208 34.9882 87.4085 34.6173 86.503C34.7698 87.887 32.8186 88.7924 31.616 88.0798C30.4134 87.3672 30.0599 85.725 30.403 84.3754C29.5435 85.3153 27.7968 84.6991 27.2943 83.5354C26.7918 82.3718 27.1903 81.0119 27.7829 79.8896C26.3066 79.9103 25.052 78.5917 24.7886 77.1492C24.5252 75.7067 25.0658 74.2229 25.8664 72.9939C25.9669 72.839 26.0813 72.6599 26.0397 72.4775C26.0016 72.3088 25.8491 72.1952 25.7104 72.0919C24.1024 70.8869 23.3087 68.6974 23.7731 66.7523C24.2375 64.8071 25.9323 63.2028 27.9146 62.8414C26.9858 61.3851 27.4502 59.4813 28.0186 57.8529C28.2335 57.2366 28.4692 56.6066 28.9301 56.1419C29.9767 55.085 31.7061 55.2674 33.1721 55.5256L33.082 55.4946C32.6731 54.6443 33.1063 53.5633 33.8722 53.0021C34.6381 52.441 35.6397 52.3067 36.5893 52.3411C38.8524 52.4306 41.3478 53.8008 41.5661 56.0386C43.0529 53.5633 47.0107 53.071 49.0659 55.1056C48.1302 53.1329 48.9793 50.5096 50.8993 49.4527C49.4749 48.8399 48.4733 47.363 48.4386 45.8206C48.404 44.2783 49.3397 42.7566 50.7329 42.0819C49.3536 41.7066 48.1579 40.5464 47.9881 39.1349C47.8183 37.7234 48.8788 36.2121 50.3032 36.0881C49.2323 35.9917 48.6743 34.6284 49.0105 33.6128C49.3466 32.5972 50.2512 31.8915 51.1245 31.2683C50.4037 31.5472 49.5615 31.017 49.2808 30.3009C49.0001 29.5849 49.163 28.7724 49.4437 28.0563C50.1368 26.2971 51.5751 24.8408 53.3322 24.1179C52.4346 24.5654 51.2528 24.0008 50.8404 23.0919C50.4279 22.1831 50.6636 21.0814 51.2147 20.2483C51.7657 19.4151 52.594 18.8023 53.4292 18.248C54.1293 17.7833 55.0616 17.3461 55.7651 17.8108C55.7651 17.8108 56.3751 13.6865 58.8566 13.5797C61.338 13.473 62.3119 14.974 62.3119 14.974C62.3119 14.974 63.5006 12.5091 66.1969 12.7225C68.8933 12.936 70.2969 15.4044 70.2969 15.4044C70.2969 15.4044 72.7783 13.1529 75.0449 13.5832C77.3115 14.0135 78.067 16.4785 78.067 16.4785C78.067 16.4785 81.4114 15.2977 83.2483 17.5492C85.0851 19.8007 84.8668 20.6579 84.437 23.1229C84.0627 25.2608 87.3517 25.4812 87.4591 26.8755C87.5666 28.2698 85.8406 29.7708 85.8406 29.7708C85.8406 29.7708 87.9998 30.628 87.9998 32.9863C87.9998 35.3445 85.9481 36.8249 85.9481 36.8249C85.9481 36.8249 87.9998 39.097 87.9998 41.4553C87.9998 43.8135 84.3296 44.2439 84.3296 44.2439C84.3296 44.2439 85.6258 44.5641 85.955 47.5661C86.2842 50.5681 83.3592 50.7816 83.3592 50.7816C85.955 51.3186 86.0624 54.7613 85.4733 55.9628C84.8841 57.1643 83.7751 58.025 82.7042 58.8375C84.0211 59.2334 85.5391 59.8221 85.8892 61.1475C86.1387 62.0874 85.657 63.0996 84.9361 63.7537C84.2152 64.4078 83.2829 64.783 82.3715 65.1411C83.6538 65.7298 85.0643 66.4562 85.4975 67.792C85.851 68.873 85.4282 70.0848 84.7004 70.9627C83.9726 71.8406 82.978 72.4499 82.0006 73.0421C83.8236 73.1798 85.5218 74.729 85.5287 76.5433C85.5356 78.3576 83.5394 79.9826 81.8169 79.3801C83.5394 80.079 84.1078 82.5439 83.0369 84.0587C81.966 85.5735 79.6925 85.9729 78.0289 85.1363C78.9231 85.8661 78.7359 87.3017 78.1745 88.307C77.4293 89.6393 75.8108 90.741 74.4072 90.1282C73.1804 89.5911 72.7818 88.0798 72.5877 86.7612C72.002 88.035 70.7058 88.9611 69.3022 89.1092C67.8986 89.2572 66.4361 88.6169 65.5974 87.4911" stroke="#413930" stroke-miterlimit="10" stroke-linejoin="round"/>
<path d="M81.8171 34.6352C81.8171 34.6352 82.1048 33.0723 81.9557 31.1891C81.8362 29.6682 79.5663 23.4622 73.6146 21.529C72.2212 21.0764 69.3039 21.1898 65.8445 22.1719C61.8047 23.3188 54.4222 24.2061 53.3917 34.6352C52.3611 45.0644 70.0097 53.3219 81.5468 43.8238C85.0541 38.739 81.8171 34.6352 81.8171 34.6352Z" fill="#FDEEE8"/>
<path d="M60.9183 36.6204C61.6769 33.512 59.0644 30.5464 60.9183 26.7023L55.8027 25.7311C56.0456 28.2977 55.8027 35.7474 55.8027 40.0119C55.8027 45.3425 62.9521 47.4129 69.2459 47.9394C74.7912 48.4032 78.2078 47.0445 79.156 45.7258C76.8372 46.6472 69.725 47.5404 64.9641 45.3177C60.3569 43.1667 60.1289 39.8549 60.9183 36.6204Z" fill="#FC9E77"/>
<path d="M63.1359 28.2453C61.1188 28.4829 59.2402 25.5325 59.2402 25.5325C59.8918 27.7828 58.9976 30.6394 56.9633 31.6544C58.0758 32.3804 58.7724 33.753 58.7204 35.1219C58.6684 36.4909 57.8782 37.802 56.7172 38.4377C57.7708 38.6183 58.7308 39.3299 59.2402 40.3087C59.5168 40.8635 60.0212 42.2026 59.8266 43.1208C59.5834 44.2685 58.1267 47.5908 55.9362 47.6512C54.1838 47.6995 52.1649 38.7715 51.3745 34.3015C52.4379 30.7287 55.1775 25.2403 55.9362 23.8475C57.7689 20.483 59.7967 17.4956 61.5892 17.871C68.5331 19.3252 84.4708 24.9554 84.3411 25.4154C84.1295 26.166 83.7048 27.0552 82.8524 27.5396C81.1923 28.4829 79.6466 26.2796 79.6466 26.2796C79.6466 26.2796 78.697 27.7737 76.2016 27.7737C73.7063 27.7737 72.8745 25.5325 72.8745 25.5325C72.8745 25.5325 72.5211 27.185 70.0257 28.2557C67.5304 29.3263 65.2673 25.4154 65.2673 25.4154C65.2673 25.4154 65.1529 28.0078 63.1359 28.2453Z" fill="#F2EFED"/>
<path d="M58.1499 24.1179C58.1499 24.1179 61.12 28.4832 63.1371 28.2457C65.1541 28.0081 65.2685 25.4158 65.2685 25.4158C65.2685 25.4158 67.5316 29.3267 70.0269 28.256C72.5222 27.1853 72.8757 25.5328 72.8757 25.5328C72.8757 25.5328 73.7075 27.774 76.2028 27.774C78.6981 27.774 79.6477 26.2799 79.6477 26.2799C79.6477 26.2799 81.1935 28.4832 82.8535 27.5399C84.5136 26.5966 84.5517 24.1179 84.5517 24.1179" stroke="#413930" stroke-miterlimit="10" stroke-linecap="round"/>
<path d="M59.4741 25.7311C60.1257 27.9814 58.9993 30.6398 56.9649 31.6548C58.0774 32.3808 58.774 33.7534 58.722 35.1223C58.6701 36.4912 57.8799 37.8024 56.7189 38.4381C57.7724 38.6187 58.7324 39.3303 59.2419 40.3091C60.7335 43.1791 59.2132 46.8958 55.9043 47.4046" stroke="#413930" stroke-miterlimit="10" stroke-linecap="round"/>
<path d="M80.5419 27.1992C80.5419 27.1992 81.7757 28.8964 81.9559 31.1892C82.105 33.0724 81.8173 34.6354 81.8173 34.6354C81.8173 34.6354 85.0543 38.7391 81.547 43.824C78.0397 48.9088 64.3328 49.7075 59.1758 44.9119" stroke="#413930" stroke-miterlimit="10"/>
<path d="M65.8752 33.1828C66.5872 33.1828 67.1644 32.4908 67.1644 31.6372C67.1644 30.7837 66.5872 30.0917 65.8752 30.0917C65.1632 30.0917 64.5859 30.7837 64.5859 31.6372C64.5859 32.4908 65.1632 33.1828 65.8752 33.1828Z" fill="#413930"/>
<path d="M78.9504 33.1828C79.6624 33.1828 80.2396 32.4908 80.2396 31.6372C80.2396 30.7837 79.6624 30.0917 78.9504 30.0917C78.2383 30.0917 77.6611 30.7837 77.6611 31.6372C77.6611 32.4908 78.2383 33.1828 78.9504 33.1828Z" fill="#413930"/>
<path d="M69.888 35.6299C69.2293 36.9624 71.0338 39.3237 73.4108 36.1943C75.043 38.8116 76.9249 37.1341 76.5355 35.6299" stroke="#413930" stroke-miterlimit="10" stroke-linecap="round" stroke-linejoin="round"/>
<path d="M60.5847 10.505C60.2856 10.9672 59.4528 12.5213 59.4526 13.4764" stroke="#413930" stroke-linecap="round" stroke-linejoin="round"/>
<path d="M65.2612 87.2226C65.3444 88.0282 64.8592 88.8578 64.1141 89.1849C63.3689 89.512 62.4228 89.302 61.8856 88.6926C60.2567 90.5344 57.0786 90.7272 55.2349 89.0954C55.1482 90.3382 53.3877 90.8615 52.3064 90.2315C51.2251 89.6015 50.7364 88.3208 50.4175 87.1158C50.0675 88.0763 49.6863 89.0782 48.9169 89.7564C48.1475 90.4346 46.8617 90.6549 46.1166 89.9526C45.1358 89.0265 45.5517 87.0952 44.3907 86.4135C44.5085 87.3809 43.5554 88.2313 42.5781 88.3139C41.6008 88.3965 40.6615 87.9145 39.8748 87.3362C40.3774 88.1762 39.7882 89.3708 38.8628 89.7013C37.9375 90.0318 36.8666 89.6566 36.1457 88.9887C35.4249 88.3208 34.9882 87.4085 34.6173 86.503C34.7698 87.887 32.8186 88.7924 31.616 88.0798C30.4134 87.3672 30.0599 85.725 30.403 84.3754C29.5435 85.3153 27.7968 84.6991 27.2943 83.5354C26.7918 82.3718 27.1903 81.0119 27.7829 79.8896C26.3066 79.9103 25.052 78.5917 24.7886 77.1492C24.5252 75.7067 25.0658 74.2229 25.8664 72.9939C25.9669 72.839 26.0813 72.6599 26.0397 72.4775C26.0016 72.3088 25.8491 72.1952 25.7104 72.0919C24.1024 70.8869 23.3087 68.6974 23.7731 66.7523C24.2375 64.8071 25.9323 63.2028 27.9146 62.8414C26.9858 61.3851 27.4502 59.4813 28.0186 57.8529C28.2335 57.2366 28.4692 56.6066 28.9301 56.1419C29.9767 55.085 31.7061 55.2674 33.1721 55.5256L33.082 55.4946C32.6731 54.6443 33.1063 53.5633 33.8722 53.0021C34.6381 52.441 35.6397 52.3067 36.5893 52.3411C38.8524 52.4306 41.3478 53.8008 41.5661 56.0386C43.0529 53.5633 47.0107 53.071 49.0659 55.1056C48.1302 53.1329 48.9793 50.5096 50.8993 49.4527C49.4749 48.8399 48.4733 47.363 48.4386 45.8206C48.404 44.2783 49.3397 42.7566 50.7329 42.0819C49.3536 41.7066 48.1579 40.5464 47.9881 39.1349C47.8183 37.7234 48.8788 36.2121 50.3032 36.0881C49.2323 35.9917 48.6743 34.6284 49.0105 33.6128C49.3466 32.5972 50.2512 31.8915 51.1245 31.2683C50.4037 31.5472 49.5615 31.017 49.2808 30.3009C49.0001 29.5849 49.163 28.7724 49.4437 28.0563C50.1368 26.2971 51.5751 24.8408 53.3322 24.1179C52.4346 24.5654 51.2528 24.0008 50.8404 23.0919C50.4279 22.1831 50.6636 21.0814 51.2147 20.2483C51.7657 19.4151 52.594 18.8023 53.4292 18.248C54.1293 17.7833 55.0616 17.3461 55.7651 17.8108C55.7651 17.8108 56.3751 13.6865 58.8566 13.5797C61.338 13.473 62.3119 14.974 62.3119 14.974C62.3119 14.974 63.5006 12.5091 66.1969 12.7225C68.8933 12.936 70.2969 15.4044 70.2969 15.4044C70.2969 15.4044 72.7783 13.1529 75.0449 13.5832C77.3115 14.0135 78.067 16.4785 78.067 16.4785C78.067 16.4785 81.4114 15.2977 83.2483 17.5492C85.0851 19.8007 84.8668 20.6579 84.437 23.1229C84.0627 25.2608 87.3517 25.4812 87.4591 26.8755C87.5666 28.2698 85.8406 29.7708 85.8406 29.7708C85.8406 29.7708 87.9998 30.628 87.9998 32.9863C87.9998 35.3445 85.9481 36.8249 85.9481 36.8249C85.9481 36.8249 87.9998 39.097 87.9998 41.4553C87.9998 43.8135 84.3296 44.2439 84.3296 44.2439C84.3296 44.2439 85.6258 44.5641 85.955 47.5661C86.2842 50.5681 83.3592 50.7816 83.3592 50.7816C85.955 51.3186 86.0624 54.7613 85.4733 55.9628C84.8841 57.1643 83.7751 58.025 82.7042 58.8375C84.0211 59.2334 85.5391 59.8221 85.8892 61.1475C86.1387 62.0874 85.657 63.0996 84.9361 63.7537C84.2152 64.4078 83.2829 64.783 82.3715 65.1411C83.6538 65.7298 85.0643 66.4562 85.4975 67.792C85.851 68.873 85.4282 70.0848 84.7004 70.9627C83.9726 71.8406 82.978 72.4499 82.0006 73.0421C83.8236 73.1798 85.5218 74.729 85.5287 76.5433C85.5356 78.3576 83.5394 79.9826 81.8169 79.3801C83.5394 80.079 84.1078 82.5439 83.0369 84.0587C81.966 85.5735 79.6925 85.9729 78.0289 85.1363C78.9231 85.8661 78.7359 87.3017 78.1745 88.307C77.4293 89.6393 75.8108 90.741 74.4072 90.1282C73.1804 89.5911 72.7818 88.0798 72.5877 86.7612C72.002 88.035 70.7058 88.9611 69.3022 89.1092C67.8986 89.2572 66.4361 88.6169 65.5974 87.4911" stroke="#413930" stroke-miterlimit="10" stroke-linejoin="round"/>
<ellipse cx="63.0709" cy="36.3638" rx="2.48589" ry="1.14177" fill="#FFA0A0"/>
<ellipse cx="81.2886" cy="35.7801" rx="2.48589" ry="1.14177" fill="#FFA0A0"/>
</g>
<defs>
<filter id="filter0_d_518_2345" x="12.5" y="1.49997" width="85" height="108" filterUnits="userSpaceOnUse" color-interpolation-filters="sRGB">
<feFlood flood-opacity="0" result="BackgroundImageFix"/>
<feColorMatrix in="SourceAlpha" type="matrix" values="0 0 0 0 0 0 0 0 0 0 0 0 0 0 0 0 0 0 127 0" result="hardAlpha"/>
<feOffset dx="1" dy="2"/>
<feGaussianBlur stdDeviation="4"/>
<feComposite in2="hardAlpha" operator="out"/>
<feColorMatrix type="matrix" values="0 0 0 0 0 0 0 0 0 0 0 0 0 0 0 0 0 0 0.3 0"/>
<feBlend mode="normal" in2="BackgroundImageFix" result="effect1_dropShadow_518_2345"/>
<feBlend mode="normal" in="SourceGraphic" in2="effect1_dropShadow_518_2345" result="shape"/>
</filter>
</defs>
</svg>
