<svg width="108" height="110" viewBox="0 0 108 110" fill="none" xmlns="http://www.w3.org/2000/svg">
<g filter="url(#filter0_d_518_2381)">
<path d="M76.7399 49.155C72.4986 27.9709 50.9207 27.1693 48.714 27.971C47.2576 28.5002 41.4791 30.7228 39.0903 38.3926C36.7014 46.0625 30.807 54.991 30.8071 64.2247C30.8072 73.4584 48.003 70.4764 62.8738 68.894C76.073 67.4896 79.7932 70.2066 79.7932 70.2066C80.1221 63.4871 77.3033 51.9689 76.7399 49.155Z" fill="#292622"/>
<path d="M38.9603 37.7692C28.5826 42.5036 16.4202 56.7998 19.3122 62.7611C19.8727 63.9165 22.3168 63.7204 23.6145 63.0608C28.4919 63.0945 37.9743 57.1515 42.2091 52.0436C46.444 46.9357 46.2668 48.5386 45.5451 42.9409C48.6656 39.5003 41.3688 36.6704 38.9603 37.7692Z" fill="#292622" stroke="#292622"/>
<path d="M71.234 37.1869C81.0747 42.955 91.7155 58.4172 88.2306 64.0524C87.5552 65.1447 85.1438 64.7003 83.9202 63.9118C79.0648 63.4479 70.238 56.5687 66.5462 51.0555C62.8544 45.5423 62.8672 47.1549 64.1561 41.66C61.4028 37.9191 68.9501 35.8482 71.234 37.1869Z" fill="#292622" stroke="#292622"/>
<path d="M46.2503 81.0207C49.1592 77.5126 47.0021 67.0562 35.8601 67.8559C35.7138 67.8664 35.5665 67.9114 35.4406 67.9867C31.2968 70.4627 29.0812 74.6814 27.4586 78.9516C26.3434 81.8863 24.6013 91.1029 28.4204 94.6546C29.6685 95.8153 28.7025 98.2657 29.9078 99.0071C31.8253 100.186 34.8639 98.658 35.653 97.8764C40.2295 93.344 41.2854 87.0083 46.2503 81.0207Z" fill="#292622"/>
<path d="M63.2413 81.9696C59.9979 78.7682 61.1043 68.1491 72.2705 67.8366C72.4171 67.8325 72.5682 67.8626 72.701 67.925C77.0705 69.9766 79.6947 73.954 81.734 78.0416C83.1356 80.8509 85.7858 89.8484 82.3389 93.7624C81.2124 95.0415 82.4174 97.3837 81.2918 98.2412C79.5011 99.6055 76.3255 98.3868 75.4626 97.6877C70.458 93.6329 68.7771 87.4336 63.2413 81.9696Z" fill="#292622"/>
<path d="M37.1221 9.68488C33.115 13.1195 34.3789 17.1993 37.1219 18.0938C38.1732 17.3401 40.4932 15.641 41.3623 14.8741C42.2315 14.1073 44.8315 12.6206 46.0228 11.9732C46.0228 9.34294 41.1291 6.25022 37.1221 9.68488Z" fill="#292622" stroke="#292622"/>
<path d="M78.76 14.5135C81.737 18.8713 78.1365 23.1404 75.2553 23.2914C74.8251 22.4728 73.881 20.5376 73.5459 19.3462C73.2108 18.1548 70.7559 15.5594 69.5703 14.4106C70.2537 11.8707 75.7829 10.1557 78.76 14.5135Z" fill="#292622" stroke="#292622"/>
<path d="M67.6432 41.2342C75.7694 37.4071 77.2578 27.6377 74.2733 21.0381C69.1931 9.80456 54.339 6.1631 41.1874 14.5081C31.3688 20.7384 32.1692 36.8325 42.5157 41.2342C50.2674 44.5321 59.5171 45.0613 67.6432 41.2342Z" fill="#F2EFED" stroke="#292622" stroke-linecap="square"/>
<path d="M39.3649 24.3412C37.4475 20.7532 42.8203 15.1598 45.7422 14.5605C53.3401 13.0017 53.557 20.4159 49.2061 24.3412C46.8079 26.5049 41.7866 28.873 39.3649 24.3412Z" fill="#292622"/>
<path d="M71.255 25.7122C75.5854 21.4536 66.9643 16.1059 64.0424 15.5066C57.7492 14.6075 56.6085 22.5661 61.5523 25.7122C64.0247 27.2856 67.4558 29.4483 71.255 25.7122Z" fill="#292622"/>
<path d="M56.1565 22.7494C55.4378 22.4937 54.2905 22.6428 53.8066 22.7494C53.8066 23.2061 54.2026 23.9429 55.1796 23.8611C55.9612 23.7956 56.1565 23.0926 56.1565 22.7494Z" fill="#292622" stroke="#292622" stroke-linecap="round" stroke-linejoin="round"/>
<ellipse cx="46.0223" cy="18.2435" rx="1.3949" ry="1.54458" transform="rotate(17.555 46.0223 18.2435)" fill="#F2EFED"/>
<ellipse cx="63.4366" cy="19.2085" rx="1.46838" ry="1.50793" fill="#F2EFED"/>
<path d="M58.7862 27.4735C58.2876 27.8398 54.6866 28.0894 51.9463 27.7025C51.0257 27.5725 49.9293 28.623 50.3569 29.4485C51.1794 31.0365 52.4679 32.592 54.3628 32.6439C58.5983 32.7598 60.0425 26.5504 58.7862 27.4735Z" fill="#E5E1DE"/>
<path d="M50.876 21.7146C51.9119 19.6285 58.0899 19.5941 59.0888 21.7146" stroke="#292622" stroke-linecap="round"/>
<path d="M54.0962 46.9018C45.2849 45.9005 34.087 52.1869 34.087 52.1869C30.7823 56.2187 30.2735 62.0801 30.2734 70.557C30.2734 79.0338 37.1297 81.987 44.5673 83.0209C52.0049 84.0548 63.664 84.3821 70.9397 83.0209C75.2268 82.2188 78.5476 79.9273 79.5245 74.9856C80.127 71.9373 79.4284 67.0131 78.543 62.321C77.5529 57.0742 75.45 51.592 70.556 49.457C65.2078 47.1239 59.056 47.4655 54.0962 46.9018Z" fill="#F2EFED" stroke="#292622"/>
<path d="M74.7024 52.2998C77.7233 54.4841 78.6647 62.1244 79.1346 67.8101C79.6045 73.4958 79.6607 77.7149 75.9526 80.6858C74.3144 81.9982 71.1392 83.2203 63.7632 83.5352C56.3872 83.8501 48.3374 83.263 48.3374 83.263C60.3471 82.6442 66.4102 74.4204 66.4102 66.6508C66.4102 58.8811 66.4378 51.8692 64.6638 48.1435C66.3511 48.1433 70.8259 49.4969 74.7024 52.2998Z" fill="#E5E1DE"/>
</g>
<defs>
<filter id="filter0_d_518_2381" x="11.3789" y="1.66379" width="87.0278" height="107.775" filterUnits="userSpaceOnUse" color-interpolation-filters="sRGB">
<feFlood flood-opacity="0" result="BackgroundImageFix"/>
<feColorMatrix in="SourceAlpha" type="matrix" values="0 0 0 0 0 0 0 0 0 0 0 0 0 0 0 0 0 0 127 0" result="hardAlpha"/>
<feOffset dx="1" dy="2"/>
<feGaussianBlur stdDeviation="4"/>
<feComposite in2="hardAlpha" operator="out"/>
<feColorMatrix type="matrix" values="0 0 0 0 0 0 0 0 0 0 0 0 0 0 0 0 0 0 0.3 0"/>
<feBlend mode="normal" in2="BackgroundImageFix" result="effect1_dropShadow_518_2381"/>
<feBlend mode="normal" in="SourceGraphic" in2="effect1_dropShadow_518_2381" result="shape"/>
</filter>
</defs>
</svg>
