<svg width="108" height="108" viewBox="0 0 108 108" fill="none" xmlns="http://www.w3.org/2000/svg">
<g filter="url(#filter0_d_518_2279)">
<circle cx="53.9998" cy="53.9997" r="33.4089" fill="#EFEAFD" stroke="#413930"/>
<path d="M29.6031 50.9096C28.2426 48.7119 28.2951 45.2844 34.051 44.4995C39.807 43.7146 43.3391 47.9007 43.0775 50.9096C42.8158 53.9184 41.1152 50.9096 39.2838 50.9096C37.4523 50.9096 37.1907 53.7875 35.4901 55.0957C33.7895 56.4038 31.3038 53.6567 29.6031 50.9096Z" fill="#9795F0" stroke="#413930"/>
<path d="M56.7391 39.8354C52.9981 38.5884 61.8876 28.1686 66.7999 23.1146C69.5394 24.7205 73.102 26.5401 77.7679 30.7284C84.5917 36.8538 85.2211 42.9528 86.3547 47.0622C85.9768 48.5736 84.8526 51.3132 83.3789 50.1796C81.5368 48.7626 81.1117 51.88 76.2938 55.4226C71.476 58.9651 73.1764 54.5723 72.3262 45.7868C71.476 37.0013 61.4153 41.3941 56.7391 39.8354Z" fill="#9795F0"/>
<path d="M66.7999 23.1146C61.8876 28.1686 52.9981 38.5884 56.7391 39.8354C61.4153 41.3941 71.476 37.0013 72.3262 45.7868C73.1764 54.5724 71.476 58.9651 76.2938 55.4226C81.1117 51.88 81.5368 48.7626 83.3789 50.1796C84.8526 51.3132 85.9768 48.5736 86.3547 47.0622" stroke="#413930" stroke-linecap="round" stroke-linejoin="round"/>
<path d="M37.7131 83.0926C29.9951 73.0198 36.714 66.4759 41.2453 64.6475C45.9148 62.7634 49.0453 65.9066 50.2191 68.4875C53.5823 64.8455 56.1775 60.7832 58.644 68.5719C61.1295 76.4209 70.0251 69.8801 71.3332 68.5719C72.6414 67.2638 77.8741 68.3103 77.6124 72.104C77.4031 75.1389 76.7403 77.7291 76.4351 78.6448C72.0861 83.0926 61.4574 87.7301 55.2261 87.4146C44.7867 86.886 40.9544 84.4018 37.7131 83.0926Z" fill="#9795F0"/>
<circle cx="53.9998" cy="53.9997" r="33.4089" stroke="#413930"/>
<g style="mix-blend-mode:multiply">
<path d="M87.9085 53.9997C87.9085 35.2723 72.7269 20.0908 53.9995 20.0908C62.5706 24.2441 71.7144 38.1401 71.7144 51.5701C71.7144 70.7169 65.1662 82.6708 60.559 87.2747C75.2409 83.5495 87.9085 69.8401 87.9085 53.9997Z" fill="#EFEAFD"/>
</g>
<path d="M37.7131 83.0926C29.9951 73.0198 36.714 66.4759 41.2453 64.6475C48.7019 61.6388 52.234 71.4499 50.1409 71.319C49.0071 71.6243 47.4199 71.5022 50.1409 68.5719C53.5421 64.9091 56.1585 60.7229 58.644 68.5719C61.1295 76.4209 69.6788 69.3998 71.3332 68.5719C74.3003 67.0873 77.8741 68.3103 77.6124 72.104C77.4031 75.1389 76.7403 77.7291 76.4351 78.6448" stroke="#413930"/>
</g>
<defs>
<filter id="filter0_d_518_2279" x="13.0908" y="14.0908" width="83.8179" height="83.8179" filterUnits="userSpaceOnUse" color-interpolation-filters="sRGB">
<feFlood flood-opacity="0" result="BackgroundImageFix"/>
<feColorMatrix in="SourceAlpha" type="matrix" values="0 0 0 0 0 0 0 0 0 0 0 0 0 0 0 0 0 0 127 0" result="hardAlpha"/>
<feOffset dx="1" dy="2"/>
<feGaussianBlur stdDeviation="4"/>
<feComposite in2="hardAlpha" operator="out"/>
<feColorMatrix type="matrix" values="0 0 0 0 0 0 0 0 0 0 0 0 0 0 0 0 0 0 0.3 0"/>
<feBlend mode="normal" in2="BackgroundImageFix" result="effect1_dropShadow_518_2279"/>
<feBlend mode="normal" in="SourceGraphic" in2="effect1_dropShadow_518_2279" result="shape"/>
</filter>
</defs>
</svg>
