<svg width="108" height="108" viewBox="0 0 108 108" fill="none" xmlns="http://www.w3.org/2000/svg">
<g filter="url(#filter0_d_518_2289)">
<path d="M37.6748 56.8715C37.6748 56.2796 38.0222 55.7516 38.5637 55.4218C39.1074 55.0906 39.7878 54.9981 40.3676 55.2268C43.2728 56.3725 47.9528 57.6728 54.2271 57.6728C60.5014 57.6728 65.1813 56.3725 68.0865 55.2268C68.6664 54.9981 69.3468 55.0906 69.8904 55.4218C70.4319 55.7516 70.7793 56.2796 70.7793 56.8715V90.2029C70.7793 91.0313 70.1078 91.7029 69.2793 91.7029H39.1748C38.3464 91.7029 37.6748 91.0313 37.6748 90.2029V56.8715Z" fill="#E6EDFF" stroke="#413930"/>
<path d="M74.0588 51.9237C74.0588 51.6408 73.9449 51.38 73.7502 51.1707L72.5748 49.9952C72.3764 49.7968 72.1046 49.6866 71.8218 49.6866C71.5389 49.6866 71.2781 49.8005 71.0687 49.9952L60.2837 60.7906H62.708C63.5456 60.7906 64.3243 61.0257 64.9928 61.4408L73.7573 52.6763C73.9557 52.4779 74.0585 52.2024 74.0585 51.9233L74.0588 51.9237Z" fill="#5E91FF" stroke="#413930"/>
<path d="M60.0304 68.9348C60.8018 68.9348 61.43 68.303 61.43 67.5353C61.43 66.7639 60.7982 66.1357 60.0304 66.1357C59.259 66.1357 58.6309 66.7676 58.6309 67.5353C58.6272 68.303 59.259 68.9348 60.0304 68.9348Z" fill="#413930"/>
<path d="M60.0304 75.017C60.8018 75.017 61.43 74.3852 61.43 73.6175C61.43 72.8461 60.7982 72.218 60.0304 72.218C59.259 72.218 58.6309 72.8498 58.6309 73.6175C58.6272 74.3852 59.259 75.017 60.0304 75.017Z" fill="#413930"/>
<path d="M36.1065 87.5136C36.202 87.5429 36.3305 87.5319 36.4371 87.4291L43.8644 80.0017C43.1885 79.7115 42.6045 79.2487 42.1637 78.6756L34.9236 85.9157C34.8391 86.0001 34.8281 86.0957 34.8281 86.1507C34.8281 86.2058 34.8391 86.3014 34.9236 86.3858L35.9779 87.4401C36.0109 87.4768 36.0513 87.5062 36.1064 87.5135L36.1065 87.5136Z" fill="#5E91FF" stroke="#413930"/>
<path d="M72.1786 87.5136C72.2337 87.4953 72.2815 87.4659 72.3182 87.4292L73.3724 86.3749C73.4569 86.2904 73.4679 86.1949 73.4679 86.1398C73.4679 86.0847 73.4569 85.9892 73.3724 85.9047L66.1324 78.6647C65.6916 79.2377 65.1076 79.7006 64.4316 79.9908L71.859 87.4182C71.9545 87.532 72.0831 87.543 72.1786 87.5137L72.1786 87.5136Z" fill="#5E91FF" stroke="#413930"/>
<path d="M81.9489 90.4119C82.1546 75.414 80.0204 66.1787 78.2058 61.0734C76.6997 56.8528 75.1606 54.6892 74.5105 53.8995L73.0706 55.3394V83.6641L74.3489 84.9424C74.6795 85.262 74.8558 85.6954 74.8558 86.1546C74.8558 86.6138 74.6758 87.0473 74.3489 87.3779L73.2947 88.4211C73.2212 88.4946 73.1441 88.5533 73.0596 88.6084V91.8704H80.4503C81.2731 91.8777 81.9379 91.2202 81.949 90.4121L81.9489 90.4119Z" fill="#4B74CC" stroke="#413930"/>
<path d="M26.3356 90.4117C26.3466 91.2198 27.0115 91.8773 27.8306 91.8773H35.2213V88.6154C35.1368 88.5603 35.0597 88.4942 34.9862 88.4281L33.932 87.3738C33.6014 87.0543 33.4251 86.6135 33.4251 86.1616C33.4251 85.7097 33.6051 85.269 33.932 84.9384L35.2103 83.66L35.214 55.324L33.7741 53.8842C33.1166 54.6849 31.5738 56.8448 30.0788 61.0581C28.2531 66.1787 26.13 75.4099 26.3356 90.4116L26.3356 90.4117Z" fill="#4B74CC" stroke="#413930"/>
<path d="M45.5824 60.7904H48.0068L37.2142 50.0016C37.0085 49.7959 36.744 49.682 36.4612 49.682C36.1783 49.682 35.9065 49.7959 35.7081 49.9906L34.5327 51.166C34.3343 51.3644 34.2241 51.6362 34.2241 51.919C34.2241 52.2019 34.338 52.4737 34.5327 52.6721L43.2972 61.4365C43.9584 61.0251 44.7481 60.79 45.582 60.79L45.5824 60.7904Z" fill="#5E91FF" stroke="#413930"/>
<path d="M56.7385 73.6145C56.7385 75.4335 58.2112 76.9063 60.0302 76.9063C61.8492 76.9063 63.322 75.4335 63.322 73.6145C63.322 72.2427 62.4842 71.0678 61.2921 70.573C62.4843 70.0783 63.322 68.9034 63.322 67.5315C63.322 65.7125 61.8491 64.2398 60.0302 64.2398C58.2125 64.2398 56.7345 65.7115 56.7385 67.5321M56.7385 73.6145H57.2385M56.7385 73.6145C56.7385 73.6149 56.7385 73.6153 56.7385 73.6157L57.2385 73.6145M56.7385 73.6145C56.7357 72.2501 57.5759 71.0705 58.7699 70.5737C57.5771 70.0794 56.7387 68.9043 56.7385 67.5321M57.2385 73.6145C57.2385 75.1574 58.4874 76.4063 60.0302 76.4063C61.5731 76.4063 62.822 75.1574 62.822 73.6145C62.822 72.0845 61.5936 70.8435 60.0686 70.8231L57.2385 73.6145ZM56.7385 67.5321C56.7385 67.5323 56.7385 67.5325 56.7385 67.5327L57.2385 67.5315H56.7385C56.7385 67.5317 56.7385 67.5319 56.7385 67.5321ZM62.7009 78.4665H45.5834C44.2355 78.4665 43.1411 77.375 43.1411 76.0242V65.1141C43.1411 63.763 44.2323 62.6718 45.5834 62.6718H62.7009C64.052 62.6718 65.1432 63.763 65.1432 65.1141V76.0242C65.1432 77.3754 64.052 78.4665 62.7009 78.4665ZM60.0302 70.3233C60.0175 70.3233 60.0047 70.3232 59.992 70.323H60.0686C60.0558 70.3232 60.043 70.3233 60.0302 70.3233ZM54.3297 70.5767C54.3297 67.9974 52.2251 65.8928 49.6458 65.8928C47.0665 65.8928 44.9619 67.9974 44.9619 70.5767C44.9619 73.156 47.0665 75.2606 49.6458 75.2606C52.2251 75.2606 54.3297 73.156 54.3297 70.5767Z" fill="#413930" stroke="#413930"/>
<path d="M49.6462 73.3611C51.189 73.3611 52.438 72.1122 52.438 70.5693C52.438 69.0265 51.1891 67.7776 49.6462 67.7776C48.1034 67.7776 46.8545 69.0265 46.8545 70.5693C46.8655 72.1121 48.1144 73.3611 49.6462 73.3611Z" fill="#413930"/>
<path d="M32.4176 33.5696C30.9336 33.8598 29.8206 35.2703 29.7765 36.916C29.7471 37.8196 29.7765 38.7674 29.8426 39.7664C29.9161 40.9419 30.8013 41.8639 31.8556 41.8639H33.9604C33.0568 39.5608 32.5609 37.0592 32.5609 34.4439C32.5609 34.1426 32.5719 33.8414 32.5792 33.5402L32.4176 33.5696Z" fill="#9795F0" stroke="#413930"/>
<path d="M76.4281 41.8637C77.4824 41.8637 78.364 40.9417 78.4411 39.7662C78.5072 38.778 78.5255 37.8193 78.5072 36.9157C78.4594 35.2701 77.3501 33.8596 75.8661 33.5694L75.6971 33.54C75.7081 33.8412 75.7155 34.1424 75.7155 34.4436C75.7155 37.059 75.2159 39.5678 74.3159 41.8637L76.4281 41.8637Z" fill="#9795F0" stroke="#413930"/>
<path d="M73.8195 34.4327V34.4329C73.8195 41.3011 70.0591 47.3081 64.4895 50.5035C69.035 47.51 72.0388 42.3611 72.0388 36.5189C72.0388 27.4173 64.7446 19.9986 55.6962 19.7908C56.2408 19.3416 56.5886 18.6619 56.5886 17.9028C56.5886 17.0892 56.189 16.3668 55.5758 15.9216C65.6635 16.0663 73.823 24.3159 73.8195 34.4327ZM43.8059 50.5126C38.2276 47.3195 34.4604 41.3076 34.4604 34.4329C34.4604 24.314 42.6228 16.0643 52.7078 15.9216C52.0946 16.3667 51.695 17.0892 51.695 17.9028C51.695 18.6619 52.0428 19.3415 52.5873 19.7907C43.5333 19.9966 36.2411 27.4201 36.2411 36.5189C36.2411 42.3671 39.2526 47.5205 43.8059 50.5126Z" fill="#9795F0" stroke="#413930"/>
<path d="M55.3063 21.6938H52.9737C44.7933 21.6938 38.1338 28.3498 38.1338 36.5337C38.1338 44.7142 44.7898 51.3736 52.9737 51.3736H55.3063C63.4867 51.3736 70.1461 44.7176 70.1461 36.5337C70.1461 28.3498 63.4902 21.6938 55.3063 21.6938Z" fill="#E6EDFF" stroke="#413930"/>
<path d="M38.1343 36.5336C38.1343 28.3497 44.7937 21.6937 52.9742 21.6937C49.6422 23.9312 46.286 29.3954 45.9958 35.6342C45.5748 44.6867 49.5046 48.7568 52.9742 51.3735C44.7903 51.3735 38.1343 44.714 38.1343 36.5336Z" fill="#EEF4FF"/>
<path d="M61.2568 27.2976C62.5736 28.0419 64.7873 30.1134 65.4647 32.643C66.4441 36.3002 66.0067 38.6771 65.4647 39.9567" stroke="#F2EFED" stroke-width="3" stroke-linecap="round" stroke-linejoin="round"/>
<path d="M63.7091 43.3005C63.242 43.9883 62.0977 45.4493 61.2568 45.7919" stroke="#F2EFED" stroke-width="3" stroke-linecap="round" stroke-linejoin="round"/>
<path d="M55.3067 21.6937H52.9742C44.7937 21.6937 38.1343 28.3497 38.1343 36.5336C38.1343 44.714 44.7903 51.3735 52.9742 51.3735H55.3067C63.4872 51.3735 70.1466 44.7175 70.1466 36.5336C70.1466 28.3497 63.4906 21.6937 55.3067 21.6937V21.6937Z" stroke="#413930"/>
</g>
<defs>
<filter id="filter0_d_518_2289" x="18.8218" y="9.41968" width="72.6411" height="92.9576" filterUnits="userSpaceOnUse" color-interpolation-filters="sRGB">
<feFlood flood-opacity="0" result="BackgroundImageFix"/>
<feColorMatrix in="SourceAlpha" type="matrix" values="0 0 0 0 0 0 0 0 0 0 0 0 0 0 0 0 0 0 127 0" result="hardAlpha"/>
<feOffset dx="1" dy="2"/>
<feGaussianBlur stdDeviation="4"/>
<feComposite in2="hardAlpha" operator="out"/>
<feColorMatrix type="matrix" values="0 0 0 0 0 0 0 0 0 0 0 0 0 0 0 0 0 0 0.3 0"/>
<feBlend mode="normal" in2="BackgroundImageFix" result="effect1_dropShadow_518_2289"/>
<feBlend mode="normal" in="SourceGraphic" in2="effect1_dropShadow_518_2289" result="shape"/>
</filter>
</defs>
</svg>
