<svg width="108" height="108" viewBox="0 0 108 108" fill="none" xmlns="http://www.w3.org/2000/svg">
<rect x="40.0547" y="85.6248" width="27.8906" height="6.63368" fill="#4B74CC" stroke="#413930"/>
<path d="M36.7651 37.9663V87.176H71.2342V38.0336C71.2342 36.6046 70.7242 35.2225 69.796 34.1361L54.4285 16.1494C54.024 15.6761 53.2901 15.6833 52.8951 16.1646L38.127 34.16C37.2464 35.233 36.7651 36.5782 36.7651 37.9663Z" fill="#4B74CC" stroke="#413930"/>
<path d="M36.7651 37.9663V87.176H45.4546C45.3521 72.7788 45.2087 42.7857 45.4546 37.9905C45.762 31.9964 52.8689 16.1965 53.6527 15.2415L38.127 34.16C37.2464 35.233 36.7651 36.5781 36.7651 37.9663Z" fill="#5E91FF"/>
<path d="M36.7651 37.9663V87.176H71.2342V38.0336C71.2342 36.6046 70.7242 35.2225 69.796 34.1361L54.4285 16.1494C54.024 15.6761 53.2901 15.6833 52.8951 16.1646L38.127 34.16C37.2464 35.233 36.7651 36.5782 36.7651 37.9663Z" stroke="#413930"/>
<path d="M47.8664 35.7348L47.8661 35.7351C44.7686 39.0894 45.0218 44.387 48.383 47.4856L48.3836 47.4861C51.7321 50.5829 57.0296 50.3305 60.134 46.9686C63.2314 43.6143 62.9782 38.3168 59.6171 35.2182L59.6168 35.2179C56.2625 32.1205 50.965 32.3737 47.8664 35.7348Z" fill="#9795F0" stroke="#413930"/>
<path d="M18.3491 79.7969C24.0545 71.434 35.7252 54.4131 36.7654 53.2325V87.176H18.3491V79.7969Z" fill="#EEF4FF" stroke="#413930"/>
<path d="M18.3491 79.7969C24.0545 71.434 35.7252 54.4131 36.7654 53.2325C33.3264 60.725 26.4241 76.2682 26.327 78.5008C26.23 80.7334 26.2866 85.2145 26.327 87.176H18.3491V79.7969Z" fill="#5E91FF"/>
<path d="M89.6509 79.7969C83.9455 71.434 72.2748 54.4131 71.2346 53.2325V87.176H89.6509V79.7969Z" fill="#EEF4FF" stroke="#413930"/>
<rect x="50.396" y="60.9052" width="7.58411" height="18.9364" rx="1.5" fill="#F2EFED" stroke="#413930"/>
<path d="M18.3491 79.7969C24.0545 71.434 35.7252 54.4131 36.7654 53.2325V87.176H18.3491V79.7969Z" stroke="#413930"/>
<path d="M77.4106 86.7516V62.2417L71.4648 54.3547V86.7516H77.4106Z" fill="#5E91FF"/>
<path d="M89.6509 79.7969C83.9455 71.434 72.2748 54.4131 71.2346 53.2325V87.176H89.6509V79.7969Z" stroke="#413930"/>
<rect x="40.8657" y="87.816" width="6.97185" height="3.60419" fill="#5E91FF"/>
</svg>
