<svg width="108" height="108" viewBox="0 0 108 108" fill="none" xmlns="http://www.w3.org/2000/svg">
<g filter="url(#filter0_d_518_2267)">
<path d="M70.8687 79.2316L51.8086 68.1049C52.5093 69.9619 54.0441 73.6774 54.8988 74.5797C55.0709 74.7178 55.1304 74.768 55.061 74.7218C55.0103 74.688 54.9561 74.6402 54.8988 74.5797C52.5685 72.7099 29.5804 54.7308 26.2383 42.1982C22.6495 28.7401 20.418 23.6199 26.2386 18.362C32.424 12.7746 43.6215 15.3942 52.7057 26.6092C59.973 35.5813 67.8424 50.9832 70.8687 57.5627C69.6368 56.2917 66.7469 53.615 65.0422 53.0767C62.9113 52.4038 66.2759 55.9926 72.2198 67.3198C78.1638 78.647 88.033 93.2266 83.0984 89.6377C79.1507 86.7667 73.3004 81.504 70.8687 79.2316Z" fill="#9795F0" stroke="#413930" stroke-linejoin="round"/>
<path d="M70.8687 79.2316L51.8086 68.1049C52.5093 69.9619 54.0442 73.6775 54.8988 74.5798C55.0709 74.7178 55.1304 74.7681 55.061 74.7218C55.0103 74.688 54.9561 74.6402 54.8988 74.5798C52.5685 72.71 29.5804 54.7309 26.2383 42.1982C22.6495 28.7402 20.418 23.62 26.2386 18.3621C25.2342 21.3806 25.8051 28.0271 27.0396 31.8489C30.517 42.6138 38.5838 43.6844 44.6571 50.47C47.842 54.0283 52.6853 59.9477 61.0481 64.5193C65.7063 67.0658 79.0218 84.8683 83.0984 89.6378C79.1507 86.7667 73.3004 81.5041 70.8687 79.2316Z" fill="#7877C0"/>
<circle cx="35.6331" cy="28.6736" r="6.47246" fill="#FAB82B" stroke="#413930"/>
<path d="M28.6606 28.6736C28.6606 32.5243 31.7823 35.646 35.6331 35.646C38.7328 35.646 41.36 33.6234 42.267 30.8259C39.1129 32.3411 35.699 31.8143 33.5132 29.8378C31.3274 27.8614 31.1391 25.8582 30.8802 23.572C29.5146 24.8449 28.6606 26.6595 28.6606 28.6736Z" fill="#C89322"/>
<path d="M33.6763 43.8149C35.0389 47.4498 41.4006 55.7472 45.5374 58.9187" stroke="#413930" stroke-linecap="round"/>
<path d="M43.542 52.4191C45.3089 54.6277 51.0512 60.5909 54.3915 62.6209" stroke="#413930" stroke-linecap="round"/>
<path d="M49.8281 29.196C52.3763 31.4375 56.9089 38.101 58.1187 41.8179" stroke="#413930" stroke-linecap="round"/>
<path d="M48.2007 61.6391C49.527 62.8273 53.7117 65.9347 55.9966 66.8488" stroke="#413930" stroke-linecap="round"/>
<path d="M70.8687 79.2316L51.8086 68.1049C52.5562 70.0862 54.2535 74.1834 55.061 74.7218C56.0703 75.3947 29.8271 55.6562 26.2383 42.1982C22.6495 28.7401 20.418 23.6199 26.2386 18.362C32.424 12.7746 43.6215 15.3942 52.7057 26.6092C59.973 35.5813 67.8424 50.9832 70.8687 57.5627C69.6368 56.2917 66.7469 53.615 65.0422 53.0767C62.9113 52.4038 66.2759 55.9926 72.2198 67.3198C78.1638 78.647 88.033 93.2266 83.0984 89.6377C79.1507 86.7667 73.3004 81.504 70.8687 79.2316Z" stroke="#413930" stroke-linejoin="round"/>
<circle cx="35.6331" cy="28.6736" r="6.47246" stroke="#413930"/>
</g>
<defs>
<filter id="filter0_d_518_2267" x="15.1616" y="9.02448" width="78.7749" height="91.6677" filterUnits="userSpaceOnUse" color-interpolation-filters="sRGB">
<feFlood flood-opacity="0" result="BackgroundImageFix"/>
<feColorMatrix in="SourceAlpha" type="matrix" values="0 0 0 0 0 0 0 0 0 0 0 0 0 0 0 0 0 0 127 0" result="hardAlpha"/>
<feOffset dx="1" dy="2"/>
<feGaussianBlur stdDeviation="4"/>
<feComposite in2="hardAlpha" operator="out"/>
<feColorMatrix type="matrix" values="0 0 0 0 0 0 0 0 0 0 0 0 0 0 0 0 0 0 0.3 0"/>
<feBlend mode="normal" in2="BackgroundImageFix" result="effect1_dropShadow_518_2267"/>
<feBlend mode="normal" in="SourceGraphic" in2="effect1_dropShadow_518_2267" result="shape"/>
</filter>
</defs>
</svg>
