<svg width="40" height="40" viewBox="0 0 40 40" fill="none" xmlns="http://www.w3.org/2000/svg">
<path d="M34.9153 19.6C34.8778 19.5 33.8151 17.15 31.4647 14.7875C28.3266 11.6625 24.3633 10 20 10C15.6367 10 11.6734 11.6625 8.53531 14.7875C6.18487 17.15 5.12216 19.5 5.08466 19.6C5.02884 19.726 5 19.8622 5 20C5 20.1378 5.02884 20.274 5.08466 20.4C5.12216 20.5 6.18487 22.85 8.53531 25.2125C11.6734 28.3375 15.6367 30 20 30C24.3633 30 28.3266 28.3375 31.4647 25.2125C33.8151 22.85 34.8778 20.5 34.9153 20.4C34.9712 20.274 35 20.1378 35 20C35 19.8622 34.9712 19.726 34.9153 19.6ZM20 15.5C20.8902 15.5 21.7604 15.7639 22.5005 16.2584C23.2407 16.7529 23.8176 17.4557 24.1582 18.2779C24.4989 19.1002 24.588 20.005 24.4144 20.8779C24.2407 21.7508 23.812 22.5526 23.1826 23.182C22.5531 23.8113 21.7512 24.2399 20.8781 24.4135C20.005 24.5872 19.1 24.4981 18.2776 24.1575C17.4552 23.8169 16.7522 23.2401 16.2577 22.5001C15.7631 21.76 15.4991 20.89 15.4991 20C15.4991 18.8065 15.9733 17.6619 16.8174 16.818C17.6615 15.9741 18.8063 15.5 20 15.5Z" fill="#F15D22" stroke="#413930"/>
</svg>
