<svg width="120" height="120" viewBox="0 0 120 120" fill="none" xmlns="http://www.w3.org/2000/svg">
<path d="M49.8901 76.1497H45.6875V114.323H49.8901V76.1497Z" fill="#F2EFED"/>
<path d="M49.4692 113.904H46.1083V76.5685H49.4692V113.904ZM50.3108 75.7308H45.2666V114.736H50.3052V75.7308H50.3108Z" fill="#413930"/>
<path d="M69.8339 76.1497H65.6313V114.323H69.8339V76.1497Z" fill="#F2EFED"/>
<path d="M69.4132 113.904H66.0523V76.5685H69.4132V113.904ZM70.2549 75.7308H65.2163V114.736H70.2549V75.7308Z" fill="#413930"/>
<path d="M43.7028 96.7931C35.1782 96.7817 28.2686 89.91 28.2629 81.4251V76.1497H87.2584V81.4251C87.247 89.91 80.3432 96.7874 71.8186 96.7931H43.7028Z" fill="#F2EFED"/>
<path d="M86.8378 76.5685V81.4195C86.8264 89.6723 80.1102 96.3628 71.8188 96.3685H43.7029C35.4115 96.3572 28.6896 89.6723 28.6839 81.4195V76.5685H86.8378ZM87.6794 75.7308H27.8423V81.4195C27.8423 90.1364 34.9395 97.2062 43.7029 97.2119H71.8131C80.5765 97.2119 87.6737 90.1421 87.6737 81.4195V75.7308H87.6794Z" fill="#413930"/>
<path d="M35.6672 88.427C35.6672 88.427 41.8545 93.5157 64.1015 92.927L82.4018 92.027C82.4018 92.027 86.5305 88.1383 86.7068 83.3044C86.7068 83.3044 45.079 89.91 35.6672 88.4327" fill="#908B85"/>
<path d="M59.08 25.2402H56.6404V37.4327H59.08V25.2402Z" fill="#F2EFED"/>
<path d="M58.6593 37.0138H57.0613V25.6591H58.6593V37.0138ZM59.501 24.8214H56.2253V37.8459H59.501V24.8214Z" fill="#413930"/>
<path d="M43.6573 89.2081C28.9909 89.2987 17.0315 77.5308 16.9405 62.9327C16.8495 48.3346 28.6725 36.4308 43.3389 36.3402C43.4469 36.3402 43.5493 36.3402 43.6573 36.3402H71.8528C86.5192 36.4251 98.3365 48.3346 98.2512 62.9327C98.1659 77.4063 86.3941 89.1232 71.8528 89.2081H43.6573Z" fill="#F2EFED"/>
<path d="M71.8528 36.7591C86.286 36.7591 97.9896 48.4081 97.9896 62.7742C97.9896 77.1402 86.286 88.7892 71.8528 88.7892H43.6573C29.2241 88.7892 17.5205 77.1402 17.5205 62.7742C17.5205 48.4081 29.2241 36.7591 43.6573 36.7591H71.8528ZM71.8528 35.9213H43.6573C28.7578 35.927 16.6846 47.9496 16.6846 62.7798C16.6846 77.6043 28.7635 89.627 43.6573 89.627H71.8528C86.7523 89.627 98.8312 77.6043 98.8256 62.7742C98.8256 47.944 86.7467 35.927 71.8528 35.927" fill="#413930"/>
<path d="M39.705 68.2364C33.3699 68.2364 28.2346 63.1251 28.2346 56.8194C28.2346 50.5138 33.3699 45.4025 39.705 45.4025H75.8109C82.146 45.4025 87.2813 50.5138 87.2813 56.8194C87.2813 63.1251 82.146 68.2364 75.8109 68.2364H39.705Z" fill="#CD4317"/>
<path d="M75.8108 45.7987C81.9298 45.7987 86.8888 50.7345 86.8888 56.8251C86.8888 62.9157 81.9298 67.8515 75.8108 67.8515H39.7049C33.5858 67.8515 28.6269 62.9157 28.6269 56.8251C28.6269 50.7345 33.5858 45.7987 39.7049 45.7987H75.8108ZM75.8108 45.0119H39.7049C33.1536 45.0119 27.8364 50.2987 27.8364 56.8251C27.8364 63.3515 33.148 68.6383 39.7049 68.6383H75.8108C82.362 68.6383 87.6792 63.3515 87.6792 56.8251C87.6792 50.2987 82.3677 45.0119 75.8108 45.0119Z" fill="#413930"/>
<path d="M31.2258 63.9685L85.2282 62.7742C85.2282 62.7742 82.6009 66.0232 81.0313 66.4987C79.4618 66.9742 79.3651 68.027 73.3768 67.8402L39.1476 67.8629C36.0767 67.71 33.2105 66.3006 31.2258 63.9629" fill="#C04A1B"/>
<path d="M40.5409 66.9912C34.8938 66.9912 30.3159 62.4346 30.3159 56.8138C30.3159 51.1931 34.8938 46.6365 40.5409 46.6365C46.1879 46.6365 50.7659 51.1931 50.7659 56.8138C50.7659 62.4346 46.1879 66.9912 40.5409 66.9912Z" fill="#413930"/>
<path d="M40.541 46.8628C46.0629 46.8628 50.5442 51.3176 50.5442 56.8194C50.5442 62.3213 46.0686 66.776 40.541 66.776C35.0134 66.776 30.5378 62.3213 30.5378 56.8194C30.5435 51.3232 35.0191 46.8685 40.541 46.8628ZM40.541 46.4213C34.7745 46.4213 30.0942 51.0742 30.0942 56.8194C30.0942 62.5647 34.7688 67.2176 40.541 67.2176C46.3132 67.2176 50.9878 62.5647 50.9878 56.8194C50.9878 51.0742 46.3132 46.4213 40.541 46.4213Z" fill="#413930"/>
<path d="M74.9806 66.9912C69.3335 66.9912 64.7556 62.4346 64.7556 56.8138C64.7556 51.1931 69.3335 46.6365 74.9806 46.6365C80.6276 46.6365 85.2056 51.1931 85.2056 56.8138C85.2056 62.4346 80.6276 66.9912 74.9806 66.9912Z" fill="#413930"/>
<path d="M74.9748 46.8628C80.4968 46.8628 84.978 51.3176 84.978 56.8194C84.978 62.3213 80.5025 66.776 74.9748 66.776C69.4472 66.776 64.9717 62.3213 64.9717 56.8194C64.9773 51.3232 69.4529 46.8685 74.9748 46.8628ZM74.9748 46.4213C69.2084 46.4213 64.5281 51.0742 64.5281 56.8194C64.5281 62.5647 69.2027 67.2176 74.9748 67.2176C80.747 67.2176 85.4216 62.5647 85.4216 56.8194C85.4216 51.0742 80.747 46.4213 74.9748 46.4213Z" fill="#413930"/>
<path d="M40.6205 53.0723C40.6205 55.144 38.9372 56.8195 36.8558 56.8195C34.7744 56.8195 33.0911 55.144 33.0911 53.0723C33.0911 51.0006 34.7744 49.3251 36.8558 49.3251C38.9372 49.3251 40.6205 51.0006 40.6205 53.0723Z" fill="#F2EFED"/>
<path d="M40.6205 53.0723C40.6205 55.144 38.9372 56.8195 36.8558 56.8195C34.7744 56.8195 33.0911 55.144 33.0911 53.0723C33.0911 51.0006 34.7744 49.3251 36.8558 49.3251C38.9372 49.3251 40.6205 51.0006 40.6205 53.0723Z" stroke="#413930" stroke-width="1.64" stroke-miterlimit="10"/>
<path d="M34.3423 57.3515C34.3423 58.0365 33.785 58.5968 33.0912 58.5968C32.3974 58.5968 31.8401 58.0421 31.8401 57.3515C31.8401 56.6666 32.3974 56.1063 33.0912 56.1063C33.7793 56.1063 34.3423 56.661 34.3423 57.3515Z" fill="#F2EFED"/>
<path d="M34.3423 57.3515C34.3423 58.0365 33.785 58.5968 33.0912 58.5968C32.3974 58.5968 31.8401 58.0421 31.8401 57.3515C31.8401 56.6666 32.3974 56.1063 33.0912 56.1063C33.7793 56.1063 34.3423 56.661 34.3423 57.3515Z" stroke="#413930" stroke-width="0.54" stroke-miterlimit="10"/>
<path d="M76.0553 51.0968C76.0553 53.1685 74.372 54.844 72.2906 54.844C70.2092 54.844 68.5259 53.1685 68.5259 51.0968C68.5259 49.0251 70.2092 47.3497 72.2906 47.3497C74.372 47.3497 76.0553 49.0251 76.0553 51.0968Z" fill="#F2EFED"/>
<path d="M76.0553 51.0968C76.0553 53.1685 74.372 54.844 72.2906 54.844C70.2092 54.844 68.5259 53.1685 68.5259 51.0968C68.5259 49.0251 70.2092 47.3497 72.2906 47.3497C74.372 47.3497 76.0553 49.0251 76.0553 51.0968Z" stroke="#413930" stroke-width="1.64" stroke-miterlimit="10"/>
<path d="M69.851 55.5062C69.851 56.2308 69.2596 56.8251 68.526 56.8251C67.7924 56.8251 67.2009 56.2364 67.2009 55.5062C67.2009 54.7761 67.7924 54.1874 68.526 54.1874C69.2596 54.1874 69.851 54.7761 69.851 55.5062Z" fill="#F2EFED"/>
<path d="M68.526 56.8251C69.2578 56.8251 69.851 56.2346 69.851 55.5062C69.851 54.7779 69.2578 54.1874 68.526 54.1874C67.7942 54.1874 67.2009 54.7779 67.2009 55.5062C67.2009 56.2346 67.7942 56.8251 68.526 56.8251Z" stroke="#413930" stroke-width="0.57" stroke-miterlimit="10"/>
<path d="M57.755 25.2629C53.9618 25.2629 50.8853 22.2006 50.8853 18.4251C50.8853 14.6497 53.9618 11.5874 57.755 11.5874C61.5481 11.5874 64.6247 14.6497 64.6247 18.4251C64.619 22.2006 61.5481 25.2572 57.755 25.2629Z" fill="#CD4317"/>
<path d="M57.7607 11.978C61.3377 11.978 64.238 14.8647 64.238 18.4251C64.238 21.9855 61.3377 24.8723 57.7607 24.8723C54.1836 24.8723 51.2833 21.9855 51.2833 18.4251C51.2833 14.8647 54.1836 11.9836 57.7607 11.978ZM57.7607 11.1912C53.7514 11.1912 50.4985 14.4289 50.4985 18.4195C50.4985 22.41 53.7514 25.6478 57.7607 25.6478C61.7699 25.6478 65.0228 22.41 65.0228 18.4195C65.0228 14.4289 61.7699 11.1912 57.7607 11.1912Z" fill="#413930"/>
<path d="M39.5743 114.323V113.774C39.5743 109.257 43.2537 105.601 47.7861 105.601C52.3185 105.601 55.9979 109.263 55.9979 113.774V114.323H39.5686H39.5743Z" fill="#F2EFED"/>
<path d="M47.786 106.014C52.091 106.014 55.577 109.489 55.577 113.768V113.899H39.9894V113.768C39.9894 109.484 43.4811 106.014 47.7804 106.014M47.7804 105.176C43.0148 105.176 39.1477 109.025 39.1477 113.768V114.736H56.413V113.768C56.413 109.025 52.5516 105.176 47.7804 105.176Z" fill="#413930"/>
<path d="M59.5179 114.323V113.774C59.5179 109.257 63.1973 105.601 67.7297 105.601C72.2621 105.601 75.9415 109.263 75.9415 113.774V114.323H59.5122H59.5179Z" fill="#F2EFED"/>
<path d="M67.7299 106.014C72.0348 106.014 75.5209 109.489 75.5209 113.768V113.899H59.9332V113.768C59.9332 109.484 63.4249 106.014 67.7242 106.014M67.7242 105.176C62.9586 105.176 59.0916 109.019 59.0916 113.768V114.736H76.3569V113.768C76.3569 109.025 72.4955 105.176 67.7242 105.176Z" fill="#413930"/>
<path d="M57.0613 25.6591C57.0613 25.6591 57.9427 25.6704 58.6593 25.6591V27.8553L57.0613 27.0459V25.6591Z" fill="#908B85"/>
<path d="M59.9104 113.916H75.5322C75.5663 110.599 73.5191 107.616 70.4027 106.438C70.4027 106.438 76.8004 113.916 59.9104 113.916Z" fill="#908B85"/>
<path d="M39.9722 113.916H55.594C55.6281 110.599 53.5808 107.616 50.4644 106.438C50.4644 106.438 56.8621 113.916 39.9722 113.916Z" fill="#908B85"/>
<path d="M66.0806 97.2119H69.4358V100.184L66.0863 99.5044V97.2119H66.0806Z" fill="#908B85"/>
<path d="M46.114 97.2119H49.4636V100.184L46.114 99.5044V97.2119Z" fill="#908B85"/>
<path d="M76.6241 31.0987C76.1464 30.8044 75.9587 30.2044 76.1805 29.6893L80.7414 19.0704C80.8551 18.7931 81.094 18.578 81.3783 18.4931C81.6683 18.4025 81.9868 18.4421 82.2484 18.6006C82.4247 18.7138 82.5669 18.8723 82.6465 19.0648L85.7913 26.2421C85.996 26.7063 86.5363 26.9214 87.0026 26.7176C87.0083 26.7176 87.014 26.7119 87.0197 26.7063L95.5556 22.778C96.1698 22.4949 96.8921 22.761 97.1764 23.3723C97.2446 23.5251 97.2845 23.6893 97.2901 23.8591L97.4778 33.2214C97.4892 33.7251 97.91 34.1327 98.4161 34.1214C98.4218 34.1214 98.4332 34.1214 98.4389 34.1214L106.298 33.7874C106.509 33.7761 106.713 33.8327 106.895 33.9402C107.157 34.1044 107.333 34.3704 107.373 34.6704C107.418 34.9704 107.327 35.2704 107.128 35.4968L99.5364 44.2308C99.1725 44.6553 98.5469 44.7515 98.0692 44.4515L76.607 31.0987H76.6241Z" fill="#FEF7E9"/>
<path d="M96.6077 23.0383C96.8977 23.2138 97.074 23.5251 97.0797 23.8647L97.2673 33.227C97.2844 33.8553 97.8076 34.3534 98.4388 34.3421C98.4388 34.3421 98.4502 34.3421 98.4559 34.3421L106.315 34.0081C106.48 33.9968 106.645 34.0421 106.781 34.127C107.168 34.3647 107.282 34.8685 107.043 35.2534C107.02 35.2874 106.998 35.327 106.969 35.3553L99.3829 44.0893C99.0871 44.4289 98.5867 44.5025 98.2 44.2647L76.7378 30.9119C76.3511 30.6742 76.2032 30.193 76.3795 29.7742L80.9404 19.1553C81.1224 18.7421 81.6057 18.5496 82.0209 18.7308C82.0607 18.7477 82.0948 18.7647 82.1289 18.7874C82.2711 18.8723 82.3791 19.0025 82.4417 19.1553L85.5865 26.3327C85.8424 26.91 86.5192 27.1704 87.0992 26.9157C87.0992 26.9157 87.1106 26.9157 87.1163 26.91L95.6523 22.9817C95.9594 22.8402 96.3176 22.8628 96.602 23.0383M96.8351 22.6647C96.4257 22.4043 95.9082 22.376 95.4646 22.5798L86.9286 26.5138C86.576 26.6723 86.1609 26.5194 86.0017 26.1685C86.0017 26.1685 86.0017 26.1572 85.996 26.1515L82.8512 18.9742C82.7488 18.7421 82.5839 18.544 82.3678 18.4081C82.055 18.2157 81.6683 18.1647 81.3157 18.2723C80.9631 18.3798 80.6788 18.6345 80.5366 18.9742L75.9757 29.593C75.7142 30.2043 75.9359 30.9176 76.5046 31.2685L97.9668 44.6213C98.5355 44.9779 99.2748 44.8647 99.7127 44.361L107.305 35.627C107.549 35.3496 107.652 34.9817 107.595 34.6251C107.538 34.2572 107.327 33.9345 107.015 33.7421C106.799 33.6062 106.548 33.544 106.292 33.5553L98.4332 33.8893C98.0464 33.9062 97.7166 33.6119 97.6996 33.227C97.6996 33.227 97.6996 33.2157 97.6996 33.21L97.5119 23.8477C97.5062 23.361 97.2503 22.9138 96.8351 22.6591" fill="#413930"/>
<path d="M73.3769 36.3911C72.8195 36.0402 72.6489 35.31 72.9958 34.7553L74.2185 32.8138C74.3948 32.5308 74.7701 32.4458 75.0545 32.6213L97.4323 46.5402C97.7166 46.7157 97.8019 47.0892 97.6256 47.3723L96.4029 49.3138C96.0504 49.8685 95.3167 50.0383 94.7594 49.693L73.3769 36.3911Z" fill="#FEF7E9"/>
<path d="M97.3129 46.7213C97.4948 46.8345 97.5517 47.0723 97.438 47.2534L96.221 49.1949C95.9366 49.6477 95.3338 49.7836 94.8789 49.5006L73.4963 36.1987C73.0413 35.9157 72.9049 35.3157 73.1892 34.8628L74.4062 32.927C74.5199 32.7459 74.7588 32.6893 74.9408 32.8025L97.3185 46.7157L97.3129 46.7213ZM97.546 46.3477L75.1682 32.4289C74.7815 32.1855 74.2697 32.3043 74.0252 32.6892L72.8082 34.6308C72.393 35.293 72.5978 36.1591 73.2574 36.5723L94.64 49.8742C95.3054 50.2874 96.1755 50.0836 96.5906 49.427L97.8076 47.4911C98.0521 47.1062 97.9327 46.5968 97.546 46.3534" fill="#413930"/>
<path d="M76.7378 30.9119L98.2284 41.6497L107.049 34.3874C107.049 34.3874 107.424 34.8289 106.89 35.4459L99.3772 44.0893C99.0701 44.4119 98.581 44.4855 98.1943 44.2648L76.7378 30.9119Z" fill="#FAB82B"/>
<path d="M97.2902 33.4365L95.6523 22.9817C96.1528 22.7497 96.7499 22.9648 96.9831 23.4629C97.0399 23.5874 97.0741 23.7232 97.0741 23.8648L97.2902 33.4365Z" fill="#FAB82B"/>
<path d="M81.1963 18.8327L85.5922 26.3326L82.4474 19.1496C82.2484 18.7308 81.7422 18.5553 81.3214 18.7534C81.2759 18.776 81.2361 18.7987 81.1963 18.827" fill="#FAB82B"/>
<path d="M73.3713 34.5742L97.2789 47.5138L96.2211 49.2006C95.9254 49.6421 95.3396 49.7779 94.879 49.5062L73.4964 36.2043C73.4964 36.2043 72.5467 35.6383 73.3713 34.5742Z" fill="#FAB82B"/>
<path d="M97.1876 17.6213C97.0739 17.6213 96.9659 17.593 96.8578 17.5421L95.7091 16.9534C95.5385 16.8685 95.3508 16.8232 95.1631 16.8232C94.9755 16.8232 94.7821 16.8685 94.6172 16.9534L93.4684 17.5421C93.3604 17.5987 93.2523 17.6213 93.1386 17.6213C92.9225 17.6213 92.7121 17.5194 92.5756 17.3496C92.4391 17.1798 92.3879 16.9704 92.4391 16.7496L92.6495 15.8157C92.7462 15.3798 92.5927 14.9326 92.2515 14.6496L91.5463 14.061C91.279 13.8345 91.2563 13.5232 91.3188 13.3081C91.3871 13.0874 91.5804 12.844 91.9273 12.8043L93.0476 12.6855C93.4571 12.6402 93.8097 12.4025 93.9916 12.0345L94.5262 10.9704C94.6513 10.7213 94.8902 10.5742 95.1688 10.5742C95.4475 10.5742 95.6863 10.7213 95.8114 10.9704L96.346 12.0345C96.528 12.3968 96.8806 12.6402 97.29 12.6855L98.4103 12.8043C98.7572 12.8383 98.9563 13.0874 99.0188 13.3081C99.0871 13.5289 99.0643 13.8402 98.7913 14.061L98.0862 14.6496C97.745 14.9383 97.5914 15.3855 97.6881 15.8157L97.8985 16.7496C97.944 16.9647 97.8985 17.1798 97.762 17.3496C97.6255 17.5194 97.4151 17.6213 97.199 17.6213H97.1876Z" fill="#FAB82B"/>
<path d="M95.1574 10.8176C94.9698 10.8176 94.8105 10.9138 94.7309 11.078L94.1964 12.1421C93.9746 12.578 93.5537 12.8723 93.0647 12.9232L91.9444 13.0421C91.6543 13.0704 91.5577 13.3081 91.5349 13.3761C91.5122 13.444 91.461 13.693 91.6828 13.8798L92.3879 14.4685C92.7974 14.8138 92.9851 15.3515 92.8656 15.8723L92.6552 16.8063C92.6154 16.993 92.6837 17.1232 92.7462 17.2025C92.8372 17.3157 92.9794 17.3836 93.1215 17.3836C93.1955 17.3836 93.2694 17.3666 93.3433 17.327L94.4921 16.7383C94.6968 16.6364 94.9186 16.5798 95.1461 16.5798C95.3735 16.5798 95.601 16.6364 95.8001 16.7383L96.9488 17.327C97.0227 17.361 97.0967 17.3836 97.1706 17.3836C97.3128 17.3836 97.4549 17.3157 97.5459 17.2025C97.6085 17.1232 97.6767 16.993 97.6369 16.8063L97.4265 15.8723C97.3128 15.3515 97.4947 14.8138 97.9042 14.4685L98.6094 13.8798C98.8368 13.693 98.78 13.4496 98.7572 13.3761C98.7345 13.3081 98.6435 13.0704 98.3478 13.0421L97.2275 12.9232C96.7384 12.8723 96.3176 12.578 96.0958 12.1421L95.5612 11.078C95.4759 10.9138 95.3167 10.8176 95.1347 10.8176M95.1347 10.3421C95.4759 10.3421 95.8114 10.5176 95.9877 10.8685L96.5223 11.9327C96.6701 12.2213 96.9545 12.4195 97.2786 12.4534L98.399 12.5723C99.2406 12.6629 99.5591 13.71 98.9108 14.2478L98.2056 14.8364C97.9326 15.0629 97.8075 15.4251 97.8871 15.7704L98.0975 16.7044C98.2738 17.4912 97.4492 18.1251 96.727 17.7572L95.5783 17.1685C95.3053 17.027 94.9755 17.027 94.7025 17.1685L93.5537 17.7572C92.8315 18.1251 92.0069 17.4912 92.1832 16.7044L92.3936 15.7704C92.4732 15.4251 92.3481 15.0629 92.0752 14.8364L91.37 14.2478C90.7217 13.71 91.0458 12.6629 91.8818 12.5723L93.0021 12.4534C93.3263 12.4195 93.6106 12.2213 93.7585 11.9327L94.293 10.8685C94.4693 10.5176 94.8105 10.3421 95.1461 10.3421L95.1347 10.3421Z" fill="#413930"/>
<path d="M108.192 58.5289C108.078 58.5289 107.97 58.5006 107.862 58.4496L106.713 57.8609C106.543 57.776 106.355 57.7307 106.167 57.7307C105.98 57.7307 105.786 57.776 105.621 57.8609L104.473 58.4496C104.365 58.5062 104.256 58.5289 104.143 58.5289C103.927 58.5289 103.716 58.427 103.58 58.2572C103.443 58.0874 103.392 57.8779 103.443 57.6572L103.654 56.7232C103.75 56.2874 103.597 55.8402 103.256 55.5572L102.55 54.9685C102.283 54.7421 102.26 54.4307 102.323 54.2157C102.391 53.9949 102.585 53.7515 102.931 53.7119L104.052 53.593C104.461 53.5477 104.814 53.31 104.996 52.9421L105.53 51.8779C105.655 51.6289 105.894 51.4817 106.173 51.4817C106.452 51.4817 106.69 51.6289 106.816 51.8779L107.35 52.9421C107.532 53.3043 107.885 53.5477 108.294 53.593L109.414 53.7119C109.761 53.7458 109.96 53.9949 110.023 54.2157C110.091 54.4364 110.068 54.7477 109.795 54.9685L109.09 55.5572C108.749 55.8458 108.596 56.293 108.692 56.7232L108.903 57.6572C108.948 57.8723 108.903 58.0874 108.766 58.2572C108.63 58.427 108.419 58.5289 108.203 58.5289H108.192Z" fill="#FAB82B"/>
<path d="M106.167 51.7251C105.98 51.7251 105.82 51.8213 105.741 51.9855L105.206 53.0496C104.984 53.4855 104.564 53.7798 104.074 53.8308L102.954 53.9496C102.664 53.9779 102.567 54.2157 102.545 54.2836C102.522 54.3515 102.471 54.6006 102.693 54.7874L103.398 55.376C103.807 55.7213 103.995 56.2591 103.875 56.7798L103.665 57.7138C103.625 57.9006 103.693 58.0308 103.756 58.11C103.847 58.2232 103.989 58.2911 104.131 58.2911C104.205 58.2911 104.279 58.2742 104.353 58.2345L105.502 57.6459C105.707 57.544 105.928 57.4874 106.156 57.4874C106.383 57.4874 106.611 57.544 106.81 57.6459L107.959 58.2345C108.032 58.2685 108.106 58.2911 108.18 58.2911C108.323 58.2911 108.465 58.2232 108.556 58.11C108.618 58.0308 108.686 57.9006 108.647 57.7138L108.436 56.7798C108.323 56.2591 108.504 55.7213 108.914 55.376L109.619 54.7874C109.847 54.6006 109.79 54.3572 109.767 54.2836C109.744 54.2157 109.653 53.9779 109.358 53.9496L108.237 53.8308C107.748 53.7798 107.327 53.4855 107.106 53.0496L106.571 51.9855C106.486 51.8213 106.326 51.7251 106.144 51.7251M106.144 51.2496C106.486 51.2496 106.821 51.4251 106.997 51.776L107.532 52.8402C107.68 53.1289 107.964 53.327 108.288 53.361L109.409 53.4798C110.25 53.5704 110.569 54.6176 109.921 55.1553L109.215 55.744C108.942 55.9704 108.817 56.3327 108.897 56.6779L109.107 57.6119C109.284 58.3987 108.459 59.0327 107.737 58.6647L106.588 58.0761C106.315 57.9345 105.985 57.9345 105.712 58.0761L104.564 58.6647C103.841 59.0327 103.017 58.3987 103.193 57.6119L103.403 56.6779C103.483 56.3327 103.358 55.9704 103.085 55.744L102.38 55.1553C101.731 54.6176 102.056 53.5704 102.892 53.4798L104.012 53.361C104.336 53.327 104.62 53.1289 104.768 52.8402L105.303 51.776C105.479 51.4251 105.82 51.2496 106.156 51.2496H106.144Z" fill="#413930"/>
<path d="M75.7711 15.6515C75.6517 15.6515 75.5323 15.6175 75.4243 15.5609L75.1968 15.4307C75.0205 15.3345 74.8158 15.2779 74.6167 15.2779C74.4177 15.2779 74.2129 15.3288 74.0367 15.4307L73.8092 15.5609C73.6954 15.6232 73.5817 15.6515 73.4623 15.6515C73.2519 15.6515 73.0415 15.5496 72.905 15.3854C72.7685 15.2213 72.7173 15.0119 72.7628 14.7968L72.8083 14.576C72.8936 14.1685 72.7514 13.7383 72.4386 13.4553L72.2794 13.3138C72.0633 13.1213 71.9894 12.8383 72.0804 12.5666C72.1714 12.2949 72.3932 12.1081 72.6832 12.0741L72.922 12.0458C73.3315 12.0005 73.6954 11.7402 73.8717 11.3609L73.9798 11.1288C74.0992 10.8685 74.3437 10.7156 74.6281 10.7156C74.9124 10.7156 75.157 10.8685 75.2764 11.1288L75.3844 11.3609C75.5607 11.7345 75.9247 11.9949 76.3341 12.0458L76.573 12.0741C76.863 12.1081 77.0848 12.2892 77.1758 12.5666C77.2668 12.8383 77.1872 13.1213 76.9768 13.3138L76.8175 13.4553C76.5048 13.7383 76.3683 14.1628 76.4479 14.576L76.4934 14.7968C76.5389 15.0119 76.4877 15.2213 76.3512 15.3854C76.2147 15.5553 76.0043 15.6515 75.7939 15.6515H75.7711Z" fill="#FAB82B"/>
<path d="M74.6109 10.9591C74.537 10.9591 74.2981 10.9817 74.1787 11.2364L74.0707 11.4685C73.8602 11.9157 73.428 12.2326 72.9333 12.2892L72.6944 12.3175C72.4101 12.3515 72.3134 12.5779 72.2964 12.6458C72.2736 12.7138 72.2167 12.9515 72.4328 13.144L72.5921 13.2855C72.9674 13.6251 73.1323 14.1345 73.0356 14.627L72.9902 14.8477C72.9503 15.0289 73.0186 15.1647 73.0811 15.2383C73.1721 15.3515 73.3143 15.4194 73.4565 15.4194C73.5361 15.4194 73.6157 15.3968 73.6896 15.3572L73.9171 15.227C74.1275 15.1081 74.3721 15.0458 74.6166 15.0458C74.8611 15.0458 75.1 15.1081 75.3161 15.227L75.5435 15.3572C75.6175 15.3968 75.6971 15.4194 75.7767 15.4194C75.9189 15.4194 76.0611 15.3515 76.152 15.2383C76.2146 15.1591 76.2828 15.0289 76.243 14.8477L76.1975 14.627C76.0952 14.1345 76.2658 13.6194 76.6411 13.2855L76.8003 13.144C77.0108 12.9515 76.9539 12.7138 76.9368 12.6458C76.9141 12.5779 76.8174 12.3515 76.5387 12.3175L76.2999 12.2892C75.8051 12.2326 75.3673 11.9213 75.1625 11.4685L75.0545 11.2364C74.9351 10.9817 74.6905 10.9591 74.6223 10.9591M74.6223 10.4836C74.9692 10.4836 75.3161 10.6704 75.4924 11.0383L75.6004 11.2704C75.7426 11.5704 76.0269 11.7798 76.3625 11.8138L76.6013 11.8421C77.4202 11.9326 77.7444 12.9402 77.1359 13.4892L76.9766 13.6308C76.7264 13.8572 76.6127 14.1968 76.6809 14.5251L76.7264 14.7458C76.8913 15.544 76.0383 16.1666 75.3275 15.7704L75.1 15.6402C74.8099 15.4817 74.4574 15.4817 74.1673 15.6402L73.9399 15.7704C73.2233 16.1666 72.376 15.544 72.5409 14.7458L72.5864 14.5251C72.6546 14.1968 72.5409 13.8572 72.2907 13.6308L72.1314 13.4892C71.5229 12.9402 71.8471 11.9326 72.666 11.8421L72.9048 11.8138C73.2347 11.7741 73.5247 11.5704 73.6669 11.2704L73.7749 11.0383C73.9455 10.6704 74.2924 10.4836 74.645 10.4836H74.6223Z" fill="#413930"/>
</svg>
