<svg width="120" height="120" viewBox="0 0 120 120" fill="none" xmlns="http://www.w3.org/2000/svg">
<path d="M4.21056 68.2033C4.12819 67.6762 4.53582 67.1999 5.0694 67.1999H72.0381C72.5717 67.1999 72.9794 67.6762 72.897 68.2033L71.4535 77.4415C68.9208 93.6506 54.9595 105.6 38.5538 105.6C22.148 105.6 8.1867 93.6506 5.65403 77.4415L4.21056 68.2033Z" fill="#FEF7E9"/>
<path d="M71.4535 77.4415L72.8969 68.2033C72.9793 67.6762 72.5717 67.1999 72.0381 67.1999H60.4537C60.5537 72.3999 60.4537 81.9 57.1537 89.4C55.24 93.7493 52.0537 99.9 38.5537 105.6C54.9595 105.6 68.9208 93.6506 71.4535 77.4415Z" fill="#FED67C"/>
<path d="M53.5474 82.0753C53.7603 81.7501 54.2465 81.7816 54.4158 82.1315L55.7878 84.9681C56.0231 85.4546 56.5019 85.7769 57.0412 85.8118L59.705 85.9843C60.0998 86.0098 60.3099 86.462 60.0749 86.7803L57.6248 90.0982C57.4241 90.37 57.321 90.7017 57.3323 91.0394L57.4479 94.4948C57.4608 94.8796 57.0524 95.1339 56.7128 94.9527L53.8447 93.4218C53.4843 93.2294 53.0611 93.1924 52.6728 93.3192L49.1489 94.4697C48.7677 94.5942 48.4025 94.2418 48.5132 93.8564L49.3758 90.8529C49.5354 90.2972 49.3615 89.6992 48.9286 89.3159L47.1219 87.7157C46.8393 87.4655 46.9253 87.0043 47.2792 86.8728L50.9495 85.5082C51.2497 85.3966 51.5062 85.1919 51.6817 84.924L53.5474 82.0753Z" fill="#FAB82B" stroke="#413930"/>
<path d="M40.2631 76.5302C40.2909 76.1389 40.7378 75.9305 41.0554 76.1608L44.327 78.5332L44.6205 78.1284L44.327 78.5332C44.6655 78.7787 45.091 78.8717 45.501 78.7899L50.1113 77.8701C50.5102 77.7906 50.8322 78.1952 50.6649 78.566L48.9134 82.45C48.744 82.8257 48.7366 83.2545 48.893 83.6358L50.4709 87.4829C50.6092 87.82 50.3521 88.187 49.9881 88.1723L46.0001 88.0108C45.5879 87.9941 45.187 88.148 44.8918 88.4361L41.7919 91.4613C41.5047 91.7416 41.0209 91.5863 40.9504 91.1912L40.2679 87.3629C40.1833 86.8885 39.876 86.4836 39.4417 86.2746L36.3965 84.8089C36.0064 84.6211 36.0231 84.0601 36.4236 83.8958L38.9784 82.8479C39.5058 82.6316 39.865 82.135 39.9054 81.5664L40.2631 76.5302Z" fill="#FAB82B" stroke="#413930"/>
<path d="M27.2977 88.6564C27.3078 88.2679 27.7379 88.0389 28.0659 88.2475L30.5615 89.8346C30.8733 90.0329 31.2473 90.1091 31.6118 90.0487L34.6704 89.5416C35.0566 89.4776 35.3632 89.862 35.215 90.2243L34.1964 92.7136C33.9902 93.2173 34.0732 93.7932 34.4131 94.2184L36.097 96.3244C36.3496 96.6403 36.142 97.1099 35.7382 97.1356L33.0687 97.3055C32.661 97.3314 32.2816 97.5225 32.018 97.8346L29.9041 100.337C29.6454 100.644 29.1494 100.536 29.0408 100.15L28.2732 97.4204C28.1416 96.9526 27.7916 96.5776 27.334 96.414L24.6056 95.4388C24.2445 95.3098 24.1571 94.839 24.4478 94.589L26.7012 92.6505C27.0222 92.3744 27.2115 91.9755 27.2225 91.5523L27.2977 88.6564Z" fill="#FAB82B" stroke="#413930"/>
<path d="M23.2178 78.2409C23.6064 78.2376 23.8501 78.6596 23.6529 78.9945L22.467 81.0091C22.2796 81.3275 22.2163 81.7039 22.2892 82.0661L22.7748 84.4778C22.852 84.8614 22.4784 85.1811 22.1113 85.0454L20.1657 84.3264C19.6551 84.1377 19.0824 84.2404 18.6692 84.5948L17.1021 85.9388C16.795 86.2021 16.3185 86.0107 16.279 85.6081L16.077 83.5528C16.037 83.1462 15.833 82.7736 15.512 82.5209L13.471 80.914C13.1559 80.6659 13.2464 80.1665 13.6284 80.0447L15.7243 79.3767C16.1873 79.2291 16.5501 78.8664 16.6978 78.4035L17.3891 76.2368C17.5057 75.8715 17.9732 75.7679 18.2331 76.0499L19.8254 77.7769C20.1124 78.0882 20.5175 78.2637 20.9409 78.2601L23.2178 78.2409Z" fill="#FAB82B" stroke="#413930"/>
<path d="M61.2192 68.9639C61.2225 69.3525 60.8005 69.5961 60.4656 69.399L58.451 68.2131C58.1326 68.0257 57.7562 67.9624 57.394 68.0353L54.9824 68.5209C54.5987 68.5981 54.279 68.2245 54.4147 67.8574L55.1337 65.9118C55.3224 65.4012 55.2197 64.8285 54.8654 64.4153L53.5214 62.8482C53.258 62.5411 53.4494 62.0646 53.852 62.0251L55.9074 61.8231C56.3139 61.7831 56.6866 61.5791 56.9392 61.2581L58.5462 59.2171C58.7942 58.902 59.2936 58.9925 59.4154 59.3745L60.0835 61.4704C60.231 61.9334 60.5937 62.2962 61.0567 62.4439L63.2234 63.1352C63.5887 63.2518 63.6922 63.7193 63.4103 63.9792L61.6832 65.5715C61.372 65.8585 61.1965 66.2636 61.2 66.687L61.2192 68.9639Z" fill="#FAB82B" stroke="#413930"/>
<path d="M37.6838 40.1304C37.881 40.4653 37.6373 40.8873 37.2487 40.884L34.9111 40.8643C34.5416 40.8612 34.184 40.9945 33.9068 41.2388L32.061 42.8652C31.7674 43.1239 31.3037 42.9602 31.2376 42.5744L30.8875 40.5299C30.7956 39.9934 30.4203 39.5488 29.9069 39.3681L27.9594 38.6829C27.5778 38.5487 27.5053 38.0404 27.8342 37.8048L29.5132 36.6022C29.8453 36.3643 30.066 36.0013 30.1243 35.597L30.4954 33.026C30.5527 32.6291 31.0305 32.4577 31.327 32.7277L32.9535 34.2087C33.3127 34.5359 33.8082 34.6688 34.283 34.5652L36.5051 34.0806C36.8797 33.9989 37.2031 34.3519 37.0889 34.718L36.3894 36.9605C36.2634 37.3647 36.3139 37.8033 36.5287 38.1681L37.6838 40.1304Z" fill="#FAB82B" stroke="#413930"/>
<path d="M93.1435 25.0024C93.1435 25.0024 94.6409 17.4432 100.585 17.9949L100.585 19.2624C98.1548 18.5324 94.8548 22.1425 94.8548 25.4425L93.1435 25.0024Z" fill="#F2EFED" stroke="#413930"/>
<rect x="81.0361" y="58.8425" width="3.46" height="39.54" fill="#908B85" stroke="#413930"/>
<rect x="94.9761" y="58.8425" width="3.46" height="39.54" fill="#908B85" stroke="#413930"/>
<path d="M81.5361 62.219H83.9962V68.1136L81.5361 67.4027V62.219Z" fill="#E5E1DE"/>
<path d="M95.4761 63.2374H97.9361V72.0736L95.4761 71.008V63.2374Z" fill="#E5E1DE"/>
<rect x="74.7454" y="39.518" width="34.4773" height="21.9609" rx="10.9805" transform="rotate(9.47424 74.7454 39.518)" fill="#F2EFED" stroke="#413930"/>
<path d="M72.9549 50.6425C72.9549 50.6425 73.555 54.8426 84.6549 58.7425C95.7549 62.6425 99.0549 61.8711 101.455 60.8425C103.855 59.8139 106.998 56.4658 107.455 52.7426C107.455 52.7426 79.8395 52.7832 72.9549 50.6425Z" fill="#E5E1DE"/>
<rect x="70.139" y="19.2606" width="46.1773" height="31.9388" rx="15.9694" transform="rotate(13.8742 70.139 19.2606)" fill="#F2EFED" stroke="#413930"/>
<rect x="73.2732" y="24.007" width="33.5104" height="14.2276" rx="7.11379" transform="rotate(13.8742 73.2732 24.007)" fill="#F15D22" stroke="#413930"/>
<path d="M71.8213 35.3091L101.579 42.7303C101.579 42.7303 99.4578 44.2326 98.0436 44.2593C97.1314 44.2765 96.9186 44.8264 93.7474 43.8109L75.6589 39.0599C75.6589 39.0599 73.1864 38.0472 71.8213 35.3091Z" fill="#C04A1B"/>
<circle cx="78.1131" cy="33.3008" r="4.75206" transform="rotate(13.8742 78.1131 33.3008)" fill="#413930" stroke="#413930"/>
<circle cx="77.16" cy="31.1763" r="1.84065" transform="rotate(13.8742 77.16 31.1763)" fill="#F2EFED"/>
<circle cx="74.2978" cy="33.0828" r="0.659847" transform="rotate(13.8742 74.2978 33.0828)" fill="#F2EFED"/>
<path d="M99.559 38.4607C98.8912 41.164 96.1585 42.8142 93.4551 42.1465C90.7518 41.4788 89.1016 38.746 89.7693 36.0427C90.437 33.3393 93.1698 31.6891 95.8731 32.3569C98.5765 33.0246 100.227 35.7574 99.559 38.4607Z" fill="#413930" stroke="#413930"/>
<circle cx="102.085" cy="17.8437" r="2.91553" transform="rotate(21.2481 102.085 17.8437)" fill="#F15D22" stroke="#413930"/>
<path d="M88.4026 100.601C88.6798 101.27 88.8477 101.978 88.9009 102.698L75.3632 102.698C75.4164 101.978 75.5842 101.27 75.8614 100.601C76.2025 99.7774 76.7024 99.0292 77.3327 98.399C77.9629 97.7687 78.7112 97.2688 79.5346 96.9277C80.3581 96.5866 81.2407 96.411 82.132 96.411C83.0233 96.411 83.9059 96.5866 84.7294 96.9277C85.5529 97.2688 86.3011 97.7687 86.9313 98.399C87.5616 99.0292 88.0616 99.7774 88.4026 100.601Z" fill="#908B85" stroke="#413930"/>
<path d="M102.977 100.601C103.255 101.27 103.422 101.978 103.476 102.698L89.9379 102.698C89.9911 101.978 90.1589 101.27 90.4361 100.601C90.7772 99.7774 91.2771 99.0292 91.9074 98.399C92.5376 97.7687 93.2859 97.2688 94.1093 96.9277C94.9328 96.5866 95.8154 96.411 96.7067 96.411C97.598 96.411 98.4806 96.5866 99.3041 96.9277C100.128 97.2688 100.876 97.7687 101.506 98.399C102.136 99.0292 102.636 99.7774 102.977 100.601Z" fill="#908B85" stroke="#413930"/>
<circle cx="93.9286" cy="34.931" r="2.04208" transform="rotate(13.8742 93.9286 34.931)" fill="#F2EFED"/>
<circle cx="91.2138" cy="37.0814" r="0.659847" transform="rotate(13.8742 91.2138 37.0814)" fill="#F2EFED"/>
<path d="M77.4165 102.597H88.8057C88.8057 102.597 88.587 98.8832 85.074 97.1927C85.074 97.1927 89.7298 102.597 77.4165 102.597Z" fill="#E5E1DE"/>
<path d="M91.9819 102.597H103.371C103.371 102.597 103.148 98.8115 99.6245 97.1824C99.6245 97.1824 104.295 102.597 91.9819 102.597Z" fill="#E5E1DE"/>
</svg>
