<svg width="120" height="120" viewBox="0 0 120 120" fill="none" xmlns="http://www.w3.org/2000/svg">
<path d="M51.7901 75.4302H47.4656V114.873H51.7901V75.4302Z" fill="#F2EFED"/>
<path d="M51.358 75.862V114.442H47.8979V75.862H51.358ZM52.2225 74.9984H47.0334V115.305H52.2225V74.9984Z" fill="#413930"/>
<path d="M72.3216 75.4301H67.9971V114.873H72.3216V75.4301Z" fill="#F2EFED"/>
<path d="M71.8895 75.862V114.442H68.4294V75.862H71.8895ZM72.754 74.9984H67.5649V115.305H72.754V74.9984Z" fill="#413930"/>
<path d="M45.4216 96.7606C41.1754 96.7606 37.1829 95.1086 34.1801 92.1088C31.1772 89.1091 29.5234 85.1213 29.5234 80.879V75.4296H90.2634V80.879C90.2634 85.1208 88.6097 89.1091 85.6068 92.1088C82.6039 95.1086 78.6119 96.7606 74.3652 96.7606H45.4216Z" fill="#F2EFED"/>
<path d="M89.8312 75.862V80.8795C89.8312 82.9653 89.4224 84.9887 88.6164 86.8927C87.8373 88.7322 86.7221 90.3847 85.3018 91.8036C83.8809 93.2229 82.2272 94.337 80.3858 95.1147C78.4798 95.9199 76.4543 96.3283 74.3663 96.3283H45.4217C43.3337 96.3283 41.3082 95.9199 39.4023 95.1147C37.5609 94.3364 35.9066 93.2224 34.4863 91.8036C33.0655 90.3842 31.9502 88.7322 31.1717 86.8927C30.3657 84.9887 29.9568 82.9653 29.9568 80.8795V75.862H89.8312ZM90.6957 74.9984H29.0918V80.8795C29.0918 89.8889 36.4029 97.1924 45.4217 97.1924H74.3653C83.3841 97.1924 90.6952 89.8889 90.6952 80.8795V74.9984H90.6957Z" fill="#413930"/>
<path d="M37.1492 88.1185C37.1492 88.1185 43.517 93.3789 66.4243 92.7688L85.2669 91.8376C85.2669 91.8376 89.5202 87.8208 89.7008 82.8231C89.7008 82.8231 46.8463 89.6481 37.1497 88.119L37.1492 88.1185Z" fill="#E5E1DE"/>
<path d="M61.2542 22.8281H58.7441V35.4235H61.2542V22.8281Z" fill="#F2EFED"/>
<path d="M60.8226 23.26V34.9917H59.177V23.26H60.8226ZM61.6871 22.3964H58.3125V35.8554H61.6871V22.3964Z" fill="#413930"/>
<path d="M45.3802 88.9258C41.6888 88.9258 38.1083 88.2039 34.7377 86.7795C31.4821 85.4038 28.558 83.4343 26.0469 80.9258C23.5358 78.4173 21.5642 75.4963 20.1871 72.244C18.7617 68.877 18.0386 65.3002 18.0386 61.6126C18.0386 57.925 18.7612 54.3482 20.1871 50.9811C21.5642 47.7289 23.5358 44.8079 26.0469 42.2994C28.558 39.7909 31.4821 37.8214 34.7377 36.4457C38.1083 35.0218 41.6888 34.2994 45.3802 34.2994H74.4072C78.0986 34.2994 81.6792 35.0212 85.0497 36.4457C88.3053 37.8214 91.2294 39.7909 93.7405 42.2994C96.2517 44.8079 98.2232 47.7289 99.6003 50.9811C101.026 54.3482 101.749 57.925 101.749 61.6126C101.749 65.3002 101.026 68.877 99.6003 72.244C98.2232 75.4963 96.2517 78.4173 93.7405 80.9258C91.2294 83.4343 88.3053 85.4038 85.0497 86.7795C81.6792 88.2034 78.0986 88.9258 74.4072 88.9258H45.3802Z" fill="#F2EFED"/>
<path d="M74.4071 34.7312C78.04 34.7312 81.5641 35.4419 84.8813 36.8434C88.0855 38.1973 90.9633 40.1358 93.4353 42.6047C95.9068 45.0736 97.8473 47.9489 99.2025 51.1498C100.606 54.4635 101.317 57.9834 101.317 61.6131C101.317 65.2428 100.606 68.7627 99.2025 72.0764C97.8473 75.2773 95.9068 78.1521 93.4353 80.621C90.9638 83.0899 88.0855 85.0284 84.8813 86.3822C81.5641 87.7838 78.0405 88.4945 74.4071 88.4945H45.3801C41.7472 88.4945 38.2231 87.7838 34.9059 86.3822C31.7017 85.0284 28.8239 83.0899 26.3519 80.621C23.8805 78.1521 21.9399 75.2773 20.5847 72.0759C19.1816 68.7622 18.4702 65.2423 18.4702 61.6126C18.4702 57.9829 19.1816 54.463 20.5847 51.1493C21.9399 47.9484 23.8805 45.0736 26.3519 42.6042C28.8234 40.1353 31.7017 38.1968 34.9059 36.8429C38.2231 35.4414 41.7467 34.7307 45.3801 34.7307H74.4071M74.4071 33.8671H45.3801C30.0408 33.8676 17.6062 46.2892 17.6062 61.6126C17.6062 76.9359 30.0408 89.3576 45.3801 89.3576H74.4071C89.7464 89.3576 102.181 76.9359 102.181 61.6126C102.181 46.2892 89.7464 33.8676 74.4071 33.8676V33.8671Z" fill="#413930"/>
<path d="M41.3079 67.2555C38.1535 67.2555 35.1877 66.0281 32.9573 63.8C30.7269 61.5719 29.4983 58.6093 29.4983 55.4581C29.4983 52.307 30.7269 49.3443 32.9573 47.1163C35.1877 44.8882 38.1535 43.6608 41.3079 43.6608H78.479C81.6334 43.6608 84.5992 44.8882 86.8296 47.1163C89.06 49.3443 90.2886 52.307 90.2886 55.4581C90.2886 58.6093 89.06 61.5719 86.8296 63.8C84.5992 66.0281 81.6334 67.2555 78.479 67.2555H41.3079Z" fill="#F15D22"/>
<path d="M78.4796 44.0677C80.0194 44.0677 81.5125 44.3689 82.9175 44.9623C84.2753 45.5358 85.4948 46.3572 86.5423 47.4037C87.5899 48.4502 88.4122 49.6684 88.9863 51.0248C89.5808 52.4284 89.8819 53.9204 89.8819 55.4586C89.8819 56.9968 89.5803 58.4883 88.9863 59.8919C88.4122 61.2483 87.5899 62.4665 86.5423 63.513C85.4948 64.5594 84.2753 65.3809 82.9175 65.9544C81.5125 66.5483 80.0189 66.849 78.4796 66.849H41.308C39.7682 66.849 38.2751 66.5478 36.87 65.9544C35.5123 65.3809 34.2928 64.5594 33.2452 63.513C32.1977 62.4665 31.3754 61.2483 30.8012 59.8919C30.2068 58.4883 29.9057 56.9963 29.9057 55.4581C29.9057 53.9199 30.2073 52.4284 30.8012 51.0248C31.3754 49.6684 32.1977 48.4502 33.2452 47.4037C34.2928 46.3572 35.5123 45.5358 36.87 44.9623C38.2751 44.3684 39.7687 44.0677 41.308 44.0677H78.4791M78.4791 43.2549H41.308C34.5613 43.2549 29.0916 48.7184 29.0916 55.4586C29.0916 62.1983 34.5608 67.6623 41.308 67.6623H78.4791C85.2257 67.6623 90.6955 62.1988 90.6955 55.4586C90.6955 48.7184 85.2263 43.2549 78.4791 43.2549Z" fill="#413930"/>
<path d="M32.5801 62.844L88.1783 61.6121C88.1783 61.6121 85.4739 64.9684 83.8578 65.4627C82.2417 65.957 82.143 67.0441 75.9756 66.8465L40.7354 66.8704C40.7354 66.8704 36.4083 67.0268 32.5801 62.844Z" fill="#C04A1B"/>
<path d="M42.1662 65.9733C47.9793 65.9733 52.6918 61.2657 52.6918 55.4586C52.6918 49.6516 47.9793 44.944 42.1662 44.944C36.3531 44.944 31.6406 49.6516 31.6406 55.4586C31.6406 61.2657 36.3531 65.9733 42.1662 65.9733Z" fill="#413930"/>
<path d="M42.1663 45.1721C43.5566 45.1721 44.9052 45.4439 46.174 45.9803C47.4001 46.4985 48.5016 47.2402 49.4469 48.1851C50.3928 49.1299 51.1352 50.2298 51.6539 51.4546C52.191 52.7225 52.463 54.0692 52.463 55.4581C52.463 56.847 52.191 58.1942 51.6539 59.4617C51.1352 60.6865 50.3928 61.7868 49.4469 62.7312C48.501 63.6761 47.4001 64.4177 46.174 64.9359C44.9047 65.4724 43.5566 65.7441 42.1663 65.7441C40.776 65.7441 39.4273 65.4724 38.1585 64.9359C36.9325 64.4177 35.831 63.6761 34.8856 62.7312C33.9403 61.7863 33.1973 60.6865 32.6786 59.4617C32.1416 58.1937 31.8695 56.847 31.8695 55.4581C31.8695 54.0692 32.1416 52.722 32.6786 51.4546C33.1973 50.2298 33.9398 49.1294 34.8856 48.1851C35.8315 47.2407 36.9325 46.4985 38.1585 45.9803C39.4278 45.4439 40.776 45.1721 42.1663 45.1721ZM42.1663 44.7149C36.2266 44.7149 31.4119 49.5247 31.4119 55.4581C31.4119 61.3916 36.2266 66.2013 42.1663 66.2013C48.1059 66.2013 52.9207 61.3916 52.9207 55.4581C52.9207 49.5247 48.1059 44.7149 42.1663 44.7149Z" fill="#413930"/>
<path d="M85.0642 62.8936C89.1747 58.7874 89.1747 52.1299 85.0642 48.0237C80.9537 43.9174 74.2893 43.9174 70.1788 48.0237C66.0683 52.1299 66.0683 58.7874 70.1788 62.8936C74.2893 66.9998 80.9537 66.9998 85.0642 62.8936Z" fill="#413930"/>
<path d="M77.6211 45.1721C79.0114 45.1721 80.3601 45.4439 81.6288 45.9803C82.8549 46.4985 83.9564 47.2402 84.9018 48.1851C85.8471 49.1299 86.5901 50.2298 87.1088 51.4546C87.6458 52.7225 87.9179 54.0692 87.9179 55.4581C87.9179 56.847 87.6458 58.1942 87.1088 59.4617C86.5901 60.6865 85.8476 61.7868 84.9018 62.7312C83.9559 63.6756 82.8549 64.4177 81.6288 64.9359C80.3596 65.4724 79.0114 65.7441 77.6211 65.7441C76.2308 65.7441 74.8822 65.4724 73.6134 64.9359C72.3873 64.4177 71.2858 63.6761 70.3405 62.7312C69.3946 61.7863 68.6522 60.6865 68.1335 59.4617C67.5964 58.1937 67.3244 56.847 67.3244 55.4581C67.3244 54.0692 67.5964 52.722 68.1335 51.4546C68.6522 50.2298 69.3946 49.1294 70.3405 48.1851C71.2863 47.2402 72.3873 46.4985 73.6134 45.9803C74.8827 45.4439 76.2308 45.1721 77.6211 45.1721ZM77.6211 44.7149C71.6815 44.7149 66.8667 49.5247 66.8667 55.4581C66.8667 61.3916 71.6815 66.2013 77.6211 66.2013C83.5608 66.2013 88.3755 61.3916 88.3755 55.4581C88.3755 49.5247 83.5608 44.7149 77.6211 44.7149Z" fill="#413930"/>
<path d="M38.375 55.4581C40.5154 55.4581 42.2505 53.7248 42.2505 51.5866C42.2505 49.4485 40.5154 47.7151 38.375 47.7151C36.2346 47.7151 34.4995 49.4485 34.4995 51.5866C34.4995 53.7248 36.2346 55.4581 38.375 55.4581Z" fill="#F2EFED" stroke="#413930" stroke-width="2.18351" stroke-miterlimit="10"/>
<path d="M34.4995 57.2894C35.2097 57.2894 35.7855 56.7142 35.7855 56.0047C35.7855 55.2952 35.2097 54.72 34.4995 54.72C33.7892 54.72 33.2134 55.2952 33.2134 56.0047C33.2134 56.7142 33.7892 57.2894 34.4995 57.2894Z" fill="#F2EFED" stroke="#413930" stroke-width="0.725412" stroke-miterlimit="10"/>
<path d="M74.8545 53.4175C76.9949 53.4175 78.73 51.6842 78.73 49.546C78.73 47.4079 76.9949 45.6746 74.8545 45.6746C72.7141 45.6746 70.979 47.4079 70.979 49.546C70.979 51.6842 72.7141 53.4175 74.8545 53.4175Z" fill="#F2EFED" stroke="#413930" stroke-width="2.18351" stroke-miterlimit="10"/>
<path d="M70.9785 55.4586C71.7307 55.4586 72.3404 54.8495 72.3404 54.0982C72.3404 53.3468 71.7307 52.7377 70.9785 52.7377C70.2264 52.7377 69.6167 53.3468 69.6167 54.0982C69.6167 54.8495 70.2264 55.4586 70.9785 55.4586Z" fill="#F2EFED" stroke="#413930" stroke-width="0.766656" stroke-miterlimit="10"/>
<path d="M64.8955 20.7832C67.6581 18.0235 67.6581 13.549 64.8955 10.7893C62.1329 8.02951 57.6537 8.02951 54.8911 10.7893C52.1285 13.549 52.1285 18.0235 54.8911 20.7832C57.6538 23.543 62.1329 23.543 64.8955 20.7832Z" fill="#F15D22"/>
<path d="M59.8936 9.12585C61.6745 9.12585 63.3491 9.81877 64.6082 11.0766C65.8673 12.3344 66.5609 14.0072 66.5609 15.7863C66.5609 17.5653 65.8673 19.2381 64.6082 20.4959C63.3491 21.7538 61.6745 22.4467 59.8936 22.4467C58.1127 22.4467 56.4381 21.7538 55.179 20.4959C53.9199 19.2381 53.2262 17.5653 53.2262 15.7863C53.2262 14.0072 53.9199 12.3344 55.179 11.0766C56.4381 9.81877 58.1127 9.12585 59.8936 9.12585ZM59.8936 8.31305C55.7618 8.31305 52.4126 11.6587 52.4126 15.7863C52.4126 19.9138 55.7618 23.2595 59.8936 23.2595C64.0254 23.2595 67.3746 19.9138 67.3746 15.7863C67.3746 11.6587 64.0254 8.31305 59.8936 8.31305V8.31305Z" fill="#413930"/>
<path d="M41.1716 114.873V114.307C41.1716 109.649 44.9653 105.859 49.628 105.859C54.2907 105.859 58.0844 109.649 58.0844 114.307V114.873H41.1716Z" fill="#F2EFED"/>
<path d="M49.6279 106.291C51.7713 106.291 53.7861 107.124 55.3016 108.639C56.817 110.153 57.652 112.166 57.652 114.307V114.442H41.6038V114.307C41.6038 112.165 42.4383 110.153 43.9542 108.639C45.4696 107.125 47.4849 106.291 49.6279 106.291ZM49.6279 105.427C44.719 105.427 40.7393 109.403 40.7393 114.307V115.305H58.5165V114.307C58.5165 109.403 54.5367 105.427 49.6279 105.427Z" fill="#413930"/>
<path d="M61.7029 114.873V114.307C61.7029 109.649 65.4965 105.859 70.1592 105.859C74.822 105.859 78.6156 109.649 78.6156 114.307V114.873H61.7029Z" fill="#F2EFED"/>
<path d="M70.1594 106.291C72.3028 106.291 74.3176 107.124 75.833 108.639C77.3485 110.153 78.1835 112.166 78.1835 114.307V114.442H62.1353V114.307C62.1353 112.165 62.9698 110.153 64.4857 108.639C66.0011 107.125 68.0164 106.291 70.1594 106.291ZM70.1594 105.427C65.2505 105.427 61.2708 109.403 61.2708 114.307V115.305H79.048V114.307C79.048 109.403 75.0682 105.427 70.1594 105.427Z" fill="#413930"/>
<path d="M59.1765 23.2599C59.1765 23.2599 60.0868 23.2716 60.8221 23.2599V25.5287L59.1765 24.6915V23.2599Z" fill="#E5E1DE"/>
<path d="M62.1104 114.453H78.1932C78.1932 114.453 78.5552 109.129 72.91 106.727C72.91 106.727 79.498 114.453 62.1104 114.453Z" fill="#E5E1DE"/>
<path d="M41.584 114.453H57.6668C57.6668 114.453 58.0289 109.129 52.3837 106.727C52.3837 106.727 58.9717 114.453 41.584 114.453Z" fill="#E5E1DE"/>
<path d="M68.4604 97.1924H71.9098V100.266L68.4604 99.5633V97.1924Z" fill="#E5E1DE"/>
<path d="M47.9028 97.1924H51.3527V100.266L47.9028 99.5633V97.1924Z" fill="#E5E1DE"/>
</svg>
