<svg width="120" height="120" viewBox="0 0 120 120" fill="none" xmlns="http://www.w3.org/2000/svg">
<path d="M61.5808 93.0725L61.5808 97.3971L101.024 97.3971L101.024 93.0725L61.5808 93.0725Z" fill="#F2EFED"/>
<path d="M62.0125 93.5047L100.592 93.5047L100.592 96.9648L62.0125 96.9648L62.0125 93.5047ZM61.1489 92.6402L61.1489 97.8293L101.456 97.8293L101.456 92.6402L61.1489 92.6402Z" fill="#413930"/>
<path d="M66.833 96.9601L66.833 93.5103L86.1951 93.5103L85.4925 96.9601L66.833 96.9601Z" fill="#E5E1DE"/>
<rect x="36.6182" y="77.2016" width="50.6047" height="32.2222" rx="16.1111" fill="#F2EFED" stroke="#413930" stroke-width="1.5"/>
<path d="M102.993 85.5784L102.426 85.5784C97.7677 85.5784 93.978 89.3721 93.978 94.0348C93.978 98.6975 97.7677 102.491 102.426 102.491L102.993 102.491L102.993 85.5784Z" fill="#F2EFED"/>
<path d="M94.4097 94.0348C94.4097 96.1783 95.2434 98.1931 96.7577 99.7085C98.2716 101.224 100.285 102.059 102.426 102.059L102.561 102.059L102.561 86.0107L102.426 86.0107C100.284 86.0107 98.2716 86.8452 96.7577 88.3611C95.2439 89.8765 94.4097 91.8918 94.4097 94.0348ZM93.5461 94.0348C93.5461 89.1259 97.5218 85.1462 102.426 85.1462L103.424 85.1462L103.424 102.923L102.426 102.923C97.5218 102.923 93.5461 98.9436 93.5461 94.0348Z" fill="#413930"/>
<path d="M37.9143 85.5784C37.9143 85.5784 42.0638 89.6362 55.332 94.7493C68.6003 99.8624 82.8734 103.239 85.1295 100.847C87.3856 98.4545 88.3773 89.0424 83.8832 83.7367C83.8832 83.7367 50.4479 89.8652 37.9143 85.5784Z" fill="#E5E1DE"/>
<path d="M61.5815 101.529L61.5815 105.854L101.025 105.854L101.025 101.529L61.5815 101.529Z" fill="#F2EFED"/>
<path d="M62.0133 101.961L100.593 101.961L100.593 105.421L62.0133 105.421L62.0133 101.961ZM61.1497 101.097L61.1497 106.286L101.457 106.286L101.457 101.097L61.1497 101.097Z" fill="#413930"/>
<path d="M54.8359 23.3129L52.3828 23.8447L55.0513 36.1542L57.5044 35.6224L54.8359 23.3129Z" fill="#F2EFED"/>
<path d="M54.5055 23.8264L56.991 35.2919L55.3827 35.6405L52.8972 24.1751L54.5055 23.8264ZM55.1674 22.7993L51.8694 23.5142L54.7208 36.6677L58.0188 35.9527L55.1674 22.7993Z" fill="#413930"/>
<path d="M53.326 91.2733C49.7183 92.0553 46.0661 92.1084 42.4703 91.4304C38.9971 90.7757 35.7222 89.4704 32.7366 87.5508C29.751 85.6313 27.2054 83.1943 25.1705 80.3076C23.0641 77.319 21.5996 73.9766 20.8183 70.3727C20.0371 66.7688 19.9855 63.1201 20.6657 59.5274C21.3225 56.0572 22.6305 52.7848 24.5532 49.8013C26.4758 46.8177 28.9163 44.2734 31.8065 42.2392C34.7989 40.1335 38.1451 38.6689 41.7527 37.8869L70.1208 31.7372C73.7284 30.9551 77.3806 30.902 80.9764 31.58C84.4496 32.2347 87.7245 33.54 90.7101 35.4596C93.6957 37.3792 96.2414 39.8162 98.2762 42.7028C100.383 45.6914 101.847 49.0339 102.628 52.6377C103.41 56.2416 103.461 59.8904 102.781 63.483C102.124 66.9532 100.816 70.2256 98.8936 73.2092C96.9709 76.1928 94.5305 78.7371 91.6402 80.7712C88.6479 82.8769 85.3016 84.3415 81.694 85.1236L53.326 91.2733Z" fill="#F2EFED"/>
<path d="M70.2121 32.1592C73.7626 31.3895 77.3573 31.3374 80.8961 32.0044C84.3144 32.6486 87.5376 33.9335 90.4765 35.8226C93.4149 37.7118 95.9206 40.1107 97.9232 42.9519C99.9964 45.8931 101.437 49.1824 102.206 52.7297C102.975 56.277 103.026 59.8677 102.357 63.4034C101.71 66.8188 100.423 70.0395 98.5307 72.9759C96.6384 75.9124 94.2361 78.4167 91.3914 80.4187C88.4465 82.4912 85.1535 83.9323 81.6025 84.702L53.2345 90.8517C49.684 91.6214 46.0893 91.6735 42.5505 91.0065C39.1322 90.3623 35.909 89.0774 32.9701 87.1883C30.0317 85.299 27.5261 82.9007 25.5234 80.059C23.4502 77.1178 22.0091 73.8285 21.2402 70.2812C20.4712 66.7339 20.4207 63.1432 21.0899 59.6075C21.7362 56.1921 23.0236 52.9714 24.9158 50.0345C26.8081 47.098 29.2104 44.5937 32.0551 42.5918C35 40.5192 38.293 39.0781 41.844 38.3084L70.212 32.1587M70.0291 31.3147L41.661 37.4644C26.67 40.7147 17.1494 55.4887 20.3958 70.4643C23.6422 85.4398 38.4262 94.945 53.4173 91.6952L81.7853 85.5456C96.7765 82.2957 106.297 67.5217 103.051 52.5461C99.8043 37.5706 85.0203 28.0654 70.0292 31.3152L70.0291 31.3147Z" fill="#413930"/>
<path d="M57.9617 20.543C60.0769 17.2606 59.1289 12.8877 55.8443 10.7759C52.5597 8.66406 48.1823 9.61301 46.067 12.8954C43.9518 16.1778 44.8998 20.5507 48.1844 22.6625C51.469 24.7743 55.8464 23.8254 57.9617 20.543Z" fill="#F15D22"/>
<path d="M50.6035 10.2099C52.3439 9.83261 54.1273 10.155 55.6243 11.1175C57.1214 12.08 58.1537 13.5679 58.5306 15.3066C58.9075 17.0452 58.584 18.827 57.6199 20.3231C56.6559 21.8191 55.1661 22.851 53.4257 23.2283C51.6852 23.6056 49.9018 23.2832 48.4048 22.3207C46.9078 21.3582 45.8755 19.8703 45.4986 18.1317C45.1217 16.393 45.4452 14.6112 46.4092 13.1152C47.3733 11.6192 48.863 10.5872 50.6035 10.2099ZM50.4313 9.41556C46.3933 10.2909 43.8289 14.2702 44.7034 18.3041C45.5779 22.3379 49.5598 24.8981 53.5979 24.0227C57.6359 23.1473 60.2002 19.168 59.3258 15.1342C58.4513 11.1004 54.4693 8.54018 50.4313 9.41556V9.41556Z" fill="#413930"/>
<path d="M101.025 95.2351L100.458 95.2351C95.8002 95.2351 92.0105 99.0287 92.0105 103.691C92.0105 108.354 95.8002 112.148 100.458 112.148L101.025 112.148L101.025 95.2351Z" fill="#F2EFED"/>
<path d="M92.4422 103.691C92.4422 105.835 93.2759 107.85 94.7902 109.365C96.304 110.881 98.3173 111.716 100.458 111.716L100.593 111.716L100.593 95.6673L100.458 95.6673C98.3167 95.6673 96.304 96.5018 94.7902 98.0177C93.2764 99.5332 92.4422 101.548 92.4422 103.691ZM91.5786 103.691C91.5786 98.7826 95.5542 94.8028 100.458 94.8028L101.457 94.8028L101.457 112.58L100.458 112.58C95.5542 112.58 91.5786 108.6 91.5786 103.691Z" fill="#413930"/>
<path d="M52.897 24.1751C52.897 24.1751 53.7891 23.9937 54.5052 23.8265L54.9859 26.0437L53.2003 25.5742L52.897 24.1751Z" fill="#E5E1DE"/>
<path d="M100.604 95.6472L100.604 111.73C100.604 111.73 95.2805 112.092 92.8782 106.447C92.8782 106.447 100.604 113.035 100.604 95.6472Z" fill="#E5E1DE"/>
<path d="M62.0632 105.416L62.0632 101.966L81.4253 101.966L80.7227 105.416L62.0632 105.416Z" fill="#E5E1DE"/>
<rect x="35.0105" y="44.4115" width="60.1288" height="25.6934" rx="12.8467" transform="rotate(-12.2314 35.0105 44.4115)" fill="#F15D22" stroke="#413930" stroke-width="1.5"/>
<path d="M44.4175 65.2492L94.2137 54.4543C93.0347 56.2483 89.6707 58.6971 87.9521 59.0696L52.7305 66.705C51.0119 67.0776 46.1721 66.9825 44.4175 65.2492Z" fill="#C04A1B"/>
<circle cx="55.397" cy="50.6435" r="9.76309" transform="rotate(1.64275 55.397 50.6435)" fill="#413930" stroke="#413930"/>
<circle cx="57.3814" cy="46.0509" r="3.59683" transform="rotate(1.64275 57.3814 46.0509)" fill="#F2EFED"/>
<circle cx="51.4797" cy="44.4863" r="1.28941" transform="rotate(1.64275 51.4797 44.4863)" fill="#F2EFED"/>
<circle cx="85.6895" cy="44.391" r="9.76309" transform="rotate(1.64275 85.6895 44.391)" fill="#413930" stroke="#413930"/>
<circle cx="87.2232" cy="39.5817" r="3.59683" transform="rotate(1.64275 87.2232 39.5817)" fill="#F2EFED"/>
<circle cx="81.4575" cy="37.9877" r="1.28941" transform="rotate(1.64275 81.4575 37.9877)" fill="#F2EFED"/>
</svg>
