<svg width="120" height="120" viewBox="0 0 120 120" fill="none" xmlns="http://www.w3.org/2000/svg">
<path d="M24.0746 92.6812C22.2017 84.2389 25.6254 79.5302 27.5218 76.8475L32.5469 79.4838C31.4732 81.5747 28.2293 86.164 29.3256 90.6446C30.5271 95.5555 32.2878 96.7817 33.7689 99.3614L29.3256 101.27C28.0305 99.5124 25.0858 97.2395 24.0746 92.6812Z" fill="#F2EFED" stroke="#413930" stroke-width="1.6"/>
<path d="M96.4762 93.4715C98.3491 85.0292 94.9253 80.3205 93.0289 77.6378L88.0038 80.2741C89.0776 82.365 92.3214 86.9543 91.2252 91.4349C90.0237 96.3458 88.263 97.572 86.7819 100.152L91.2252 102.06C92.5203 100.303 95.465 98.0298 96.4762 93.4715Z" fill="#F2EFED" stroke="#413930" stroke-width="1.6"/>
<path d="M45.6873 93.6704C41.4732 93.6704 37.5115 92.0311 34.5314 89.0541C31.5513 86.0771 29.9104 82.1201 29.9104 77.91V72.582H90.4077V77.91C90.4077 82.1196 88.7668 86.0771 85.7867 89.0541C82.8065 92.0311 78.8454 93.6704 74.6308 93.6704H45.6873Z" fill="#F2EFED" stroke="#413930" stroke-width="0.242613"/>
<mask id="path-4-inside-1_497_2644" fill="white">
<path d="M90.0969 72.893V77.9106C90.0969 79.9964 89.688 82.0198 88.882 83.9238C88.1029 85.7632 86.9877 87.4158 85.5674 88.8346C84.1465 90.254 82.4928 91.368 80.6514 92.1458C78.7454 92.951 76.72 93.3594 74.6319 93.3594H45.6874C43.5993 93.3594 41.5739 92.951 39.6679 92.1458C37.8265 91.3675 36.1722 90.2535 34.7519 88.8346C33.3311 87.4153 32.2159 85.7632 31.4373 83.9238C30.6313 82.0198 30.2224 79.9964 30.2224 77.9106V72.893H90.0969ZM90.9614 72.0294H29.3574V77.9106C29.3574 86.92 36.6686 94.2235 45.6874 94.2235H74.6309C83.6497 94.2235 90.9609 86.92 90.9609 77.9106V72.0294H90.9614Z"/>
</mask>
<path d="M90.0969 72.893V77.9106C90.0969 79.9964 89.688 82.0198 88.882 83.9238C88.1029 85.7632 86.9877 87.4158 85.5674 88.8346C84.1465 90.254 82.4928 91.368 80.6514 92.1458C78.7454 92.951 76.72 93.3594 74.6319 93.3594H45.6874C43.5993 93.3594 41.5739 92.951 39.6679 92.1458C37.8265 91.3675 36.1722 90.2535 34.7519 88.8346C33.3311 87.4153 32.2159 85.7632 31.4373 83.9238C30.6313 82.0198 30.2224 79.9964 30.2224 77.9106V72.893H90.0969ZM90.9614 72.0294H29.3574V77.9106C29.3574 86.92 36.6686 94.2235 45.6874 94.2235H74.6309C83.6497 94.2235 90.9609 86.92 90.9609 77.9106V72.0294H90.9614Z" fill="#413930"/>
<path d="M88.882 83.9238L89.1054 84.0184L89.1054 84.0183L88.882 83.9238ZM85.5674 88.8346L85.7388 89.0063L85.5674 88.8346ZM80.6514 92.1458L80.557 91.9223L80.557 91.9223L80.6514 92.1458ZM39.6679 92.1458L39.5734 92.3692L39.5735 92.3693L39.6679 92.1458ZM34.7519 88.8346L34.9234 88.663L34.7519 88.8346ZM31.4373 83.9238L31.6607 83.8292L31.6607 83.8292L31.4373 83.9238ZM30.2224 72.893V72.6504H29.9798V72.893H30.2224ZM29.3574 72.0294V71.7868H29.1148V72.0294H29.3574ZM90.9609 72.0294V71.7868H90.7183V72.0294H90.9609ZM89.8543 72.893V77.9106H90.3395V72.893H89.8543ZM89.8543 77.9106C89.8543 79.9642 89.4518 81.9554 88.6586 83.8292L89.1054 84.0183C89.9242 82.0842 90.3395 80.0286 90.3395 77.9106H89.8543ZM88.6586 83.8291C87.8918 85.6397 86.7942 87.2661 85.3959 88.663L85.7388 89.0063C87.1812 87.5654 88.3141 85.8868 89.1054 84.0184L88.6586 83.8291ZM85.3959 88.663C83.9971 90.0604 82.3695 91.1567 80.557 91.9223L80.7458 92.3693C82.6161 91.5793 84.296 90.4476 85.7388 89.0063L85.3959 88.663ZM80.557 91.9223C78.6812 92.7147 76.6878 93.1168 74.6319 93.1168V93.602C76.7521 93.602 78.8097 93.1872 80.7458 92.3693L80.557 91.9223ZM74.6319 93.1168H45.6874V93.602H74.6319V93.1168ZM45.6874 93.1168C43.6315 93.1168 41.6381 92.7147 39.7623 91.9223L39.5735 92.3693C41.5096 93.1872 43.5672 93.602 45.6874 93.602V93.1168ZM39.7623 91.9223C37.9498 91.1562 36.3217 90.0598 34.9234 88.663L34.5805 89.0063C36.0228 90.4471 37.7032 91.5788 39.5734 92.3692L39.7623 91.9223ZM34.9234 88.663C33.5245 87.2656 32.427 85.6397 31.6607 83.8292L31.2139 84.0183C32.0047 85.8868 33.1376 87.5649 34.5805 89.0063L34.9234 88.663ZM31.6607 83.8292C30.8675 81.9554 30.465 79.9642 30.465 77.9106H29.9798C29.9798 80.0286 30.3951 82.0842 31.2139 84.0183L31.6607 83.8292ZM30.465 77.9106V72.893H29.9798V77.9106H30.465ZM30.2224 73.1356H90.0969V72.6504H30.2224V73.1356ZM90.9614 71.7868H29.3574V72.272H90.9614V71.7868ZM29.1148 72.0294V77.9106H29.6V72.0294H29.1148ZM29.1148 77.9106C29.1148 87.0542 36.5348 94.4661 45.6874 94.4661V93.9809C36.8023 93.9809 29.6 86.7857 29.6 77.9106H29.1148ZM45.6874 94.4661H74.6309V93.9809H45.6874V94.4661ZM74.6309 94.4661C83.7835 94.4661 91.2035 87.0542 91.2035 77.9106H90.7183C90.7183 86.7857 83.516 93.9809 74.6309 93.9809V94.4661ZM91.2035 77.9106V72.0294H90.7183V77.9106H91.2035ZM90.9609 72.272H90.9614V71.7868H90.9609V72.272Z" fill="#413930" mask="url(#path-4-inside-1_497_2644)"/>
<path d="M85.4951 88.7357L85.4807 88.7497L66.6864 89.6785C66.686 89.6785 66.6855 89.6785 66.6851 89.6786C55.2415 89.9832 47.9355 88.8215 43.4944 87.5866C41.2738 86.9691 39.7695 86.3334 38.8223 85.8537C38.4187 85.6493 38.1161 85.4732 37.9024 85.3388C40.4318 85.635 44.7001 85.4854 49.7265 85.0886C55.1105 84.6635 61.3785 83.9535 67.3421 83.1958C73.306 82.4381 78.9667 81.6327 83.1364 81.0166C85.2212 80.7086 86.9333 80.448 88.1243 80.2643C88.7198 80.1725 89.185 80.0999 89.5013 80.0502L89.8384 79.9972C89.7121 82.4057 88.6389 84.5807 87.5806 86.1682C87.0413 86.9772 86.5075 87.6311 86.1087 88.0826C85.9094 88.3083 85.7439 88.4833 85.6285 88.6016C85.5708 88.6607 85.5257 88.7057 85.4951 88.7357Z" fill="#E5E1DE" stroke="#413930" stroke-width="0.242613"/>
<path d="M59.1311 32.3332V19.9804H61.3986V32.3332H59.1311Z" fill="#F2EFED" stroke="#413930" stroke-width="0.242613"/>
<mask id="path-8-inside-2_497_2644" fill="white">
<path d="M61.0882 20.291V32.0228H59.4426V20.291H61.0882ZM61.9527 19.4274H58.5781V32.8864H61.9527V19.4274Z"/>
</mask>
<path d="M61.0882 20.291V32.0228H59.4426V20.291H61.0882ZM61.9527 19.4274H58.5781V32.8864H61.9527V19.4274Z" fill="#413930"/>
<path d="M61.0882 32.0228V32.2654H61.3308V32.0228H61.0882ZM59.4426 32.0228H59.2V32.2654H59.4426V32.0228ZM59.4426 20.291V20.0484H59.2V20.291H59.4426ZM58.5781 19.4274V19.1848H58.3355V19.4274H58.5781ZM58.5781 32.8864H58.3355V33.129H58.5781V32.8864ZM61.9527 32.8864V33.129H62.1954V32.8864H61.9527ZM60.8456 20.291V32.0228H61.3308V20.291H60.8456ZM61.0882 31.7801H59.4426V32.2654H61.0882V31.7801ZM59.6852 32.0228V20.291H59.2V32.0228H59.6852ZM59.4426 20.5336H61.0882V20.0484H59.4426V20.5336ZM61.9527 19.1848H58.5781V19.67H61.9527V19.1848ZM58.3355 19.4274V32.8864H58.8207V19.4274H58.3355ZM58.5781 33.129H61.9527V32.6437H58.5781V33.129ZM62.1954 32.8864V19.4274H61.7101V32.8864H62.1954Z" fill="#413930" mask="url(#path-8-inside-2_497_2644)"/>
<path d="M20.5642 48.0594L20.4525 48.0121L20.5642 48.0594C21.9352 44.8217 23.8979 41.9137 26.398 39.4162C28.8982 36.9187 31.8091 34.958 35.0503 33.5884C38.4058 32.1709 41.9703 31.4517 45.6456 31.4517H74.6726C78.3479 31.4517 81.9124 32.1704 85.2679 33.5884C88.5091 34.958 91.4201 36.9187 93.9202 39.4162C96.4203 41.9137 98.383 44.8217 99.754 48.0594C101.173 51.4114 101.893 54.9721 101.893 58.6436C101.893 62.3151 101.174 65.8758 99.754 69.2277C98.383 72.4655 96.4203 75.3735 93.9202 77.871C91.4201 80.3685 88.5091 82.3292 85.2679 83.6988C81.9124 85.1163 78.3479 85.8355 74.6726 85.8355H45.6456C41.9703 85.8355 38.4058 85.1168 35.0503 83.6988L35.0031 83.8105L35.0503 83.6988C31.8091 82.3292 28.8982 80.3685 26.398 77.871C23.8979 75.3735 21.9352 72.4655 20.5642 69.2277C19.1452 65.8758 18.4253 62.3151 18.4253 58.6436C18.4253 54.9721 19.1447 51.4114 20.5642 48.0594Z" fill="#F2EFED" stroke="#413930" stroke-width="0.242613"/>
<mask id="path-11-inside-3_497_2644" fill="white">
<path d="M74.6725 31.7622C78.3054 31.7622 81.8295 32.4729 85.1467 33.8745C88.3509 35.2283 91.2287 37.1668 93.7007 39.6357C96.1721 42.1046 98.1127 44.9799 99.4679 48.1808C100.871 51.4945 101.582 55.0144 101.582 58.6441C101.582 62.2738 100.871 65.7937 99.4679 69.1074C98.1127 72.3083 96.1721 75.1831 93.7007 77.652C91.2292 80.1209 88.3509 82.0594 85.1467 83.4132C81.8295 84.8148 78.3059 85.5255 74.6725 85.5255H45.6455C42.0126 85.5255 38.4884 84.8148 35.1713 83.4132C31.967 82.0594 29.0893 80.1209 26.6173 77.652C24.1458 75.1831 22.2053 72.3083 20.85 69.1069C19.447 65.7932 18.7356 62.2733 18.7356 58.6436C18.7356 55.0139 19.447 51.494 20.85 48.1803C22.2053 44.9794 24.1458 42.1046 26.6173 39.6352C29.0888 37.1663 31.967 35.2278 35.1713 33.8739C38.4884 32.4724 42.0121 31.7617 45.6455 31.7617H74.6725M74.6725 30.8981H45.6455C30.3062 30.8986 17.8716 43.3202 17.8716 58.6436C17.8716 73.9669 30.3062 86.3886 45.6455 86.3886H74.6725C90.0118 86.3886 102.446 73.9669 102.446 58.6436C102.446 43.3202 90.0118 30.8986 74.6725 30.8986V30.8981Z"/>
</mask>
<path d="M74.6725 31.7622C78.3054 31.7622 81.8295 32.4729 85.1467 33.8745C88.3509 35.2283 91.2287 37.1668 93.7007 39.6357C96.1721 42.1046 98.1127 44.9799 99.4679 48.1808C100.871 51.4945 101.582 55.0144 101.582 58.6441C101.582 62.2738 100.871 65.7937 99.4679 69.1074C98.1127 72.3083 96.1721 75.1831 93.7007 77.652C91.2292 80.1209 88.3509 82.0594 85.1467 83.4132C81.8295 84.8148 78.3059 85.5255 74.6725 85.5255H45.6455C42.0126 85.5255 38.4884 84.8148 35.1713 83.4132C31.967 82.0594 29.0893 80.1209 26.6173 77.652C24.1458 75.1831 22.2053 72.3083 20.85 69.1069C19.447 65.7932 18.7356 62.2733 18.7356 58.6436C18.7356 55.0139 19.447 51.494 20.85 48.1803C22.2053 44.9794 24.1458 42.1046 26.6173 39.6352C29.0888 37.1663 31.967 35.2278 35.1713 33.8739C38.4884 32.4724 42.0121 31.7617 45.6455 31.7617H74.6725M74.6725 30.8981H45.6455C30.3062 30.8986 17.8716 43.3202 17.8716 58.6436C17.8716 73.9669 30.3062 86.3886 45.6455 86.3886H74.6725C90.0118 86.3886 102.446 73.9669 102.446 58.6436C102.446 43.3202 90.0118 30.8986 74.6725 30.8986V30.8981Z" fill="#413930"/>
<path d="M85.1467 33.8745L85.0522 34.0979L85.0523 34.0979L85.1467 33.8745ZM93.7007 39.6357L93.8721 39.4641L93.8721 39.464L93.7007 39.6357ZM99.4679 48.1808L99.2445 48.2754V48.2754L99.4679 48.1808ZM99.4679 69.1074L99.2445 69.0128V69.0128L99.4679 69.1074ZM85.1467 83.4132L85.0523 83.1898H85.0522L85.1467 83.4132ZM35.1713 83.4132L35.2657 83.1898H35.2657L35.1713 83.4132ZM26.6173 77.652L26.4458 77.8236L26.4459 77.8237L26.6173 77.652ZM20.85 69.1069L21.0735 69.0123L21.0735 69.0123L20.85 69.1069ZM20.85 48.1803L21.0735 48.2749L21.0735 48.2749L20.85 48.1803ZM26.6173 39.6352L26.4458 39.4635L26.4458 39.4636L26.6173 39.6352ZM35.1713 33.8739L35.2657 34.0974L35.2657 34.0974L35.1713 33.8739ZM74.6725 30.8981H74.9151V30.6555H74.6725V30.8981ZM45.6455 30.8981V30.6555H45.6455L45.6455 30.8981ZM74.6725 30.8986H74.4298V31.1412H74.6725V30.8986ZM74.6725 32.0048C78.2733 32.0048 81.7653 32.7091 85.0522 34.0979L85.2411 33.651C81.8938 32.2367 78.3375 31.5196 74.6725 31.5196V32.0048ZM85.0523 34.0979C88.2276 35.4395 91.0792 37.3604 93.5292 39.8074L93.8721 39.464C91.3782 36.9732 88.4743 35.017 85.2411 33.651L85.0523 34.0979ZM93.5292 39.8073C95.9787 42.2542 97.9015 45.1034 99.2445 48.2754L99.6913 48.0862C98.3239 44.8563 96.3656 41.9549 93.8721 39.4641L93.5292 39.8073ZM99.2445 48.2754C100.635 51.5589 101.34 55.0466 101.34 58.6441H101.825C101.825 54.9822 101.107 51.4301 99.6913 48.0862L99.2445 48.2754ZM101.34 58.6441C101.34 62.2415 100.635 65.7293 99.2445 69.0128L99.6913 69.202C101.107 65.8581 101.825 62.306 101.825 58.6441H101.34ZM99.2445 69.0128C97.9015 72.1848 95.9787 75.0334 93.5292 77.4803L93.8721 77.8236C96.3656 75.3328 98.3238 72.4319 99.6913 69.202L99.2445 69.0128ZM93.5292 77.4803C91.0798 79.9272 88.2276 81.8481 85.0523 83.1898L85.2411 83.6367C88.4743 82.2707 91.3787 80.3145 93.8721 77.8236L93.5292 77.4803ZM85.0522 83.1898C81.7653 84.5786 78.2738 85.2829 74.6725 85.2829V85.7681C78.3381 85.7681 81.8938 85.051 85.2411 83.6367L85.0522 83.1898ZM74.6725 85.2829H45.6455V85.7681H74.6725V85.2829ZM45.6455 85.2829C42.0447 85.2829 38.5527 84.5786 35.2657 83.1898L35.0769 83.6367C38.4242 85.051 41.9804 85.7681 45.6455 85.7681V85.2829ZM35.2657 83.1898C32.0904 81.8481 29.2387 79.9273 26.7887 77.4803L26.4459 77.8237C28.9398 80.3145 31.8437 82.2707 35.0769 83.6367L35.2657 83.1898ZM26.7888 77.4803C24.3393 75.0334 22.4164 72.1848 21.0735 69.0123L20.6266 69.2015C21.9941 72.4319 23.9524 75.3328 26.4458 77.8236L26.7888 77.4803ZM21.0735 69.0123C19.6832 65.7288 18.9782 62.241 18.9782 58.6436H18.493C18.493 62.3055 19.2108 65.8576 20.6266 69.2015L21.0735 69.0123ZM18.9782 58.6436C18.9782 55.0461 19.6832 51.5584 21.0735 48.2749L20.6266 48.0857C19.2108 51.4296 18.493 54.9817 18.493 58.6436H18.9782ZM21.0735 48.2749C22.4164 45.1029 24.3393 42.2542 26.7888 39.8068L26.4458 39.4636C23.9524 41.9549 21.9941 44.8558 20.6266 48.0857L21.0735 48.2749ZM26.7888 39.8068C29.2382 37.3599 32.0904 35.439 35.2657 34.0974L35.0769 33.6505C31.8437 35.0165 28.9393 36.9727 26.4458 39.4635L26.7888 39.8068ZM35.2657 34.0974C38.5527 32.7086 42.0442 32.0043 45.6455 32.0043V31.5191C41.9799 31.5191 38.4242 32.2361 35.0769 33.6505L35.2657 34.0974ZM45.6455 32.0043H74.6725V31.5191H45.6455V32.0043ZM74.6725 30.6555H45.6455V31.1407H74.6725V30.6555ZM45.6455 30.6555C30.1724 30.656 17.629 43.186 17.629 58.6436H18.1142C18.1142 43.4545 30.4399 31.1412 45.6455 31.1407L45.6455 30.6555ZM17.629 58.6436C17.629 74.1012 30.1724 86.6312 45.6455 86.6312V86.146C30.4399 86.146 18.1142 73.8327 18.1142 58.6436H17.629ZM45.6455 86.6312H74.6725V86.146H45.6455V86.6312ZM74.6725 86.6312C90.1455 86.6312 102.689 74.1012 102.689 58.6436H102.204C102.204 73.8327 89.878 86.146 74.6725 86.146V86.6312ZM102.689 58.6436C102.689 43.186 90.1455 30.656 74.6725 30.656V31.1412C89.878 31.1412 102.204 43.4545 102.204 58.6436H102.689ZM74.9151 30.8986V30.8981H74.4298V30.8986H74.9151Z" fill="#413930" mask="url(#path-11-inside-3_497_2644)"/>
<path d="M41.5733 64.1652C38.451 64.1652 35.5161 62.9506 33.3084 60.7452C31.1008 58.5399 29.885 55.6081 29.885 52.4892C29.885 49.3702 31.1008 46.4384 33.3084 44.2331C35.5161 42.0277 38.451 40.8131 41.5733 40.8131H78.7444C81.8666 40.8131 84.8016 42.0277 87.0092 44.2331C89.2169 46.4384 90.4327 49.3702 90.4327 52.4892C90.4327 55.6081 89.2169 58.5399 87.0092 60.7452C84.8016 62.9506 81.8666 64.1652 78.7444 64.1652H41.5733Z" fill="#F15D22" stroke="#413930" stroke-width="0.242613"/>
<mask id="path-14-inside-4_497_2644" fill="white">
<path d="M78.745 41.0987C80.2848 41.0987 81.7778 41.3999 83.1829 41.9933C84.5407 42.5668 85.7601 43.3883 86.8077 44.4347C87.8553 45.4812 88.6776 46.6994 89.2517 48.0558C89.8462 49.4594 90.1472 50.9514 90.1472 52.4896C90.1472 54.0278 89.8457 55.5193 89.2517 56.9229C88.6776 58.2793 87.8553 59.4975 86.8077 60.544C85.7601 61.5905 84.5407 62.4119 83.1829 62.9854C81.7778 63.5793 80.2843 63.88 78.745 63.88H41.5734C40.0335 63.88 38.5405 63.5788 37.1354 62.9854C35.7776 62.4119 34.5582 61.5905 33.5106 60.544C32.463 59.4975 31.6407 58.2793 31.0666 56.9229C30.4721 55.5193 30.1711 54.0273 30.1711 52.4891C30.1711 50.9509 30.4727 49.4594 31.0666 48.0558C31.6407 46.6994 32.463 45.4812 33.5106 44.4347C34.5582 43.3883 35.7776 42.5668 37.1354 41.9933C38.5405 41.3994 40.034 41.0987 41.5734 41.0987H78.7444M78.7444 40.2859H41.5734C34.8267 40.2859 29.3569 45.7494 29.3569 52.4896C29.3569 59.2293 34.8262 64.6933 41.5734 64.6933H78.7444C85.4911 64.6933 90.9609 59.2298 90.9609 52.4896C90.9609 45.7494 85.4916 40.2859 78.7444 40.2859Z"/>
</mask>
<path d="M78.745 41.0987C80.2848 41.0987 81.7778 41.3999 83.1829 41.9933C84.5407 42.5668 85.7601 43.3883 86.8077 44.4347C87.8553 45.4812 88.6776 46.6994 89.2517 48.0558C89.8462 49.4594 90.1472 50.9514 90.1472 52.4896C90.1472 54.0278 89.8457 55.5193 89.2517 56.9229C88.6776 58.2793 87.8553 59.4975 86.8077 60.544C85.7601 61.5905 84.5407 62.4119 83.1829 62.9854C81.7778 63.5793 80.2843 63.88 78.745 63.88H41.5734C40.0335 63.88 38.5405 63.5788 37.1354 62.9854C35.7776 62.4119 34.5582 61.5905 33.5106 60.544C32.463 59.4975 31.6407 58.2793 31.0666 56.9229C30.4721 55.5193 30.1711 54.0273 30.1711 52.4891C30.1711 50.9509 30.4727 49.4594 31.0666 48.0558C31.6407 46.6994 32.463 45.4812 33.5106 44.4347C34.5582 43.3883 35.7776 42.5668 37.1354 41.9933C38.5405 41.3994 40.034 41.0987 41.5734 41.0987H78.7444M78.7444 40.2859H41.5734C34.8267 40.2859 29.3569 45.7494 29.3569 52.4896C29.3569 59.2293 34.8262 64.6933 41.5734 64.6933H78.7444C85.4911 64.6933 90.9609 59.2298 90.9609 52.4896C90.9609 45.7494 85.4916 40.2859 78.7444 40.2859Z" fill="#413930"/>
<path d="M83.1829 41.9933L83.2773 41.7698L83.2773 41.7698L83.1829 41.9933ZM89.2517 48.0558L89.0283 48.1503L89.0283 48.1504L89.2517 48.0558ZM89.2517 56.9229L89.4751 57.0175L89.4751 57.0175L89.2517 56.9229ZM83.1829 62.9854L83.0885 62.7619L83.0885 62.762L83.1829 62.9854ZM37.1354 62.9854L37.041 63.2089L37.041 63.2089L37.1354 62.9854ZM31.0666 56.9229L31.29 56.8284L31.29 56.8283L31.0666 56.9229ZM31.0666 48.0558L30.8432 47.9612L30.8432 47.9612L31.0666 48.0558ZM37.1354 41.9933L37.2298 42.2168L37.2299 42.2168L37.1354 41.9933ZM78.745 41.3413C80.2526 41.3413 81.7136 41.6362 83.0885 42.2168L83.2773 41.7698C81.8421 41.1637 80.3169 40.8561 78.745 40.8561V41.3413ZM83.0885 42.2168C84.4173 42.7781 85.6107 43.5819 86.6362 44.6064L86.9792 44.2631C85.9096 43.1946 84.664 42.3555 83.2773 41.7698L83.0885 42.2168ZM86.6362 44.6064C87.6618 45.6309 88.4664 46.8229 89.0283 48.1503L89.4751 47.9612C88.8887 46.5759 88.0487 45.3315 86.9792 44.2631L86.6362 44.6064ZM89.0283 48.1504C89.61 49.5237 89.9046 50.9835 89.9046 52.4896H90.3898C90.3898 50.9192 90.0824 49.395 89.4751 47.9612L89.0283 48.1504ZM89.9046 52.4896C89.9046 53.9956 89.6095 55.4549 89.0283 56.8284L89.4751 57.0175C90.0819 55.5837 90.3898 54.0601 90.3898 52.4896H89.9046ZM89.0283 56.8284C88.4664 58.1558 87.6618 59.3478 86.6362 60.3723L86.9792 60.7156C88.0487 59.6472 88.8887 58.4028 89.4751 57.0175L89.0283 56.8284ZM86.6362 60.3723C85.6107 61.3968 84.4173 62.2006 83.0885 62.7619L83.2773 63.2089C84.664 62.6232 85.9096 61.7841 86.9792 60.7156L86.6362 60.3723ZM83.0885 62.762C81.7136 63.343 80.2522 63.6374 78.745 63.6374V64.1226C80.3164 64.1226 81.8421 63.8155 83.2774 63.2089L83.0885 62.762ZM78.745 63.6374H41.5734V64.1226H78.745V63.6374ZM41.5734 63.6374C40.0657 63.6374 38.6048 63.3426 37.2298 62.7619L37.041 63.2089C38.4762 63.815 40.0014 64.1226 41.5734 64.1226V63.6374ZM37.2298 62.7619C35.901 62.2006 34.7077 61.3968 33.6821 60.3723L33.3392 60.7156C34.4087 61.7841 35.6543 62.6232 37.041 63.2089L37.2298 62.7619ZM33.6821 60.3723C32.6565 59.3478 31.8519 58.1558 31.29 56.8284L30.8432 57.0175C31.4296 58.4028 32.2696 59.6472 33.3392 60.7156L33.6821 60.3723ZM31.29 56.8283C30.7084 55.455 30.4137 53.9952 30.4137 52.4891H29.9285C29.9285 54.0595 30.2359 55.5837 30.8432 57.0176L31.29 56.8283ZM30.4137 52.4891C30.4137 50.9831 30.7088 49.5238 31.29 48.1503L30.8432 47.9612C30.2365 49.395 29.9285 50.9187 29.9285 52.4891H30.4137ZM31.29 48.1503C31.8519 46.8229 32.6565 45.6309 33.6821 44.6064L33.3392 44.2631C32.2696 45.3315 31.4296 46.5759 30.8432 47.9612L31.29 48.1503ZM33.6821 44.6064C34.7077 43.5819 35.901 42.7781 37.2298 42.2168L37.041 41.7698C35.6543 42.3555 34.4087 43.1946 33.3392 44.2631L33.6821 44.6064ZM37.2299 42.2168C38.6047 41.6357 40.0661 41.3413 41.5734 41.3413V40.8561C40.002 40.8561 38.4763 41.1632 37.041 41.7698L37.2299 42.2168ZM41.5734 41.3413H78.7444V40.8561H41.5734V41.3413ZM78.7444 40.0433H41.5734V40.5285H78.7444V40.0433ZM41.5734 40.0433C34.6929 40.0433 29.1143 45.6152 29.1143 52.4896H29.5995C29.5995 45.8837 34.9604 40.5285 41.5734 40.5285V40.0433ZM29.1143 52.4896C29.1143 59.3635 34.6924 64.9359 41.5734 64.9359V64.4507C34.9599 64.4507 29.5995 59.095 29.5995 52.4896H29.1143ZM41.5734 64.9359H78.7444V64.4507H41.5734V64.9359ZM78.7444 64.9359C85.6249 64.9359 91.2035 59.364 91.2035 52.4896H90.7183C90.7183 59.0955 85.3574 64.4507 78.7444 64.4507V64.9359ZM91.2035 52.4896C91.2035 45.6152 85.6254 40.0433 78.7444 40.0433V40.5285C85.3579 40.5285 90.7183 45.8837 90.7183 52.4896H91.2035Z" fill="#413930" mask="url(#path-14-inside-4_497_2644)"/>
<path d="M76.2448 63.7563L76.2448 63.7562L76.2409 63.7562L41.0007 63.7801V63.78L40.9965 63.7802L40.9964 63.7802L40.9964 63.7802L40.9961 63.7802L40.9942 63.7802L40.9858 63.7804C40.9781 63.7806 40.9664 63.7808 40.9508 63.7808C40.9195 63.7809 40.8726 63.7806 40.8111 63.7787C40.6882 63.7749 40.5074 63.7649 40.278 63.7399C39.8191 63.6899 39.1664 63.5802 38.3946 63.3409C36.9014 62.878 34.9621 61.93 33.1188 59.9902L88.1814 58.7702C88.1091 58.8565 88.0154 58.9672 87.9041 59.0959C87.6264 59.417 87.2395 59.8501 86.8026 60.2984C86.3654 60.7469 85.8797 61.2089 85.4043 61.5888C84.9264 61.9707 84.469 62.2611 84.0877 62.3777C83.6928 62.4985 83.3857 62.654 83.0718 62.813C83.0553 62.8213 83.0389 62.8297 83.0223 62.838C82.6909 63.0056 82.3417 63.1779 81.8529 63.3292C80.8741 63.6322 79.3232 63.8549 76.2448 63.7563Z" fill="#C04A1B" stroke="#413930" stroke-width="0.242613"/>
<path d="M52.8358 52.4897C52.8358 58.2296 48.1778 62.883 42.4316 62.883C36.6853 62.883 32.0273 58.2296 32.0273 52.4897C32.0273 46.7497 36.6853 42.0963 42.4316 42.0963C48.1778 42.0963 52.8358 46.7497 52.8358 52.4897Z" fill="#413930" stroke="#413930" stroke-width="0.242613"/>
<mask id="path-18-inside-5_497_2644" fill="white">
<path d="M42.4317 42.2031C43.822 42.2031 45.1706 42.4749 46.4394 43.0113C47.6655 43.5295 48.7669 44.2712 49.7123 45.2161C50.6582 46.161 51.4006 47.2608 51.9193 48.4856C52.4563 49.7535 52.7284 51.1002 52.7284 52.4891C52.7284 53.878 52.4563 55.2252 51.9193 56.4927C51.4006 57.7175 50.6582 58.8178 49.7123 59.7622C48.7664 60.7071 47.6655 61.4487 46.4394 61.9669C45.1701 62.5034 43.822 62.7751 42.4317 62.7751C41.0413 62.7751 39.6927 62.5034 38.4239 61.9669C37.1979 61.4487 36.0964 60.7071 35.151 59.7622C34.2057 58.8173 33.4627 57.7175 32.944 56.4927C32.407 55.2247 32.1349 53.878 32.1349 52.4891C32.1349 51.1002 32.407 49.753 32.944 48.4856C33.4627 47.2608 34.2052 46.1604 35.151 45.2161C36.0969 44.2717 37.1979 43.5295 38.4239 43.0113C39.6932 42.4749 41.0413 42.2031 42.4317 42.2031ZM42.4317 41.7459C36.492 41.7459 31.6772 46.5557 31.6772 52.4891C31.6772 58.4226 36.492 63.2323 42.4317 63.2323C48.3713 63.2323 53.1861 58.4226 53.1861 52.4891C53.1861 46.5557 48.3713 41.7459 42.4317 41.7459Z"/>
</mask>
<path d="M42.4317 42.2031C43.822 42.2031 45.1706 42.4749 46.4394 43.0113C47.6655 43.5295 48.7669 44.2712 49.7123 45.2161C50.6582 46.161 51.4006 47.2608 51.9193 48.4856C52.4563 49.7535 52.7284 51.1002 52.7284 52.4891C52.7284 53.878 52.4563 55.2252 51.9193 56.4927C51.4006 57.7175 50.6582 58.8178 49.7123 59.7622C48.7664 60.7071 47.6655 61.4487 46.4394 61.9669C45.1701 62.5034 43.822 62.7751 42.4317 62.7751C41.0413 62.7751 39.6927 62.5034 38.4239 61.9669C37.1979 61.4487 36.0964 60.7071 35.151 59.7622C34.2057 58.8173 33.4627 57.7175 32.944 56.4927C32.407 55.2247 32.1349 53.878 32.1349 52.4891C32.1349 51.1002 32.407 49.753 32.944 48.4856C33.4627 47.2608 34.2052 46.1604 35.151 45.2161C36.0969 44.2717 37.1979 43.5295 38.4239 43.0113C39.6932 42.4749 41.0413 42.2031 42.4317 42.2031ZM42.4317 41.7459C36.492 41.7459 31.6772 46.5557 31.6772 52.4891C31.6772 58.4226 36.492 63.2323 42.4317 63.2323C48.3713 63.2323 53.1861 58.4226 53.1861 52.4891C53.1861 46.5557 48.3713 41.7459 42.4317 41.7459Z" fill="#413930"/>
<path d="M46.4394 43.0113L46.3449 43.2348L46.3449 43.2348L46.4394 43.0113ZM49.7123 45.2161L49.5408 45.3877L49.5408 45.3877L49.7123 45.2161ZM51.9193 48.4856L51.6959 48.5802L51.6959 48.5802L51.9193 48.4856ZM51.9193 56.4927L51.6959 56.398L51.6959 56.3981L51.9193 56.4927ZM49.7123 59.7622L49.5409 59.5905L49.5408 59.5905L49.7123 59.7622ZM46.4394 61.9669L46.3449 61.7434L46.3449 61.7434L46.4394 61.9669ZM38.4239 61.9669L38.5184 61.7435L38.5184 61.7434L38.4239 61.9669ZM32.944 56.4927L33.1674 56.3981L33.1674 56.3981L32.944 56.4927ZM32.944 48.4856L33.1674 48.5802L33.1674 48.5802L32.944 48.4856ZM38.4239 43.0113L38.5184 43.2348L38.5184 43.2348L38.4239 43.0113ZM42.4317 42.4457C43.7899 42.4457 45.1063 42.7111 46.3449 43.2348L46.5339 42.7879C45.2349 42.2387 43.8541 41.9605 42.4317 41.9605V42.4457ZM46.3449 43.2348C47.5421 43.7408 48.6175 44.4648 49.5408 45.3877L49.8838 45.0445C48.9164 44.0776 47.7888 43.3182 46.5338 42.7879L46.3449 43.2348ZM49.5408 45.3877C50.4647 46.3106 51.1895 47.3843 51.6959 48.5802L52.1427 48.391C51.6118 47.1372 50.8516 46.0113 49.8838 45.0444L49.5408 45.3877ZM51.6959 48.5802C52.2201 49.8179 52.4858 51.1325 52.4858 52.4891H52.971C52.971 51.068 52.6925 49.6891 52.1427 48.391L51.6959 48.5802ZM52.4858 52.4891C52.4858 53.8458 52.2201 55.1608 51.6959 56.398L52.1427 56.5873C52.6925 55.2896 52.971 53.9102 52.971 52.4891H52.4858ZM51.6959 56.3981C51.1895 57.594 50.4647 58.6681 49.5409 59.5905L49.8837 59.9339C50.8516 58.9675 51.6118 57.841 52.1427 56.5873L51.6959 56.3981ZM49.5408 59.5905C48.617 60.5135 47.5421 61.2375 46.3449 61.7434L46.5338 62.1904C47.7888 61.66 48.9159 60.9007 49.8838 59.9338L49.5408 59.5905ZM46.3449 61.7434C45.1058 62.2671 43.7899 62.5325 42.4317 62.5325V63.0178C43.8541 63.0178 45.2344 62.7396 46.5338 62.1904L46.3449 61.7434ZM42.4317 62.5325C41.0734 62.5325 39.757 62.2671 38.5184 61.7435L38.3294 62.1904C39.6284 62.7396 41.0092 63.0178 42.4317 63.0178V62.5325ZM38.5184 61.7434C37.3212 61.2375 36.2458 60.5134 35.3225 59.5906L34.9795 59.9338C35.9469 60.9007 37.0745 61.66 38.3295 62.1904L38.5184 61.7434ZM35.3225 59.5906C34.3991 58.6676 33.6738 57.5939 33.1674 56.3981L32.7206 56.5873C33.2516 57.8411 34.0122 58.967 34.9795 59.9338L35.3225 59.5906ZM33.1674 56.3981C32.6432 55.1603 32.3775 53.8458 32.3775 52.4891H31.8923C31.8923 53.9102 32.1708 55.2891 32.7206 56.5873L33.1674 56.3981ZM32.3775 52.4891C32.3775 51.1324 32.6432 49.8174 33.1674 48.5802L32.7206 48.3909C32.1708 49.6886 31.8923 51.0681 31.8923 52.4891H32.3775ZM33.1674 48.5802C33.6739 47.3843 34.3986 46.3101 35.3224 45.3878L34.9796 45.0444C34.0117 46.0108 33.2515 47.1373 32.7206 48.391L33.1674 48.5802ZM35.3224 45.3878C36.2464 44.4653 37.3213 43.7407 38.5184 43.2348L38.3295 42.7879C37.0745 43.3183 35.9474 44.0781 34.9796 45.0444L35.3224 45.3878ZM38.5184 43.2348C39.7575 42.7111 41.0735 42.4457 42.4317 42.4457V41.9605C41.0092 41.9605 39.6289 42.2387 38.3295 42.7879L38.5184 43.2348ZM42.4317 41.5033C36.3583 41.5033 31.4346 46.4214 31.4346 52.4891H31.9199C31.9199 46.6899 36.6258 41.9885 42.4317 41.9885V41.5033ZM31.4346 52.4891C31.4346 58.5568 36.3583 63.475 42.4317 63.475V62.9897C36.6258 62.9897 31.9199 58.2884 31.9199 52.4891H31.4346ZM42.4317 63.475C48.5051 63.475 53.4287 58.5568 53.4287 52.4891H52.9435C52.9435 58.2884 48.2375 62.9897 42.4317 62.9897V63.475ZM53.4287 52.4891C53.4287 46.4214 48.5051 41.5033 42.4317 41.5033V41.9885C48.2375 41.9885 52.9435 46.6899 52.9435 52.4891H53.4287Z" fill="#413930" mask="url(#path-18-inside-5_497_2644)"/>
<path d="M85.2438 45.1403C89.3069 49.1992 89.3069 55.7799 85.2438 59.8388C81.1807 63.8977 74.5931 63.8976 70.53 59.8388C66.4669 55.7799 66.4669 49.1992 70.53 45.1403C74.5931 41.0815 81.1807 41.0815 85.2438 45.1403Z" fill="#413930" stroke="#413930" stroke-width="0.242613"/>
<mask id="path-21-inside-6_497_2644" fill="white">
<path d="M77.8865 42.2031C79.2768 42.2031 80.6254 42.4749 81.8942 43.0113C83.1203 43.5295 84.2218 44.2712 85.1671 45.2161C86.1125 46.161 86.8555 47.2608 87.3742 48.4856C87.9112 49.7535 88.1832 51.1002 88.1832 52.4891C88.1832 53.878 87.9112 55.2252 87.3742 56.4927C86.8555 57.7175 86.113 58.8178 85.1671 59.7622C84.2213 60.7066 83.1203 61.4487 81.8942 61.9669C80.6249 62.5034 79.2768 62.7751 77.8865 62.7751C76.4962 62.7751 75.1475 62.5034 73.8788 61.9669C72.6527 61.4487 71.5512 60.7071 70.6059 59.7622C69.66 58.8173 68.9175 57.7175 68.3988 56.4927C67.8618 55.2247 67.5898 53.878 67.5898 52.4891C67.5898 51.1002 67.8618 49.753 68.3988 48.4856C68.9175 47.2608 69.66 46.1604 70.6059 45.2161C71.5517 44.2712 72.6527 43.5295 73.8788 43.0113C75.1481 42.4749 76.4962 42.2031 77.8865 42.2031ZM77.8865 41.7459C71.9469 41.7459 67.1321 46.5557 67.1321 52.4891C67.1321 58.4226 71.9469 63.2323 77.8865 63.2323C83.8261 63.2323 88.6409 58.4226 88.6409 52.4891C88.6409 46.5557 83.8261 41.7459 77.8865 41.7459Z"/>
</mask>
<path d="M77.8865 42.2031C79.2768 42.2031 80.6254 42.4749 81.8942 43.0113C83.1203 43.5295 84.2218 44.2712 85.1671 45.2161C86.1125 46.161 86.8555 47.2608 87.3742 48.4856C87.9112 49.7535 88.1832 51.1002 88.1832 52.4891C88.1832 53.878 87.9112 55.2252 87.3742 56.4927C86.8555 57.7175 86.113 58.8178 85.1671 59.7622C84.2213 60.7066 83.1203 61.4487 81.8942 61.9669C80.6249 62.5034 79.2768 62.7751 77.8865 62.7751C76.4962 62.7751 75.1475 62.5034 73.8788 61.9669C72.6527 61.4487 71.5512 60.7071 70.6059 59.7622C69.66 58.8173 68.9175 57.7175 68.3988 56.4927C67.8618 55.2247 67.5898 53.878 67.5898 52.4891C67.5898 51.1002 67.8618 49.753 68.3988 48.4856C68.9175 47.2608 69.66 46.1604 70.6059 45.2161C71.5517 44.2712 72.6527 43.5295 73.8788 43.0113C75.1481 42.4749 76.4962 42.2031 77.8865 42.2031ZM77.8865 41.7459C71.9469 41.7459 67.1321 46.5557 67.1321 52.4891C67.1321 58.4226 71.9469 63.2323 77.8865 63.2323C83.8261 63.2323 88.6409 58.4226 88.6409 52.4891C88.6409 46.5557 83.8261 41.7459 77.8865 41.7459Z" fill="#413930"/>
<path d="M81.8942 43.0113L81.7997 43.2348L81.7998 43.2348L81.8942 43.0113ZM87.3742 48.4856L87.1508 48.5802L87.1508 48.5802L87.3742 48.4856ZM87.3742 56.4927L87.1508 56.398L87.1508 56.3981L87.3742 56.4927ZM81.8942 61.9669L81.7998 61.7434L81.7998 61.7434L81.8942 61.9669ZM73.8788 61.9669L73.9732 61.7435L73.9732 61.7434L73.8788 61.9669ZM70.6059 59.7622L70.7774 59.5906L70.7773 59.5905L70.6059 59.7622ZM68.3988 56.4927L68.6222 56.3981L68.6222 56.3981L68.3988 56.4927ZM68.3988 48.4856L68.6222 48.5802L68.6222 48.5802L68.3988 48.4856ZM70.6059 45.2161L70.7773 45.3878L70.7773 45.3877L70.6059 45.2161ZM73.8788 43.0113L73.9732 43.2348L73.9732 43.2348L73.8788 43.0113ZM77.8865 42.4457C79.2447 42.4457 80.5612 42.7111 81.7997 43.2348L81.9887 42.7879C80.6897 42.2387 79.3089 41.9605 77.8865 41.9605V42.4457ZM81.7998 43.2348C82.997 43.7408 84.0723 44.4648 84.9956 45.3877L85.3386 45.0445C84.3712 44.0776 83.2436 43.3182 81.9887 42.7879L81.7998 43.2348ZM84.9956 45.3877C85.9191 46.3106 86.6443 47.3844 87.1508 48.5802L87.5976 48.391C87.0666 47.1372 86.3059 46.0113 85.3386 45.0445L84.9956 45.3877ZM87.1508 48.5802C87.675 49.8179 87.9406 51.1325 87.9406 52.4891H88.4258C88.4258 51.068 88.1474 49.6891 87.5976 48.391L87.1508 48.5802ZM87.9406 52.4891C87.9406 53.8458 87.675 55.1608 87.1508 56.398L87.5975 56.5873C88.1474 55.2896 88.4258 53.9102 88.4258 52.4891H87.9406ZM87.1508 56.3981C86.6443 57.594 85.9195 58.6681 84.9957 59.5905L85.3385 59.9339C86.3065 58.9675 87.0666 57.841 87.5976 56.5873L87.1508 56.3981ZM84.9957 59.5905C84.0718 60.513 82.9969 61.2375 81.7998 61.7434L81.9887 62.1904C83.2437 61.66 84.3707 60.9001 85.3385 59.9339L84.9957 59.5905ZM81.7998 61.7434C80.5607 62.2671 79.2447 62.5325 77.8865 62.5325V63.0178C79.309 63.0178 80.6892 62.7396 81.9887 62.1904L81.7998 61.7434ZM77.8865 62.5325C76.5283 62.5325 75.2118 62.2671 73.9732 61.7435L73.7843 62.1904C75.0833 62.7396 76.4641 63.0178 77.8865 63.0178V62.5325ZM73.9732 61.7434C72.776 61.2375 71.7007 60.5134 70.7774 59.5906L70.4343 59.9338C71.4018 60.9007 72.5294 61.66 73.7843 62.1904L73.9732 61.7434ZM70.7773 59.5905C69.8534 58.6676 69.1287 57.5939 68.6222 56.3981L68.1754 56.5873C68.7064 57.841 69.4665 58.967 70.4344 59.9338L70.7773 59.5905ZM68.6222 56.3981C68.098 55.1603 67.8324 53.8458 67.8324 52.4891H67.3471C67.3471 53.9102 67.6256 55.2891 68.1754 56.5873L68.6222 56.3981ZM67.8324 52.4891C67.8324 51.1324 68.098 49.8174 68.6222 48.5802L68.1754 48.3909C67.6256 49.6886 67.3471 51.0681 67.3471 52.4891H67.8324ZM68.6222 48.5802C69.1287 47.3843 69.8535 46.3101 70.7773 45.3878L70.4344 45.0444C69.4665 46.0108 68.7064 47.1373 68.1754 48.391L68.6222 48.5802ZM70.7773 45.3877C71.7012 44.4648 72.776 43.7408 73.9732 43.2348L73.7843 42.7879C72.5293 43.3182 71.4023 44.0776 70.4344 45.0444L70.7773 45.3877ZM73.9732 43.2348C75.2123 42.7111 76.5283 42.4457 77.8865 42.4457V41.9605C76.464 41.9605 75.0838 42.2387 73.7843 42.7879L73.9732 43.2348ZM77.8865 41.5033C71.8131 41.5033 66.8895 46.4214 66.8895 52.4891H67.3747C67.3747 46.6899 72.0806 41.9885 77.8865 41.9885V41.5033ZM66.8895 52.4891C66.8895 58.5568 71.8131 63.475 77.8865 63.475V62.9897C72.0806 62.9897 67.3747 58.2884 67.3747 52.4891H66.8895ZM77.8865 63.475C83.9599 63.475 88.8835 58.5568 88.8835 52.4891H88.3983C88.3983 58.2884 83.6924 62.9897 77.8865 62.9897V63.475ZM88.8835 52.4891C88.8835 46.4214 83.9599 41.5033 77.8865 41.5033V41.9885C83.6924 41.9885 88.3983 46.6899 88.3983 52.4891H88.8835Z" fill="#413930" mask="url(#path-21-inside-6_497_2644)"/>
<path d="M38.6407 52.4891C40.781 52.4891 42.5162 50.7558 42.5162 48.6176C42.5162 46.4795 40.781 44.7462 38.6407 44.7462C36.5003 44.7462 34.7651 46.4795 34.7651 48.6176C34.7651 50.7558 36.5003 52.4891 38.6407 52.4891Z" fill="#F2EFED" stroke="#413930" stroke-width="2.18351" stroke-miterlimit="10"/>
<path d="M34.7651 54.3204C35.4754 54.3204 36.0512 53.7453 36.0512 53.0357C36.0512 52.3262 35.4754 51.751 34.7651 51.751C34.0548 51.751 33.479 52.3262 33.479 53.0357C33.479 53.7453 34.0548 54.3204 34.7651 54.3204Z" fill="#F2EFED" stroke="#413930" stroke-width="0.725412" stroke-miterlimit="10"/>
<path d="M75.1199 50.4485C77.2603 50.4485 78.9954 48.7152 78.9954 46.577C78.9954 44.4389 77.2603 42.7056 75.1199 42.7056C72.9795 42.7056 71.2444 44.4389 71.2444 46.577C71.2444 48.7152 72.9795 50.4485 75.1199 50.4485Z" fill="#F2EFED" stroke="#413930" stroke-width="2.18351" stroke-miterlimit="10"/>
<path d="M71.2439 52.4896C71.9961 52.4896 72.6058 51.8805 72.6058 51.1292C72.6058 50.3778 71.9961 49.7687 71.2439 49.7687C70.4918 49.7687 69.8821 50.3778 69.8821 51.1292C69.8821 51.8805 70.4918 52.4896 71.2439 52.4896Z" fill="#F2EFED" stroke="#413930" stroke-width="0.766656" stroke-miterlimit="10"/>
<path d="M65.0751 7.90601C67.7903 10.6184 67.7903 15.0161 65.0751 17.7285C62.3598 20.4409 57.9576 20.4409 55.2423 17.7285C52.5271 15.0161 52.5271 10.6184 55.2423 7.906C57.9576 5.19359 62.3598 5.19359 65.0751 7.90601Z" fill="#F15D22" stroke="#413930" stroke-width="0.242613"/>
<mask id="path-28-inside-7_497_2644" fill="white">
<path d="M60.159 6.15686C61.9399 6.15686 63.6144 6.84977 64.8736 8.10758C66.1327 9.3654 66.8263 11.0382 66.8263 12.8173C66.8263 14.5963 66.1327 16.2691 64.8736 17.5269C63.6144 18.7848 61.9399 19.4777 60.159 19.4777C58.3781 19.4777 56.7035 18.7848 55.4444 17.5269C54.1853 16.2691 53.4916 14.5963 53.4916 12.8173C53.4916 11.0382 54.1853 9.3654 55.4444 8.10758C56.7035 6.84977 58.3781 6.15686 60.159 6.15686ZM60.159 5.34406C56.0272 5.34406 52.678 8.68975 52.678 12.8173C52.678 16.9448 56.0272 20.2905 60.159 20.2905C64.2908 20.2905 67.64 16.9448 67.64 12.8173C67.64 8.68975 64.2908 5.34406 60.159 5.34406V5.34406Z"/>
</mask>
<path d="M60.159 6.15686C61.9399 6.15686 63.6144 6.84977 64.8736 8.10758C66.1327 9.3654 66.8263 11.0382 66.8263 12.8173C66.8263 14.5963 66.1327 16.2691 64.8736 17.5269C63.6144 18.7848 61.9399 19.4777 60.159 19.4777C58.3781 19.4777 56.7035 18.7848 55.4444 17.5269C54.1853 16.2691 53.4916 14.5963 53.4916 12.8173C53.4916 11.0382 54.1853 9.3654 55.4444 8.10758C56.7035 6.84977 58.3781 6.15686 60.159 6.15686ZM60.159 5.34406C56.0272 5.34406 52.678 8.68975 52.678 12.8173C52.678 16.9448 56.0272 20.2905 60.159 20.2905C64.2908 20.2905 67.64 16.9448 67.64 12.8173C67.64 8.68975 64.2908 5.34406 60.159 5.34406V5.34406Z" fill="#413930"/>
<path d="M60.159 5.34406H60.4016V5.10144H60.159V5.34406ZM60.159 5.34406H59.9164V5.58667H60.159V5.34406ZM60.159 6.39947C61.8756 6.39947 63.4885 7.06689 64.7021 8.27923L65.045 7.93594C63.7404 6.63266 62.0041 5.91424 60.159 5.91424V6.39947ZM64.7021 8.27923C65.9157 9.49156 66.5837 11.1027 66.5837 12.8173H67.0689C67.0689 10.9738 66.3497 9.23923 65.045 7.93594L64.7021 8.27923ZM66.5837 12.8173C66.5837 14.5319 65.9157 16.143 64.7021 17.3553L65.045 17.6986C66.3497 16.3953 67.0689 14.6607 67.0689 12.8173H66.5837ZM64.7021 17.3553C63.4885 18.5676 61.8756 19.2351 60.159 19.2351V19.7203C62.0041 19.7203 63.7404 19.0019 65.045 17.6986L64.7021 17.3553ZM60.159 19.2351C58.4424 19.2351 56.8295 18.5676 55.6158 17.3553L55.2729 17.6986C56.5776 19.0019 58.3138 19.7203 60.159 19.7203V19.2351ZM55.6158 17.3553C54.4023 16.143 53.7342 14.5319 53.7342 12.8173H53.249C53.249 14.6607 53.9683 16.3953 55.2729 17.6986L55.6158 17.3553ZM53.7342 12.8173C53.7342 11.1027 54.4023 9.49156 55.6158 8.27923L55.2729 7.93594C53.9683 9.23923 53.249 10.9738 53.249 12.8173H53.7342ZM55.6158 8.27923C56.8295 7.06689 58.4424 6.39947 60.159 6.39947V5.91424C58.3138 5.91424 56.5776 6.63266 55.2729 7.93594L55.6158 8.27923ZM60.159 5.10144C55.8934 5.10144 52.4354 8.55552 52.4354 12.8173H52.9206C52.9206 8.82398 56.1609 5.58667 60.159 5.58667V5.10144ZM52.4354 12.8173C52.4354 17.079 55.8934 20.5331 60.159 20.5331V20.0479C56.1609 20.0479 52.9206 16.8105 52.9206 12.8173H52.4354ZM60.159 20.5331C64.4245 20.5331 67.8826 17.079 67.8826 12.8173H67.3974C67.3974 16.8105 64.157 20.0479 60.159 20.0479V20.5331ZM67.8826 12.8173C67.8826 8.55552 64.4245 5.10144 60.159 5.10144V5.58667C64.157 5.58667 67.3974 8.82398 67.3974 12.8173H67.8826ZM60.4016 5.34406V5.34406H59.9164V5.34406H60.4016Z" fill="#413930" mask="url(#path-28-inside-7_497_2644)"/>
<path d="M59.4419 20.291C59.4419 20.291 60.3522 20.3026 61.0875 20.291V22.5597L59.4419 21.7225V20.291Z" fill="#E5E1DE"/>
<path d="M68.8471 94.3448H72.0539V97.1484L68.8471 96.4952V94.3448Z" fill="#E5E1DE" stroke="#413930" stroke-width="0.242613"/>
<path d="M48.2898 94.3448H51.497V97.1484L48.2898 96.4952V94.3448Z" fill="#E5E1DE" stroke="#413930" stroke-width="0.242613"/>
<path d="M88.429 87.7108C87.7754 82.1368 84.4528 74.2299 78.0071 73.0499C72.996 72.1421 69.9365 75.7733 68.5659 78.0156C68.3503 78.3651 67.969 78.5785 67.5582 78.5785H64.0995L63.5185 76.3452C63.3483 75.7574 62.8036 75.358 62.1931 75.3739H61.0674V73.6218C61.0674 73.1044 61.274 72.6096 61.6394 72.2442C62.007 71.8811 62.5018 71.6768 63.0192 71.6791C65.0913 71.6746 66.7685 69.9929 66.7685 67.9208V65.279C66.7685 64.7775 66.3622 64.3712 65.8606 64.3712C65.3591 64.3712 64.9528 64.7775 64.9528 65.279V67.9116C64.9528 68.9806 64.0881 69.8498 63.0192 69.8544C62.0183 69.8521 61.0606 70.247 60.3526 70.9551C59.6445 71.6631 59.2496 72.6209 59.2519 73.6217V75.3466H58.1444C57.5203 75.3284 56.9643 75.7415 56.8008 76.3452L56.2108 78.6056H52.7702C52.3548 78.6102 51.969 78.3968 51.7534 78.0428C50.3826 75.8096 47.3233 72.1422 42.3122 73.0771C35.8666 74.2572 32.5445 82.1551 31.8903 87.7379C31.1096 94.5646 29.294 109.498 37.1556 111.749C41.5584 113.02 46.0065 105.885 48.621 100.574V100.52C48.9773 99.7847 49.6422 99.2491 50.4366 99.0585C56.8183 97.4675 63.4974 97.4812 69.8727 99.1038C70.6602 99.3036 71.3229 99.8369 71.6883 100.565C74.3118 105.912 78.7602 113.048 83.163 111.75C91.0244 109.498 89.2088 94.5649 88.4282 87.7108L88.429 87.7108Z" fill="#E5E1DE" stroke="#413930" stroke-width="1.33333"/>
<path d="M53.4417 84.0339H56.8823V82.2183H53.4417V84.0339Z" fill="#F2EFED"/>
<path d="M63.446 84.0339H66.8684L66.8866 82.2183H63.446V84.0339Z" fill="#F2EFED"/>
<path d="M53.4417 84.0339H56.8823V82.2183H53.4417V84.0339Z" stroke="#413930" stroke-width="1.33333"/>
<path d="M63.446 84.0339H66.8684L66.8866 82.2183H63.446V84.0339Z" stroke="#413930" stroke-width="1.33333"/>
<path d="M44.3912 91.6961H48.0951L48.1132 88.3827H44.4093V84.6697H41.0958V88.3827H37.3647V91.6961H41.0958V95.4091H44.3912V91.6961Z" fill="#F2EFED"/>
<path d="M44.3912 91.6961H48.0951L48.1132 88.3827H44.4093V84.6697H41.0958V88.3827H37.3647V91.6961H41.0958V95.4091H44.3912V91.6961Z" stroke="#413930" stroke-width="1.33333"/>
<circle cx="77.7921" cy="85.5262" r="2.4" fill="#5E91FF" stroke="#413930" stroke-width="1.33"/>
<circle cx="73.6446" cy="90.3262" r="2.4" fill="#FAB82B" stroke="#413930" stroke-width="1.33"/>
<circle cx="82.129" cy="90.3262" r="2.4" fill="#F15D22" stroke="#413930" stroke-width="1.33"/>
<circle cx="77.7921" cy="94.5827" r="2.4" fill="#F2EFED" stroke="#413930" stroke-width="1.33"/>
<path d="M36.1844 111.545L35.6175 111.545C30.9596 111.545 27.1699 107.751 27.1699 103.088C27.1699 98.4255 30.9596 94.6319 35.6175 94.6319L36.1844 94.6319L36.1844 111.545Z" fill="#F2EFED"/>
<path d="M27.6016 103.088C27.6016 100.945 28.4353 98.9301 29.9496 97.4146C31.4635 95.8992 33.4767 95.0642 35.6174 95.0642L35.7525 95.0642L35.7525 111.112L35.6174 111.112C33.4762 111.112 31.4635 110.278 29.9496 108.762C28.4358 107.247 27.6016 105.231 27.6016 103.088ZM26.738 103.088C26.738 107.997 30.7137 111.977 35.6174 111.977L36.6161 111.977L36.6161 94.1997L35.6174 94.1997C30.7137 94.1997 26.738 98.1795 26.738 103.088Z" fill="#413930"/>
<path d="M35.7638 111.132L35.7638 95.0495C35.7638 95.0495 30.4399 94.6874 28.0376 100.333C28.0376 100.333 35.7638 93.7446 35.7638 111.132Z" fill="#E5E1DE"/>
<path d="M83.3256 94.9913L83.8925 94.9913C88.5504 94.9913 92.3401 98.7849 92.3401 103.448C92.3401 108.11 88.5504 111.904 83.8925 111.904L83.3256 111.904L83.3256 94.9913Z" fill="#F2EFED"/>
<path d="M91.9084 103.448C91.9084 105.591 91.0747 107.606 89.5604 109.121C88.0465 110.637 86.0333 111.472 83.8926 111.472L83.7575 111.472L83.7575 95.4235L83.8926 95.4235C86.0338 95.4235 88.0465 96.258 89.5604 97.774C91.0742 99.2894 91.9084 101.305 91.9084 103.448ZM92.772 103.448C92.772 98.5388 88.7964 94.559 83.8926 94.559L82.8939 94.559L82.8939 112.336L83.8926 112.336C88.7964 112.336 92.772 108.356 92.772 103.448Z" fill="#413930"/>
<path d="M87.6493 101.872C86.7712 100.832 84.897 99.7781 83.7878 100.089V95.3807C88.7303 95.6725 91.0739 98.7397 91.649 101.257C92.6035 105.435 90.6549 108.247 88.9054 109.604C89.4118 106.719 89.6321 104.222 87.6493 101.872Z" fill="#908B85"/>
<path d="M94.6929 87.9244C94.1509 84.8839 92.2976 82.2992 91.2246 80.93L93.4531 79.0859C94.306 80.29 95.4655 82.5022 96.2181 85.1513C96.9707 87.8005 96.3377 93.3159 95.497 95.1435C95.4719 94.0146 95.2348 90.9649 94.6929 87.9244Z" fill="#908B85"/>
</svg>
