<svg width="120" height="120" viewBox="0 0 120 120" fill="none" xmlns="http://www.w3.org/2000/svg">
<path d="M33.8497 68.0389L29.6084 108.015L33.9913 108.479L38.2326 68.503L33.8497 68.0389Z" fill="#F2EFED"/>
<path d="M34.2394 68.5182L37.7461 68.8895L33.6004 107.99L30.0932 107.619L34.2389 68.5182M33.4558 67.55L29.1245 108.401L34.384 108.958L38.7153 68.1066L33.4558 67.55Z" fill="#413930"/>
<path d="M54.6597 70.2413L50.4185 110.217L54.8014 110.681L59.0426 70.7053L54.6597 70.2413Z" fill="#F2EFED"/>
<path d="M55.0479 70.7198L58.5551 71.091L54.4094 110.192L50.9027 109.82L55.0485 70.7198M54.2653 69.7516L49.9341 110.603L55.1936 111.159L59.5248 70.3082L54.2653 69.7516Z" fill="#413930"/>
<path d="M62.9359 99.2004C60.1103 99.2004 57.3157 98.4502 54.8539 97.0311L29.3038 82.3033C25.5551 80.1427 22.873 76.6526 21.7519 72.477C20.6309 68.3013 21.2046 63.9393 23.3674 60.1945L26.1459 55.3841L79.764 86.2904L76.9855 91.1008C75.5369 93.6083 73.4456 95.6824 70.9366 97.0984C68.5002 98.4735 65.7336 99.2004 62.9359 99.2004Z" fill="#F2EFED"/>
<path d="M26.307 55.9858L79.1621 86.452L76.6039 90.8814C75.1947 93.321 73.1599 95.3381 70.7199 96.7158C68.3498 98.0537 65.6578 98.7609 62.9358 98.7609C60.2138 98.7609 57.469 98.0314 55.0741 96.6506L29.5239 81.9233C27.6804 80.8609 26.1007 79.4697 24.8288 77.7886C23.6 76.1649 22.708 74.3394 22.1773 72.3642C21.6466 70.3884 21.5051 68.3625 21.7555 66.3423C22.0146 64.2511 22.6852 62.2572 23.7493 60.4156L26.3075 55.9863M25.9846 54.7841L22.9858 59.9755C18.3918 67.9286 21.1221 78.0966 29.0834 82.6854L54.6335 97.4127C57.2534 98.923 60.1138 99.6411 62.9358 99.6411C68.6893 99.6411 74.2851 96.6573 77.3668 91.3214L80.3656 86.13L25.9846 54.7836V54.7841Z" fill="#413930"/>
<path d="M26.4072 70.4655C26.4072 70.4655 29.3464 78.3492 49.8791 89.4668L66.9875 98.2322C66.9875 98.2322 72.7901 96.8504 75.4976 92.5308C75.4976 92.5308 34.1876 76.7499 26.4072 70.466V70.4655Z" fill="#E5E1DE"/>
<path d="M78.765 23.8211L72.3418 34.9394L74.5575 36.2168L80.9807 25.0985L78.765 23.8211Z" fill="#F2EFED"/>
<path d="M78.9228 24.4181L80.3755 25.2553L74.3935 35.6118L72.9408 34.7746L78.9228 24.4181ZM78.5999 23.2159L78.1593 23.9781L72.1774 34.3345L71.7368 35.0967L72.4997 35.5367L73.9525 36.3739L74.7154 36.814L75.1559 36.0519L81.1379 25.6954L81.5784 24.9333L80.8155 24.4932L79.3628 23.656L78.5999 23.2159Z" fill="#413930"/>
<path d="M72.7858 93.8666C67.9265 93.8666 63.1194 92.5763 58.8856 90.1357L33.2619 75.3659C30.0034 73.4875 27.211 71.0282 24.9616 68.0559C22.789 65.185 21.2119 61.9584 20.2743 58.4662C19.3367 54.974 19.0859 51.3922 19.5285 47.8203C19.9867 44.1225 21.1725 40.5972 23.0528 37.3421C25.5437 33.0293 29.141 29.4626 33.4562 27.0271C37.646 24.6625 42.4038 23.4122 47.2155 23.4122C52.0272 23.4122 56.8819 24.7024 61.1157 27.143L86.7395 41.9128C89.9979 43.7912 92.7904 46.2505 95.0397 49.2229C97.2123 52.0938 98.7895 55.3203 99.727 58.8125C100.665 62.3047 100.915 65.8865 100.473 69.4584C100.015 73.1562 98.8288 76.6815 96.9485 79.9366C94.4577 84.2494 90.8603 87.8162 86.5451 90.2511C82.3553 92.6157 77.5975 93.866 72.7858 93.866V93.8666Z" fill="#F2EFED"/>
<path d="M47.2154 23.8528C49.5674 23.8528 51.9105 24.1562 54.1795 24.7552C56.5191 25.3729 58.7787 26.3043 60.8954 27.5247L86.5191 42.2944C89.7262 44.1433 92.4747 46.5637 94.6882 49.4885C96.8267 52.3143 98.3784 55.4897 99.3014 58.927C100.224 62.3643 100.471 65.8897 100.036 69.4046C99.5849 73.0434 98.4178 76.5133 96.567 79.7171C95.3221 81.872 93.7999 83.8409 92.0419 85.5692C90.3378 87.2441 88.4155 88.6907 86.3284 89.8686C82.2044 92.1963 77.5218 93.4265 72.7863 93.4265C70.4338 93.4265 68.0907 93.1231 65.8222 92.5241C63.4827 91.9064 61.223 90.975 59.1063 89.7546L33.4826 74.9849C30.2755 73.136 27.527 70.7156 25.3135 67.7908C23.175 64.9655 21.6233 61.7896 20.7003 58.3523C19.7772 54.915 19.5305 51.3896 19.9659 47.8747C20.4168 44.2359 21.5839 40.766 23.4347 37.5622L23.4383 37.556C24.6822 35.4032 26.2039 33.4368 27.9598 31.7106C29.6639 30.0357 31.5862 28.5891 33.6733 27.4113C37.7973 25.084 42.4799 23.8533 47.2159 23.8533M47.2159 22.9731C37.4308 22.9731 27.9137 28.0476 22.6718 37.1226C14.8587 50.6493 19.502 67.9425 33.0426 75.7475L58.6663 90.5173C63.1224 93.0858 67.987 94.3067 72.7868 94.3067C82.5719 94.3067 92.0891 89.2322 97.3309 80.1572C105.144 66.6305 100.501 49.3373 86.9602 41.5323L61.3365 26.7625C56.8803 24.194 52.0162 22.9731 47.2159 22.9731Z" fill="#413930"/>
<path d="M79.533 74.6898C77.4339 74.6898 75.3582 74.1327 73.5292 73.0786L40.7159 54.1643C37.9312 52.5593 35.939 49.9669 35.1061 46.8651C34.2732 43.7633 34.6992 40.5227 36.3059 37.7414C37.3818 35.8785 38.9356 34.3383 40.7994 33.2862C42.6092 32.2647 44.6642 31.7247 46.7425 31.7247C48.8208 31.7247 50.9172 32.2818 52.7462 33.3359L85.5595 52.2497C88.3442 53.8547 90.3365 56.4471 91.1694 59.5489C92.0023 62.6507 91.5762 65.8913 89.9696 68.6731C88.8936 70.536 87.3398 72.0763 85.4761 73.1283C83.6663 74.1498 81.6113 74.6898 79.533 74.6898Z" fill="#F15D22"/>
<path d="M46.7437 32.1388C48.7696 32.1388 50.7738 32.6768 52.5401 33.6946L85.3534 52.6084C86.7128 53.3918 87.8774 54.4174 88.815 55.6564C89.7209 56.8534 90.3786 58.1996 90.7699 59.656C91.1612 61.1129 91.2659 62.6066 91.0809 64.0962C90.8896 65.638 90.3952 67.1079 89.611 68.466C88.5719 70.2646 87.072 71.7521 85.273 72.7674C83.5254 73.7537 81.5409 74.2751 79.5336 74.2751C77.5263 74.2751 75.503 73.7371 73.7372 72.7192L40.9234 53.8055C39.5639 53.0221 38.3994 51.9965 37.4618 50.7575C36.5558 49.5605 35.8981 48.2143 35.5068 46.7579C35.1155 45.301 35.0108 43.8073 35.1959 42.3177C35.3871 40.7759 35.8816 39.306 36.6657 37.9479C37.7049 36.1493 39.2048 34.6618 41.0037 33.6465C42.7513 32.6602 44.7358 32.1388 46.7431 32.1388M46.7431 31.3104C42.4393 31.3104 38.2532 33.5424 35.9474 37.5343C32.5107 43.4842 34.5532 51.0904 40.5088 54.5236L73.322 73.4374C75.2822 74.5671 77.4216 75.104 79.5331 75.104C83.8369 75.104 88.023 72.872 90.3289 68.8802C93.7656 62.9302 91.723 55.324 85.7675 51.8908L52.9542 32.977C50.9941 31.8473 48.8546 31.3104 46.7431 31.3104Z" fill="#413930"/>
<path d="M35.2612 45.8291L84.9694 73.032C84.9694 73.032 80.8708 74.6189 79.1921 74.2327C77.5134 73.8464 76.8718 74.7561 71.5283 71.4436L40.4072 53.5332C40.4072 53.5332 36.5077 51.4694 35.2612 45.8291Z" fill="#C04A1B"/>
<path d="M47.4791 54.9051C45.6087 54.9051 43.7579 54.4086 42.1279 53.4689C39.6459 52.0384 37.8702 49.7277 37.1281 46.9629C36.3859 44.1982 36.7658 41.3102 38.1978 38.8307C39.1566 37.1703 40.5415 35.7972 42.2025 34.8601C43.8154 33.9499 45.647 33.4684 47.4994 33.4684C49.3517 33.4684 51.2206 33.9649 52.8506 34.9046C55.3326 36.3351 57.1082 38.6458 57.8504 41.4106C58.5926 44.1754 58.2127 47.0634 56.7807 49.5429C55.8219 51.2033 54.437 52.5763 52.776 53.514C51.1631 54.4242 49.3315 54.9057 47.4791 54.9057V54.9051Z" fill="#413930"/>
<path d="M47.4998 33.7014C49.3293 33.7014 51.1397 34.187 52.7344 35.1065C53.9617 35.8138 55.0133 36.74 55.8602 37.8594C56.6785 38.9405 57.2725 40.1556 57.6254 41.4712C57.9784 42.7863 58.0732 44.1355 57.9063 45.4806C57.7337 46.8728 57.287 48.2004 56.579 49.4264C55.6409 51.0505 54.2861 52.3936 52.6613 53.311C51.0832 54.2015 49.2915 54.6727 47.4791 54.6727C45.6666 54.6727 43.8392 54.187 42.2444 53.2675C41.0172 52.5603 39.9656 51.634 39.1187 50.5147C38.3003 49.4336 37.7064 48.2185 37.3534 46.9029C37.0005 45.5878 36.9057 44.2386 37.0725 42.8934C37.2451 41.5012 37.6919 40.1737 38.3999 38.9477C39.3379 37.3235 40.6927 35.9805 42.3175 35.0631C43.8957 34.1725 45.6874 33.7014 47.4998 33.7014ZM47.4998 33.2354C43.7107 33.2354 40.0257 35.2003 37.9961 38.7142C34.9709 43.9522 36.7688 50.6483 42.0117 53.6703C43.7371 54.6649 45.621 55.1376 47.4796 55.1376C51.2687 55.1376 54.9537 53.1728 56.9833 49.6588C60.0085 44.4208 58.2106 37.7248 52.9676 34.7027C51.2423 33.7081 49.3583 33.2354 47.4998 33.2354Z" fill="#413930"/>
<path d="M78.7767 72.9461C76.9062 72.9461 75.0555 72.4496 73.4255 71.5098C68.3018 68.5566 66.5391 61.99 69.4954 56.8716C70.4542 55.2112 71.839 53.8381 73.5001 52.9005C75.113 51.9903 76.9446 51.5088 78.7969 51.5088C80.6493 51.5088 82.5182 52.0053 84.1482 52.945C89.2713 55.8982 91.0345 62.4648 88.0783 67.5833C87.1194 69.2437 85.7346 70.6167 84.0735 71.5544C82.4606 72.4646 80.629 72.9461 78.7767 72.9461Z" fill="#413930"/>
<path d="M78.7977 51.7423C80.6272 51.7423 82.4375 52.2279 84.0323 53.1474C85.2596 53.8547 86.3111 54.7809 87.158 55.9003C87.9764 56.9814 88.5703 58.1965 88.9233 59.5121C89.2762 60.8272 89.3711 62.1764 89.2042 63.5215C89.0316 64.9137 88.5848 66.2412 87.8769 67.4673C86.9388 69.0914 85.584 70.4345 83.9592 71.3519C82.381 72.2424 80.5893 72.7136 78.7769 72.7136C76.9645 72.7136 75.137 72.2279 73.5423 71.3084C72.315 70.6012 71.2634 69.6749 70.4166 68.5556C69.5982 67.4745 69.0042 66.2594 68.6513 64.9438C68.2984 63.6287 68.2035 62.2794 68.3704 60.9343C68.543 59.5421 68.9897 58.2146 69.6977 56.9886C70.6358 55.3644 71.9906 54.0214 73.6154 53.1039C75.1935 52.2134 76.9852 51.7423 78.7977 51.7423ZM78.7977 51.2763C75.0085 51.2763 71.3235 53.2412 69.294 56.7551C66.2688 61.9931 68.0667 68.6891 73.3096 71.7112C75.0349 72.7058 76.9189 73.1785 78.7774 73.1785C82.5666 73.1785 86.2515 71.2137 88.2811 67.6997C91.3063 62.4617 89.5084 55.7657 84.2655 52.7436C82.5401 51.749 80.6562 51.2763 78.7977 51.2763Z" fill="#413930"/>
<path d="M46.1163 42.7858C48.2977 42.7858 50.0661 41.0192 50.0661 38.84C50.0661 36.6609 48.2977 34.8943 46.1163 34.8943C43.9349 34.8943 42.1665 36.6609 42.1665 38.84C42.1665 41.0192 43.9349 42.7858 46.1163 42.7858Z" fill="#F2EFED" stroke="#413930" stroke-width="2.18351" stroke-miterlimit="10"/>
<path d="M40.4426 42.0775C41.1665 42.0775 41.7533 41.4913 41.7533 40.7681C41.7533 40.045 41.1665 39.4587 40.4426 39.4587C39.7187 39.4587 39.1318 40.045 39.1318 40.7681C39.1318 41.4913 39.7187 42.0775 40.4426 42.0775Z" fill="#F2EFED" stroke="#413930" stroke-width="0.725412" stroke-miterlimit="10"/>
<path d="M79.3595 59.5462C81.5409 59.5462 83.3093 57.7796 83.3093 55.6005C83.3093 53.4213 81.5409 51.6547 79.3595 51.6547C77.1781 51.6547 75.4097 53.4213 75.4097 55.6005C75.4097 57.7796 77.1781 59.5462 79.3595 59.5462Z" fill="#F2EFED" stroke="#413930" stroke-width="2.18351" stroke-miterlimit="10"/>
<path d="M73.617 59.0332C74.3835 59.0332 75.0049 58.4124 75.0049 57.6467C75.0049 56.8809 74.3835 56.2601 73.617 56.2601C72.8504 56.2601 72.229 56.8809 72.229 57.6467C72.229 58.4124 72.8504 59.0332 73.617 59.0332Z" fill="#F2EFED" stroke="#413930" stroke-width="0.766656" stroke-miterlimit="10"/>
<path d="M83.3595 25.39C82.1022 25.39 80.8588 25.056 79.7632 24.4249C78.0954 23.4635 76.9018 21.9107 76.4027 20.0525C75.9035 18.1944 76.1591 16.2533 77.1215 14.5867C78.4058 12.3635 80.8013 10.9827 83.3735 10.9827C84.6303 10.9827 85.8742 11.3166 86.9698 11.9477C90.4133 13.9328 91.5981 18.3461 89.6115 21.786C88.3272 24.0092 85.9317 25.39 83.3595 25.39Z" fill="#F15D22"/>
<path d="M83.3733 10.568V11.3964C84.5576 11.3964 85.7294 11.7112 86.7624 12.3061C88.3343 13.2121 89.4595 14.6758 89.9296 16.4273C90.3997 18.1789 90.1592 20.0081 89.2522 21.5784C88.6448 22.6299 87.7678 23.4997 86.7157 24.0936C85.6937 24.6704 84.5327 24.9753 83.3594 24.9753C82.186 24.9753 81.0027 24.6605 79.9703 24.0656C78.3984 23.1596 77.2732 21.6959 76.8031 19.9444C76.333 18.1928 76.5735 16.3636 77.4805 14.7933C78.0879 13.7418 78.9649 12.872 80.017 12.2781C81.039 11.7013 82.2 11.3964 83.3733 11.3964V10.568ZM83.3733 10.568C80.7379 10.568 78.174 11.9348 76.7622 14.3791C74.6574 18.0225 75.9081 22.6807 79.5557 24.7832C80.756 25.4749 82.0662 25.8042 83.3594 25.8042C85.9948 25.8042 88.5587 24.4374 89.9705 21.9931C92.0752 18.3497 90.8246 13.6916 87.177 11.589C85.9767 10.8968 84.6665 10.568 83.3733 10.568Z" fill="#413930"/>
<path d="M22.2642 111.589V111.011C22.2642 106.264 26.1305 102.401 30.8826 102.401C35.6347 102.401 39.5011 106.264 39.5011 111.011V111.589H22.2642Z" fill="#F2EFED"/>
<path d="M30.8827 102.841C33.0673 102.841 35.1207 103.691 36.6652 105.234C38.2096 106.777 39.0607 108.829 39.0607 111.011V111.148H22.7048V111.011C22.7048 108.828 23.5553 106.777 25.1003 105.234C26.6448 103.691 28.6987 102.841 30.8827 102.841ZM30.8827 101.961C25.8798 101.961 21.8237 106.013 21.8237 111.011V112.029H39.9417V111.011C39.9417 106.013 35.8857 101.961 30.8827 101.961Z" fill="#413930"/>
<path d="M43.1895 111.589V111.011C43.1895 106.264 47.0558 102.401 51.8079 102.401C56.56 102.401 60.4264 106.264 60.4264 111.011V111.589H43.1895Z" fill="#F2EFED"/>
<path d="M51.808 102.841C53.9926 102.841 56.046 103.691 57.5905 105.234C59.1349 106.777 59.986 108.829 59.986 111.011V111.148H43.6301V111.011C43.6301 108.828 44.4806 106.777 46.0256 105.234C47.5701 103.691 49.624 102.841 51.808 102.841ZM51.808 101.961C46.8051 101.961 42.749 106.013 42.749 111.011V112.029H60.867V111.011C60.867 106.013 56.811 101.961 51.808 101.961Z" fill="#413930"/>
<path d="M78.9219 24.4185C78.9219 24.4185 79.7241 24.9055 80.3909 25.2666L78.3874 28.7367L77.6577 26.608L78.9219 24.4185Z" fill="#E5E1DE"/>
<path d="M43.6045 111.16H59.9956C59.9956 111.16 60.3646 105.734 54.6112 103.286C54.6112 103.286 61.3255 111.16 43.6045 111.16Z" fill="#E5E1DE"/>
<path d="M22.6846 111.16H39.0757C39.0757 111.16 39.4447 105.734 33.6913 103.286C33.6913 103.286 40.4056 111.16 22.6846 111.16Z" fill="#E5E1DE"/>
<path d="M52.3747 96.1255L55.7021 97.9786L55.3123 101.72L52.084 98.5533L52.3747 96.1255Z" fill="#E5E1DE"/>
<path d="M32.5547 84.6865L35.8805 86.6037L35.3923 91.1034L32.1919 87.7717L32.5547 84.6865Z" fill="#E5E1DE"/>
</svg>
