<svg width="120" height="120" viewBox="0 0 120 120" fill="none" xmlns="http://www.w3.org/2000/svg">
<path d="M92.197 83.6516V85.3046L73.0398 81.444C71.8014 85.5792 66.8369 88.7507 61.0486 88.7507C55.2604 88.7507 50.2959 85.5792 49.0575 81.3094L30.0339 85.0301V83.3771C30.0339 74.0027 32.6507 67.2509 38.579 61.5967C36.5114 34.8581 48.5025 17.9022 60.3594 11.0101L61.0486 10.5955L61.7378 11.0101C73.5945 17.9022 85.4453 34.8581 83.5182 61.5967C89.5811 67.245 92.198 74.0024 92.198 83.6514L92.197 83.6516Z" fill="#F15D22"/>
<path d="M74.3231 38.4961C72.9999 29.2321 65.0222 16.6963 61.1987 11.5864C67.4069 13.5669 75.865 25.3956 79.0448 32.8363C82.2585 40.3564 83.3692 49.9433 82.7047 59.0091L74.3231 63.6411C74.8745 59.1194 75.6464 47.76 74.3231 38.4961Z" fill="#C04A1B"/>
<path d="M66.9249 30.5958L66.9254 30.5964C69.8556 33.7696 69.6199 38.7907 66.4331 41.7286L66.4319 41.7297C63.2649 44.6585 58.2438 44.4244 55.2998 41.2362C52.3696 38.063 52.6053 33.0419 55.7921 30.104L55.7927 30.1035C58.9659 27.1733 63.987 27.409 66.9249 30.5958Z" fill="#5E91FF" stroke="#413930" stroke-width="2"/>
<path d="M88.2209 68.6242C92.505 75.4159 92.3511 86.8537 91.6195 84.5549C91.2706 83.4583 88.878 76.7585 84.6122 71.4014C81.9497 68.0578 79.3185 66.1867 76.2598 64.5975L81.3798 60C82.2853 60.9056 84.7937 63.1907 88.2209 68.6242Z" fill="#F15D22"/>
<path d="M64.5497 84.339C61.5769 87.2178 55.1845 86.6178 54.7646 86.7017C56.2536 88.1904 62.7385 89.031 67.0874 87.137C69.9376 85.8956 72.0393 82.3778 72.6196 80.4612L66.8204 79.6578C66.8204 79.6578 67.5225 81.4603 64.5497 84.339Z" fill="#F15D22"/>
<path d="M65.8245 99.3772C65.8245 101.655 64.5346 104.716 63.1256 107.336C62.4364 108.617 61.7459 109.745 61.2274 110.553C61.2218 110.561 61.2163 110.57 61.2108 110.579C61.1943 110.552 61.1777 110.524 61.1608 110.497C60.6403 109.645 59.9474 108.465 59.2557 107.146C58.5627 105.825 57.8792 104.38 57.3712 102.999C56.8567 101.601 56.552 100.345 56.552 99.3772C56.552 95.8258 58.7722 93.3301 61.1882 93.3301C63.5981 93.3301 65.8245 95.8266 65.8245 99.3772Z" fill="#F15D22" stroke="#413930" stroke-width="2"/>
<path d="M61.2663 57.2939C49.2219 57.2939 43.6619 53.9232 39.3866 51.4751C39.3866 51.4751 39.2385 54.11 39.2385 56.2908C39.2385 58.4716 39.5303 61.679 39.5303 61.679C44.0178 64.2618 49.4819 67.1611 61.2663 67.1611C73.0508 67.1611 78.1761 64.1062 82.6135 61.7291C82.6135 61.7291 82.8287 58.0163 82.8287 56.498C82.8287 54.9797 82.7158 51.8082 82.7158 51.8082C77.7321 54.919 73.3108 57.2939 61.2663 57.2939Z" fill="#F2EFED"/>
<path d="M91.197 83.3349V83.6516V84.083L73.2373 80.4637L72.3434 80.2835L72.0818 81.1571C71.0089 84.7397 66.5468 87.7507 61.0486 87.7507C55.5558 87.7507 51.0951 84.745 50.0179 81.0309L49.7632 80.1525L48.8656 80.328L31.0339 83.8155V83.3771C31.0339 74.2286 33.5707 67.7554 39.2692 62.3203L39.6126 61.9927L39.5761 61.5196C37.5356 35.132 49.3637 18.5583 60.862 11.8746L60.8685 11.8708L60.8749 11.867L61.0486 11.7625L61.2224 11.867L61.2288 11.8708L61.2353 11.8746C72.7294 18.556 84.4232 35.1286 82.5208 61.5248L82.4864 62.0021L82.8366 62.3283C88.5936 67.6918 91.1406 74.0791 91.197 83.3349Z" stroke="#413930" stroke-width="2"/>
</svg>
