<svg width="164" height="197" viewBox="0 0 164 197" fill="none" xmlns="http://www.w3.org/2000/svg">
<path d="M140.161 172.618C136.463 182.029 85.0491 181.274 69.1223 180.693C53.1955 180.113 38.1899 176.892 38.1899 172.618C38.1899 168.344 47.5952 158.477 61.6891 158.477C78.0291 158.477 88.7599 160.89 100.611 163.786C117.694 169.687 144.432 161.751 140.161 172.618Z" fill="#EFECEA"/>
<path d="M53.1026 111.972C53.5576 103.963 61.2328 81.459 62.2036 80.2234H100.883L105.585 85.3717L106.799 110.255C102.552 109.626 91.6058 103.048 81.0124 103.048C67.0575 103.048 57.8048 109.626 53.1026 111.972Z" fill="#413930"/>
<path d="M56.5185 81.4245C40.5183 84.5719 18.6775 101.496 20.5653 111.635C20.9312 113.6 24.375 114.249 26.3996 113.754C33.1218 115.692 45.4474 111.138 54.0597 107.037C58.8215 101.519 62.8037 100.547 63.7839 91.7977C69.3073 87.7995 60.232 80.694 56.5185 81.4245Z" fill="#413930" stroke="#413930" stroke-width="2"/>
<path d="M100.798 152.871C97.6766 149.992 96.5538 144.735 100.799 138.971C105.044 133.208 109.312 128.301 114.664 131.066C120.015 133.832 123.254 137.734 126.643 143.082C130.576 149.29 132.398 157.269 133.632 157.914C136.599 159.463 137.424 165.461 136.161 167.307C134.898 169.153 130.989 169.519 122.451 167.307C118.929 166.395 117.284 162.297 111.497 157.914C108.471 155.622 102.462 154.405 100.798 152.871Z" fill="#413930"/>
<path d="M68.534 137.972C71.3182 131.529 66.7172 116.164 51.1113 119.97C50.9582 120.007 50.809 120.084 50.6889 120.19C45.3041 124.946 43.0288 131.991 41.6072 138.982C40.634 143.768 40.0604 158.403 46.1725 163.037C48.1701 164.552 47.3084 168.556 49.1598 169.432C52.1053 170.825 55.9144 167.626 57.0319 166.398C60.1309 162.991 61.0922 157.021 60.7296 150.883C60.7125 150.594 60.8163 150.306 61.0145 150.09C64.9457 145.812 66.701 142.214 68.534 137.972Z" fill="#413930"/>
<path d="M81.4796 102.23C69.9072 100.789 55.2002 109.837 55.2002 109.837C55.2002 109.837 54.1445 113.693 50.7134 119.574C47.2823 125.455 46.4025 126.597 46.4026 133.168C46.4027 150.342 61.8603 152.45 71.6285 153.938C81.3967 155.426 98.674 156.517 106.174 153.938C109.939 152.644 110.612 149.36 112.422 146.349C114.873 140.714 114.254 130.419 113.174 122.079C112.528 117.092 110.711 112.095 106.662 109.113C98.8794 103.381 88.9734 103.163 81.4796 102.23Z" fill="#F2EFED" stroke="#413930" stroke-width="2"/>
<path d="M108.925 110.818C113.231 114.229 115.298 125.716 115.729 129.499C116.526 136.489 116.484 145.466 108.414 152.551C106.697 154.058 105.111 154.689 94.5994 155.181C84.0876 155.672 71.6904 153.664 71.6904 153.664C88.8059 152.698 98.113 140.287 98.113 128.153C98.113 116.019 97.1472 110.146 94.619 104.327C97.0237 104.327 103.401 106.441 108.925 110.818Z" fill="#EFECEA"/>
<path d="M107.411 88.4608C123.266 83.5435 141.144 80.6607 145.966 89.5578C146.9 91.2822 144.749 94.2996 142.946 95.424C139.158 101.811 126.624 103.184 117.732 106.491C110.822 105.913 108.608 102.151 106.365 97.1482C103.15 89.9818 103.781 89.5867 107.411 88.4608Z" fill="#413930" stroke="#413930" stroke-width="2"/>
<path d="M37.4297 86.3885C48.5369 80.4833 52.5526 80.3494 62.054 78.8917C67.5649 78.8917 74.3857 92.5521 72.3154 102.308C70.6591 110.113 73.4305 138.896 75.7078 149.635C75.7078 149.635 65.8155 151.093 56.6941 149.635C47.5728 148.178 40.3387 141.489 40.3387 141.489C41.0717 130.333 46.0219 117.615 52.0511 109.092C51.3181 109.092 49.8041 112.313 46.676 114.536C42.8601 117.248 41.5452 117.556 39.6174 117.556L24.1267 91.8131C24.8858 91.435 32.3096 89.1107 37.4297 86.3885Z" fill="#9795F0" stroke="#413930" stroke-width="2"/>
<path d="M118.415 81.9185C112.144 81.9184 107.298 81.509 100.782 79.739C97.469 78.8391 87.4281 94.1081 88.7738 104.015C90.8351 119.191 87.022 136.285 82.8339 148.906C82.8339 148.906 107.857 157.442 111.989 148.906C116.12 140.37 123.91 140.7 123.91 140.7C125.449 138.569 118.515 131.543 117.093 123.007C115.67 114.472 112.587 111.526 109.675 107.444C111.262 107.746 110.299 108.658 116.412 110.831C121.946 112.798 133.504 111.724 139.414 106.292L135.403 79.739C134.644 79.3608 128.433 81.9186 118.415 81.9185Z" fill="#9795F0" stroke="#413930" stroke-width="2" stroke-linejoin="round"/>
<path d="M59.6866 79.5278C63.2157 83.021 68.2702 90.6061 68.4524 96.4946C68.6802 103.855 67.8463 121.407 69.5908 133.422C70.2284 137.814 71.2984 145.149 72.0953 149.516" stroke="#413930" stroke-width="2" stroke-linecap="round" stroke-linejoin="round"/>
<path d="M103.943 80.7432C98.6005 83.6571 93.6748 95.9635 93.1283 99.9557C92.4453 104.946 94.8632 117.454 93.1556 126.561C91.7895 133.846 89.1333 143.86 87.1221 150.015" stroke="#413930" stroke-width="2" stroke-linecap="round" stroke-linejoin="round"/>
<path d="M108.203 122.869C108.675 115.874 108.918 109.981 109.395 107.687C110.359 108.261 111.975 110.418 113.48 113.247C116.949 119.764 116.665 124.466 118.356 128.668C119.709 132.029 124.845 138.939 123.879 140.073C122.913 141.208 121.235 139.632 117.719 142.401C113.354 145.839 113.188 148.065 111.276 149.694C116.079 137.424 107.618 131.547 108.203 122.869Z" fill="#7877C0"/>
<path d="M46.485 103.256C42.9548 105.478 36.5464 107.011 33.7195 106.971C35.4339 110.329 39.3929 117.127 39.962 117.271C41.1777 117.579 44.831 115.628 47.1123 113.863C48.9726 112.424 52.4472 109.531 53.7796 107.023C55.4396 103.897 56.9328 98.7585 56.9146 95.4208C55.2658 97.4149 51.4924 100.105 46.485 103.256Z" fill="#7877C0"/>
<path d="M56.115 36.0265C50.4044 41.3906 52.2056 47.7622 56.1147 49.1591C57.613 47.982 60.9194 45.3285 62.158 44.1308C63.3966 42.9332 67.1019 40.6114 68.7998 39.6003C68.7998 35.4924 61.8256 30.6624 56.115 36.0265Z" fill="#413930" stroke="#413930" stroke-width="2"/>
<path d="M115.454 43.5676C119.697 50.3735 114.566 57.0407 110.46 57.2766C109.847 55.9981 108.501 52.9758 108.024 51.1151C107.546 49.2545 104.047 45.2011 102.358 43.4069C103.332 39.4402 111.212 36.7618 115.454 43.5676Z" fill="#413930" stroke="#413930" stroke-width="2"/>
<path d="M99.6118 85.2987C111.193 79.3217 113.314 64.0642 109.06 53.7573C101.821 36.2132 80.6515 30.5261 61.9086 43.559C47.9158 53.2892 49.0565 78.4242 63.8016 85.2987C74.8489 90.4491 88.0309 91.2757 99.6118 85.2987Z" fill="#F2EFED" stroke="#413930" stroke-width="2" stroke-linecap="square"/>
<path d="M59.3115 58.9161C56.579 53.3125 64.236 44.5769 68.4 43.6409C79.228 41.2065 79.5372 52.7858 73.3365 58.9161C69.9188 62.2952 62.7627 65.9937 59.3115 58.9161Z" fill="#413930"/>
<path d="M104.759 61.0572C110.931 54.4063 98.6444 46.0545 94.4804 45.1185C85.5117 43.7144 83.8861 56.1437 90.9316 61.0572C94.4552 63.5145 99.3449 66.8921 104.759 61.0572Z" fill="#413930"/>
<path d="M83.2425 56.4299C82.2182 56.0307 80.5831 56.2636 79.8936 56.4299C79.8936 57.1432 80.4579 58.294 81.8502 58.1661C82.964 58.0638 83.2425 56.966 83.2425 56.4299Z" fill="#413930" stroke="#413930" stroke-width="2" stroke-linecap="round" stroke-linejoin="round"/>
<ellipse cx="2.00601" cy="2.39383" rx="2.00601" ry="2.39383" transform="matrix(0.944832 0.327556 -0.277355 0.960768 67.5679 46.4359)" fill="#F2EFED"/>
<ellipse cx="93.6168" cy="50.9003" rx="2.09264" ry="2.35501" fill="#F2EFED"/>
<path d="M86.9898 63.8077C86.2102 64.4354 80.1076 64.8438 76.1428 63.9602C75.2266 63.756 74.0822 64.7279 74.4235 65.6031C75.5352 68.454 77.5147 71.7875 80.6859 71.8826C86.722 72.0636 88.7803 62.366 86.9898 63.8077Z" fill="#EFECEA"/>
<path d="M75.7166 54.8138C77.1929 51.5558 85.9974 51.502 87.4209 54.8138" stroke="#413930" stroke-width="2" stroke-linecap="round"/>
<path d="M77.266 32.615C77.555 33.4857 76.2513 32.2617 75.7362 31.3111C74.6597 29.3242 74.4641 28.7586 74.4641 25.7482C74.4641 23.4275 70.842 29.8776 72.1324 35.1405C73.4227 40.4034 76.9992 44.0027 80.3304 43.5793C83.73 42.9782 90.2169 40.0719 90.2169 36.8957C90.2655 36.8744 88.5468 36.7567 88.4773 32.3404C88.965 25.04 92.3618 22.088 94.6305 21.5355C88.0197 21.0092 84.0006 24.4275 84.0006 30.9105C83.9668 31.8737 82.5307 29.8919 82.4047 24.0907C82.2786 18.2896 83.896 15.8165 83.413 16.0106C81.2357 16.0106 78.6499 19.3486 78.0007 20.7542C76.8207 23.3095 75.9603 25.8527 76.622 30.0327C76.8161 31.259 77.0349 31.9186 77.2655 32.6135L77.266 32.615Z" fill="#09CC91" stroke="#413930" stroke-width="2" stroke-linecap="round" stroke-linejoin="round"/>
</svg>
