<svg width="164" height="197" viewBox="0 0 164 197" fill="none" xmlns="http://www.w3.org/2000/svg">
<path d="M132.225 173.18C128.51 181.96 76.8633 181.255 60.8644 180.714C44.8655 180.172 29.792 177.168 29.792 173.18C29.792 169.193 50.9196 158.297 65.0774 158.297C81.4913 158.297 80.5909 162.239 92.496 164.941C109.656 170.446 136.515 163.042 132.225 173.18Z" fill="#EFECEA"/>
<path d="M34.3266 33.214L33.9177 32.3014L34.3266 33.214C34.7163 33.0394 35.0398 32.7447 35.25 32.373L34.3794 31.8809L35.25 32.373L37.9533 27.5907L40.5313 32.1512C40.8861 32.7789 41.5514 33.167 42.2724 33.167H46.8674L43.3438 38.6558L44.1854 39.196L43.3438 38.6558C43.1008 39.0345 42.9925 39.484 43.0365 39.9319L43.5807 45.47L38.7555 43.2792L38.3421 44.1897L38.7555 43.2792C38.2589 43.0537 37.6917 43.0408 37.1853 43.2435L31.6285 45.468L32.7517 40.3171C32.9158 39.5647 32.6333 38.7849 32.0253 38.3121L28.7067 35.7316L34.3266 33.214Z" fill="#FAB82B" stroke="#413930" stroke-width="2"/>
<path d="M94.4487 150.228C91.0459 147.313 89.8219 141.991 94.4494 136.157C99.0768 130.322 103.729 125.355 109.562 128.154C115.395 130.954 118.926 134.904 122.62 140.318C126.907 146.602 128.892 154.68 130.238 155.332C133.472 156.9 134.371 162.973 132.994 164.842C131.618 166.711 127.357 167.08 118.05 164.842C114.211 163.919 112.418 159.77 106.11 155.332C102.812 153.012 96.2615 151.78 94.4487 150.228Z" fill="#413930"/>
<path d="M59.24 140.528C62.2769 134.001 57.253 118.43 40.2148 122.312C40.0697 122.345 39.928 122.413 39.8124 122.507C33.9257 127.322 31.4409 134.463 29.8893 141.55C28.8285 146.395 28.2032 161.211 34.8656 165.902C37.043 167.436 36.1037 171.489 38.1218 172.375C41.3325 173.786 45.4844 170.547 46.7025 169.304C50.0797 165.857 51.1278 159.815 50.7333 153.603C50.7146 153.308 50.8237 153.018 51.0319 152.808C55.3253 148.471 57.2402 144.826 59.24 140.528Z" fill="#413930"/>
<path d="M33.3454 100.657C26.3451 84.0906 27.2702 54.4305 36.8191 50.521C38.6699 49.7632 41.2775 52.5889 42.0823 54.7396C47.7297 59.8805 51.3553 73.8304 53.1253 84.091C51.4061 91.5778 51.8328 106.285 45.1605 112.074C45.1605 119.417 34.9701 104.502 33.3454 100.657Z" fill="#413930" stroke="#413930" stroke-width="2"/>
<path d="M84.6886 92.3299C90.1191 81.5091 136.358 76.9868 138.764 87.2075C139.775 91.5036 136.5 90.9869 135.012 92.9168C130.358 98.9528 116.331 105.019 106.395 107.52C97.3496 106.064 80.3442 100.987 84.6886 92.3299Z" fill="#413930" stroke="#413930" stroke-width="2"/>
<path d="M105.381 98.2497C99.3088 67.3845 68.4183 66.2166 65.2592 67.3847C63.1743 68.1556 54.9019 71.394 51.482 82.5689C48.0622 93.7439 45.7762 108.339 38.4512 117.924C31.1262 127.51 64.2414 129.315 85.5303 127.009C104.426 124.963 112.028 141.444 109.463 123.266C109.463 114.686 106.187 102.349 105.381 98.2497Z" fill="#413930"/>
<path d="M73.3906 98.9625C60.7765 97.5036 44.7456 106.663 44.7456 106.663C44.7456 106.663 43.5948 110.567 39.8549 116.52C36.1149 122.474 35.156 123.629 35.156 130.282C35.1561 147.668 52.0052 149.802 62.6527 151.308C73.3003 152.814 92.1329 153.918 100.308 151.308C104.412 149.998 105.146 146.673 107.119 143.625C109.761 137.983 109.13 127.729 107.977 119.337C107.258 114.106 105.199 108.911 100.841 105.93C92.3572 100.127 81.5592 99.9073 73.3906 98.9625Z" fill="#F2EFED" stroke="#413930" stroke-width="2"/>
<path d="M49.7898 44.8023C43.6205 50.1842 45.5664 56.5769 49.7895 57.9785C51.4082 56.7975 54.9801 54.1352 56.3182 52.9335C57.6563 51.7319 61.6593 49.4025 63.4935 48.3879C63.4935 44.2665 55.9592 39.4204 49.7898 44.8023Z" fill="#413930" stroke="#413930" stroke-width="2"/>
<path d="M102.868 108.127C107.497 111.668 108.864 125.27 109.334 129.1C110.203 136.176 108.45 145.47 102.09 149.691C100.082 151.024 99.1495 152.068 87.6914 152.566C76.2334 153.063 62.7202 151.031 62.7202 151.031C81.3764 150.052 91.5214 137.489 91.5214 125.205C91.5214 112.921 90.1943 107.244 87.4384 101.354C92.9677 102.591 96.8231 103.503 102.868 108.127Z" fill="#EFECEA"/>
<path d="M113.895 52.3683C118.478 59.1967 112.935 65.886 108.499 66.1227C107.837 64.8399 106.383 61.8076 105.867 59.9408C105.351 58.074 101.572 54.0071 99.7462 52.207C100.798 48.2272 109.311 45.5398 113.895 52.3683Z" fill="#413930" stroke="#413930" stroke-width="2"/>
<path d="M96.7808 94.2366C109.292 88.2398 111.583 72.9317 106.989 62.5907C99.1671 44.9884 76.2976 39.2824 56.0492 52.3585C40.9324 62.1209 42.1648 87.3394 58.0943 94.2366C70.0289 99.4041 84.2698 100.233 96.7808 94.2366Z" fill="#F2EFED" stroke="#413930" stroke-width="2" stroke-linecap="square"/>
<path d="M53.2427 67.7678C50.2908 62.1456 58.5628 53.3811 63.0613 52.442C74.759 49.9995 75.093 61.6171 68.3943 67.7678C64.702 71.1581 56.9712 74.8689 53.2427 67.7678Z" fill="#413930"/>
<path d="M102.341 69.9162C109.008 63.2432 95.7346 54.8638 91.2361 53.9247C81.547 52.5159 79.7908 64.9865 87.4022 69.9162C91.2088 72.3816 96.4913 75.7704 102.341 69.9162Z" fill="#413930"/>
<path d="M79.0964 65.273C77.9899 64.8725 76.2234 65.1061 75.4785 65.273C75.4785 65.9887 76.0882 67.1433 77.5923 67.015C78.7956 66.9124 79.0964 65.8109 79.0964 65.273Z" fill="#413930" stroke="#413930" stroke-width="2" stroke-linecap="round" stroke-linejoin="round"/>
<ellipse cx="2.1511" cy="2.41645" rx="2.1511" ry="2.41645" transform="matrix(0.951878 0.306477 -0.296828 0.954931 62.1633 55.2463)" fill="#F2EFED"/>
<ellipse cx="90.303" cy="59.7253" rx="2.26073" ry="2.36282" fill="#F2EFED"/>
<path d="M83.1447 72.6756C82.286 73.3178 75.4483 73.7312 71.1766 72.7748C70.2678 72.5714 69.1771 73.5328 69.5341 74.3932C70.7283 77.2716 72.875 80.681 76.3344 80.7773C82.8554 80.9589 85.079 71.2292 83.1447 72.6756Z" fill="#EFECEA"/>
<path d="M70.9651 63.652C72.56 60.3831 82.0718 60.3292 83.6096 63.652" stroke="#413930" stroke-width="2" stroke-linecap="round"/>
<path d="M65.2291 18.0934L67.8197 22.3773L68.6754 21.8599L67.8197 22.3773C68.1103 22.8579 68.5896 23.1941 69.1403 23.3038L74.7744 24.4266L70.9469 28.1338C70.558 28.5106 70.3384 29.0289 70.3384 29.5704L70.3384 34.7545L65.9557 32.6992C65.447 32.4606 64.8615 32.447 64.3423 32.6617L59.4625 34.6793L60.4834 29.844C60.6138 29.2265 60.445 28.5837 60.0282 28.1098L57.1325 24.8184L60.7185 24.8184C61.4852 24.8184 62.1844 24.3802 62.5185 23.6902L65.2291 18.0934Z" fill="#FAB82B" stroke="#413930" stroke-width="2"/>
<path d="M91.209 48.8453L88.2915 47.0974C87.871 46.8455 87.3723 46.7607 86.8912 46.8593L83.4013 47.5744L84.4913 44.5727C84.7394 43.8895 84.6061 43.1266 84.1424 42.5763L82.0873 40.1374L85.1668 39.8294C85.71 39.775 86.2089 39.497 86.5467 39.0604L88.8616 36.0679L89.8632 39.2661C90.0562 39.8821 90.5306 40.3642 91.138 40.5614L94.3357 41.5999L94.6454 40.6411L94.3357 41.5999L91.8238 43.9569L92.4957 44.693L91.8238 43.9569C91.4098 44.3453 91.1763 44.892 91.181 45.4614L91.209 48.8453Z" fill="#FAB82B" stroke="#413930" stroke-width="2"/>
</svg>
