<svg width="164" height="197" viewBox="0 0 164 197" fill="none" xmlns="http://www.w3.org/2000/svg">
<path d="M140.417 172.059C136.047 182.098 82.3075 181.292 63.4912 180.673C44.6749 180.053 35.059 176.618 35.059 172.059C34.0553 165.981 45.6456 159.44 62.1589 157.327C69.0677 156.442 74.9201 161.299 89.8321 160.022C102.45 160.022 102.673 155.592 110.623 156.192C129.221 157.594 143.682 164.557 140.417 172.059Z" fill="#EFECEA"/>
<path d="M120.287 84.2907C113.146 48.9983 76.8153 47.6629 73.0999 48.9986C70.6478 49.8801 60.9187 53.5829 56.8966 66.3608C52.8745 79.1386 42.9503 94.0133 42.9504 109.397C42.9506 124.78 71.9029 119.812 96.9407 117.176C119.164 114.836 125.428 119.362 125.428 119.362C125.981 108.168 121.235 88.9785 120.287 84.2907Z" fill="#413930"/>
<path d="M56.6778 65.3224C39.2051 73.2098 18.7275 97.0271 23.5966 106.958C24.5404 108.883 28.6555 108.557 30.8403 107.458C39.0523 107.514 55.0177 97.613 62.1479 89.1033C69.278 80.5937 68.9798 83.264 67.7646 73.9383C73.0186 68.2064 60.7331 63.4918 56.6778 65.3224Z" fill="#413930" stroke="#413930" stroke-width="2"/>
<path d="M111.017 64.3521C127.585 73.9618 145.501 99.7215 139.634 109.11C138.496 110.929 134.436 110.189 132.376 108.875C124.201 108.103 109.34 96.6419 103.124 87.457C96.9081 78.2722 96.9296 80.9587 99.0996 71.8043C94.4639 65.572 107.171 62.1219 111.017 64.3521Z" fill="#413930" stroke="#413930" stroke-width="2"/>
<path d="M68.9518 137.379C73.8631 131.518 70.1972 114.017 51.3012 115.458C51.1563 115.469 51.0097 115.513 50.8842 115.586C43.8219 119.7 40.0616 126.772 37.3124 133.931C35.4348 138.821 32.5017 154.175 38.9318 160.092C41.0332 162.026 39.4068 166.108 41.4362 167.344C44.6647 169.308 49.7807 166.762 51.1093 165.46C58.8146 157.909 60.5925 147.354 68.9518 137.379Z" fill="#413930"/>
<path d="M97.5594 138.959C92.0834 133.611 93.9718 115.836 112.919 115.41C113.064 115.407 113.215 115.437 113.347 115.497C120.788 118.896 125.24 125.563 128.695 132.415C131.055 137.096 135.517 152.085 129.714 158.606C127.817 160.737 129.846 164.639 127.951 166.068C124.936 168.341 119.589 166.31 118.136 165.145C109.71 158.39 106.88 148.062 97.5594 138.959Z" fill="#413930"/>
<path d="M53.5828 18.5343C46.8361 24.2563 48.9641 31.0532 53.5824 32.5433C55.3526 31.2877 59.2587 28.4571 60.7221 27.1795C62.1854 25.9019 66.563 23.4252 68.5689 22.3466C68.5689 17.9646 60.3294 12.8122 53.5828 18.5343Z" fill="#413930" stroke="#413930" stroke-width="2"/>
<path d="M123.688 26.5786C128.701 33.8386 122.638 40.9508 117.787 41.2024C117.063 39.8386 115.474 36.6146 114.909 34.6298C114.345 32.6449 110.212 28.321 108.216 26.4071C109.366 22.1757 118.676 19.3185 123.688 26.5786Z" fill="#413930" stroke="#413930" stroke-width="2"/>
<path d="M104.971 71.095C118.653 64.7192 121.159 48.4434 116.134 37.4487C107.581 18.7337 82.5709 12.6671 60.4276 26.5697C43.8962 36.9493 45.244 63.7618 62.6641 71.095C75.7156 76.5892 91.2891 77.4709 104.971 71.095Z" fill="#F2EFED" stroke="#413930" stroke-width="2" stroke-linecap="square"/>
<path d="M57.3586 42.9513C54.1303 36.9737 63.1765 27.6552 68.096 26.6567C80.8884 24.0598 81.2536 36.4118 73.9281 42.9513C69.8902 46.5559 61.4359 50.5012 57.3586 42.9513Z" fill="#413930"/>
<path d="M111.052 45.2352C118.343 38.1405 103.828 29.2314 98.9086 28.2329C88.3128 26.7351 86.3923 39.9939 94.716 45.2352C98.8788 47.8565 104.656 51.4596 111.052 45.2352Z" fill="#413930"/>
<path d="M85.6318 40.2995C84.4217 39.8736 82.4899 40.122 81.6753 40.2995C81.6753 41.0604 82.342 42.2879 83.9869 42.1516C85.3028 42.0424 85.6318 40.8714 85.6318 40.2995Z" fill="#413930" stroke="#413930" stroke-width="2" stroke-linecap="round" stroke-linejoin="round"/>
<ellipse cx="2.34634" cy="2.57575" rx="2.34634" ry="2.57575" transform="matrix(0.954336 0.298735 -0.304531 0.952503 67.113 29.6385)" fill="#F2EFED"/>
<ellipse cx="97.8885" cy="34.4005" rx="2.47229" ry="2.51218" fill="#F2EFED"/>
<path d="M90.0586 48.1698C89.1019 48.8653 81.3612 49.3083 76.7125 48.2169C75.8082 48.0046 74.7385 48.9517 75.0954 49.8091C76.3849 52.9067 78.7505 56.6791 82.6109 56.7836C89.7421 56.9766 92.1738 46.6319 90.0586 48.1698Z" fill="#EFECEA"/>
<path d="M76.7405 38.5756C78.4847 35.1001 88.8865 35.0427 90.5683 38.5756" stroke="#413930" stroke-width="2" stroke-linecap="round"/>
<path d="M82.1614 80.5372C67.3259 78.869 48.4721 89.3421 48.4721 89.3421C42.9081 96.0589 42.0513 105.824 42.0513 119.946C42.0512 134.069 53.5951 138.989 66.1177 140.711C78.6402 142.433 98.2704 142.979 110.52 140.711C117.739 139.375 123.33 135.557 124.975 127.324C126.221 121.084 124.16 110.126 122.272 100.964C121.187 95.6999 119.092 90.4249 114.647 87.4024C104.716 80.6493 92.0355 81.6476 82.1614 80.5372Z" fill="#F2EFED" stroke="#413930" stroke-width="2"/>
<path d="M116.857 89.5301C121.943 93.1691 123.528 105.898 124.319 115.37C125.11 124.842 125.205 131.871 118.962 136.821C116.203 139.007 110.857 141.043 98.4385 141.568C86.0196 142.092 72.4663 141.114 72.4663 141.114C92.6869 140.083 102.895 126.383 102.895 113.439C102.895 100.494 102.942 88.8127 99.9548 82.6057C102.796 82.6054 110.33 84.8604 116.857 89.5301Z" fill="#EFECEA"/>
<path d="M95.0852 102.506C95.0852 109.155 89.6346 114.564 82.8888 114.564C76.1429 114.564 70.6924 109.155 70.6924 102.506C70.6924 95.8568 76.1429 90.4485 82.8888 90.4485C89.6346 90.4485 95.0852 95.8568 95.0852 102.506Z" fill="#F15D22" stroke="#413930" stroke-width="2"/>
<path d="M91.3949 101.478C91.1759 99.5757 90.3528 97.7909 89.044 96.3805C87.7352 94.9701 86.008 94.0066 84.111 93.6287C82.2139 93.2508 80.2445 93.4779 78.4861 94.2773C76.7276 95.0768 75.2707 96.4073 74.3247 98.0778H75.0929C75.3726 97.6019 75.6988 97.1543 76.067 96.7416C76.7377 95.9818 77.5635 95.3715 78.4901 94.9507C79.275 94.6064 80.1187 94.4123 80.9766 94.3788C82.3288 94.3412 83.6555 94.7472 84.7501 95.5337C85.5458 96.0858 86.2073 96.8062 86.6869 97.6426C87.1098 98.4069 87.3578 99.294 87.2268 100.169C87.0858 101.135 86.4839 101.941 85.7086 102.522C86.0237 102.751 86.301 103.028 86.5304 103.342C87.0659 104.117 87.2836 105.064 87.1394 105.992C86.9952 106.954 86.5861 107.859 85.9567 108.607C85.1795 109.511 84.1329 110.148 82.9669 110.427C81.859 110.713 81.2021 110.786 79.598 110.388H79.5867C78.5549 110.099 78.0686 109.982 76.69 108.841L75.6709 108.746C76.9928 110.122 78.7185 111.052 80.6038 111.405C82.4891 111.758 84.4387 111.515 86.1771 110.711C87.9154 109.908 89.3544 108.584 90.2908 106.927C91.2271 105.269 91.6134 103.363 91.3949 101.477V101.478Z" fill="#F2EFED"/>
</svg>
