<svg width="164" height="197" viewBox="0 0 164 197" fill="none" xmlns="http://www.w3.org/2000/svg">
<path d="M132.507 172.395C128.524 182.057 79.5364 181.281 62.384 180.685C45.2316 180.089 36.466 176.783 36.466 172.395C35.5511 166.546 46.1164 160.252 61.1695 158.218C67.4674 157.366 72.8022 162.041 86.3956 160.812C97.8976 160.812 98.1011 156.548 105.348 157.125C122.302 158.475 135.483 165.176 132.507 172.395Z" fill="#EFECEA"/>
<path d="M114.157 87.9299C107.647 53.9656 74.5294 52.6804 71.1426 53.9658C68.9073 54.8142 60.0385 58.3777 56.3721 70.6747C52.7057 82.9717 43.659 97.2867 43.6592 112.091C43.6593 126.895 70.0514 122.114 92.8752 119.577C113.133 117.326 118.843 121.682 118.843 121.682C119.348 110.909 115.021 92.4414 114.157 87.9299Z" fill="#413930"/>
<path d="M64.6864 73.509C48.2197 67.2991 19.5321 70.0465 16.3065 80.1209C15.6813 82.0736 18.5732 84.5892 20.7048 85.2882C26.0195 90.7955 42.8013 94.6164 52.9297 93.5107C63.058 92.4051 61.1433 94.0434 66.3596 86.819C73.4759 86.3747 68.5081 74.9502 64.6864 73.509Z" fill="#413930" stroke="#413930" stroke-width="2"/>
<path d="M99.5906 72.4343C116.416 67.3802 144.865 72.1111 147.444 82.387C147.943 84.3787 144.898 86.6882 142.727 87.2379C137.074 92.3644 120.086 95.013 110.05 93.2074C100.014 91.4017 101.821 93.1692 97.0751 85.5989C90.0028 84.6621 95.6857 73.6074 99.5906 72.4343Z" fill="#413930" stroke="#413930" stroke-width="2"/>
<path d="M67.3618 139.02C71.8361 133.383 68.5011 116.558 51.3029 117.922C51.1511 117.934 50.9978 117.982 50.8678 118.063C44.4456 122.024 41.0232 128.822 38.5203 135.702C36.8087 140.408 34.135 155.185 39.9964 160.879C41.9121 162.74 40.4294 166.669 42.2794 167.857C45.2224 169.748 49.886 167.298 51.0971 166.045C58.121 158.778 59.7417 148.62 67.3618 139.02Z" fill="#413930"/>
<path d="M93.4397 140.541C88.4508 135.397 90.1672 118.309 107.41 117.879C107.562 117.875 107.719 117.908 107.857 117.974C114.624 121.249 118.677 127.657 121.822 134.243C123.973 138.748 128.041 153.173 122.751 159.449C121.022 161.499 122.871 165.255 121.144 166.629C118.395 168.817 113.521 166.863 112.197 165.742C104.516 159.241 101.936 149.302 93.4397 140.541Z" fill="#413930"/>
<path d="M53.3515 24.6478C47.2015 30.1545 49.1413 36.6956 53.3512 38.1297C54.9649 36.9213 58.5256 34.1972 59.8595 32.9677C61.1934 31.7382 65.1839 29.3547 67.0124 28.3166C67.0124 24.0995 59.5016 19.141 53.3515 24.6478Z" fill="#413930" stroke="#413930" stroke-width="2"/>
<path d="M117.257 32.3895C121.827 39.3764 116.3 46.221 111.878 46.4631C111.218 45.1506 109.769 42.0479 109.255 40.1378C108.74 38.2276 104.973 34.0664 103.153 32.2246C104.202 28.1523 112.688 25.4027 117.257 32.3895Z" fill="#413930" stroke="#413930" stroke-width="2"/>
<path d="M100.196 75.2307C112.668 69.0947 114.952 53.4314 110.372 42.8504C102.575 24.8397 79.7766 19.0014 59.5914 32.3808C44.5218 42.3698 45.7504 68.1734 61.6301 75.2307C73.5274 80.5181 87.7238 81.3666 100.196 75.2307Z" fill="#F2EFED" stroke="#413930" stroke-width="2" stroke-linecap="square"/>
<path d="M56.7938 48.1462C53.851 42.3935 62.0972 33.4256 66.5817 32.4647C78.2429 29.9655 78.5758 41.8527 71.8981 48.1462C68.2173 51.6151 60.5106 55.412 56.7938 48.1462Z" fill="#413930"/>
<path d="M105.739 50.3442C112.385 43.5165 99.1535 34.9426 94.6691 33.9817C85.0102 32.5402 83.2595 45.3001 90.8472 50.3442C94.6419 52.8669 99.9079 56.3343 105.739 50.3442Z" fill="#413930"/>
<path d="M82.5666 45.5938C81.4635 45.184 79.7025 45.4231 78.96 45.5938C78.96 46.3262 79.5678 47.5075 81.0672 47.3762C82.2667 47.2712 82.5666 46.1442 82.5666 45.5938Z" fill="#413930" stroke="#413930" stroke-width="2" stroke-linecap="round" stroke-linejoin="round"/>
<ellipse cx="2.14976" cy="2.46698" rx="2.14976" ry="2.46698" transform="matrix(0.949495 0.313782 -0.28984 0.957075 65.6853 35.334)" fill="#F2EFED"/>
<ellipse cx="93.739" cy="39.917" rx="2.25367" ry="2.41765" fill="#F2EFED"/>
<path d="M86.6019 53.1681C85.747 53.8242 78.9491 54.2469 74.6895 53.2738C73.7792 53.0658 72.6717 54.0259 73.0204 54.8926C74.2083 57.8446 76.3514 61.3588 79.8128 61.4577C86.3134 61.6435 88.5301 51.688 86.6019 53.1681Z" fill="#EFECEA"/>
<path d="M74.4612 43.935C76.0511 40.5903 85.5332 40.5351 87.0662 43.935" stroke="#413930" stroke-width="2" stroke-linecap="round"/>
<path d="M79.4036 84.3173C65.88 82.7119 48.6934 92.7908 48.6934 92.7908C43.6214 99.255 42.8404 108.653 42.8403 122.243C42.8403 135.834 53.3634 140.569 64.7786 142.227C76.1937 143.884 94.0881 144.409 105.255 142.227C111.835 140.941 116.931 137.267 118.431 129.344C119.566 123.347 117.694 112.821 115.975 104.012C114.98 98.9166 113.067 93.7714 108.821 90.7849C99.7971 84.4389 88.3397 85.3782 79.4036 84.3173Z" fill="#F2EFED" stroke="#413930" stroke-width="2"/>
<path d="M111.031 92.9719C115.667 96.474 117.112 108.724 117.833 117.839C118.554 126.955 118.641 133.72 112.949 138.483C110.435 140.587 105.562 142.547 94.2411 143.051C82.9205 143.556 70.5657 142.615 70.5657 142.615C88.9982 141.623 98.3038 128.438 98.3038 115.981C98.3038 103.524 98.3462 92.2815 95.6234 86.3081C98.2131 86.3078 105.081 88.4779 111.031 92.9719Z" fill="#EFECEA"/>
<path d="M66.1421 78.9865L81.8993 83.1802L96.4015 78.9865C95.4609 83.074 93.4668 91.249 93.0153 91.249C92.5638 91.249 85.6595 86.7333 81.7089 83.2353L69.4489 91.249L66.1421 78.9865Z" fill="#F15D22"/>
<path d="M81.9886 83.204L66.1421 78.9865L69.4489 91.249L81.7089 83.2353M81.7089 83.2353L96.4015 78.9865C95.4609 83.074 93.4668 91.249 93.0153 91.249C92.5638 91.249 85.6595 86.7333 81.7089 83.2353Z" stroke="#413930" stroke-width="2" stroke-linecap="round" stroke-linejoin="round"/>
<path d="M85.7604 31.945C72.527 33.1457 68.6281 30.8096 67.4343 28.6943C66.2406 26.5791 68.0797 24.1088 68.776 22.9451C68.776 22.9451 72.257 18.727 80.3697 18.3067C86.1089 18.0094 93.2314 19.5405 97.2863 25.753C98.086 27.1851 97.3706 30.8916 85.7604 31.945Z" fill="#C97E5F"/>
<path d="M91.4301 25.5028C89.9941 21.1189 84.8782 18.8716 84.2253 18.7011C89.1145 18.4267 97.3839 23.3342 97.1841 26.5381C97.0857 28.1158 94.5867 29.9577 92.1722 30.3724C92.1994 29.6052 91.9166 26.9882 91.4301 25.5028Z" fill="#C97E5F"/>
<path d="M85.7604 31.945C74.5191 32.9474 69.6117 31.6905 67.5928 29.4542C65.5738 27.2179 67.8693 23.3469 69.6697 22.0172C71.4702 20.6875 74.2063 18.3066 80.3697 18.3066C86.1159 18.3066 93.2314 19.5404 97.2862 25.753C98.0859 27.185 97.0017 30.9425 85.7604 31.945Z" stroke="#413930" stroke-width="2" stroke-linecap="round" stroke-linejoin="round"/>
<path d="M83.8279 18.3067C83.8279 19.0699 83.2463 19.6133 82.6198 19.6133C81.9932 19.6133 81.4116 19.0699 81.4116 18.3067C81.4116 17.5434 81.9932 17 82.6198 17C83.2463 17 83.8279 17.5434 83.8279 18.3067Z" fill="#C97E5F" stroke="#413930" stroke-width="2"/>
</svg>
