<svg width="120" height="120" viewBox="0 0 120 120" fill="none" xmlns="http://www.w3.org/2000/svg">
<rect x="48.5867" y="60.8315" width="4.38426" height="52.6111" fill="#F2EFED" stroke="#413930" stroke-width="1.09606"/>
<rect x="67.22" y="60.8315" width="4.38426" height="52.6111" fill="#F2EFED" stroke="#413930" stroke-width="1.09606"/>
<rect x="42.2355" y="41.1851" width="38.8051" height="27.4995" rx="13.7497" transform="rotate(9.47424 42.2355 41.1851)" fill="#F2EFED" stroke="#413930" stroke-width="1.09606"/>
<rect x="33.8127" y="7.65781" width="61.9641" height="42.932" rx="21.466" transform="rotate(13.8742 33.8127 7.65781)" fill="#F2EFED" stroke="#413930" stroke-width="1.09606"/>
<rect x="37.5942" y="13.8163" width="41.1864" height="17.5609" rx="8.78046" transform="rotate(13.8742 37.5942 13.8163)" fill="#F15D22" stroke="#413930" stroke-width="1.09606"/>
<circle cx="45.2701" cy="24.0862" r="4.01739" transform="rotate(13.8742 45.2701 24.0862)" fill="#413930" stroke="#413930" stroke-width="1.09606"/>
<circle cx="67.2449" cy="29.5141" r="4.01739" transform="rotate(13.8742 67.2449 29.5141)" fill="#413930" stroke="#413930" stroke-width="1.09606"/>
<circle cx="76.601" cy="5.9096" r="4.01739" transform="rotate(21.2481 76.601 5.9096)" fill="#413930" stroke="#413930" stroke-width="1.09606"/>
<path d="M58.4244 116.482C58.8164 117.428 59.0469 118.432 59.1078 119.452L40.7553 119.452C40.8162 118.432 41.0468 117.428 41.4387 116.482C41.9007 115.367 42.5778 114.354 43.4314 113.5C44.285 112.646 45.2984 111.969 46.4137 111.507C47.529 111.045 48.7244 110.807 49.9316 110.807C51.1388 110.807 52.3341 111.045 53.4494 111.507C54.5647 111.969 55.5781 112.646 56.4317 113.5C57.2853 114.353 57.9625 115.367 58.4244 116.482Z" fill="#F2EFED" stroke="#413930" stroke-width="1.09606"/>
<path d="M77.9054 116.482C78.2973 117.428 78.5279 118.432 78.5888 119.452L60.2363 119.452C60.2972 118.432 60.5277 117.428 60.9197 116.482C61.3816 115.367 62.0587 114.354 62.9124 113.5C63.766 112.646 64.7794 111.969 65.8947 111.507C67.01 111.045 68.2053 110.807 69.4125 110.807C70.6197 110.807 71.8151 111.045 72.9304 111.507C74.0457 111.969 75.0591 112.646 75.9127 113.5C76.7663 114.353 77.4434 115.367 77.9054 116.482Z" fill="#F2EFED" stroke="#413930" stroke-width="1.09606"/>
<path d="M74.5969 6.11188C66.6516 5.37443 64.6501 15.4785 64.6501 15.4785" stroke="#413930" stroke-width="1.09606"/>
</svg>
