<svg width="120" height="120" viewBox="0 0 120 120" fill="none" xmlns="http://www.w3.org/2000/svg">
<rect x="0.564003" y="-0.564003" width="4.51202" height="21.4321" transform="matrix(-1 0 0 1 79.6578 77.1055)" fill="#F2EFED" stroke="#413930" stroke-width="1.12801"/>
<rect x="0.564003" y="-0.564003" width="4.51202" height="21.4321" transform="matrix(-1 0 0 1 59.6085 77.1055)" fill="#F2EFED" stroke="#413930" stroke-width="1.12801"/>
<path d="M67.8306 104.158L86.718 104.158C86.6553 103.109 86.418 102.075 86.0147 101.102C85.5393 99.9538 84.8424 98.9109 83.9639 98.0324C83.0854 97.1539 82.0425 96.4571 80.8947 95.9817C79.7469 95.5062 78.5167 95.2615 77.2743 95.2615C76.032 95.2615 74.8017 95.5062 73.6539 95.9817C72.5061 96.4571 71.4632 97.1539 70.5847 98.0324C69.7062 98.9109 69.0094 99.9538 68.534 101.102C68.1306 102.075 67.8933 103.109 67.8306 104.158Z" fill="#F2EFED" stroke="#413930" stroke-width="1.12801"/>
<path d="M47.7816 104.158L66.6689 104.158C66.6062 103.109 66.369 102.075 65.9656 101.102C65.4902 99.9538 64.7933 98.9109 63.9148 98.0324C63.0363 97.1539 61.9934 96.4571 60.8456 95.9817C59.6978 95.5062 58.4676 95.2615 57.2252 95.2615C55.9829 95.2615 54.7527 95.5062 53.6049 95.9817C52.4571 96.4571 51.4142 97.1539 50.5357 98.0324C49.6572 98.9109 48.9603 99.9538 48.4849 101.102C48.0815 102.075 47.8443 103.109 47.7816 104.158Z" fill="#F2EFED" stroke="#413930" stroke-width="1.12801"/>
<rect x="43.361" y="58.6278" width="39.936" height="28.3009" rx="14.1504" transform="rotate(-10.1066 43.361 58.6278)" fill="#F2EFED" stroke="#413930" stroke-width="1.12801"/>
<rect x="23.8198" y="41.9787" width="63.7698" height="44.1831" rx="22.0916" transform="rotate(-13.5793 23.8198 41.9787)" fill="#F2EFED" stroke="#413930" stroke-width="1.12801"/>
<rect x="30.1943" y="45.8089" width="42.3867" height="18.0727" rx="9.03633" transform="rotate(-13.5793 30.1943 45.8089)" fill="#F15D22" stroke="#413930" stroke-width="1.12801"/>
<circle cx="40.8312" cy="55.287" r="4.13446" transform="rotate(-13.5793 40.8312 55.287)" fill="#413930" stroke="#413930" stroke-width="1.12801"/>
<circle cx="63.7816" cy="50.2961" r="4.13446" transform="rotate(-13.5793 63.7816 50.2961)" fill="#413930" stroke="#413930" stroke-width="1.12801"/>
<circle cx="65.1588" cy="19.2467" r="4.13446" transform="rotate(-6.20533 65.1588 19.2467)" fill="#413930" stroke="#413930" stroke-width="1.12801"/>
<path d="M63.4238 20.3824C55.8179 23.4787 58.7841 33.6559 58.7841 33.6559" stroke="#413930" stroke-width="1.12801"/>
</svg>
