<svg width="120" height="120" viewBox="0 0 120 120" fill="none" xmlns="http://www.w3.org/2000/svg">
<g clip-path="url(#clip0_497_2439)">
<rect x="43.7692" y="60.8319" width="4.3076" height="28.7087" transform="rotate(12.036 43.7692 60.8319)" fill="#F2EFED" stroke="#413930" stroke-width="1.25544"/>
<mask id="path-2-inside-1_497_2439" fill="white">
<path d="M49.4852 96.5871C49.4852 95.122 49.1966 93.6712 48.6359 92.3175C48.0752 90.9639 47.2534 89.7339 46.2173 88.6979C45.1813 87.6619 43.9514 86.8401 42.5977 86.2794C41.2441 85.7187 39.7933 85.4301 38.3281 85.4301C36.863 85.4301 35.4122 85.7187 34.0585 86.2794C32.7049 86.8401 31.475 87.6619 30.439 88.6979C29.4029 89.734 28.5811 90.9639 28.0204 92.3175C27.4597 93.6712 27.1711 95.122 27.1711 96.5871L38.3281 96.5871H49.4852Z"/>
</mask>
<path d="M49.4852 96.5871C49.4852 95.122 49.1966 93.6712 48.6359 92.3175C48.0752 90.9639 47.2534 89.7339 46.2173 88.6979C45.1813 87.6619 43.9514 86.8401 42.5977 86.2794C41.2441 85.7187 39.7933 85.4301 38.3281 85.4301C36.863 85.4301 35.4122 85.7187 34.0585 86.2794C32.7049 86.8401 31.475 87.6619 30.439 88.6979C29.4029 89.734 28.5811 90.9639 28.0204 92.3175C27.4597 93.6712 27.1711 95.122 27.1711 96.5871L38.3281 96.5871H49.4852Z" fill="#F2EFED" stroke="#413930" stroke-width="2.51088" mask="url(#path-2-inside-1_497_2439)"/>
<rect x="63.3046" y="71.2595" width="4.3076" height="17.7359" transform="rotate(12.036 63.3046 71.2595)" fill="#F2EFED" stroke="#413930" stroke-width="1.25544"/>
<mask id="path-4-inside-2_497_2439" fill="white">
<path d="M71.3091 96.3746C71.3091 94.9094 71.0205 93.4586 70.4599 92.105C69.8992 90.7514 69.0773 89.5214 68.0413 88.4854C67.0053 87.4494 65.7754 86.6276 64.4217 86.0669C63.0681 85.5062 61.6173 85.2176 60.1521 85.2176C58.687 85.2176 57.2362 85.5062 55.8825 86.0669C54.5289 86.6276 53.299 87.4494 52.2629 88.4854C51.2269 89.5214 50.4051 90.7514 49.8444 92.105C49.2837 93.4586 48.9951 94.9094 48.9951 96.3746L60.1521 96.3746H71.3091Z"/>
</mask>
<path d="M71.3091 96.3746C71.3091 94.9094 71.0205 93.4586 70.4599 92.105C69.8992 90.7514 69.0773 89.5214 68.0413 88.4854C67.0053 87.4494 65.7754 86.6276 64.4217 86.0669C63.0681 85.5062 61.6173 85.2176 60.1521 85.2176C58.687 85.2176 57.2362 85.5062 55.8825 86.0669C54.5289 86.6276 53.299 87.4494 52.2629 88.4854C51.2269 89.5214 50.4051 90.7514 49.8444 92.105C49.2837 93.4586 48.9951 94.9094 48.9951 96.3746L60.1521 96.3746H71.3091Z" fill="#F2EFED" stroke="#413930" stroke-width="2.51088" mask="url(#path-4-inside-2_497_2439)"/>
<rect x="52.8422" y="35.3812" width="44.4477" height="31.4981" rx="15.749" transform="rotate(37.0859 52.8422 35.3812)" fill="#F2EFED" stroke="#413930" stroke-width="1.25544"/>
<rect x="56.6181" y="6.6272" width="70.9741" height="49.1746" rx="24.5873" transform="rotate(37.0859 56.6181 6.6272)" fill="#F2EFED" stroke="#413930" stroke-width="1.25544"/>
<rect x="64.4347" y="21.4099" width="47.1752" height="20.1144" rx="10.0572" transform="rotate(37.0859 64.4347 21.4099)" fill="#F15D22" stroke="#413930" stroke-width="1.25544"/>
<circle cx="67.8796" cy="35.6868" r="4.60154" transform="rotate(37.0859 67.8796 35.6868)" fill="#413930" stroke="#413930" stroke-width="1.25544"/>
<circle cx="88.5627" cy="51.321" r="4.60154" transform="rotate(37.0859 88.5627 51.321)" fill="#413930" stroke="#413930" stroke-width="1.25544"/>
<circle cx="91.624" cy="22.0273" r="4.60154" transform="rotate(37.0859 91.624 22.0273)" fill="#413930" stroke="#413930" stroke-width="1.25544"/>
<path d="M91.4377 22.2182L86.4231 28.8522" stroke="#413930" stroke-width="1.25544"/>
</g>
<defs>
<clipPath id="clip0_497_2439">
<rect width="120" height="120" fill="white"/>
</clipPath>
</defs>
</svg>
