<svg width="120" height="120" viewBox="0 0 120 120" fill="none" xmlns="http://www.w3.org/2000/svg">
<rect x="70.6775" y="90.508" width="4.25354" height="17.5133" transform="rotate(-90 70.6775 90.508)" fill="#F2EFED" stroke="#413930" stroke-width="1.23968"/>
<mask id="path-2-inside-1_497_2424" fill="white">
<path d="M90.9921 77.3643C89.5453 77.3643 88.1127 77.6493 86.7761 78.2029C85.4394 78.7566 84.2249 79.5681 83.2019 80.5911C82.1789 81.6141 81.3674 82.8286 80.8137 84.1653C80.2601 85.5019 79.9751 86.9345 79.9751 88.3813C79.9751 89.828 80.2601 91.2606 80.8137 92.5973C81.3674 93.9339 82.1789 95.1484 83.2019 96.1715C84.2249 97.1945 85.4394 98.006 86.7761 98.5596C88.1127 99.1133 89.5453 99.3983 90.9921 99.3983L90.9921 88.3813L90.9921 77.3643Z"/>
</mask>
<path d="M90.9921 77.3643C89.5453 77.3643 88.1127 77.6493 86.7761 78.2029C85.4394 78.7566 84.2249 79.5681 83.2019 80.5911C82.1789 81.6141 81.3674 82.8286 80.8137 84.1653C80.2601 85.5019 79.9751 86.9345 79.9751 88.3813C79.9751 89.828 80.2601 91.2606 80.8137 92.5973C81.3674 93.9339 82.1789 95.1484 83.2019 96.1715C84.2249 97.1945 85.4394 98.006 86.7761 98.5596C88.1127 99.1133 89.5453 99.3983 90.9921 99.3983L90.9921 88.3813L90.9921 77.3643Z" fill="#F2EFED" stroke="#413930" stroke-width="2.47937" mask="url(#path-2-inside-1_497_2424)"/>
<rect x="31.0075" y="64.3476" width="43.8898" height="31.1028" rx="15.5514" fill="#F2EFED" stroke="#413930" stroke-width="1.23968"/>
<path d="M18.6108 48.5765C18.6108 35.1677 29.4808 24.2978 42.8895 24.2978H64.4154C71.3766 24.2978 77.6528 27.2267 82.0806 31.9212C86.1814 36.269 88.6941 42.1286 88.6941 48.5765C88.6941 61.9853 77.8242 72.8552 64.4154 72.8552H42.8896C29.4808 72.8552 18.6108 61.9853 18.6108 48.5765Z" fill="#F2EFED" stroke="#413930" stroke-width="1.23968"/>
<mask id="mask0_497_2424" style="mask-type:alpha" maskUnits="userSpaceOnUse" x="17" y="23" width="73" height="51">
<rect x="18.6108" y="24.2979" width="70.0833" height="48.5575" rx="24.2787" fill="#D9D9D9" stroke="#212638" stroke-width="1.23968"/>
</mask>
<g mask="url(#mask0_497_2424)">
<rect x="54.5615" y="30.8761" width="38.4302" height="19.8349" rx="9.91747" fill="#F15D22" stroke="#413930" stroke-width="1.23968"/>
</g>
<circle cx="70.3865" cy="40.4829" r="4.54379" fill="#413930" stroke="#413930" stroke-width="1.23968"/>
<circle cx="55.3548" cy="15.585" r="4.54379" fill="#413930" stroke="#413930" stroke-width="1.23968"/>
<path d="M55.3225 15.8461L55.3225 24.0578" stroke="#413930" stroke-width="1.23968"/>
<rect x="59.5203" y="90.508" width="4.25354" height="17.5133" transform="rotate(-90 59.5203 90.508)" fill="#F2EFED" stroke="#413930" stroke-width="1.23968"/>
<mask id="path-11-inside-2_497_2424" fill="white">
<path d="M84.4245 77.3643C82.9777 77.3643 81.5451 77.6493 80.2084 78.2029C78.8718 78.7566 77.6573 79.5681 76.6343 80.5911C75.6112 81.6141 74.7997 82.8286 74.2461 84.1653C73.6924 85.5019 73.4075 86.9345 73.4075 88.3813C73.4075 89.828 73.6924 91.2606 74.2461 92.5973C74.7997 93.9339 75.6112 95.1484 76.6343 96.1715C77.6573 97.1945 78.8718 98.006 80.2084 98.5596C81.5451 99.1133 82.9777 99.3983 84.4245 99.3983L84.4245 88.3813L84.4245 77.3643Z"/>
</mask>
<path d="M84.4245 77.3643C82.9777 77.3643 81.5451 77.6493 80.2084 78.2029C78.8718 78.7566 77.6573 79.5681 76.6343 80.5911C75.6112 81.6141 74.7997 82.8286 74.2461 84.1653C73.6924 85.5019 73.4075 86.9345 73.4075 88.3813C73.4075 89.828 73.6924 91.2606 74.2461 92.5973C74.7997 93.9339 75.6112 95.1484 76.6343 96.1715C77.6573 97.1945 78.8718 98.006 80.2084 98.5596C81.5451 99.1133 82.9777 99.3983 84.4245 99.3983L84.4245 88.3813L84.4245 77.3643Z" fill="#F2EFED" stroke="#413930" stroke-width="2.47937" mask="url(#path-11-inside-2_497_2424)"/>
</svg>
