<svg width="120" height="120" viewBox="0 0 120 120" fill="none" xmlns="http://www.w3.org/2000/svg">
<rect x="70.7887" y="75.2897" width="4.33102" height="51.9722" transform="rotate(90 70.7887 75.2897)" fill="#F2EFED" stroke="#413930" stroke-width="1.08275"/>
<rect x="0.541377" y="-0.541377" width="4.33102" height="20.5723" transform="matrix(-1 0 0 1 85.9661 78.9059)" fill="#F2EFED" stroke="#413930" stroke-width="1.08275"/>
<path d="M15.814 85.0078C14.8792 85.3949 13.8876 85.6227 12.8802 85.6829L12.8802 67.5532C13.8876 67.6134 14.8792 67.8411 15.814 68.2283C16.9157 68.6847 17.9168 69.3536 18.76 70.1968C19.6033 71.04 20.2722 72.0411 20.7286 73.1429C21.1849 74.2446 21.4198 75.4255 21.4198 76.618C21.4198 77.8106 21.1849 78.9914 20.7286 80.0932C20.2722 81.1949 19.6033 82.196 18.76 83.0393C17.9168 83.8825 16.9157 84.5514 15.814 85.0078Z" fill="#F2EFED" stroke="#413930" stroke-width="1.08275"/>
<path d="M75.2884 101.94C74.9013 102.874 74.6735 103.866 74.6133 104.873L92.743 104.873C92.6828 103.866 92.4551 102.874 92.0679 101.94C91.6115 100.838 90.9426 99.8367 90.0994 98.9934C89.2562 98.1502 88.2551 97.4813 87.1533 97.0249C86.0516 96.5686 84.8707 96.3337 83.6782 96.3337C82.4856 96.3337 81.3048 96.5686 80.203 97.0249C79.1013 97.4813 78.1002 98.1502 77.2569 98.9934C76.4137 99.8367 75.7448 100.838 75.2884 101.94Z" fill="#F2EFED" stroke="#413930" stroke-width="1.08275"/>
<rect x="56.388" y="53.543" width="38.3339" height="27.1655" rx="13.5828" transform="rotate(9.47424 56.388 53.543)" fill="#F2EFED" stroke="#413930" stroke-width="1.08275"/>
<rect x="48.0676" y="20.4228" width="61.2116" height="42.4107" rx="21.2053" transform="rotate(13.8742 48.0676 20.4228)" fill="#F2EFED" stroke="#413930" stroke-width="1.08275"/>
<rect x="51.802" y="26.5064" width="40.6863" height="17.3477" rx="8.67383" transform="rotate(13.8742 51.802 26.5064)" fill="#F15D22" stroke="#413930" stroke-width="1.08275"/>
<circle cx="59.3861" cy="36.6517" r="3.9686" transform="rotate(13.8742 59.3861 36.6517)" fill="#413930" stroke="#413930" stroke-width="1.08275"/>
<circle cx="81.0941" cy="42.0136" r="3.9686" transform="rotate(13.8742 81.0941 42.0136)" fill="#413930" stroke="#413930" stroke-width="1.08275"/>
<circle cx="90.3363" cy="18.6958" r="3.9686" transform="rotate(21.2481 90.3363 18.6958)" fill="#413930" stroke="#413930" stroke-width="1.08275"/>
<path d="M88.3564 18.8956C80.5076 18.1671 78.5304 28.1484 78.5304 28.1484" stroke="#413930" stroke-width="1.08275"/>
</svg>
