<svg width="120" height="120" viewBox="0 0 120 120" fill="none" xmlns="http://www.w3.org/2000/svg">
<rect x="47.0411" y="74.8063" width="4.4758" height="18.4284" fill="#F2EFED" stroke="#413930" stroke-width="1.30446"/>
<rect x="70.2264" y="74.8063" width="4.4758" height="18.4284" fill="#F2EFED" stroke="#413930" stroke-width="1.30446"/>
<rect x="37.7799" y="48.5665" width="46.1831" height="32.7279" rx="16.364" fill="#F2EFED" stroke="#413930" stroke-width="1.30446"/>
<rect x="22.8939" y="22.367" width="73.7453" height="51.0947" rx="25.5473" fill="#F2EFED" stroke="#413930" stroke-width="1.30446"/>
<rect x="38.6354" y="29.7224" width="49.0172" height="20.8998" rx="10.4499" fill="#F15D22" stroke="#413930" stroke-width="1.30446"/>
<circle cx="50.4356" cy="39.3978" r="4.78121" fill="#413930" stroke="#413930" stroke-width="1.30446"/>
<circle cx="77.3751" cy="39.3978" r="4.78121" fill="#413930" stroke="#413930" stroke-width="1.30446"/>
<circle cx="61.558" cy="13.1989" r="4.78121" fill="#413930" stroke="#413930" stroke-width="1.30446"/>
<mask id="path-9-inside-1_497_2411" fill="white">
<path d="M60.8715 101.012C60.8715 99.4892 60.5717 97.9818 59.9891 96.5753C59.4065 95.1688 58.5526 93.8908 57.4761 92.8143C56.3997 91.7379 55.1217 90.884 53.7152 90.3014C52.3087 89.7188 50.8013 89.4189 49.2789 89.4189C47.7565 89.4189 46.2491 89.7188 44.8426 90.3014C43.4361 90.884 42.1582 91.7379 41.0817 92.8144C40.0052 93.8908 39.1513 95.1688 38.5687 96.5753C37.9861 97.9818 37.6863 99.4892 37.6863 101.012L49.2789 101.012H60.8715Z"/>
</mask>
<path d="M60.8715 101.012C60.8715 99.4892 60.5717 97.9818 59.9891 96.5753C59.4065 95.1688 58.5526 93.8908 57.4761 92.8143C56.3997 91.7379 55.1217 90.884 53.7152 90.3014C52.3087 89.7188 50.8013 89.4189 49.2789 89.4189C47.7565 89.4189 46.2491 89.7188 44.8426 90.3014C43.4361 90.884 42.1582 91.7379 41.0817 92.8144C40.0052 93.8908 39.1513 95.1688 38.5687 96.5753C37.9861 97.9818 37.6863 99.4892 37.6863 101.012L49.2789 101.012H60.8715Z" fill="#F2EFED" stroke="#413930" stroke-width="2.60892" mask="url(#path-9-inside-1_497_2411)"/>
<mask id="path-10-inside-2_497_2411" fill="white">
<path d="M84.0569 101.012C84.0569 99.4892 83.757 97.9818 83.1744 96.5753C82.5918 95.1688 81.7379 93.8908 80.6614 92.8143C79.585 91.7379 78.307 90.884 76.9005 90.3014C75.494 89.7188 73.9866 89.4189 72.4642 89.4189C70.9418 89.4189 69.4344 89.7188 68.0279 90.3014C66.6214 90.884 65.3435 91.7379 64.267 92.8144C63.1905 93.8908 62.3366 95.1688 61.754 96.5753C61.1714 97.9818 60.8716 99.4892 60.8716 101.012L72.4642 101.012H84.0569Z"/>
</mask>
<path d="M84.0569 101.012C84.0569 99.4892 83.757 97.9818 83.1744 96.5753C82.5918 95.1688 81.7379 93.8908 80.6614 92.8143C79.585 91.7379 78.307 90.884 76.9005 90.3014C75.494 89.7188 73.9866 89.4189 72.4642 89.4189C70.9418 89.4189 69.4344 89.7188 68.0279 90.3014C66.6214 90.884 65.3435 91.7379 64.267 92.8144C63.1905 93.8908 62.3366 95.1688 61.754 96.5753C61.1714 97.9818 60.8716 99.4892 60.8716 101.012L72.4642 101.012H84.0569Z" fill="#F2EFED" stroke="#413930" stroke-width="2.60892" mask="url(#path-10-inside-2_497_2411)"/>
<line x1="61.5238" y1="13.4736" x2="61.5238" y2="23.0974" stroke="#413930" stroke-width="1.30446"/>
</svg>
