<svg width="120" height="120" viewBox="0 0 120 120" fill="none" xmlns="http://www.w3.org/2000/svg">
<path d="M47.6476 93.8547C56.0181 81.4525 48.6134 75.419 48.6134 74.4134L53.6923 79.1061L61.4911 83.7989L69.2178 88.1564C69.2178 88.1564 57.4224 90.5028 53.6923 98.5475C49.9622 106.592 52.4046 109.944 52.4046 109.944C55.3742 112.961 67.7722 112.717 71.4714 110.95C80.8077 106.489 73.0811 102.235 79.5199 98.5475C86.9009 94.3208 90.051 104.25 90.8522 107.462C89.5224 99.7151 101.585 94.2553 106.885 99.8883C110.128 103.335 103.932 110.297 98.3764 113.107C101.485 111.772 109.501 108.791 111.07 111.62C112.397 114.011 111.32 117.989 110.354 120H28.2588H2.41753C0.485869 120 -1.19447 115.306 1.12985 110.95C4.34932 104.916 11.3247 109.385 13.6856 110.95C12.2905 108.939 7.83395 105.587 10.6241 96.8715C11.268 94.8603 15.7752 88.4916 23.8238 89.4972C30.2626 90.3017 35.3279 97.5419 32.8382 106.257C36.7015 104.916 43.8316 99.5086 47.6476 93.8547Z" fill="#EEF4FF"/>
<ellipse cx="5.15123" cy="102.57" rx="2.57554" ry="2.68156" fill="#EEF4FF"/>
<ellipse cx="111.714" cy="104.916" rx="1.60972" ry="1.67598" fill="#EEF4FF"/>
<ellipse cx="113.968" cy="95.8659" rx="3.21943" ry="3.35196" fill="#EEF4FF"/>
<g clip-path="url(#clip0_497_2493)">
<path d="M66.5165 54.2557L63.9219 52.696L50.2587 77.3356L52.8533 78.8953L66.5165 54.2557Z" fill="#F2EFED"/>
<path d="M66.1075 54.3695L52.7435 78.4695L50.6675 77.2216L64.0315 53.1216L66.1075 54.3695ZM66.9254 54.1418L63.812 52.2703L49.8497 77.4493L52.963 79.3208L66.9254 54.1418Z" fill="#413930"/>
<path d="M78.8349 61.6606L76.2402 60.1009L62.577 84.7404L65.1717 86.3001L78.8349 61.6606Z" fill="#F2EFED"/>
<path d="M78.4259 61.7744L65.0618 85.8744L62.9859 84.6265L76.3499 60.5265L78.4259 61.7744ZM79.2437 61.5467L76.1304 59.6752L62.168 84.8542L65.2814 86.7257L79.2437 61.5467Z" fill="#413930"/>
<path d="M55.3063 65.2837C52.7587 63.7522 50.9355 61.2803 50.1729 58.3234C49.4104 55.3665 49.7995 52.2789 51.2691 49.6288L53.1567 46.2247L89.5998 68.1312L87.7121 71.5353C86.2427 74.1851 83.869 76.0801 81.0282 76.871C78.1874 77.6619 75.22 77.2541 72.672 75.7225L55.3063 65.2837Z" fill="#F2EFED"/>
<path d="M89.1909 68.2454L87.4529 71.3797C86.7303 72.6827 85.7841 73.7992 84.641 74.6979C83.5363 75.566 82.2948 76.1961 80.9511 76.5702C79.607 76.9444 78.2289 77.0439 76.8546 76.8656C75.4322 76.6812 74.0754 76.2058 72.8226 75.4527L55.4563 65.0136C54.2036 64.2605 53.1298 63.2749 52.2652 62.0845C51.4299 60.9342 50.8233 59.6416 50.4626 58.2431C50.1018 56.844 50.005 55.4098 50.175 53.9799C50.351 52.4998 50.8066 51.0884 51.5291 49.7854L53.2672 46.651L89.1909 68.2454ZM90.0088 68.0177L53.0474 45.7996L51.0101 49.4734C47.8893 55.1014 49.7459 62.3007 55.157 65.5534L72.5227 75.9922C77.9338 79.2449 84.8504 77.3193 87.9712 71.6913L90.0085 68.0175L90.0088 68.0177Z" fill="#413930"/>
<path d="M53.3371 56.9014C53.3371 56.9014 55.3355 62.4841 69.2908 70.3647L80.9186 76.5788C80.9186 76.5788 84.862 75.6036 86.7015 72.5467C86.7015 72.5467 58.6254 61.3543 53.3372 56.9019L53.3371 56.9014Z" fill="#E5E1DE"/>
<path d="M90.4162 24.8094L88.9102 23.9041L84.5471 31.7723L86.0531 32.6776L90.4162 24.8094Z" fill="#F2EFED"/>
<path d="M90.0077 24.9234L85.9438 32.2521L84.9564 31.6586L89.0203 24.3299L90.0077 24.9234ZM90.8255 24.6958L88.8008 23.4787L84.1386 31.8863L86.1633 33.1034L90.8255 24.6958Z" fill="#413930"/>
<path d="M57.9956 60.3743C55.7808 59.0429 53.8826 57.3006 52.3537 55.1952C50.8769 53.1616 49.8048 50.8767 49.1671 48.404C48.5294 45.9313 48.3583 43.3956 48.6587 40.8673C48.9698 38.2499 49.775 35.7547 51.0523 33.4511C52.3297 31.1475 54.0023 29.1738 56.0242 27.5847C57.977 26.0498 60.1718 24.9362 62.5473 24.2748C64.9229 23.6134 67.3596 23.4377 69.7894 23.7525C72.3049 24.0786 74.7035 24.9187 76.9183 26.2501L94.334 36.719C96.5488 38.0503 98.447 39.7926 99.9758 41.8981C101.453 43.9316 102.525 46.2165 103.162 48.6892C103.8 51.1619 103.971 53.6977 103.671 56.2259C103.36 58.8434 102.555 61.3385 101.277 63.6421C99.9998 65.9457 98.3273 67.9195 96.3054 69.5085C94.3526 71.0434 92.1578 72.1571 89.7822 72.8184C87.4066 73.4798 84.97 73.6555 82.5402 73.3407C80.0246 73.0146 77.6261 72.1745 75.4113 70.8431L57.9956 60.3743Z" fill="#F2EFED"/>
<path d="M94.1846 36.9887C96.3643 38.299 98.2326 40.0139 99.7373 42.0858C101.191 44.0872 102.246 46.3361 102.874 48.7699C103.501 51.2035 103.67 53.6995 103.374 56.1879C103.068 58.7639 102.276 61.2193 101.018 63.4867C99.7609 65.7541 98.1147 67.6964 96.1251 69.2604C94.2032 70.7711 92.043 71.8671 89.705 72.518C87.3669 73.1689 84.9685 73.3418 82.577 73.0318C80.1012 72.711 77.7409 71.8841 75.5609 70.5737L58.1452 60.1048C55.9655 58.7946 54.0973 57.0796 52.5925 55.0077C51.139 53.0063 50.0839 50.7575 49.456 48.3237C48.8284 45.89 48.6599 43.3943 48.9557 40.9057C49.2618 38.3296 50.0543 35.8742 51.3116 33.6068C52.5689 31.3394 54.2151 29.3972 56.2048 27.8332C58.1267 26.3224 60.2868 25.2265 62.625 24.5752C64.9631 23.9243 67.3615 23.7514 69.753 24.0614C72.2288 24.3822 74.5891 25.2091 76.7691 26.5195L94.1848 36.9884M94.4839 36.4489L77.0682 25.98C67.8647 20.4481 56.1012 23.723 50.7932 33.2952C45.4852 42.8674 48.6429 55.1117 57.8462 60.644L75.262 71.1129C84.4653 76.6452 96.2288 73.3702 101.537 63.798C106.845 54.2258 103.687 41.9815 94.4838 36.4492L94.4839 36.4489Z" fill="#413930"/>
<path d="M63.0593 45.3686C61.1667 44.2309 59.8125 42.3946 59.2461 40.1983C58.6797 38.002 58.9688 35.7082 60.0604 33.7398C61.1519 31.7713 62.9153 30.3637 65.0254 29.7763C67.1354 29.1888 69.34 29.4918 71.2326 30.6294L93.5346 44.0356C95.4272 45.1733 96.7815 47.0096 97.3479 49.2059C97.9143 51.4021 97.6252 53.696 96.5336 55.6644C95.4421 57.6329 93.6786 59.0405 91.5686 59.6279C89.4586 60.2153 87.254 59.9124 85.3614 58.7747L63.0593 45.3686Z" fill="#F15D22"/>
<path d="M93.3939 44.2898C94.3178 44.8452 95.1093 45.5718 95.7468 46.4492C96.3627 47.2972 96.8098 48.2502 97.0759 49.2817C97.3419 50.3132 97.4133 51.3708 97.2879 52.4251C97.1584 53.5164 96.8222 54.557 96.2893 55.5179C95.7565 56.4788 95.0589 57.3017 94.2163 57.9643C93.402 58.6045 92.4866 59.0689 91.4956 59.3448C90.5046 59.6207 89.4884 59.6941 88.4751 59.5627C87.4263 59.4269 86.426 59.0761 85.5025 58.5209L63.2001 45.1146C62.2762 44.5592 61.4848 43.8326 60.8473 42.9552C60.2313 42.1072 59.7842 41.1542 59.5182 40.1227C59.2522 39.0912 59.1808 38.0336 59.3061 36.9792C59.4357 35.888 59.7719 34.8474 60.3047 33.8865C60.8376 32.9256 61.5352 32.1027 62.3777 31.4401C63.1921 30.7999 64.1074 30.3354 65.0984 30.0595C66.0895 29.7836 67.1057 29.7103 68.119 29.8417C69.1677 29.9775 70.168 30.3283 71.0916 30.8835L93.3936 44.2896M93.6752 43.7819L71.3731 30.3757C67.3252 27.9425 62.1509 29.3827 59.8161 33.5932C57.4814 37.8033 58.8702 43.1892 62.9184 45.6226L85.2204 59.0288C89.2683 61.462 94.4427 60.0218 96.7775 55.8113C99.1123 51.6009 97.7234 46.2153 93.6752 43.7819Z" fill="#413930"/>
<path d="M59.3506 39.4648L93.1354 58.7473C93.1354 58.7473 90.3502 59.8686 89.2093 59.5945C88.0684 59.3204 87.6327 59.964 84.0007 57.6162L62.8489 44.9213C62.8489 44.9213 60.1985 43.4585 59.3506 39.4648Z" fill="#C04A1B"/>
<path d="M64.0184 44.877C67.5062 46.9735 71.9643 45.7324 73.9759 42.1048C75.9875 38.4773 74.7908 33.8369 71.303 31.7404C67.8152 29.6438 63.3571 30.8849 61.3455 34.5125C59.3339 38.1401 60.5306 42.7804 64.0184 44.877Z" fill="#413930"/>
<path d="M71.2238 31.8828C72.058 32.3842 72.773 33.0404 73.3484 33.8331C73.9045 34.599 74.3085 35.4595 74.5484 36.3908C74.7886 37.3221 74.8531 38.277 74.74 39.2291C74.623 40.2149 74.3197 41.1543 73.8386 42.0219C73.3575 42.8895 72.7276 43.633 71.9663 44.231C71.2308 44.8091 70.4042 45.2287 69.5096 45.4775C68.6148 45.7266 67.6973 45.7928 66.7822 45.6743C65.8348 45.5516 64.9318 45.2352 64.0976 44.7338C63.2634 44.2323 62.5484 43.5762 61.973 42.7834C61.4169 42.0176 61.0129 41.157 60.773 40.2258C60.5331 39.2946 60.4684 38.3396 60.5814 37.3874C60.6984 36.4016 61.0017 35.4622 61.4828 34.5946C61.9639 33.727 62.5938 32.9836 63.3551 32.3855C64.0906 31.8075 64.9172 31.3879 65.8118 31.1391C66.7065 30.8903 67.6241 30.8237 68.5392 30.9422C69.4866 31.0649 70.3896 31.3813 71.2238 31.8828ZM71.3822 31.5972C67.8185 29.455 63.2636 30.723 61.2082 34.4296C59.1529 38.1361 60.3755 42.8772 63.9392 45.0194C67.5029 47.1616 72.0578 45.8935 74.1132 42.187C76.1685 38.4804 74.9459 33.7394 71.3822 31.5972Z" fill="#413930"/>
<path d="M90.823 58.4245C94.7116 57.3419 97.0178 53.1831 95.974 49.1355C94.9301 45.0879 90.9316 42.6843 87.0429 43.7669C83.1543 44.8495 80.8481 49.0083 81.892 53.0559C82.9358 57.1035 86.9344 59.5071 90.823 58.4245Z" fill="#413930"/>
<path d="M92.4963 44.6697C93.3304 45.1712 94.0454 45.8273 94.6209 46.62C95.177 47.3859 95.5809 48.2465 95.8208 49.1777C96.0607 50.1089 96.1255 51.0639 96.0125 52.0161C95.8954 53.0019 95.5922 53.9412 95.111 54.8088C94.6299 55.6765 94 56.4199 93.2388 57.018C92.5033 57.596 91.6767 58.0156 90.782 58.2644C89.8874 58.5132 88.9697 58.5798 88.0546 58.4613C87.1072 58.3386 86.2043 58.0222 85.3701 57.5207C84.5359 57.0193 83.8209 56.3631 83.2455 55.5704C82.6893 54.8045 82.2854 53.9439 82.0455 53.0127C81.8053 52.0813 81.7408 51.1265 81.8539 50.1744C81.9709 49.1886 82.2742 48.2492 82.7553 47.3816C83.2364 46.514 83.8663 45.7705 84.6276 45.1724C85.363 44.5944 86.1897 44.1748 87.0843 43.926C87.9791 43.6769 88.8966 43.6107 89.8117 43.7292C90.7591 43.8519 91.6621 44.1683 92.4963 44.6697ZM92.6546 44.3841C89.0909 42.2419 84.536 43.51 82.4807 47.2165C80.4253 50.9231 81.648 55.6641 85.2117 57.8063C88.7754 59.9485 93.3303 58.6804 95.3856 54.9739C97.441 51.2674 96.2183 46.5263 92.6546 44.3841Z" fill="#413930"/>
<path d="M68.2891 36.8319C69.5733 37.6039 71.2147 37.1469 71.9554 35.8112C72.6961 34.4756 72.2554 32.767 70.9712 31.995C69.687 31.2231 68.0456 31.6801 67.3049 33.0157C66.5642 34.3514 67.0049 36.06 68.2891 36.8319Z" fill="#F2EFED" stroke="#413930" stroke-width="1.40964" stroke-miterlimit="10"/>
<path d="M64.9231 35.1441C65.3492 35.4003 65.8939 35.2486 66.1397 34.8054C66.3855 34.3622 66.2393 33.7952 65.8131 33.539C65.387 33.2828 64.8423 33.4345 64.5965 33.8777C64.3507 34.321 64.4969 34.8879 64.9231 35.1441Z" fill="#F2EFED" stroke="#413930" stroke-width="0.468313" stroke-miterlimit="10"/>
<path d="M90.272 50.8203C91.5562 51.5923 93.1977 51.1353 93.9383 49.7996C94.679 48.464 94.2384 46.7554 92.9542 45.9834C91.67 45.2115 90.0285 45.6685 89.2878 47.0041C88.5472 48.3398 88.9878 50.0484 90.272 50.8203Z" fill="#F2EFED" stroke="#413930" stroke-width="1.40964" stroke-miterlimit="10"/>
<path d="M86.106 48.0034C86.5573 48.2747 87.1341 48.1141 87.3944 47.6447C87.6546 47.1754 87.4998 46.575 87.0485 46.3037C86.5973 46.0325 86.0205 46.193 85.7602 46.6624C85.4999 47.1317 85.6548 47.7321 86.106 48.0034Z" fill="#F2EFED" stroke="#413930" stroke-width="0.49494" stroke-miterlimit="10"/>
<path d="M93.3094 24.8452C95.9229 24.1176 97.4729 21.3224 96.7713 18.6021C96.0697 15.8817 93.3823 14.2663 90.7688 14.9939C88.1553 15.7215 86.6053 18.5166 87.3069 21.237C88.0085 23.9573 90.6959 25.5728 93.3094 24.8452Z" fill="#F15D22"/>
<path d="M94.3466 15.7589C95.4151 16.4012 96.1798 17.438 96.4995 18.6779C96.8193 19.9177 96.656 21.2129 96.0397 22.3242C95.4235 23.4355 94.4278 24.2304 93.2366 24.562C92.0455 24.8936 90.8007 24.7225 89.7322 24.0802C88.6637 23.4379 87.899 22.4011 87.5793 21.1612C87.2595 19.9214 87.4228 18.6262 88.0391 17.5149C88.6554 16.4036 89.651 15.6087 90.8422 15.2771C92.0333 14.9455 93.2781 15.1166 94.3466 15.7589ZM94.6281 15.2512C92.1491 13.761 88.9807 14.6431 87.5509 17.2215C86.1211 19.7998 86.9716 23.0978 89.4507 24.5879C91.9297 26.0781 95.0981 25.196 96.5279 22.6177C97.9577 20.0393 97.1072 16.7414 94.6281 15.2512V15.2512Z" fill="#413930"/>
<path d="M46.4824 75.0654L46.6787 74.7112C48.2922 71.8016 51.8811 70.8024 54.6787 72.4841C57.4762 74.1657 58.4396 77.9013 56.8261 80.811L56.6297 81.1651L46.4824 75.0654Z" fill="#F2EFED"/>
<path d="M54.529 72.7539C55.815 73.5269 56.7351 74.7743 57.1198 76.2669C57.5046 77.7591 57.3082 79.3179 56.5667 80.6551L56.5199 80.7395L46.8912 74.9516L46.938 74.8672C47.6797 73.5296 48.8776 72.5733 50.3115 72.1743C51.7452 71.7752 53.2433 71.981 54.529 72.7539ZM54.8281 72.2144C51.8829 70.4439 48.118 71.4921 46.4193 74.5554L46.0733 75.1793L56.7394 81.5908L57.0854 80.9669C58.784 77.9037 57.7734 73.9848 54.8281 72.2144Z" fill="#413930"/>
<path d="M58.8012 82.4702L58.9976 82.116C60.6111 79.2063 64.2 78.2072 66.9975 79.8889C69.7951 81.5705 70.7584 85.3061 69.145 88.2158L68.9486 88.5699L58.8012 82.4702Z" fill="#F2EFED"/>
<path d="M66.8478 80.1587C68.1339 80.9318 69.054 82.1792 69.4386 83.6717C69.8234 85.1639 69.6271 86.7227 68.8855 88.06L68.8387 88.1444L59.21 82.3564L59.2568 82.272C59.9986 80.9344 61.1964 79.9781 62.6304 79.5792C64.064 79.1801 65.5621 79.3858 66.8478 80.1587ZM67.147 79.6192C64.2018 77.8488 60.4368 78.897 58.7381 81.9602L58.3922 82.5841L69.0582 88.9957L69.4042 88.3718C71.1029 85.3085 70.0922 81.3897 67.147 79.6192Z" fill="#413930"/>
<path d="M89.02 24.3298C89.02 24.3298 89.5621 24.6654 90.0074 24.9233L89.2215 26.3406L88.5241 25.2241L89.02 24.3298Z" fill="#E5E1DE"/>
<path d="M59.1908 82.3544L68.8403 88.1548C68.8403 88.1548 70.9017 84.9597 68.3468 81.423C68.3468 81.423 69.6232 88.6254 59.1908 82.3544Z" fill="#E5E1DE"/>
<path d="M46.8754 74.9514L56.5248 80.7518C56.5248 80.7518 58.5863 77.5567 56.0314 74.02C56.0314 74.02 57.3077 81.2224 46.8754 74.9514Z" fill="#E5E1DE"/>
<path d="M68.98 73.8624L71.0495 75.1065L69.9849 77.0264L68.1587 75.3435L68.98 73.8624Z" fill="#E5E1DE"/>
<path d="M56.646 66.4482L58.7159 67.6925L57.6512 69.6124L55.8247 67.9293L56.646 66.4482Z" fill="#E5E1DE"/>
</g>
<path d="M13.8296 62.6007L18.8757 82.2082C19.4286 84.3565 20.3906 85.8556 21.7618 86.7054C23.1253 87.525 24.7805 87.6632 26.7277 87.12C28.7039 86.5687 30.0856 85.5832 30.8728 84.1637C31.6522 82.7139 31.7654 80.9148 31.2125 78.7664L26.1665 59.159L32.3131 57.4442L37.3475 77.0063C38.0405 79.6993 38.0618 82.1419 37.4112 84.3341C36.7818 86.488 35.6433 88.2974 33.9957 89.7624C32.3771 91.2193 30.4199 92.268 28.124 92.9085C25.8571 93.5409 23.673 93.6476 21.5716 93.2285C19.4993 92.8012 17.688 91.8147 16.1377 90.269C14.5796 88.6929 13.454 86.5584 12.761 83.8654L7.72656 64.3033L13.8296 62.6007Z" fill="#F15D22"/>
<path d="M62.9217 59.4127C63.3578 61.1071 63.3743 62.8051 62.9711 64.5067C62.5971 66.2002 61.6986 67.7319 60.2757 69.1018C58.8818 70.4635 56.9352 71.4931 54.4359 72.1903L49.3355 73.6132L52.4659 85.7771L46.3629 87.4797L38.2097 55.7992L49.4132 52.6737C51.7672 52.0169 53.8815 51.8811 55.7561 52.2662C57.6307 52.6513 59.1656 53.4717 60.3609 54.7273C61.5853 55.9749 62.4389 57.5366 62.9217 59.4127ZM52.8544 67.1345C54.54 66.6642 55.6885 65.9223 56.2997 64.9085C56.9032 63.8645 57.0181 62.6163 56.6443 61.1639C55.85 58.0776 53.7963 56.9965 50.4832 57.9208L45.6444 59.2707L48.0156 68.4844L52.8544 67.1345Z" fill="#F15D22"/>
<path d="M13.8296 62.6007L18.8757 82.2082C19.4286 84.3565 20.3906 85.8556 21.7618 86.7054C23.1253 87.525 24.7805 87.6632 26.7277 87.12C28.7039 86.5687 30.0856 85.5832 30.8728 84.1637C31.6522 82.7139 31.7654 80.9148 31.2125 78.7664L26.1665 59.159L32.3131 57.4442L37.3475 77.0063C38.0405 79.6993 38.0618 82.1419 37.4112 84.3341C36.7818 86.488 35.6433 88.2974 33.9957 89.7624C32.3771 91.2193 30.4199 92.268 28.124 92.9085C25.8571 93.5409 23.673 93.6476 21.5716 93.2285C19.4993 92.8012 17.688 91.8147 16.1377 90.269C14.5796 88.6929 13.454 86.5584 12.761 83.8654L7.72656 64.3033L13.8296 62.6007Z" stroke="#413930"/>
<path d="M62.9217 59.4127C63.3578 61.1071 63.3743 62.8051 62.9711 64.5067C62.5971 66.2002 61.6986 67.7319 60.2757 69.1018C58.8818 70.4635 56.9352 71.4931 54.4359 72.1903L49.3355 73.6132L52.4659 85.7771L46.3629 87.4797L38.2097 55.7992L49.4132 52.6737C51.7672 52.0169 53.8815 51.8811 55.7561 52.2662C57.6307 52.6513 59.1656 53.4717 60.3609 54.7273C61.5853 55.9749 62.4389 57.5366 62.9217 59.4127ZM52.8544 67.1345C54.54 66.6642 55.6885 65.9223 56.2997 64.9085C56.9032 63.8645 57.0181 62.6163 56.6443 61.1639C55.85 58.0776 53.7963 56.9965 50.4832 57.9208L45.6444 59.2707L48.0156 68.4844L52.8544 67.1345Z" stroke="#413930"/>
<path d="M2.58113 45.9253L6.36959 60.646L13.4695 58.6653L12.968 56.7167L8.18725 58.0504L4.90029 45.2783L2.58113 45.9253Z" fill="#5E91FF"/>
<path d="M19.4269 41.203L11.615 43.3823L15.4089 58.1242L23.2208 55.9449L22.7139 53.975L17.2211 55.5074L16.0601 50.9959L20.9425 49.6338L20.4356 47.664L15.5531 49.0261L14.4411 44.7052L19.9339 43.1728L19.4269 41.203Z" fill="#5E91FF"/>
<path d="M30.973 51.1261L23.6315 40.0527L21.1496 40.7451L30.2681 53.9788L32.9534 53.2297L34.4746 37.0277L32.0334 37.7087L30.973 51.1261Z" fill="#5E91FF"/>
<path d="M44.2205 34.2861L36.4086 36.4654L40.2025 51.2073L48.0144 49.028L47.5075 47.0582L42.0147 48.5905L40.8537 44.079L45.7361 42.7169L45.2292 40.7471L40.3467 42.1092L39.2347 37.7883L44.7274 36.2559L44.2205 34.2861Z" fill="#5E91FF"/>
<path d="M47.0825 33.5104L50.8709 48.2311L57.9708 46.2504L57.4693 44.3017L52.6886 45.6354L49.4016 32.8634L47.0825 33.5104Z" fill="#5E91FF"/>
<path d="M2.58113 45.9253L6.36959 60.646L13.4695 58.6653L12.968 56.7167L8.18725 58.0504L4.90029 45.2783L2.58113 45.9253Z" stroke="#413930"/>
<path d="M19.4269 41.203L11.615 43.3823L15.4089 58.1242L23.2208 55.9449L22.7139 53.975L17.2211 55.5074L16.0601 50.9959L20.9425 49.6338L20.4356 47.664L15.5531 49.0261L14.4411 44.7052L19.9339 43.1728L19.4269 41.203Z" stroke="#413930"/>
<path d="M30.973 51.1261L23.6315 40.0527L21.1496 40.7451L30.2681 53.9788L32.9534 53.2297L34.4746 37.0277L32.0334 37.7087L30.973 51.1261Z" stroke="#413930"/>
<path d="M44.2205 34.2861L36.4086 36.4654L40.2025 51.2073L48.0144 49.028L47.5075 47.0582L42.0147 48.5905L40.8537 44.079L45.7361 42.7169L45.2292 40.7471L40.3467 42.1092L39.2347 37.7883L44.7274 36.2559L44.2205 34.2861Z" stroke="#413930"/>
<path d="M47.0825 33.5104L50.8709 48.2311L57.9708 46.2504L57.4693 44.3017L52.6886 45.6354L49.4016 32.8634L47.0825 33.5104Z" stroke="#413930"/>
<ellipse cx="97.2267" cy="79.7766" rx="9.65829" ry="10.0559" fill="#5E91FF" stroke="#413930"/>
<path d="M100.919 73.2698C101.772 73.5656 102.908 74.3348 103.76 75.9317C104.612 77.5285 104.612 79.7766 104.424 80.9596" stroke="#F2EFED" stroke-width="2" stroke-linecap="round" stroke-linejoin="round"/>
<path d="M90.145 81.9755C89.7433 81.139 89.3416 79.8842 89.9442 78.002" stroke="#F2EFED" stroke-width="2" stroke-linecap="round" stroke-linejoin="round"/>
<path d="M103.574 83.3258C103.077 84.3431 102.463 84.9788 101.854 85.3945" stroke="#F2EFED" stroke-width="2" stroke-linecap="round" stroke-linejoin="round"/>
<ellipse cx="43.1404" cy="20.1117" rx="7.08275" ry="7.3743" fill="#5E91FF" stroke="#413930"/>
<path d="M45.0723 15.419C45.7668 15.6359 46.6927 16.0696 47.3872 17.371C48.0817 18.6723 48.0817 20.1906 47.8502 21.0581" stroke="#F2EFED" stroke-width="2" stroke-linecap="round" stroke-linejoin="round"/>
<path d="M38.1743 21.6849C37.8797 21.0715 37.5851 20.1513 38.027 18.771" stroke="#F2EFED" stroke-width="2" stroke-linecap="round" stroke-linejoin="round"/>
<defs>
<clipPath id="clip0_497_2493">
<rect width="59.2058" height="76.4244" fill="white" transform="matrix(0.857071 0.515199 -0.484953 0.87454 69.2563 0)"/>
</clipPath>
</defs>
</svg>
