<svg width="632" height="120" viewBox="0 0 632 120" fill="none" xmlns="http://www.w3.org/2000/svg">
<g clip-path="url(#clip0_518_912)">
<path d="M469.646 117.897C469.646 117.897 457.915 107.997 465.024 102.346C472.132 96.6955 475.4 107.24 475.4 107.24C475.4 107.24 478.975 98.28 483.388 98.0977C487.801 97.9154 484.505 107.24 484.505 107.24C484.505 107.24 493.289 100.075 493.834 108.432C494.378 116.789 482.564 117.897 482.564 117.897H469.646Z" fill="#09CC91" stroke="#413930"/>
<path d="M161.339 117.897C161.339 117.897 149.803 110.479 157.61 106.427C165.416 102.374 167.176 108.292 167.176 108.292C167.176 108.292 164.271 99.1353 168.698 98.6305C173.125 98.1257 178.991 105.627 177.985 108.292C176.98 110.956 180.569 98.2659 186.56 102.907C192.551 107.548 185.778 117.897 185.778 117.897H161.339Z" fill="#09CC91" stroke="#413930"/>
<path d="M49.9253 117.897C49.9253 117.897 57.1592 113.017 54.6315 110.283C52.1038 107.548 44.1018 108.292 44.1018 108.292C44.1018 108.292 47.0065 99.1353 42.5796 98.6305C38.1527 98.1257 36.6165 105.627 37.622 108.292C38.6275 110.956 33.0554 99.1493 27.0644 103.805C21.0734 108.46 25.5003 117.911 25.5003 117.911H49.9392L49.9253 117.897Z" fill="#09CC91" stroke="#413930"/>
<path d="M2.09473 117.897H238.608" stroke="#413930" stroke-width="3" stroke-linecap="round"/>
<path d="M256.748 117.897H287.485" stroke="#413930" stroke-width="3" stroke-linecap="round"/>
<path d="M301.967 117.897H629.742" stroke="#413930" stroke-width="3" stroke-linecap="round"/>
<path d="M74.5257 56.7555L68.7795 111.192L74.7233 111.825L80.4695 57.388L74.5257 56.7555Z" fill="#F2EFED"/>
<path d="M75.1042 57.406L79.8523 57.9107L74.2383 111.152L69.4902 110.647L75.1042 57.406ZM74.0428 56.0879L68.1775 111.727L75.2997 112.484L81.165 56.8451L74.0428 56.0879Z" fill="#413930"/>
<path d="M98.0626 59.7554L92.3164 114.192L98.2602 114.825L104.006 60.3879L98.0626 59.7554Z" fill="#F2EFED"/>
<path d="M98.5656 60.4066L103.314 60.9114L97.6998 114.153L92.9516 113.648L98.5656 60.4066ZM97.5043 59.0885L91.6389 114.714L98.7611 115.471L104.626 59.8317L97.5043 59.0745V59.0885Z" fill="#413930"/>
<path d="M107.81 102.08C104.557 102.08 101.373 101.211 98.5516 99.584L69.2808 82.6174C60.4129 77.4573 57.3685 66.0715 62.4798 57.1535L65.6638 51.6149L127.096 87.2166L123.912 92.7553C120.589 98.5183 114.458 102.08 107.81 102.08Z" fill="#F2EFED"/>
<path d="M65.8453 52.316L126.398 87.413L123.465 92.517C118.494 101.183 107.461 104.169 98.8169 99.1774C98.8169 99.1774 98.8169 99.1774 98.8029 99.1774L69.5321 82.2108C60.8877 77.205 57.9271 66.1136 62.9126 57.434L65.8453 52.33V52.316ZM65.4822 50.9278L62.0468 56.9012C56.7819 66.0575 59.9101 77.7658 69.0293 83.0521L98.3001 100.019C107.419 105.305 119.066 102.178 124.331 93.0217C124.331 93.0217 124.331 93.0217 124.331 93.0077L127.766 87.0344L65.4682 50.9278H65.4822Z" fill="#413930"/>
<path d="M65.957 68.9881C65.957 68.9881 69.3226 78.0743 92.8538 90.8764L112.461 100.972C112.461 100.972 119.108 99.3877 122.208 94.4099C122.208 94.4099 74.8807 76.2375 65.971 69.0021" fill="#908B85"/>
<path d="M125.937 15.2714L118.577 28.0706L121.117 29.5429L128.477 16.7437L125.937 15.2714Z" fill="#F2EFED"/>
<path d="M126.119 15.957L127.781 16.9245L120.924 28.8572L119.262 27.8897L126.119 15.957ZM125.756 14.5688L125.253 15.4522L118.396 27.3849L117.893 28.2683L118.773 28.7731L120.435 29.7406L121.315 30.2454L121.818 29.362L128.674 17.4293L129.177 16.5459L128.297 16.0412L126.635 15.0736L125.756 14.5688Z" fill="#413930"/>
<path d="M119.094 95.9383C113.508 95.9383 108.02 94.452 103.174 91.6476L73.8195 74.639C58.5417 65.7911 53.3048 46.1884 62.1168 30.8484C70.9287 15.5083 90.452 10.2501 105.73 19.0979L135.084 36.1066C150.362 44.9544 155.585 64.5572 146.787 79.8972C141.061 89.8107 130.518 95.9243 119.108 95.9383" fill="#F2EFED"/>
<path d="M89.7955 15.298C95.2978 15.298 100.702 16.7563 105.464 19.5326L134.819 36.5413C149.859 45.2489 155.012 64.5431 146.34 79.6448C137.668 94.7465 118.452 99.9206 103.411 91.2129L74.0568 74.2043C59.0164 65.4966 53.8633 46.1884 62.5496 31.1007C68.1636 21.3274 78.5536 15.312 89.7955 15.312M89.7955 14.3024C71.8783 14.3024 57.3406 28.8713 57.3267 46.8474C57.3267 58.4997 63.4992 69.2545 73.5541 75.0736L102.909 92.0823C118.424 101.07 138.254 95.728 147.206 80.1496C156.158 64.5712 150.837 44.66 135.322 35.6719L105.967 18.6633C101.051 15.8028 95.4653 14.3024 89.7955 14.3024Z" fill="#413930"/>
<path d="M126.817 73.8537C124.401 73.8537 122.027 73.2087 119.932 72.0028L82.3381 50.2267C75.7186 46.4548 73.3865 37.9995 77.1431 31.3531C80.8997 24.7067 89.3206 22.365 95.9401 26.137C95.9959 26.165 96.0518 26.2071 96.1216 26.2351L133.716 48.0112C140.307 51.8392 142.57 60.3085 138.757 66.9269C136.285 71.2176 131.733 73.8537 126.803 73.8537" fill="#CD4317"/>
<path d="M89.2508 24.8469C91.583 24.8469 93.8732 25.4639 95.8842 26.6417L133.478 48.4319C139.846 52.1197 142.039 60.2945 138.366 66.6885C134.693 73.0825 126.552 75.2839 120.183 71.5962L82.5894 49.806C76.2214 46.1182 74.0288 37.9434 77.7017 31.5354C80.0757 27.3849 84.4887 24.8329 89.2648 24.8469M89.2648 23.8934C81.3884 23.8934 74.9924 30.3015 74.9924 38.2099C74.9924 43.3279 77.7156 48.0673 82.1286 50.6193L119.723 72.4094C126.552 76.3636 135.28 74.0079 139.218 67.1512C143.156 60.2945 140.81 51.5307 133.981 47.5906L96.3869 25.8144C94.2224 24.5525 91.7645 23.8934 89.2648 23.8934Z" fill="#413930"/>
<path d="M76.0957 40.6076L133.045 71.9327C133.045 71.9327 128.353 73.7555 126.426 73.3209C124.499 72.8862 123.773 73.9238 117.642 70.1098L81.989 49.4835C78.8887 47.4784 76.7521 44.2673 76.0957 40.6076Z" fill="#C04A1B"/>
<path d="M90.1027 51.068C83.3157 51.068 77.8135 45.5294 77.8274 38.7147C77.8274 31.9 83.3436 26.3753 90.1307 26.3894C96.9177 26.3894 102.42 31.928 102.406 38.7427C102.406 40.9021 101.833 43.0334 100.758 44.8984C98.5656 48.7264 94.5017 51.068 90.1027 51.068Z" fill="#413930"/>
<path d="M90.1167 26.6418C96.7641 26.6418 102.141 32.0542 102.141 38.7287C102.141 45.4032 96.7501 50.8016 90.1028 50.8016C83.4554 50.8016 78.0788 45.3891 78.0788 38.7147C78.0788 36.5974 78.6374 34.5221 79.6848 32.6852C81.8354 28.9414 85.8155 26.6418 90.1167 26.6418ZM90.1167 26.1089C83.1761 26.1089 77.5342 31.7458 77.5342 38.7147C77.5342 45.6836 83.1481 51.3485 90.0888 51.3485C97.0295 51.3485 102.671 45.7116 102.671 38.7427C102.671 34.2276 100.283 30.0491 96.3871 27.7916C94.4878 26.6838 92.3232 26.1089 90.1167 26.0949" fill="#413930"/>
<path d="M125.951 71.8486C119.164 71.8486 113.662 66.3099 113.676 59.4952C113.676 52.6805 119.192 47.1559 125.979 47.1699C132.766 47.1699 138.268 52.7086 138.254 59.5232C138.254 61.6826 137.682 63.814 136.606 65.6789C134.414 69.5069 130.35 71.8486 125.951 71.8486Z" fill="#413930"/>
<path d="M125.979 47.4223C132.626 47.4223 138.003 52.8348 138.003 59.5092C138.003 66.1837 132.612 71.5821 125.965 71.5821C119.318 71.5821 113.941 66.1697 113.941 59.4952C113.941 57.3779 114.5 55.3026 115.547 53.4658C117.698 49.7219 121.664 47.4223 125.965 47.4223M125.965 46.8894C119.024 46.8894 113.383 52.5263 113.383 59.4952C113.383 66.4641 118.997 72.129 125.937 72.129C132.878 72.129 138.52 66.4922 138.52 59.5232C138.52 55.0082 136.132 50.8296 132.235 48.5721C130.336 47.4643 128.172 46.8894 125.965 46.8754" fill="#413930"/>
<path d="M92.4489 34.8446C91.192 37.018 88.4269 37.7612 86.2623 36.5132C84.0977 35.2652 83.3576 32.4749 84.6005 30.3015C85.8434 28.1281 88.6085 27.3849 90.7731 28.6329C92.9377 29.8808 93.6918 32.6572 92.4349 34.8446" fill="#F2EFED"/>
<path d="M92.4489 34.8446C91.192 37.018 88.4269 37.7612 86.2623 36.5132C84.0977 35.2652 83.3576 32.4749 84.6005 30.3015C85.8434 28.1281 88.6085 27.3849 90.7731 28.6329C92.9377 29.8808 93.6918 32.6572 92.4349 34.8446H92.4489Z" stroke="#413930" stroke-width="0.91" stroke-miterlimit="10"/>
<path d="M83.3296 35.5316C82.9107 36.2468 82.0029 36.4992 81.2767 36.0785C80.5645 35.6578 80.3132 34.7464 80.7321 34.0173C81.1511 33.3022 82.0588 33.0498 82.785 33.4704C83.4972 33.8911 83.7486 34.8025 83.3296 35.5316Z" fill="#F2EFED"/>
<path d="M83.3296 35.5316C82.9107 36.2468 82.0029 36.4992 81.2767 36.0785C80.5645 35.6578 80.3132 34.7464 80.7321 34.0173C81.1511 33.3022 82.0588 33.0498 82.785 33.4704C83.4972 33.8911 83.7486 34.8025 83.3296 35.5316Z" stroke="#413930" stroke-width="0.3" stroke-miterlimit="10"/>
<path d="M130.546 54.1388C129.303 56.3122 126.524 57.0554 124.359 55.8074C122.194 54.5595 121.454 51.7691 122.697 49.5957C123.94 47.4223 126.719 46.6791 128.884 47.9271C131.048 49.1751 131.788 51.9654 130.546 54.1388Z" fill="#F2EFED"/>
<path d="M130.546 54.1388C129.303 56.3122 126.524 57.0554 124.359 55.8074C122.194 54.5595 121.454 51.7691 122.697 49.5957C123.94 47.4223 126.719 46.6791 128.884 47.9271C131.048 49.1751 131.788 51.9654 130.546 54.1388V54.1388Z" stroke="#413930" stroke-width="0.91" stroke-miterlimit="10"/>
<path d="M121.413 55.0222C120.98 55.7934 120.002 56.0458 119.234 55.6111C118.48 55.1764 118.215 54.1949 118.647 53.4237C119.08 52.6525 120.058 52.4001 120.826 52.8348C121.58 53.2695 121.845 54.251 121.413 55.0082" fill="#F2EFED"/>
<path d="M121.413 55.0222C120.98 55.7934 120.002 56.0458 119.234 55.6111C118.48 55.1764 118.215 54.1949 118.647 53.4237C119.08 52.6525 120.058 52.4001 120.826 52.8348C121.58 53.2695 121.845 54.251 121.413 55.0082V55.0222Z" stroke="#413930" stroke-width="0.32" stroke-miterlimit="10"/>
<path d="M131.202 17.0647C126.635 17.0647 122.935 13.3489 122.935 8.76371C122.935 4.17853 126.635 0.462708 131.202 0.462708C135.768 0.462708 139.469 4.17853 139.469 8.76371C139.469 10.222 139.092 11.6522 138.366 12.9002C136.886 15.4662 134.163 17.0507 131.202 17.0507" fill="#CD4317"/>
<path d="M131.216 0.953494C135.517 0.953494 139.009 4.45899 138.995 8.77775C138.995 13.0965 135.503 16.602 131.202 16.588C126.901 16.574 123.41 13.0825 123.424 8.76373C123.424 7.38958 123.787 6.04347 124.471 4.86562C125.867 2.43982 128.437 0.953494 131.216 0.953494ZM131.216 0C126.384 0 122.474 3.91213 122.46 8.76373C122.46 13.6153 126.356 17.5415 131.188 17.5555C136.02 17.5695 139.93 13.6434 139.944 8.79177C139.944 5.65085 138.282 2.74831 135.573 1.17785C134.246 0.406637 132.752 0 131.216 0Z" fill="#413930"/>
<path d="M61.2091 116.354V115.681C61.1393 110.213 65.5103 105.712 70.9707 105.655C76.4171 105.585 80.8999 109.974 80.9557 115.457C80.9557 115.541 80.9557 115.611 80.9557 115.695V116.368H61.2091V116.354Z" fill="#F2EFED"/>
<path d="M71.0824 106.273C76.2495 106.273 80.4529 110.493 80.4529 115.681V115.836H61.7118V115.681C61.7118 110.493 65.9153 106.273 71.0824 106.273ZM71.0824 105.263C65.3567 105.263 60.7063 109.932 60.7063 115.681V116.859H81.4584V115.681C81.4584 109.932 76.8081 105.263 71.0824 105.263Z" fill="#413930"/>
<path d="M85.187 116.354V115.681C85.187 110.213 89.6139 105.768 95.0603 105.768C100.507 105.768 104.934 110.213 104.934 115.681V116.354H85.187Z" fill="#F2EFED"/>
<path d="M95.0604 106.273C100.227 106.273 104.431 110.493 104.431 115.681V115.836H85.6898V115.681C85.6898 110.493 89.8933 106.273 95.0604 106.273ZM95.0604 105.263C89.3347 105.263 84.6843 109.932 84.6843 115.681V116.859H105.436V115.681C105.436 109.932 100.786 105.263 95.0604 105.263Z" fill="#413930"/>
<path d="M126.161 15.9149C126.161 15.9149 127.068 16.4618 127.823 16.8824L126.496 19.1961L125.323 17.3732L126.161 15.9149Z" fill="#908B85"/>
<path d="M85.6619 115.864H104.445C104.487 111.839 102.029 108.222 98.2723 106.791C98.2723 106.791 105.967 115.864 85.6619 115.864Z" fill="#908B85"/>
<path d="M61.6838 115.864H80.4669C80.5088 111.839 78.0509 108.222 74.2943 106.791C74.2943 106.791 81.9891 115.864 61.6838 115.864Z" fill="#908B85"/>
<path d="M95.7028 98.5464L99.5153 100.678L99.0684 104.982L95.3677 101.337L95.7028 98.5323V98.5464Z" fill="#908B85"/>
<path d="M72.9956 85.3657L76.8081 87.5672L76.2495 92.7553L72.5767 88.9133L72.9956 85.3517V85.3657Z" fill="#908B85"/>
</g>
<defs>
<clipPath id="clip0_518_912">
<rect width="631.837" height="120" fill="white"/>
</clipPath>
</defs>
</svg>
