<svg width="1440" height="1024" viewBox="0 0 1440 1024" fill="none" xmlns="http://www.w3.org/2000/svg">
<g opacity="0.5">
<rect x="0.5" y="807.939" width="57.7276" height="57.8868" fill="#F4F4F4" stroke="#DEDEDE"/>
<rect x="115.606" y="807.939" width="57.7276" height="57.8868" fill="#F4F4F4" stroke="#DEDEDE"/>
<rect x="230.712" y="807.939" width="57.7276" height="57.8868" fill="#EAEAEA" stroke="#DEDEDE"/>
<rect x="345.818" y="807.939" width="57.7276" height="57.8868" fill="#F4F4F4" stroke="#DEDEDE"/>
<rect x="460.924" y="807.939" width="57.7276" height="57.8868" fill="#F4F4F4" stroke="#DEDEDE"/>
<rect x="576.03" y="807.939" width="57.7276" height="57.8868" fill="#F4F4F4" stroke="#DEDEDE"/>
<rect x="691.136" y="807.939" width="57.7276" height="57.8868" fill="#EAEAEA" stroke="#DEDEDE"/>
<rect x="806.242" y="807.939" width="57.7276" height="57.8868" fill="#EAEAEA" stroke="#DEDEDE"/>
<rect x="921.348" y="807.939" width="57.7276" height="57.8868" fill="#F4F4F4" stroke="#DEDEDE"/>
<rect x="1036.45" y="807.939" width="57.7276" height="57.8868" fill="#F4F4F4" stroke="#DEDEDE"/>
<rect x="1151.56" y="807.939" width="57.7276" height="57.8868" fill="#F4F4F4" stroke="#DEDEDE"/>
<rect x="1266.67" y="807.939" width="57.7276" height="57.8868" fill="#F4F4F4" stroke="#DEDEDE"/>
<rect x="1381.77" y="807.939" width="57.7276" height="57.8868" fill="#F4F4F4" stroke="#DEDEDE"/>
<rect x="58.053" y="807.939" width="57.7276" height="57.8868" fill="#EAEAEA" stroke="#DEDEDE"/>
<rect x="173.159" y="807.939" width="57.7276" height="57.8868" fill="#F4F4F4" stroke="#DEDEDE"/>
<rect x="288.265" y="807.939" width="57.7276" height="57.8868" fill="#F4F4F4" stroke="#DEDEDE"/>
<rect x="403.371" y="807.939" width="57.7276" height="57.8868" fill="#EAEAEA" stroke="#DEDEDE"/>
<rect x="518.477" y="807.939" width="57.7276" height="57.8868" fill="#F4F4F4" stroke="#DEDEDE"/>
<rect x="633.583" y="807.939" width="57.7276" height="57.8868" fill="#F4F4F4" stroke="#DEDEDE"/>
<rect x="748.689" y="807.939" width="57.7276" height="57.8868" fill="#F4F4F4" stroke="#DEDEDE"/>
<rect x="863.795" y="807.939" width="57.7276" height="57.8868" fill="#F4F4F4" stroke="#DEDEDE"/>
<rect x="978.901" y="807.939" width="57.7276" height="57.8868" fill="#EAEAEA" stroke="#DEDEDE"/>
<rect x="1094.01" y="807.939" width="57.7276" height="57.8868" fill="#F4F4F4" stroke="#DEDEDE"/>
<rect x="1209.11" y="807.939" width="57.7276" height="57.8868" fill="#EAEAEA" stroke="#DEDEDE"/>
<rect x="1324.22" y="807.939" width="57.7276" height="57.8868" fill="#F4F4F4" stroke="#DEDEDE"/>
<rect x="0.5" y="865.648" width="57.7276" height="57.8868" fill="#F4F4F4" stroke="#DEDEDE"/>
<rect x="115.606" y="865.648" width="57.7276" height="57.8868" fill="#EAEAEA" stroke="#DEDEDE"/>
<rect x="230.712" y="865.648" width="57.7276" height="57.8868" fill="#F4F4F4" stroke="#DEDEDE"/>
<rect x="345.818" y="865.648" width="57.7276" height="57.8868" fill="#EAEAEA" stroke="#DEDEDE"/>
<rect x="460.924" y="865.648" width="57.7276" height="57.8868" fill="#F4F4F4" stroke="#DEDEDE"/>
<rect x="576.03" y="865.648" width="57.7276" height="57.8868" fill="#EAEAEA" stroke="#DEDEDE"/>
<rect x="691.136" y="865.648" width="57.7276" height="57.8868" fill="#F4F4F4" stroke="#DEDEDE"/>
<rect x="806.242" y="865.648" width="57.7276" height="57.8868" fill="#F4F4F4" stroke="#DEDEDE"/>
<rect x="921.348" y="865.648" width="57.7276" height="57.8868" fill="#EAEAEA" stroke="#DEDEDE"/>
<rect x="1036.45" y="865.648" width="57.7276" height="57.8868" fill="#F4F4F4" stroke="#DEDEDE"/>
<rect x="1151.56" y="865.648" width="57.7276" height="57.8868" fill="#F4F4F4" stroke="#DEDEDE"/>
<rect x="1266.67" y="865.648" width="57.7276" height="57.8868" fill="#EAEAEA" stroke="#DEDEDE"/>
<rect x="1381.77" y="865.648" width="57.7276" height="57.8868" fill="#EAEAEA" stroke="#DEDEDE"/>
<rect x="58.053" y="865.648" width="57.7276" height="57.8868" fill="#F4F4F4" stroke="#DEDEDE"/>
<rect x="173.159" y="865.648" width="57.7276" height="57.8868" fill="#F4F4F4" stroke="#DEDEDE"/>
<rect x="288.265" y="865.648" width="57.7276" height="57.8868" fill="#F4F4F4" stroke="#DEDEDE"/>
<rect x="403.371" y="865.648" width="57.7276" height="57.8868" fill="#F4F4F4" stroke="#DEDEDE"/>
<rect x="518.477" y="865.648" width="57.7276" height="57.8868" fill="#EAEAEA" stroke="#DEDEDE"/>
<rect x="633.583" y="865.648" width="57.7276" height="57.8868" fill="#F4F4F4" stroke="#DEDEDE"/>
<rect x="748.689" y="865.648" width="57.7276" height="57.8868" fill="#F4F4F4" stroke="#DEDEDE"/>
<rect x="863.795" y="865.648" width="57.7276" height="57.8868" fill="#EAEAEA" stroke="#DEDEDE"/>
<rect x="978.901" y="865.648" width="57.7276" height="57.8868" fill="#F4F4F4" stroke="#DEDEDE"/>
<rect x="1094.01" y="865.648" width="57.7276" height="57.8868" fill="#EAEAEA" stroke="#DEDEDE"/>
<rect x="1209.11" y="865.648" width="57.7276" height="57.8868" fill="#F4F4F4" stroke="#DEDEDE"/>
<rect x="1324.22" y="865.648" width="57.7276" height="57.8868" fill="#F4F4F4" stroke="#DEDEDE"/>
<rect x="0.5" y="923.357" width="57.7276" height="57.8868" fill="#F4F4F4" stroke="#DEDEDE"/>
<rect x="115.606" y="923.357" width="57.7276" height="57.8868" fill="#F4F4F4" stroke="#DEDEDE"/>
<rect x="230.712" y="923.357" width="57.7276" height="57.8868" fill="#EAEAEA" stroke="#DEDEDE"/>
<rect x="345.818" y="923.357" width="57.7276" height="57.8868" fill="#F4F4F4" stroke="#DEDEDE"/>
<rect x="460.924" y="923.357" width="57.7276" height="57.8868" fill="#F4F4F4" stroke="#DEDEDE"/>
<rect x="576.03" y="923.357" width="57.7276" height="57.8868" fill="#F4F4F4" stroke="#DEDEDE"/>
<rect x="691.136" y="923.357" width="57.7276" height="57.8868" fill="#EAEAEA" stroke="#DEDEDE"/>
<rect x="806.242" y="923.357" width="57.7276" height="57.8868" fill="#EAEAEA" stroke="#DEDEDE"/>
<rect x="921.348" y="923.357" width="57.7276" height="57.8868" fill="#F4F4F4" stroke="#DEDEDE"/>
<rect x="1036.45" y="923.357" width="57.7276" height="57.8868" fill="#F4F4F4" stroke="#DEDEDE"/>
<rect x="1151.56" y="923.357" width="57.7276" height="57.8868" fill="#F4F4F4" stroke="#DEDEDE"/>
<rect x="1266.67" y="923.357" width="57.7276" height="57.8868" fill="#F4F4F4" stroke="#DEDEDE"/>
<rect x="1381.77" y="923.357" width="57.7276" height="57.8868" fill="#F4F4F4" stroke="#DEDEDE"/>
<rect x="58.053" y="923.357" width="57.7276" height="57.8868" fill="#EAEAEA" stroke="#DEDEDE"/>
<rect x="173.159" y="923.357" width="57.7276" height="57.8868" fill="#F4F4F4" stroke="#DEDEDE"/>
<rect x="288.265" y="923.357" width="57.7276" height="57.8868" fill="#F4F4F4" stroke="#DEDEDE"/>
<rect x="403.371" y="923.357" width="57.7276" height="57.8868" fill="#EAEAEA" stroke="#DEDEDE"/>
<rect x="518.477" y="923.357" width="57.7276" height="57.8868" fill="#F4F4F4" stroke="#DEDEDE"/>
<rect x="633.583" y="923.357" width="57.7276" height="57.8868" fill="#F4F4F4" stroke="#DEDEDE"/>
<rect x="748.689" y="923.357" width="57.7276" height="57.8868" fill="#F4F4F4" stroke="#DEDEDE"/>
<rect x="863.795" y="923.357" width="57.7276" height="57.8868" fill="#F4F4F4" stroke="#DEDEDE"/>
<rect x="978.901" y="923.357" width="57.7276" height="57.8868" fill="#EAEAEA" stroke="#DEDEDE"/>
<rect x="1094.01" y="923.357" width="57.7276" height="57.8868" fill="#F4F4F4" stroke="#DEDEDE"/>
<rect x="1209.11" y="923.357" width="57.7276" height="57.8868" fill="#EAEAEA" stroke="#DEDEDE"/>
<rect x="1324.22" y="923.357" width="57.7276" height="57.8868" fill="#F4F4F4" stroke="#DEDEDE"/>
<rect x="0.5" y="981.066" width="57.7276" height="57.8868" fill="#F4F4F4" stroke="#DEDEDE"/>
<rect x="115.606" y="981.066" width="57.7276" height="57.8868" fill="#EAEAEA" stroke="#DEDEDE"/>
<rect x="230.712" y="981.066" width="57.7276" height="57.8868" fill="#F4F4F4" stroke="#DEDEDE"/>
<rect x="345.818" y="981.066" width="57.7276" height="57.8868" fill="#EAEAEA" stroke="#DEDEDE"/>
<rect x="460.924" y="981.066" width="57.7276" height="57.8868" fill="#F4F4F4" stroke="#DEDEDE"/>
<rect x="576.03" y="981.066" width="57.7276" height="57.8868" fill="#EAEAEA" stroke="#DEDEDE"/>
<rect x="691.136" y="981.066" width="57.7276" height="57.8868" fill="#F4F4F4" stroke="#DEDEDE"/>
<rect x="806.242" y="981.066" width="57.7276" height="57.8868" fill="#F4F4F4" stroke="#DEDEDE"/>
<rect x="921.348" y="981.066" width="57.7276" height="57.8868" fill="#EAEAEA" stroke="#DEDEDE"/>
<rect x="1036.45" y="981.066" width="57.7276" height="57.8868" fill="#F4F4F4" stroke="#DEDEDE"/>
<rect x="1151.56" y="981.066" width="57.7276" height="57.8868" fill="#F4F4F4" stroke="#DEDEDE"/>
<rect x="1266.67" y="981.066" width="57.7276" height="57.8868" fill="#EAEAEA" stroke="#DEDEDE"/>
<rect x="1381.77" y="981.066" width="57.7276" height="57.8868" fill="#EAEAEA" stroke="#DEDEDE"/>
<rect x="58.053" y="981.066" width="57.7276" height="57.8868" fill="#F4F4F4" stroke="#DEDEDE"/>
<rect x="173.159" y="981.066" width="57.7276" height="57.8868" fill="#F4F4F4" stroke="#DEDEDE"/>
<rect x="288.265" y="981.066" width="57.7276" height="57.8868" fill="#F4F4F4" stroke="#DEDEDE"/>
<rect x="403.371" y="981.066" width="57.7276" height="57.8868" fill="#F4F4F4" stroke="#DEDEDE"/>
<rect x="518.477" y="981.066" width="57.7276" height="57.8868" fill="#EAEAEA" stroke="#DEDEDE"/>
<rect x="633.583" y="981.066" width="57.7276" height="57.8868" fill="#F4F4F4" stroke="#DEDEDE"/>
<rect x="748.689" y="981.066" width="57.7276" height="57.8868" fill="#F4F4F4" stroke="#DEDEDE"/>
<rect x="863.795" y="981.066" width="57.7276" height="57.8868" fill="#EAEAEA" stroke="#DEDEDE"/>
<rect x="978.901" y="981.066" width="57.7276" height="57.8868" fill="#F4F4F4" stroke="#DEDEDE"/>
<rect x="1094.01" y="981.066" width="57.7276" height="57.8868" fill="#EAEAEA" stroke="#DEDEDE"/>
<rect x="1209.11" y="981.066" width="57.7276" height="57.8868" fill="#F4F4F4" stroke="#DEDEDE"/>
<rect x="1324.22" y="981.066" width="57.7276" height="57.8868" fill="#F4F4F4" stroke="#DEDEDE"/>
<ellipse cx="318.303" cy="894.592" rx="28.1892" ry="28.2657" fill="#E9E9E9"/>
<ellipse cx="86.9168" cy="836.883" rx="28.1892" ry="28.2657" fill="#E9E9E9"/>
<ellipse cx="202.023" cy="836.883" rx="28.1892" ry="28.2657" fill="#E9E9E9"/>
<ellipse cx="547.341" cy="836.883" rx="28.1892" ry="28.2657" fill="#E9E9E9"/>
<ellipse cx="720" cy="836.883" rx="28.1892" ry="28.2657" fill="#E9E9E9"/>
<ellipse cx="892.659" cy="836.883" rx="28.1892" ry="28.2657" fill="#E9E9E9"/>
<ellipse cx="950.212" cy="836.883" rx="28.1892" ry="28.2657" fill="#E9E9E9"/>
<ellipse cx="1122.87" cy="836.883" rx="28.1892" ry="28.2657" fill="#E9E9E9"/>
<ellipse cx="1295.53" cy="836.883" rx="28.1892" ry="28.2657" fill="#E9E9E9"/>
<ellipse cx="950.212" cy="953.479" rx="28.1892" ry="28.2657" fill="#E9E9E9"/>
<ellipse cx="662.447" cy="894.592" rx="28.1892" ry="28.2657" fill="#E9E9E9"/>
<ellipse cx="777.553" cy="894.592" rx="28.1892" ry="28.2657" fill="#E9E9E9"/>
<ellipse cx="547.341" cy="953.479" rx="28.1892" ry="28.2657" fill="#E9E9E9"/>
<ellipse cx="86.9168" cy="1008.83" rx="28.1892" ry="28.2657" fill="#E9E9E9"/>
<rect x="1439.5" y="808.604" width="57.7276" height="57.8868" transform="rotate(-180 1439.5 808.604)" fill="#F4F4F4" stroke="#DEDEDE"/>
<rect x="1324.39" y="808.604" width="57.7276" height="57.8868" transform="rotate(-180 1324.39 808.604)" fill="#F4F4F4" stroke="#DEDEDE"/>
<rect x="1209.29" y="808.604" width="57.7276" height="57.8868" transform="rotate(-180 1209.29 808.604)" fill="#EAEAEA" stroke="#DEDEDE"/>
<rect x="1094.18" y="808.604" width="57.7276" height="57.8868" transform="rotate(-180 1094.18 808.604)" fill="#F4F4F4" stroke="#DEDEDE"/>
<rect x="979.076" y="808.604" width="57.7276" height="57.8868" transform="rotate(-180 979.076 808.604)" fill="#F4F4F4" stroke="#DEDEDE"/>
<rect x="863.97" y="808.604" width="57.7276" height="57.8868" transform="rotate(-180 863.97 808.604)" fill="#F4F4F4" stroke="#DEDEDE"/>
<rect x="748.864" y="808.604" width="57.7276" height="57.8868" transform="rotate(-180 748.864 808.604)" fill="#EAEAEA" stroke="#DEDEDE"/>
<rect x="633.758" y="808.604" width="57.7276" height="57.8868" transform="rotate(-180 633.758 808.604)" fill="#EAEAEA" stroke="#DEDEDE"/>
<rect x="518.652" y="808.604" width="57.7276" height="57.8868" transform="rotate(-180 518.652 808.604)" fill="#F4F4F4" stroke="#DEDEDE"/>
<rect x="403.546" y="808.604" width="57.7276" height="57.8868" transform="rotate(-180 403.546 808.604)" fill="#F4F4F4" stroke="#DEDEDE"/>
<rect x="288.44" y="808.604" width="57.7276" height="57.8868" transform="rotate(-180 288.44 808.604)" fill="#F4F4F4" stroke="#DEDEDE"/>
<rect x="173.334" y="808.604" width="57.7276" height="57.8868" transform="rotate(-180 173.334 808.604)" fill="#F4F4F4" stroke="#DEDEDE"/>
<rect x="58.2276" y="808.604" width="57.7276" height="57.8868" transform="rotate(-180 58.2276 808.604)" fill="#F4F4F4" stroke="#DEDEDE"/>
<rect x="1381.95" y="808.604" width="57.7276" height="57.8868" transform="rotate(-180 1381.95 808.604)" fill="#EAEAEA" stroke="#DEDEDE"/>
<rect x="1266.84" y="808.604" width="57.7276" height="57.8868" transform="rotate(-180 1266.84 808.604)" fill="#F4F4F4" stroke="#DEDEDE"/>
<rect x="1151.73" y="808.604" width="57.7276" height="57.8868" transform="rotate(-180 1151.73 808.604)" fill="#F4F4F4" stroke="#DEDEDE"/>
<rect x="1036.63" y="808.604" width="57.7276" height="57.8868" transform="rotate(-180 1036.63 808.604)" fill="#EAEAEA" stroke="#DEDEDE"/>
<rect x="921.523" y="808.604" width="57.7276" height="57.8868" transform="rotate(-180 921.523 808.604)" fill="#F4F4F4" stroke="#DEDEDE"/>
<rect x="806.417" y="808.604" width="57.7276" height="57.8868" transform="rotate(-180 806.417 808.604)" fill="#F4F4F4" stroke="#DEDEDE"/>
<rect x="691.311" y="808.604" width="57.7276" height="57.8868" transform="rotate(-180 691.311 808.604)" fill="#F4F4F4" stroke="#DEDEDE"/>
<rect x="576.205" y="808.604" width="57.7276" height="57.8868" transform="rotate(-180 576.205 808.604)" fill="#F4F4F4" stroke="#DEDEDE"/>
<rect x="461.099" y="808.604" width="57.7276" height="57.8868" transform="rotate(-180 461.099 808.604)" fill="#EAEAEA" stroke="#DEDEDE"/>
<rect x="345.993" y="808.604" width="57.7276" height="57.8868" transform="rotate(-180 345.993 808.604)" fill="#F4F4F4" stroke="#DEDEDE"/>
<rect x="230.887" y="808.604" width="57.7276" height="57.8868" transform="rotate(-180 230.887 808.604)" fill="#EAEAEA" stroke="#DEDEDE"/>
<rect x="115.781" y="808.604" width="57.7276" height="57.8868" transform="rotate(-180 115.781 808.604)" fill="#F4F4F4" stroke="#DEDEDE"/>
<rect x="1439.5" y="750.895" width="57.7276" height="57.8868" transform="rotate(-180 1439.5 750.895)" fill="#F4F4F4" stroke="#DEDEDE"/>
<rect x="1324.39" y="750.895" width="57.7276" height="57.8868" transform="rotate(-180 1324.39 750.895)" fill="#EAEAEA" stroke="#DEDEDE"/>
<rect x="1209.29" y="750.895" width="57.7276" height="57.8868" transform="rotate(-180 1209.29 750.895)" fill="#F4F4F4" stroke="#DEDEDE"/>
<rect x="1094.18" y="750.895" width="57.7276" height="57.8868" transform="rotate(-180 1094.18 750.895)" fill="#EAEAEA" stroke="#DEDEDE"/>
<rect x="979.076" y="750.895" width="57.7276" height="57.8868" transform="rotate(-180 979.076 750.895)" fill="#F4F4F4" stroke="#DEDEDE"/>
<rect x="863.97" y="750.895" width="57.7276" height="57.8868" transform="rotate(-180 863.97 750.895)" fill="#EAEAEA" stroke="#DEDEDE"/>
<rect x="748.864" y="750.895" width="57.7276" height="57.8868" transform="rotate(-180 748.864 750.895)" fill="#F4F4F4" stroke="#DEDEDE"/>
<rect x="633.758" y="750.895" width="57.7276" height="57.8868" transform="rotate(-180 633.758 750.895)" fill="#F4F4F4" stroke="#DEDEDE"/>
<rect x="518.652" y="750.895" width="57.7276" height="57.8868" transform="rotate(-180 518.652 750.895)" fill="#EAEAEA" stroke="#DEDEDE"/>
<rect x="403.546" y="750.895" width="57.7276" height="57.8868" transform="rotate(-180 403.546 750.895)" fill="#F4F4F4" stroke="#DEDEDE"/>
<rect x="288.44" y="750.895" width="57.7276" height="57.8868" transform="rotate(-180 288.44 750.895)" fill="#F4F4F4" stroke="#DEDEDE"/>
<rect x="173.334" y="750.895" width="57.7276" height="57.8868" transform="rotate(-180 173.334 750.895)" fill="#EAEAEA" stroke="#DEDEDE"/>
<rect x="58.2276" y="750.895" width="57.7276" height="57.8868" transform="rotate(-180 58.2276 750.895)" fill="#EAEAEA" stroke="#DEDEDE"/>
<rect x="1381.95" y="750.895" width="57.7276" height="57.8868" transform="rotate(-180 1381.95 750.895)" fill="#F4F4F4" stroke="#DEDEDE"/>
<rect x="1266.84" y="750.895" width="57.7276" height="57.8868" transform="rotate(-180 1266.84 750.895)" fill="#F4F4F4" stroke="#DEDEDE"/>
<rect x="1151.73" y="750.895" width="57.7276" height="57.8868" transform="rotate(-180 1151.73 750.895)" fill="#F4F4F4" stroke="#DEDEDE"/>
<rect x="1036.63" y="750.895" width="57.7276" height="57.8868" transform="rotate(-180 1036.63 750.895)" fill="#F4F4F4" stroke="#DEDEDE"/>
<rect x="921.523" y="750.895" width="57.7276" height="57.8868" transform="rotate(-180 921.523 750.895)" fill="#EAEAEA" stroke="#DEDEDE"/>
<rect x="806.417" y="750.895" width="57.7276" height="57.8868" transform="rotate(-180 806.417 750.895)" fill="#F4F4F4" stroke="#DEDEDE"/>
<rect x="691.311" y="750.895" width="57.7276" height="57.8868" transform="rotate(-180 691.311 750.895)" fill="#F4F4F4" stroke="#DEDEDE"/>
<rect x="576.205" y="750.895" width="57.7276" height="57.8868" transform="rotate(-180 576.205 750.895)" fill="#EAEAEA" stroke="#DEDEDE"/>
<rect x="461.099" y="750.895" width="57.7276" height="57.8868" transform="rotate(-180 461.099 750.895)" fill="#F4F4F4" stroke="#DEDEDE"/>
<rect x="345.993" y="750.895" width="57.7276" height="57.8868" transform="rotate(-180 345.993 750.895)" fill="#EAEAEA" stroke="#DEDEDE"/>
<rect x="230.887" y="750.895" width="57.7276" height="57.8868" transform="rotate(-180 230.887 750.895)" fill="#F4F4F4" stroke="#DEDEDE"/>
<rect x="115.781" y="750.895" width="57.7276" height="57.8868" transform="rotate(-180 115.781 750.895)" fill="#F4F4F4" stroke="#DEDEDE"/>
<rect x="1439.5" y="693.186" width="57.7276" height="57.8868" transform="rotate(-180 1439.5 693.186)" fill="#F4F4F4" stroke="#DEDEDE"/>
<rect x="1324.39" y="693.186" width="57.7276" height="57.8868" transform="rotate(-180 1324.39 693.186)" fill="#F4F4F4" stroke="#DEDEDE"/>
<rect x="1209.29" y="693.186" width="57.7276" height="57.8868" transform="rotate(-180 1209.29 693.186)" fill="#EAEAEA" stroke="#DEDEDE"/>
<rect x="1094.18" y="693.186" width="57.7276" height="57.8868" transform="rotate(-180 1094.18 693.186)" fill="#F4F4F4" stroke="#DEDEDE"/>
<rect x="979.076" y="693.186" width="57.7276" height="57.8868" transform="rotate(-180 979.076 693.186)" fill="#F4F4F4" stroke="#DEDEDE"/>
<rect x="863.97" y="693.186" width="57.7276" height="57.8868" transform="rotate(-180 863.97 693.186)" fill="#F4F4F4" stroke="#DEDEDE"/>
<rect x="748.864" y="693.186" width="57.7276" height="57.8868" transform="rotate(-180 748.864 693.186)" fill="#EAEAEA" stroke="#DEDEDE"/>
<rect x="633.758" y="693.186" width="57.7276" height="57.8868" transform="rotate(-180 633.758 693.186)" fill="#EAEAEA" stroke="#DEDEDE"/>
<rect x="518.652" y="693.186" width="57.7276" height="57.8868" transform="rotate(-180 518.652 693.186)" fill="#F4F4F4" stroke="#DEDEDE"/>
<rect x="403.546" y="693.186" width="57.7276" height="57.8868" transform="rotate(-180 403.546 693.186)" fill="#F4F4F4" stroke="#DEDEDE"/>
<rect x="288.44" y="693.186" width="57.7276" height="57.8868" transform="rotate(-180 288.44 693.186)" fill="#F4F4F4" stroke="#DEDEDE"/>
<rect x="173.334" y="693.186" width="57.7276" height="57.8868" transform="rotate(-180 173.334 693.186)" fill="#F4F4F4" stroke="#DEDEDE"/>
<rect x="58.2276" y="693.186" width="57.7276" height="57.8868" transform="rotate(-180 58.2276 693.186)" fill="#F4F4F4" stroke="#DEDEDE"/>
<rect x="1381.95" y="693.186" width="57.7276" height="57.8868" transform="rotate(-180 1381.95 693.186)" fill="#EAEAEA" stroke="#DEDEDE"/>
<rect x="1266.84" y="693.186" width="57.7276" height="57.8868" transform="rotate(-180 1266.84 693.186)" fill="#F4F4F4" stroke="#DEDEDE"/>
<rect x="1151.73" y="693.186" width="57.7276" height="57.8868" transform="rotate(-180 1151.73 693.186)" fill="#F4F4F4" stroke="#DEDEDE"/>
<rect x="1036.63" y="693.186" width="57.7276" height="57.8868" transform="rotate(-180 1036.63 693.186)" fill="#EAEAEA" stroke="#DEDEDE"/>
<rect x="921.523" y="693.186" width="57.7276" height="57.8868" transform="rotate(-180 921.523 693.186)" fill="#F4F4F4" stroke="#DEDEDE"/>
<rect x="806.417" y="693.186" width="57.7276" height="57.8868" transform="rotate(-180 806.417 693.186)" fill="#F4F4F4" stroke="#DEDEDE"/>
<rect x="691.311" y="693.186" width="57.7276" height="57.8868" transform="rotate(-180 691.311 693.186)" fill="#F4F4F4" stroke="#DEDEDE"/>
<rect x="576.205" y="693.186" width="57.7276" height="57.8868" transform="rotate(-180 576.205 693.186)" fill="#F4F4F4" stroke="#DEDEDE"/>
<rect x="461.099" y="693.186" width="57.7276" height="57.8868" transform="rotate(-180 461.099 693.186)" fill="#EAEAEA" stroke="#DEDEDE"/>
<rect x="345.993" y="693.186" width="57.7276" height="57.8868" transform="rotate(-180 345.993 693.186)" fill="#F4F4F4" stroke="#DEDEDE"/>
<rect x="230.887" y="693.186" width="57.7276" height="57.8868" transform="rotate(-180 230.887 693.186)" fill="#EAEAEA" stroke="#DEDEDE"/>
<rect x="115.781" y="693.186" width="57.7276" height="57.8868" transform="rotate(-180 115.781 693.186)" fill="#F4F4F4" stroke="#DEDEDE"/>
<rect x="1439.5" y="635.477" width="57.7276" height="57.8868" transform="rotate(-180 1439.5 635.477)" fill="#F4F4F4" stroke="#DEDEDE"/>
<rect x="1324.39" y="635.477" width="57.7276" height="57.8868" transform="rotate(-180 1324.39 635.477)" fill="#EAEAEA" stroke="#DEDEDE"/>
<rect x="1209.29" y="635.477" width="57.7276" height="57.8868" transform="rotate(-180 1209.29 635.477)" fill="#F4F4F4" stroke="#DEDEDE"/>
<rect x="1094.18" y="635.477" width="57.7276" height="57.8868" transform="rotate(-180 1094.18 635.477)" fill="#EAEAEA" stroke="#DEDEDE"/>
<rect x="979.076" y="635.477" width="57.7276" height="57.8868" transform="rotate(-180 979.076 635.477)" fill="#F4F4F4" stroke="#DEDEDE"/>
<rect x="863.97" y="635.477" width="57.7276" height="57.8868" transform="rotate(-180 863.97 635.477)" fill="#EAEAEA" stroke="#DEDEDE"/>
<rect x="748.864" y="635.477" width="57.7276" height="57.8868" transform="rotate(-180 748.864 635.477)" fill="#F4F4F4" stroke="#DEDEDE"/>
<rect x="633.758" y="635.477" width="57.7276" height="57.8868" transform="rotate(-180 633.758 635.477)" fill="#F4F4F4" stroke="#DEDEDE"/>
<rect x="518.652" y="635.477" width="57.7276" height="57.8868" transform="rotate(-180 518.652 635.477)" fill="#EAEAEA" stroke="#DEDEDE"/>
<rect x="403.546" y="635.477" width="57.7276" height="57.8868" transform="rotate(-180 403.546 635.477)" fill="#F4F4F4" stroke="#DEDEDE"/>
<rect x="288.44" y="635.477" width="57.7276" height="57.8868" transform="rotate(-180 288.44 635.477)" fill="#F4F4F4" stroke="#DEDEDE"/>
<rect x="173.334" y="635.477" width="57.7276" height="57.8868" transform="rotate(-180 173.334 635.477)" fill="#EAEAEA" stroke="#DEDEDE"/>
<rect x="58.2276" y="635.477" width="57.7276" height="57.8868" transform="rotate(-180 58.2276 635.477)" fill="#EAEAEA" stroke="#DEDEDE"/>
<rect x="1381.95" y="635.477" width="57.7276" height="57.8868" transform="rotate(-180 1381.95 635.477)" fill="#F4F4F4" stroke="#DEDEDE"/>
<rect x="1266.84" y="635.477" width="57.7276" height="57.8868" transform="rotate(-180 1266.84 635.477)" fill="#F4F4F4" stroke="#DEDEDE"/>
<rect x="1151.73" y="635.477" width="57.7276" height="57.8868" transform="rotate(-180 1151.73 635.477)" fill="#F4F4F4" stroke="#DEDEDE"/>
<rect x="1036.63" y="635.477" width="57.7276" height="57.8868" transform="rotate(-180 1036.63 635.477)" fill="#F4F4F4" stroke="#DEDEDE"/>
<rect x="921.523" y="635.477" width="57.7276" height="57.8868" transform="rotate(-180 921.523 635.477)" fill="#EAEAEA" stroke="#DEDEDE"/>
<rect x="806.417" y="635.477" width="57.7276" height="57.8868" transform="rotate(-180 806.417 635.477)" fill="#F4F4F4" stroke="#DEDEDE"/>
<rect x="691.311" y="635.477" width="57.7276" height="57.8868" transform="rotate(-180 691.311 635.477)" fill="#F4F4F4" stroke="#DEDEDE"/>
<rect x="576.205" y="635.477" width="57.7276" height="57.8868" transform="rotate(-180 576.205 635.477)" fill="#EAEAEA" stroke="#DEDEDE"/>
<rect x="461.099" y="635.477" width="57.7276" height="57.8868" transform="rotate(-180 461.099 635.477)" fill="#F4F4F4" stroke="#DEDEDE"/>
<rect x="345.993" y="635.477" width="57.7276" height="57.8868" transform="rotate(-180 345.993 635.477)" fill="#EAEAEA" stroke="#DEDEDE"/>
<rect x="230.887" y="635.477" width="57.7276" height="57.8868" transform="rotate(-180 230.887 635.477)" fill="#F4F4F4" stroke="#DEDEDE"/>
<rect x="115.781" y="635.477" width="57.7276" height="57.8868" transform="rotate(-180 115.781 635.477)" fill="#F4F4F4" stroke="#DEDEDE"/>
<rect x="1439.5" y="577.768" width="57.7276" height="57.8868" transform="rotate(-180 1439.5 577.768)" fill="#F4F4F4" stroke="#DEDEDE"/>
<rect x="1324.39" y="577.768" width="57.7276" height="57.8868" transform="rotate(-180 1324.39 577.768)" fill="#F4F4F4" stroke="#DEDEDE"/>
<rect x="1209.29" y="577.768" width="57.7276" height="57.8868" transform="rotate(-180 1209.29 577.768)" fill="#EAEAEA" stroke="#DEDEDE"/>
<rect x="1094.18" y="577.768" width="57.7276" height="57.8868" transform="rotate(-180 1094.18 577.768)" fill="#F4F4F4" stroke="#DEDEDE"/>
<rect x="979.076" y="577.768" width="57.7276" height="57.8868" transform="rotate(-180 979.076 577.768)" fill="#F4F4F4" stroke="#DEDEDE"/>
<rect x="863.97" y="577.768" width="57.7276" height="57.8868" transform="rotate(-180 863.97 577.768)" fill="#F4F4F4" stroke="#DEDEDE"/>
<rect x="748.864" y="577.768" width="57.7276" height="57.8868" transform="rotate(-180 748.864 577.768)" fill="#EAEAEA" stroke="#DEDEDE"/>
<rect x="633.758" y="577.768" width="57.7276" height="57.8868" transform="rotate(-180 633.758 577.768)" fill="#EAEAEA" stroke="#DEDEDE"/>
<rect x="518.652" y="577.768" width="57.7276" height="57.8868" transform="rotate(-180 518.652 577.768)" fill="#F4F4F4" stroke="#DEDEDE"/>
<rect x="403.546" y="577.768" width="57.7276" height="57.8868" transform="rotate(-180 403.546 577.768)" fill="#F4F4F4" stroke="#DEDEDE"/>
<rect x="288.44" y="577.768" width="57.7276" height="57.8868" transform="rotate(-180 288.44 577.768)" fill="#F4F4F4" stroke="#DEDEDE"/>
<rect x="173.334" y="577.768" width="57.7276" height="57.8868" transform="rotate(-180 173.334 577.768)" fill="#F4F4F4" stroke="#DEDEDE"/>
<rect x="58.2276" y="577.768" width="57.7276" height="57.8868" transform="rotate(-180 58.2276 577.768)" fill="#F4F4F4" stroke="#DEDEDE"/>
<rect x="1381.95" y="577.768" width="57.7276" height="57.8868" transform="rotate(-180 1381.95 577.768)" fill="#EAEAEA" stroke="#DEDEDE"/>
<rect x="1266.84" y="577.768" width="57.7276" height="57.8868" transform="rotate(-180 1266.84 577.768)" fill="#F4F4F4" stroke="#DEDEDE"/>
<rect x="1151.73" y="577.768" width="57.7276" height="57.8868" transform="rotate(-180 1151.73 577.768)" fill="#F4F4F4" stroke="#DEDEDE"/>
<rect x="1036.63" y="577.768" width="57.7276" height="57.8868" transform="rotate(-180 1036.63 577.768)" fill="#EAEAEA" stroke="#DEDEDE"/>
<rect x="921.523" y="577.768" width="57.7276" height="57.8868" transform="rotate(-180 921.523 577.768)" fill="#F4F4F4" stroke="#DEDEDE"/>
<rect x="806.417" y="577.768" width="57.7276" height="57.8868" transform="rotate(-180 806.417 577.768)" fill="#F4F4F4" stroke="#DEDEDE"/>
<rect x="691.311" y="577.768" width="57.7276" height="57.8868" transform="rotate(-180 691.311 577.768)" fill="#F4F4F4" stroke="#DEDEDE"/>
<rect x="576.205" y="577.768" width="57.7276" height="57.8868" transform="rotate(-180 576.205 577.768)" fill="#F4F4F4" stroke="#DEDEDE"/>
<rect x="461.099" y="577.768" width="57.7276" height="57.8868" transform="rotate(-180 461.099 577.768)" fill="#EAEAEA" stroke="#DEDEDE"/>
<rect x="345.993" y="577.768" width="57.7276" height="57.8868" transform="rotate(-180 345.993 577.768)" fill="#F4F4F4" stroke="#DEDEDE"/>
<rect x="230.887" y="577.768" width="57.7276" height="57.8868" transform="rotate(-180 230.887 577.768)" fill="#EAEAEA" stroke="#DEDEDE"/>
<rect x="115.781" y="577.768" width="57.7276" height="57.8868" transform="rotate(-180 115.781 577.768)" fill="#F4F4F4" stroke="#DEDEDE"/>
<rect x="1439.5" y="520.059" width="57.7276" height="57.8868" transform="rotate(-180 1439.5 520.059)" fill="#F4F4F4" stroke="#DEDEDE"/>
<rect x="1324.39" y="520.059" width="57.7276" height="57.8868" transform="rotate(-180 1324.39 520.059)" fill="#EAEAEA" stroke="#DEDEDE"/>
<rect x="1209.29" y="520.059" width="57.7276" height="57.8868" transform="rotate(-180 1209.29 520.059)" fill="#F4F4F4" stroke="#DEDEDE"/>
<rect x="1094.18" y="520.059" width="57.7276" height="57.8868" transform="rotate(-180 1094.18 520.059)" fill="#EAEAEA" stroke="#DEDEDE"/>
<rect x="979.076" y="520.059" width="57.7276" height="57.8868" transform="rotate(-180 979.076 520.059)" fill="#F4F4F4" stroke="#DEDEDE"/>
<rect x="863.97" y="520.059" width="57.7276" height="57.8868" transform="rotate(-180 863.97 520.059)" fill="#EAEAEA" stroke="#DEDEDE"/>
<rect x="748.864" y="520.059" width="57.7276" height="57.8868" transform="rotate(-180 748.864 520.059)" fill="#F4F4F4" stroke="#DEDEDE"/>
<rect x="633.758" y="520.059" width="57.7276" height="57.8868" transform="rotate(-180 633.758 520.059)" fill="#F4F4F4" stroke="#DEDEDE"/>
<rect x="518.652" y="520.059" width="57.7276" height="57.8868" transform="rotate(-180 518.652 520.059)" fill="#EAEAEA" stroke="#DEDEDE"/>
<rect x="403.546" y="520.059" width="57.7276" height="57.8868" transform="rotate(-180 403.546 520.059)" fill="#F4F4F4" stroke="#DEDEDE"/>
<rect x="288.44" y="520.059" width="57.7276" height="57.8868" transform="rotate(-180 288.44 520.059)" fill="#F4F4F4" stroke="#DEDEDE"/>
<rect x="173.334" y="520.059" width="57.7276" height="57.8868" transform="rotate(-180 173.334 520.059)" fill="#EAEAEA" stroke="#DEDEDE"/>
<rect x="58.2276" y="520.059" width="57.7276" height="57.8868" transform="rotate(-180 58.2276 520.059)" fill="#EAEAEA" stroke="#DEDEDE"/>
<rect x="1381.95" y="520.059" width="57.7276" height="57.8868" transform="rotate(-180 1381.95 520.059)" fill="#F4F4F4" stroke="#DEDEDE"/>
<rect x="1266.84" y="520.059" width="57.7276" height="57.8868" transform="rotate(-180 1266.84 520.059)" fill="#F4F4F4" stroke="#DEDEDE"/>
<rect x="1151.73" y="520.059" width="57.7276" height="57.8868" transform="rotate(-180 1151.73 520.059)" fill="#F4F4F4" stroke="#DEDEDE"/>
<rect x="1036.63" y="520.059" width="57.7276" height="57.8868" transform="rotate(-180 1036.63 520.059)" fill="#F4F4F4" stroke="#DEDEDE"/>
<rect x="921.523" y="520.059" width="57.7276" height="57.8868" transform="rotate(-180 921.523 520.059)" fill="#EAEAEA" stroke="#DEDEDE"/>
<rect x="806.417" y="520.059" width="57.7276" height="57.8868" transform="rotate(-180 806.417 520.059)" fill="#F4F4F4" stroke="#DEDEDE"/>
<rect x="691.311" y="520.059" width="57.7276" height="57.8868" transform="rotate(-180 691.311 520.059)" fill="#F4F4F4" stroke="#DEDEDE"/>
<rect x="576.205" y="520.059" width="57.7276" height="57.8868" transform="rotate(-180 576.205 520.059)" fill="#EAEAEA" stroke="#DEDEDE"/>
<rect x="461.099" y="520.059" width="57.7276" height="57.8868" transform="rotate(-180 461.099 520.059)" fill="#F4F4F4" stroke="#DEDEDE"/>
<rect x="345.993" y="520.059" width="57.7276" height="57.8868" transform="rotate(-180 345.993 520.059)" fill="#EAEAEA" stroke="#DEDEDE"/>
<rect x="230.887" y="520.059" width="57.7276" height="57.8868" transform="rotate(-180 230.887 520.059)" fill="#F4F4F4" stroke="#DEDEDE"/>
<rect x="115.781" y="520.059" width="57.7276" height="57.8868" transform="rotate(-180 115.781 520.059)" fill="#F4F4F4" stroke="#DEDEDE"/>
<rect x="1439.5" y="462.35" width="57.7276" height="57.8868" transform="rotate(-180 1439.5 462.35)" fill="#F4F4F4" stroke="#DEDEDE"/>
<rect x="1324.39" y="462.35" width="57.7276" height="57.8868" transform="rotate(-180 1324.39 462.35)" fill="#F4F4F4" stroke="#DEDEDE"/>
<rect x="1209.29" y="462.35" width="57.7276" height="57.8868" transform="rotate(-180 1209.29 462.35)" fill="#F4F4F4" stroke="#DEDEDE"/>
<rect x="1094.18" y="462.35" width="57.7276" height="57.8868" transform="rotate(-180 1094.18 462.35)" fill="#F4F4F4" stroke="#DEDEDE"/>
<rect x="979.076" y="462.35" width="57.7276" height="57.8868" transform="rotate(-180 979.076 462.35)" fill="#F4F4F4" stroke="#DEDEDE"/>
<rect x="863.97" y="462.35" width="57.7276" height="57.8868" transform="rotate(-180 863.97 462.35)" fill="#F4F4F4" stroke="#DEDEDE"/>
<rect x="748.864" y="462.35" width="57.7276" height="57.8868" transform="rotate(-180 748.864 462.35)" fill="#F4F4F4" stroke="#DEDEDE"/>
<rect x="633.758" y="462.35" width="57.7276" height="57.8868" transform="rotate(-180 633.758 462.35)" fill="#F4F4F4" stroke="#DEDEDE"/>
<rect x="518.652" y="462.35" width="57.7276" height="57.8868" transform="rotate(-180 518.652 462.35)" fill="#F4F4F4" stroke="#DEDEDE"/>
<rect x="403.546" y="462.35" width="57.7276" height="57.8868" transform="rotate(-180 403.546 462.35)" fill="#F4F4F4" stroke="#DEDEDE"/>
<rect x="288.44" y="462.35" width="57.7276" height="57.8868" transform="rotate(-180 288.44 462.35)" fill="#F4F4F4" stroke="#DEDEDE"/>
<rect x="173.334" y="462.35" width="57.7276" height="57.8868" transform="rotate(-180 173.334 462.35)" fill="#F4F4F4" stroke="#DEDEDE"/>
<rect x="58.2276" y="462.35" width="57.7276" height="57.8868" transform="rotate(-180 58.2276 462.35)" fill="#F4F4F4" stroke="#DEDEDE"/>
<rect x="1381.95" y="462.35" width="57.7276" height="57.8868" transform="rotate(-180 1381.95 462.35)" fill="#F4F4F4" stroke="#DEDEDE"/>
<rect x="1266.84" y="462.35" width="57.7276" height="57.8868" transform="rotate(-180 1266.84 462.35)" fill="#F4F4F4" stroke="#DEDEDE"/>
<rect x="1151.73" y="462.35" width="57.7276" height="57.8868" transform="rotate(-180 1151.73 462.35)" fill="#F4F4F4" stroke="#DEDEDE"/>
<rect x="1036.63" y="462.35" width="57.7276" height="57.8868" transform="rotate(-180 1036.63 462.35)" fill="#F4F4F4" stroke="#DEDEDE"/>
<rect x="921.523" y="462.35" width="57.7276" height="57.8868" transform="rotate(-180 921.523 462.35)" fill="#F4F4F4" stroke="#DEDEDE"/>
<rect x="806.417" y="462.35" width="57.7276" height="57.8868" transform="rotate(-180 806.417 462.35)" fill="#F4F4F4" stroke="#DEDEDE"/>
<rect x="691.311" y="462.35" width="57.7276" height="57.8868" transform="rotate(-180 691.311 462.35)" fill="#F4F4F4" stroke="#DEDEDE"/>
<rect x="576.205" y="462.35" width="57.7276" height="57.8868" transform="rotate(-180 576.205 462.35)" fill="#F4F4F4" stroke="#DEDEDE"/>
<rect x="461.099" y="462.35" width="57.7276" height="57.8868" transform="rotate(-180 461.099 462.35)" fill="#F4F4F4" stroke="#DEDEDE"/>
<rect x="345.993" y="462.35" width="57.7276" height="57.8868" transform="rotate(-180 345.993 462.35)" fill="#F4F4F4" stroke="#DEDEDE"/>
<rect x="230.887" y="462.35" width="57.7276" height="57.8868" transform="rotate(-180 230.887 462.35)" fill="#F4F4F4" stroke="#DEDEDE"/>
<rect x="115.781" y="462.35" width="57.7276" height="57.8868" transform="rotate(-180 115.781 462.35)" fill="#F4F4F4" stroke="#DEDEDE"/>
<rect x="1439.5" y="404.641" width="57.7276" height="57.8868" transform="rotate(-180 1439.5 404.641)" fill="#F4F4F4" stroke="#DEDEDE"/>
<rect x="1324.39" y="404.641" width="57.7276" height="57.8868" transform="rotate(-180 1324.39 404.641)" fill="#F4F4F4" stroke="#DEDEDE"/>
<rect x="1209.29" y="404.641" width="57.7276" height="57.8868" transform="rotate(-180 1209.29 404.641)" fill="#EAEAEA" stroke="#DEDEDE"/>
<rect x="1094.18" y="404.641" width="57.7276" height="57.8868" transform="rotate(-180 1094.18 404.641)" fill="#F4F4F4" stroke="#DEDEDE"/>
<rect x="979.076" y="404.641" width="57.7276" height="57.8868" transform="rotate(-180 979.076 404.641)" fill="#F4F4F4" stroke="#DEDEDE"/>
<rect x="863.97" y="404.641" width="57.7276" height="57.8868" transform="rotate(-180 863.97 404.641)" fill="#F4F4F4" stroke="#DEDEDE"/>
<rect x="748.864" y="404.641" width="57.7276" height="57.8868" transform="rotate(-180 748.864 404.641)" fill="#EAEAEA" stroke="#DEDEDE"/>
<rect x="633.758" y="404.641" width="57.7276" height="57.8868" transform="rotate(-180 633.758 404.641)" fill="#EAEAEA" stroke="#DEDEDE"/>
<rect x="518.652" y="404.641" width="57.7276" height="57.8868" transform="rotate(-180 518.652 404.641)" fill="#F4F4F4" stroke="#DEDEDE"/>
<rect x="403.546" y="404.641" width="57.7276" height="57.8868" transform="rotate(-180 403.546 404.641)" fill="#F4F4F4" stroke="#DEDEDE"/>
<rect x="288.44" y="404.641" width="57.7276" height="57.8868" transform="rotate(-180 288.44 404.641)" fill="#F4F4F4" stroke="#DEDEDE"/>
<rect x="173.334" y="404.641" width="57.7276" height="57.8868" transform="rotate(-180 173.334 404.641)" fill="#F4F4F4" stroke="#DEDEDE"/>
<rect x="58.2276" y="404.641" width="57.7276" height="57.8868" transform="rotate(-180 58.2276 404.641)" fill="#F4F4F4" stroke="#DEDEDE"/>
<rect x="1381.95" y="404.641" width="57.7276" height="57.8868" transform="rotate(-180 1381.95 404.641)" fill="#EAEAEA" stroke="#DEDEDE"/>
<rect x="1266.84" y="404.641" width="57.7276" height="57.8868" transform="rotate(-180 1266.84 404.641)" fill="#F4F4F4" stroke="#DEDEDE"/>
<rect x="1151.73" y="404.641" width="57.7276" height="57.8868" transform="rotate(-180 1151.73 404.641)" fill="#F4F4F4" stroke="#DEDEDE"/>
<rect x="1036.63" y="404.641" width="57.7276" height="57.8868" transform="rotate(-180 1036.63 404.641)" fill="#EAEAEA" stroke="#DEDEDE"/>
<rect x="921.523" y="404.641" width="57.7276" height="57.8868" transform="rotate(-180 921.523 404.641)" fill="#F4F4F4" stroke="#DEDEDE"/>
<rect x="806.417" y="404.641" width="57.7276" height="57.8868" transform="rotate(-180 806.417 404.641)" fill="#F4F4F4" stroke="#DEDEDE"/>
<rect x="691.311" y="404.641" width="57.7276" height="57.8868" transform="rotate(-180 691.311 404.641)" fill="#F4F4F4" stroke="#DEDEDE"/>
<rect x="576.205" y="404.641" width="57.7276" height="57.8868" transform="rotate(-180 576.205 404.641)" fill="#F4F4F4" stroke="#DEDEDE"/>
<rect x="461.099" y="404.641" width="57.7276" height="57.8868" transform="rotate(-180 461.099 404.641)" fill="#EAEAEA" stroke="#DEDEDE"/>
<rect x="345.993" y="404.641" width="57.7276" height="57.8868" transform="rotate(-180 345.993 404.641)" fill="#F4F4F4" stroke="#DEDEDE"/>
<rect x="230.887" y="404.641" width="57.7276" height="57.8868" transform="rotate(-180 230.887 404.641)" fill="#EAEAEA" stroke="#DEDEDE"/>
<rect x="115.781" y="404.641" width="57.7276" height="57.8868" transform="rotate(-180 115.781 404.641)" fill="#F4F4F4" stroke="#DEDEDE"/>
<rect x="1439.5" y="346.932" width="57.7276" height="57.8868" transform="rotate(-180 1439.5 346.932)" fill="#F4F4F4" stroke="#DEDEDE"/>
<rect x="1324.39" y="346.932" width="57.7276" height="57.8868" transform="rotate(-180 1324.39 346.932)" fill="#EAEAEA" stroke="#DEDEDE"/>
<rect x="1209.29" y="346.932" width="57.7276" height="57.8868" transform="rotate(-180 1209.29 346.932)" fill="#F4F4F4" stroke="#DEDEDE"/>
<rect x="1094.18" y="346.932" width="57.7276" height="57.8868" transform="rotate(-180 1094.18 346.932)" fill="#EAEAEA" stroke="#DEDEDE"/>
<rect x="979.076" y="346.932" width="57.7276" height="57.8868" transform="rotate(-180 979.076 346.932)" fill="#F4F4F4" stroke="#DEDEDE"/>
<rect x="863.97" y="346.932" width="57.7276" height="57.8868" transform="rotate(-180 863.97 346.932)" fill="#EAEAEA" stroke="#DEDEDE"/>
<rect x="748.864" y="346.932" width="57.7276" height="57.8868" transform="rotate(-180 748.864 346.932)" fill="#F4F4F4" stroke="#DEDEDE"/>
<rect x="633.758" y="346.932" width="57.7276" height="57.8868" transform="rotate(-180 633.758 346.932)" fill="#F4F4F4" stroke="#DEDEDE"/>
<rect x="518.652" y="346.932" width="57.7276" height="57.8868" transform="rotate(-180 518.652 346.932)" fill="#EAEAEA" stroke="#DEDEDE"/>
<rect x="403.546" y="346.932" width="57.7276" height="57.8868" transform="rotate(-180 403.546 346.932)" fill="#F4F4F4" stroke="#DEDEDE"/>
<rect x="288.44" y="346.932" width="57.7276" height="57.8868" transform="rotate(-180 288.44 346.932)" fill="#F4F4F4" stroke="#DEDEDE"/>
<rect x="173.334" y="346.932" width="57.7276" height="57.8868" transform="rotate(-180 173.334 346.932)" fill="#EAEAEA" stroke="#DEDEDE"/>
<rect x="58.2276" y="346.932" width="57.7276" height="57.8868" transform="rotate(-180 58.2276 346.932)" fill="#EAEAEA" stroke="#DEDEDE"/>
<rect x="1381.95" y="346.932" width="57.7276" height="57.8868" transform="rotate(-180 1381.95 346.932)" fill="#F4F4F4" stroke="#DEDEDE"/>
<rect x="1266.84" y="346.932" width="57.7276" height="57.8868" transform="rotate(-180 1266.84 346.932)" fill="#F4F4F4" stroke="#DEDEDE"/>
<rect x="1151.73" y="346.932" width="57.7276" height="57.8868" transform="rotate(-180 1151.73 346.932)" fill="#F4F4F4" stroke="#DEDEDE"/>
<rect x="1036.63" y="346.932" width="57.7276" height="57.8868" transform="rotate(-180 1036.63 346.932)" fill="#F4F4F4" stroke="#DEDEDE"/>
<rect x="921.523" y="346.932" width="57.7276" height="57.8868" transform="rotate(-180 921.523 346.932)" fill="#EAEAEA" stroke="#DEDEDE"/>
<rect x="806.417" y="346.932" width="57.7276" height="57.8868" transform="rotate(-180 806.417 346.932)" fill="#F4F4F4" stroke="#DEDEDE"/>
<rect x="691.311" y="346.932" width="57.7276" height="57.8868" transform="rotate(-180 691.311 346.932)" fill="#F4F4F4" stroke="#DEDEDE"/>
<rect x="576.205" y="346.932" width="57.7276" height="57.8868" transform="rotate(-180 576.205 346.932)" fill="#EAEAEA" stroke="#DEDEDE"/>
<rect x="461.099" y="346.932" width="57.7276" height="57.8868" transform="rotate(-180 461.099 346.932)" fill="#F4F4F4" stroke="#DEDEDE"/>
<rect x="345.993" y="346.932" width="57.7276" height="57.8868" transform="rotate(-180 345.993 346.932)" fill="#EAEAEA" stroke="#DEDEDE"/>
<rect x="230.887" y="346.932" width="57.7276" height="57.8868" transform="rotate(-180 230.887 346.932)" fill="#F4F4F4" stroke="#DEDEDE"/>
<rect x="115.781" y="346.932" width="57.7276" height="57.8868" transform="rotate(-180 115.781 346.932)" fill="#F4F4F4" stroke="#DEDEDE"/>
<rect x="1439.5" y="289.223" width="57.7276" height="57.8868" transform="rotate(-180 1439.5 289.223)" fill="#F4F4F4" stroke="#DEDEDE"/>
<rect x="1324.39" y="289.223" width="57.7276" height="57.8868" transform="rotate(-180 1324.39 289.223)" fill="#F4F4F4" stroke="#DEDEDE"/>
<rect x="1209.29" y="289.223" width="57.7276" height="57.8868" transform="rotate(-180 1209.29 289.223)" fill="#F4F4F4" stroke="#DEDEDE"/>
<rect x="1094.18" y="289.223" width="57.7276" height="57.8868" transform="rotate(-180 1094.18 289.223)" fill="#F4F4F4" stroke="#DEDEDE"/>
<rect x="979.076" y="289.223" width="57.7276" height="57.8868" transform="rotate(-180 979.076 289.223)" fill="#F4F4F4" stroke="#DEDEDE"/>
<rect x="863.97" y="289.223" width="57.7276" height="57.8868" transform="rotate(-180 863.97 289.223)" fill="#F4F4F4" stroke="#DEDEDE"/>
<rect x="748.864" y="289.223" width="57.7276" height="57.8868" transform="rotate(-180 748.864 289.223)" fill="#F4F4F4" stroke="#DEDEDE"/>
<rect x="633.758" y="289.223" width="57.7276" height="57.8868" transform="rotate(-180 633.758 289.223)" fill="#F4F4F4" stroke="#DEDEDE"/>
<rect x="518.652" y="289.223" width="57.7276" height="57.8868" transform="rotate(-180 518.652 289.223)" fill="#F4F4F4" stroke="#DEDEDE"/>
<rect x="403.546" y="289.223" width="57.7276" height="57.8868" transform="rotate(-180 403.546 289.223)" fill="#F4F4F4" stroke="#DEDEDE"/>
<rect x="288.44" y="289.223" width="57.7276" height="57.8868" transform="rotate(-180 288.44 289.223)" fill="#F4F4F4" stroke="#DEDEDE"/>
<rect x="173.334" y="289.223" width="57.7276" height="57.8868" transform="rotate(-180 173.334 289.223)" fill="#F4F4F4" stroke="#DEDEDE"/>
<rect x="58.2276" y="289.223" width="57.7276" height="57.8868" transform="rotate(-180 58.2276 289.223)" fill="#F4F4F4" stroke="#DEDEDE"/>
<rect x="1381.95" y="289.223" width="57.7276" height="57.8868" transform="rotate(-180 1381.95 289.223)" fill="#F4F4F4" stroke="#DEDEDE"/>
<rect x="1266.84" y="289.223" width="57.7276" height="57.8868" transform="rotate(-180 1266.84 289.223)" fill="#F4F4F4" stroke="#DEDEDE"/>
<rect x="1151.73" y="289.223" width="57.7276" height="57.8868" transform="rotate(-180 1151.73 289.223)" fill="#F4F4F4" stroke="#DEDEDE"/>
<rect x="1036.63" y="289.223" width="57.7276" height="57.8868" transform="rotate(-180 1036.63 289.223)" fill="#F4F4F4" stroke="#DEDEDE"/>
<rect x="921.523" y="289.223" width="57.7276" height="57.8868" transform="rotate(-180 921.523 289.223)" fill="#F4F4F4" stroke="#DEDEDE"/>
<rect x="806.417" y="289.223" width="57.7276" height="57.8868" transform="rotate(-180 806.417 289.223)" fill="#F4F4F4" stroke="#DEDEDE"/>
<rect x="691.311" y="289.223" width="57.7276" height="57.8868" transform="rotate(-180 691.311 289.223)" fill="#F4F4F4" stroke="#DEDEDE"/>
<rect x="576.205" y="289.223" width="57.7276" height="57.8868" transform="rotate(-180 576.205 289.223)" fill="#F4F4F4" stroke="#DEDEDE"/>
<rect x="461.099" y="289.223" width="57.7276" height="57.8868" transform="rotate(-180 461.099 289.223)" fill="#F4F4F4" stroke="#DEDEDE"/>
<rect x="345.993" y="289.223" width="57.7276" height="57.8868" transform="rotate(-180 345.993 289.223)" fill="#F4F4F4" stroke="#DEDEDE"/>
<rect x="230.887" y="289.223" width="57.7276" height="57.8868" transform="rotate(-180 230.887 289.223)" fill="#F4F4F4" stroke="#DEDEDE"/>
<rect x="115.781" y="289.223" width="57.7276" height="57.8868" transform="rotate(-180 115.781 289.223)" fill="#F4F4F4" stroke="#DEDEDE"/>
<rect x="1439.5" y="231.514" width="57.7276" height="57.8868" transform="rotate(-180 1439.5 231.514)" fill="#F4F4F4" stroke="#DEDEDE"/>
<rect x="1324.39" y="231.514" width="57.7276" height="57.8868" transform="rotate(-180 1324.39 231.514)" fill="#F4F4F4" stroke="#DEDEDE"/>
<rect x="1209.29" y="231.514" width="57.7276" height="57.8868" transform="rotate(-180 1209.29 231.514)" fill="#EAEAEA" stroke="#DEDEDE"/>
<rect x="1094.18" y="231.514" width="57.7276" height="57.8868" transform="rotate(-180 1094.18 231.514)" fill="#F4F4F4" stroke="#DEDEDE"/>
<rect x="979.076" y="231.514" width="57.7276" height="57.8868" transform="rotate(-180 979.076 231.514)" fill="#F4F4F4" stroke="#DEDEDE"/>
<rect x="863.97" y="231.514" width="57.7276" height="57.8868" transform="rotate(-180 863.97 231.514)" fill="#F4F4F4" stroke="#DEDEDE"/>
<rect x="748.864" y="231.514" width="57.7276" height="57.8868" transform="rotate(-180 748.864 231.514)" fill="#EAEAEA" stroke="#DEDEDE"/>
<rect x="633.758" y="231.514" width="57.7276" height="57.8868" transform="rotate(-180 633.758 231.514)" fill="#EAEAEA" stroke="#DEDEDE"/>
<rect x="518.652" y="231.514" width="57.7276" height="57.8868" transform="rotate(-180 518.652 231.514)" fill="#F4F4F4" stroke="#DEDEDE"/>
<rect x="403.546" y="231.514" width="57.7276" height="57.8868" transform="rotate(-180 403.546 231.514)" fill="#F4F4F4" stroke="#DEDEDE"/>
<rect x="288.44" y="231.514" width="57.7276" height="57.8868" transform="rotate(-180 288.44 231.514)" fill="#F4F4F4" stroke="#DEDEDE"/>
<rect x="173.334" y="231.514" width="57.7276" height="57.8868" transform="rotate(-180 173.334 231.514)" fill="#F4F4F4" stroke="#DEDEDE"/>
<rect x="58.2276" y="231.514" width="57.7276" height="57.8868" transform="rotate(-180 58.2276 231.514)" fill="#F4F4F4" stroke="#DEDEDE"/>
<rect x="1381.95" y="231.514" width="57.7276" height="57.8868" transform="rotate(-180 1381.95 231.514)" fill="#EAEAEA" stroke="#DEDEDE"/>
<rect x="1266.84" y="231.514" width="57.7276" height="57.8868" transform="rotate(-180 1266.84 231.514)" fill="#F4F4F4" stroke="#DEDEDE"/>
<rect x="1151.73" y="231.514" width="57.7276" height="57.8868" transform="rotate(-180 1151.73 231.514)" fill="#F4F4F4" stroke="#DEDEDE"/>
<rect x="1036.63" y="231.514" width="57.7276" height="57.8868" transform="rotate(-180 1036.63 231.514)" fill="#EAEAEA" stroke="#DEDEDE"/>
<rect x="921.523" y="231.514" width="57.7276" height="57.8868" transform="rotate(-180 921.523 231.514)" fill="#F4F4F4" stroke="#DEDEDE"/>
<rect x="806.417" y="231.514" width="57.7276" height="57.8868" transform="rotate(-180 806.417 231.514)" fill="#F4F4F4" stroke="#DEDEDE"/>
<rect x="691.311" y="231.514" width="57.7276" height="57.8868" transform="rotate(-180 691.311 231.514)" fill="#F4F4F4" stroke="#DEDEDE"/>
<rect x="576.205" y="231.514" width="57.7276" height="57.8868" transform="rotate(-180 576.205 231.514)" fill="#F4F4F4" stroke="#DEDEDE"/>
<rect x="461.099" y="231.514" width="57.7276" height="57.8868" transform="rotate(-180 461.099 231.514)" fill="#EAEAEA" stroke="#DEDEDE"/>
<rect x="345.993" y="231.514" width="57.7276" height="57.8868" transform="rotate(-180 345.993 231.514)" fill="#F4F4F4" stroke="#DEDEDE"/>
<rect x="230.887" y="231.514" width="57.7276" height="57.8868" transform="rotate(-180 230.887 231.514)" fill="#EAEAEA" stroke="#DEDEDE"/>
<rect x="115.781" y="231.514" width="57.7276" height="57.8868" transform="rotate(-180 115.781 231.514)" fill="#F4F4F4" stroke="#DEDEDE"/>
<rect x="1439.5" y="173.805" width="57.7276" height="57.8868" transform="rotate(-180 1439.5 173.805)" fill="#F4F4F4" stroke="#DEDEDE"/>
<rect x="1324.39" y="173.805" width="57.7276" height="57.8868" transform="rotate(-180 1324.39 173.805)" fill="#F4F4F4" stroke="#DEDEDE"/>
<rect x="1209.29" y="173.805" width="57.7276" height="57.8868" transform="rotate(-180 1209.29 173.805)" fill="#EAEAEA" stroke="#DEDEDE"/>
<rect x="1094.18" y="173.805" width="57.7276" height="57.8868" transform="rotate(-180 1094.18 173.805)" fill="#F4F4F4" stroke="#DEDEDE"/>
<rect x="979.076" y="173.805" width="57.7276" height="57.8868" transform="rotate(-180 979.076 173.805)" fill="#F4F4F4" stroke="#DEDEDE"/>
<rect x="863.97" y="173.805" width="57.7276" height="57.8868" transform="rotate(-180 863.97 173.805)" fill="#F4F4F4" stroke="#DEDEDE"/>
<rect x="748.864" y="173.805" width="57.7276" height="57.8868" transform="rotate(-180 748.864 173.805)" fill="#EAEAEA" stroke="#DEDEDE"/>
<rect x="633.758" y="173.805" width="57.7276" height="57.8868" transform="rotate(-180 633.758 173.805)" fill="#EAEAEA" stroke="#DEDEDE"/>
<rect x="518.652" y="173.805" width="57.7276" height="57.8868" transform="rotate(-180 518.652 173.805)" fill="#F4F4F4" stroke="#DEDEDE"/>
<rect x="403.546" y="173.805" width="57.7276" height="57.8868" transform="rotate(-180 403.546 173.805)" fill="#F4F4F4" stroke="#DEDEDE"/>
<rect x="288.44" y="173.805" width="57.7276" height="57.8868" transform="rotate(-180 288.44 173.805)" fill="#F4F4F4" stroke="#DEDEDE"/>
<rect x="173.334" y="173.805" width="57.7276" height="57.8868" transform="rotate(-180 173.334 173.805)" fill="#F4F4F4" stroke="#DEDEDE"/>
<rect x="58.2276" y="173.805" width="57.7276" height="57.8868" transform="rotate(-180 58.2276 173.805)" fill="#F4F4F4" stroke="#DEDEDE"/>
<rect x="1381.95" y="173.805" width="57.7276" height="57.8868" transform="rotate(-180 1381.95 173.805)" fill="#EAEAEA" stroke="#DEDEDE"/>
<rect x="1266.84" y="173.805" width="57.7276" height="57.8868" transform="rotate(-180 1266.84 173.805)" fill="#F4F4F4" stroke="#DEDEDE"/>
<rect x="1151.73" y="173.805" width="57.7276" height="57.8868" transform="rotate(-180 1151.73 173.805)" fill="#F4F4F4" stroke="#DEDEDE"/>
<rect x="1036.63" y="173.805" width="57.7276" height="57.8868" transform="rotate(-180 1036.63 173.805)" fill="#EAEAEA" stroke="#DEDEDE"/>
<rect x="921.523" y="173.805" width="57.7276" height="57.8868" transform="rotate(-180 921.523 173.805)" fill="#F4F4F4" stroke="#DEDEDE"/>
<rect x="806.417" y="173.805" width="57.7276" height="57.8868" transform="rotate(-180 806.417 173.805)" fill="#F4F4F4" stroke="#DEDEDE"/>
<rect x="691.311" y="173.805" width="57.7276" height="57.8868" transform="rotate(-180 691.311 173.805)" fill="#F4F4F4" stroke="#DEDEDE"/>
<rect x="576.205" y="173.805" width="57.7276" height="57.8868" transform="rotate(-180 576.205 173.805)" fill="#F4F4F4" stroke="#DEDEDE"/>
<rect x="461.099" y="173.805" width="57.7276" height="57.8868" transform="rotate(-180 461.099 173.805)" fill="#EAEAEA" stroke="#DEDEDE"/>
<rect x="345.993" y="173.805" width="57.7276" height="57.8868" transform="rotate(-180 345.993 173.805)" fill="#F4F4F4" stroke="#DEDEDE"/>
<rect x="230.887" y="173.805" width="57.7276" height="57.8868" transform="rotate(-180 230.887 173.805)" fill="#EAEAEA" stroke="#DEDEDE"/>
<rect x="115.781" y="173.805" width="57.7276" height="57.8868" transform="rotate(-180 115.781 173.805)" fill="#F4F4F4" stroke="#DEDEDE"/>
<rect x="1439.5" y="116.096" width="57.7276" height="57.8868" transform="rotate(-180 1439.5 116.096)" fill="#F4F4F4" stroke="#DEDEDE"/>
<rect x="1324.39" y="116.096" width="57.7276" height="57.8868" transform="rotate(-180 1324.39 116.096)" fill="#EAEAEA" stroke="#DEDEDE"/>
<rect x="1209.29" y="116.096" width="57.7276" height="57.8868" transform="rotate(-180 1209.29 116.096)" fill="#F4F4F4" stroke="#DEDEDE"/>
<rect x="1094.18" y="116.096" width="57.7276" height="57.8868" transform="rotate(-180 1094.18 116.096)" fill="#EAEAEA" stroke="#DEDEDE"/>
<rect x="979.076" y="116.096" width="57.7276" height="57.8868" transform="rotate(-180 979.076 116.096)" fill="#F4F4F4" stroke="#DEDEDE"/>
<rect x="863.97" y="116.096" width="57.7276" height="57.8868" transform="rotate(-180 863.97 116.096)" fill="#EAEAEA" stroke="#DEDEDE"/>
<rect x="748.864" y="116.096" width="57.7276" height="57.8868" transform="rotate(-180 748.864 116.096)" fill="#F4F4F4" stroke="#DEDEDE"/>
<rect x="633.758" y="116.096" width="57.7276" height="57.8868" transform="rotate(-180 633.758 116.096)" fill="#F4F4F4" stroke="#DEDEDE"/>
<rect x="518.652" y="116.096" width="57.7276" height="57.8868" transform="rotate(-180 518.652 116.096)" fill="#EAEAEA" stroke="#DEDEDE"/>
<rect x="403.546" y="116.096" width="57.7276" height="57.8868" transform="rotate(-180 403.546 116.096)" fill="#F4F4F4" stroke="#DEDEDE"/>
<rect x="288.44" y="116.096" width="57.7276" height="57.8868" transform="rotate(-180 288.44 116.096)" fill="#F4F4F4" stroke="#DEDEDE"/>
<rect x="173.334" y="116.096" width="57.7276" height="57.8868" transform="rotate(-180 173.334 116.096)" fill="#EAEAEA" stroke="#DEDEDE"/>
<rect x="58.2276" y="116.096" width="57.7276" height="57.8868" transform="rotate(-180 58.2276 116.096)" fill="#EAEAEA" stroke="#DEDEDE"/>
<rect x="1381.95" y="116.096" width="57.7276" height="57.8868" transform="rotate(-180 1381.95 116.096)" fill="#F4F4F4" stroke="#DEDEDE"/>
<rect x="1266.84" y="116.096" width="57.7276" height="57.8868" transform="rotate(-180 1266.84 116.096)" fill="#F4F4F4" stroke="#DEDEDE"/>
<rect x="1151.73" y="116.096" width="57.7276" height="57.8868" transform="rotate(-180 1151.73 116.096)" fill="#F4F4F4" stroke="#DEDEDE"/>
<rect x="1036.63" y="116.096" width="57.7276" height="57.8868" transform="rotate(-180 1036.63 116.096)" fill="#F4F4F4" stroke="#DEDEDE"/>
<rect x="921.523" y="116.096" width="57.7276" height="57.8868" transform="rotate(-180 921.523 116.096)" fill="#EAEAEA" stroke="#DEDEDE"/>
<rect x="806.417" y="116.096" width="57.7276" height="57.8868" transform="rotate(-180 806.417 116.096)" fill="#F4F4F4" stroke="#DEDEDE"/>
<rect x="691.311" y="116.096" width="57.7276" height="57.8868" transform="rotate(-180 691.311 116.096)" fill="#F4F4F4" stroke="#DEDEDE"/>
<rect x="576.205" y="116.096" width="57.7276" height="57.8868" transform="rotate(-180 576.205 116.096)" fill="#EAEAEA" stroke="#DEDEDE"/>
<rect x="461.099" y="116.096" width="57.7276" height="57.8868" transform="rotate(-180 461.099 116.096)" fill="#F4F4F4" stroke="#DEDEDE"/>
<rect x="345.993" y="116.096" width="57.7276" height="57.8868" transform="rotate(-180 345.993 116.096)" fill="#EAEAEA" stroke="#DEDEDE"/>
<rect x="230.887" y="116.096" width="57.7276" height="57.8868" transform="rotate(-180 230.887 116.096)" fill="#F4F4F4" stroke="#DEDEDE"/>
<rect x="115.781" y="116.096" width="57.7276" height="57.8868" transform="rotate(-180 115.781 116.096)" fill="#F4F4F4" stroke="#DEDEDE"/>
<rect x="1439.5" y="58.3867" width="57.7276" height="57.8868" transform="rotate(-180 1439.5 58.3867)" fill="#F4F4F4" stroke="#DEDEDE"/>
<rect x="1324.39" y="58.3867" width="57.7276" height="57.8868" transform="rotate(-180 1324.39 58.3867)" fill="#F4F4F4" stroke="#DEDEDE"/>
<rect x="1209.29" y="58.3867" width="57.7276" height="57.8868" transform="rotate(-180 1209.29 58.3867)" fill="#F4F4F4" stroke="#DEDEDE"/>
<rect x="1094.18" y="58.3867" width="57.7276" height="57.8868" transform="rotate(-180 1094.18 58.3867)" fill="#F4F4F4" stroke="#DEDEDE"/>
<rect x="979.076" y="58.3867" width="57.7276" height="57.8868" transform="rotate(-180 979.076 58.3867)" fill="#F4F4F4" stroke="#DEDEDE"/>
<rect x="863.97" y="58.3867" width="57.7276" height="57.8868" transform="rotate(-180 863.97 58.3867)" fill="#F4F4F4" stroke="#DEDEDE"/>
<rect x="748.864" y="58.3867" width="57.7276" height="57.8868" transform="rotate(-180 748.864 58.3867)" fill="#F4F4F4" stroke="#DEDEDE"/>
<rect x="633.758" y="58.3867" width="57.7276" height="57.8868" transform="rotate(-180 633.758 58.3867)" fill="#F4F4F4" stroke="#DEDEDE"/>
<rect x="518.652" y="58.3867" width="57.7276" height="57.8868" transform="rotate(-180 518.652 58.3867)" fill="#F4F4F4" stroke="#DEDEDE"/>
<rect x="403.546" y="58.3867" width="57.7276" height="57.8868" transform="rotate(-180 403.546 58.3867)" fill="#F4F4F4" stroke="#DEDEDE"/>
<rect x="288.44" y="58.3867" width="57.7276" height="57.8868" transform="rotate(-180 288.44 58.3867)" fill="#F4F4F4" stroke="#DEDEDE"/>
<rect x="173.334" y="58.3867" width="57.7276" height="57.8868" transform="rotate(-180 173.334 58.3867)" fill="#F4F4F4" stroke="#DEDEDE"/>
<rect x="58.2276" y="58.3867" width="57.7276" height="57.8868" transform="rotate(-180 58.2276 58.3867)" fill="#F4F4F4" stroke="#DEDEDE"/>
<rect x="1381.95" y="58.3867" width="57.7276" height="57.8868" transform="rotate(-180 1381.95 58.3867)" fill="#F4F4F4" stroke="#DEDEDE"/>
<rect x="1266.84" y="58.3867" width="57.7276" height="57.8868" transform="rotate(-180 1266.84 58.3867)" fill="#F4F4F4" stroke="#DEDEDE"/>
<rect x="1151.73" y="58.3867" width="57.7276" height="57.8868" transform="rotate(-180 1151.73 58.3867)" fill="#F4F4F4" stroke="#DEDEDE"/>
<rect x="1036.63" y="58.3867" width="57.7276" height="57.8868" transform="rotate(-180 1036.63 58.3867)" fill="#F4F4F4" stroke="#DEDEDE"/>
<rect x="921.523" y="58.3867" width="57.7276" height="57.8868" transform="rotate(-180 921.523 58.3867)" fill="#F4F4F4" stroke="#DEDEDE"/>
<rect x="806.417" y="58.3867" width="57.7276" height="57.8868" transform="rotate(-180 806.417 58.3867)" fill="#F4F4F4" stroke="#DEDEDE"/>
<rect x="691.311" y="58.3867" width="57.7276" height="57.8868" transform="rotate(-180 691.311 58.3867)" fill="#F4F4F4" stroke="#DEDEDE"/>
<rect x="576.205" y="58.3867" width="57.7276" height="57.8868" transform="rotate(-180 576.205 58.3867)" fill="#F4F4F4" stroke="#DEDEDE"/>
<rect x="461.099" y="58.3867" width="57.7276" height="57.8868" transform="rotate(-180 461.099 58.3867)" fill="#F4F4F4" stroke="#DEDEDE"/>
<rect x="345.993" y="58.3867" width="57.7276" height="57.8868" transform="rotate(-180 345.993 58.3867)" fill="#F4F4F4" stroke="#DEDEDE"/>
<rect x="230.887" y="58.3867" width="57.7276" height="57.8868" transform="rotate(-180 230.887 58.3867)" fill="#F4F4F4" stroke="#DEDEDE"/>
<rect x="115.781" y="58.3867" width="57.7276" height="57.8868" transform="rotate(-180 115.781 58.3867)" fill="#F4F4F4" stroke="#DEDEDE"/>
<ellipse cx="1121.7" cy="721.951" rx="28.1892" ry="28.2657" transform="rotate(-180 1121.7 721.951)" fill="#E9E9E9"/>
<ellipse cx="1122.87" cy="433.406" rx="28.1892" ry="28.2657" transform="rotate(-180 1122.87 433.406)" fill="#E9E9E9"/>
<ellipse cx="1124.05" cy="144.861" rx="28.1892" ry="28.2657" transform="rotate(-180 1124.05 144.861)" fill="#E9E9E9"/>
<ellipse cx="1353.08" cy="779.66" rx="28.1892" ry="28.2657" transform="rotate(-180 1353.08 779.66)" fill="#E9E9E9"/>
<ellipse cx="1237.98" cy="779.66" rx="28.1892" ry="28.2657" transform="rotate(-180 1237.98 779.66)" fill="#E9E9E9"/>
<ellipse cx="892.659" cy="779.66" rx="28.1892" ry="28.2657" transform="rotate(-180 892.659 779.66)" fill="#E9E9E9"/>
<ellipse cx="720" cy="779.66" rx="28.1892" ry="28.2657" transform="rotate(-180 720 779.66)" fill="#E9E9E9"/>
<ellipse cx="547.341" cy="779.66" rx="28.1892" ry="28.2657" transform="rotate(-180 547.341 779.66)" fill="#E9E9E9"/>
<ellipse cx="489.788" cy="779.66" rx="28.1892" ry="28.2657" transform="rotate(-180 489.788 779.66)" fill="#E9E9E9"/>
<ellipse cx="317.129" cy="779.66" rx="28.1892" ry="28.2657" transform="rotate(-180 317.129 779.66)" fill="#E9E9E9"/>
<ellipse cx="144.47" cy="779.66" rx="28.1892" ry="28.2657" transform="rotate(-180 144.47 779.66)" fill="#E9E9E9"/>
<ellipse cx="1353.08" cy="548.824" rx="28.1892" ry="28.2657" transform="rotate(-180 1353.08 548.824)" fill="#E9E9E9"/>
<ellipse cx="1237.98" cy="548.824" rx="28.1892" ry="28.2657" transform="rotate(-180 1237.98 548.824)" fill="#E9E9E9"/>
<ellipse cx="950.212" cy="433.406" rx="28.1892" ry="28.2657" transform="rotate(-180 950.212 433.406)" fill="#E9E9E9"/>
<ellipse cx="662.447" cy="433.406" rx="28.1892" ry="28.2657" transform="rotate(-180 662.447 433.406)" fill="#E9E9E9"/>
<ellipse cx="374.682" cy="202.57" rx="28.1892" ry="28.2657" transform="rotate(-180 374.682 202.57)" fill="#E9E9E9"/>
<ellipse cx="86.9168" cy="202.57" rx="28.1892" ry="28.2657" transform="rotate(-180 86.9168 202.57)" fill="#E9E9E9"/>
<ellipse cx="892.659" cy="548.824" rx="28.1892" ry="28.2657" transform="rotate(-180 892.659 548.824)" fill="#E9E9E9"/>
<ellipse cx="720" cy="548.824" rx="28.1892" ry="28.2657" transform="rotate(-180 720 548.824)" fill="#E9E9E9"/>
<ellipse cx="489.788" cy="548.824" rx="28.1892" ry="28.2657" transform="rotate(-180 489.788 548.824)" fill="#E9E9E9"/>
<ellipse cx="317.129" cy="548.824" rx="28.1892" ry="28.2657" transform="rotate(-180 317.129 548.824)" fill="#E9E9E9"/>
<ellipse cx="317.129" cy="491.115" rx="28.1892" ry="28.2657" transform="rotate(-180 317.129 491.115)" fill="#E9E9E9"/>
<ellipse cx="144.47" cy="548.824" rx="28.1892" ry="28.2657" transform="rotate(-180 144.47 548.824)" fill="#E9E9E9"/>
<ellipse cx="1353.08" cy="317.988" rx="28.1892" ry="28.2657" transform="rotate(-180 1353.08 317.988)" fill="#E9E9E9"/>
<ellipse cx="1237.98" cy="317.988" rx="28.1892" ry="28.2657" transform="rotate(-180 1237.98 317.988)" fill="#E9E9E9"/>
<ellipse cx="892.659" cy="317.988" rx="28.1892" ry="28.2657" transform="rotate(-180 892.659 317.988)" fill="#E9E9E9"/>
<ellipse cx="720" cy="317.988" rx="28.1892" ry="28.2657" transform="rotate(-180 720 317.988)" fill="#E9E9E9"/>
<ellipse cx="547.341" cy="317.988" rx="28.1892" ry="28.2657" transform="rotate(-180 547.341 317.988)" fill="#E9E9E9"/>
<ellipse cx="317.129" cy="317.988" rx="28.1892" ry="28.2657" transform="rotate(-180 317.129 317.988)" fill="#E9E9E9"/>
<ellipse cx="144.47" cy="317.988" rx="28.1892" ry="28.2657" transform="rotate(-180 144.47 317.988)" fill="#E9E9E9"/>
<ellipse cx="1353.08" cy="87.1523" rx="28.1892" ry="28.2657" transform="rotate(-180 1353.08 87.1523)" fill="#E9E9E9"/>
<ellipse cx="1237.98" cy="87.1523" rx="28.1892" ry="28.2657" transform="rotate(-180 1237.98 87.1523)" fill="#E9E9E9"/>
<ellipse cx="892.659" cy="87.1523" rx="28.1892" ry="28.2657" transform="rotate(-180 892.659 87.1523)" fill="#E9E9E9"/>
<ellipse cx="720" cy="87.1523" rx="28.1892" ry="28.2657" transform="rotate(-180 720 87.1523)" fill="#E9E9E9"/>
<ellipse cx="547.341" cy="87.1523" rx="28.1892" ry="28.2657" transform="rotate(-180 547.341 87.1523)" fill="#E9E9E9"/>
<ellipse cx="489.788" cy="87.1523" rx="28.1892" ry="28.2657" transform="rotate(-180 489.788 87.1523)" fill="#E9E9E9"/>
<ellipse cx="317.129" cy="87.1523" rx="28.1892" ry="28.2657" transform="rotate(-180 317.129 87.1523)" fill="#E9E9E9"/>
<ellipse cx="144.47" cy="87.1523" rx="28.1892" ry="28.2657" transform="rotate(-180 144.47 87.1523)" fill="#E9E9E9"/>
<ellipse cx="489.788" cy="663.064" rx="28.1892" ry="28.2657" transform="rotate(-180 489.788 663.064)" fill="#E9E9E9"/>
<ellipse cx="777.553" cy="721.951" rx="28.1892" ry="28.2657" transform="rotate(-180 777.553 721.951)" fill="#E9E9E9"/>
<ellipse cx="662.447" cy="721.951" rx="28.1892" ry="28.2657" transform="rotate(-180 662.447 721.951)" fill="#E9E9E9"/>
<ellipse cx="892.659" cy="663.064" rx="28.1892" ry="28.2657" transform="rotate(-180 892.659 663.064)" fill="#E9E9E9"/>
<ellipse cx="1353.08" cy="607.711" rx="28.1892" ry="28.2657" transform="rotate(-180 1353.08 607.711)" fill="#E9E9E9"/>
</g>
</svg>
