<svg id="Layer_1" data-name="Layer 1" xmlns="http://www.w3.org/2000/svg" viewBox="0 0 547.13 244">
  <defs>
    <style>
      .cls-1 {
        fill: #2f314a;
      }

      .cls-2 {
        fill: #f45803;
      }
    </style>
  </defs>
  <g>
    <g>
      <path class="cls-1" d="M70.09,80.92V110c3.09-5.44,11.73-8.43,17.28-8.43,15.36,0,26.77,9.39,26.77,27.52,0,17.28-11.63,27.52-27.09,27.52-6.4,0-12.91-2.13-17-8.42l-.86,7.25H57.07V80.92Zm.85,48.21c0,9.5,7,15.47,15.25,15.47s14.94-6.3,14.94-15.47c0-9.49-6.62-15.36-14.94-15.36A15,15,0,0,0,70.94,129.13Z"/>
      <path class="cls-1" d="M136.75,80.81V110c4.7-6.08,10.46-7.9,16.43-7.9,14.93,0,21.55,10.14,21.55,25.61v27.73h-13V127.85c0-9.6-5-13.65-12-13.65-7.68,0-13,6.5-13,14.4v26.88h-13V80.81Z"/>
      <path class="cls-1" d="M227.42,102.89H239.9v52.59H227.63L227,147.8c-3,6.19-11.2,9.17-17.07,9.28-15.57.11-27.09-9.49-27.09-28,0-18.13,12-27.63,27.42-27.52,7,0,13.75,3.31,16.74,8.54Zm-31.58,26.24c0,10,6.94,16,15.58,16,20.48,0,20.48-31.89,0-31.89C202.78,113.24,195.84,119.11,195.84,129.13Z"/>
      <path class="cls-1" d="M289.6,155.48V128c0-8-4.37-14.08-12.69-14.08-8,0-13.44,6.72-13.44,14.72v26.88H250.56v-52.7h11.63l.85,7.15c5.34-5.23,10.67-7.89,17.28-7.89,12.38,0,22.3,9.28,22.3,25.81v27.63Z"/>
      <path class="cls-1" d="M354.56,102.89v6.19l-24.21,33.6h24.43v12.8H310.51V150l25.17-35.31H312.43V102.89Z"/>
      <path class="cls-1" d="M375.89,102.89v27.52c0,8,4.38,14.08,12.7,14.08,8,0,13.44-6.72,13.44-14.72V102.89h12.9v52.7H403.31l-.86-7.15c-5.44,5.33-10.45,7.89-17.81,7.89-12.59,0-21.76-9.49-21.76-25.81V102.89Z"/>
    </g>
    <path class="cls-2" d="M489.65,114.62a64.9,64.9,0,0,0-121.1-24.38H374a60.22,60.22,0,0,1,6.91-9.58A51.16,51.16,0,0,1,398.1,67.82a48.22,48.22,0,0,1,17.64-4.1A43.48,43.48,0,0,1,442.51,72a46.48,46.48,0,0,1,13.74,15.12c3,5.48,4.76,11.84,3.83,18.11-1,6.93-5.27,12.71-10.77,16.87a26.87,26.87,0,0,1,5.83,5.88,26.52,26.52,0,0,1,4.32,19,38,38,0,0,1-8.39,18.75,40.27,40.27,0,0,1-21.21,13.05c-7.86,2.05-12.52,2.57-23.9-.28l-.08,0c-7.32-2.07-10.77-2.91-20.55-11.09l-7.23-.68a64.92,64.92,0,0,0,111.55-52.12Z"/>
  </g>
</svg>
