<svg xmlns="http://www.w3.org/2000/svg" width="280.972" height="65.372" viewBox="0 0 280.972 65.372">
  <g id="Group_2" data-name="Group 2" transform="translate(-605 -515)">
    <g id="Main_Logo" data-name="Main Logo" transform="translate(610.93 457.938)">
      <g id="Group_1" data-name="Group 1" transform="translate(57.07 69.016)">
        <path id="Path_1" data-name="Path 1" d="M63.624,80.92V95.559c1.555-2.738,5.9-4.244,8.7-4.244,7.732,0,13.476,4.727,13.476,13.853,0,8.7-5.854,13.853-13.637,13.853-3.222,0-6.5-1.072-8.558-4.239l-.433,3.65h-6.1V80.92Zm.428,24.269a7.6,7.6,0,1,0,15.2,0,7.306,7.306,0,0,0-7.521-7.732,7.551,7.551,0,0,0-7.677,7.732Z" transform="translate(-57.07 -80.865)" fill="#2f314a"/>
        <path id="Path_2" data-name="Path 2" d="M130.284,80.81V95.5a9.787,9.787,0,0,1,8.271-3.977c7.516,0,10.848,5.1,10.848,12.892v13.959h-6.544V104.49c0-4.833-2.517-6.871-6.041-6.871-3.866,0-6.544,3.272-6.544,7.249V118.4H123.73V80.81Z" transform="translate(-90.174 -80.81)" fill="#2f314a"/>
        <path id="Path_3" data-name="Path 3" d="M205.281,102.229h6.282V128.7h-6.177l-.317-3.866c-1.51,3.116-5.638,4.616-8.593,4.671-7.838.055-13.637-4.777-13.637-14.1,0-9.127,6.041-13.909,13.8-13.853,3.524,0,6.922,1.666,8.427,4.3Zm-15.9,13.209c0,5.034,3.494,8.054,7.843,8.054,10.31,0,10.31-16.053,0-16.053C192.878,107.439,189.384,110.394,189.384,115.438Z" transform="translate(-119.528 -91.114)" fill="#2f314a"/>
        <path id="Path_4" data-name="Path 4" d="M270.213,128.961V115.128c0-4.027-2.2-7.088-6.388-7.088-4.027,0-6.766,3.383-6.766,7.41v13.531h-6.5V102.453h5.854l.428,3.6c2.688-2.633,5.371-3.972,8.7-3.972,6.232,0,11.226,4.672,11.226,12.993v13.909Z" transform="translate(-153.158 -91.373)" fill="#2f314a"/>
        <path id="Path_5" data-name="Path 5" d="M332.685,102.89v3.116L320.5,122.92h12.3v6.443H310.51V126.6l12.67-17.775h-11.7v-5.94Z" transform="translate(-182.93 -91.775)" fill="#2f314a"/>
        <path id="Path_6" data-name="Path 6" d="M369.429,102.89v13.853c0,4.027,2.2,7.088,6.393,7.088,4.027,0,6.766-3.383,6.766-7.41V102.89h6.494v26.529h-5.849l-.433-3.6c-2.738,2.683-5.26,3.972-8.965,3.972-6.338,0-10.954-4.777-10.954-12.993V102.89Z" transform="translate(-208.937 -91.775)" fill="#2f314a"/>
      </g>
      <path id="Path_7" data-name="Path 7" d="M429.511,86.036A32.67,32.67,0,0,0,368.55,73.763h2.743a30.314,30.314,0,0,1,3.478-4.823,25.754,25.754,0,0,1,8.653-6.464,24.274,24.274,0,0,1,8.88-2.064,21.888,21.888,0,0,1,13.476,4.168,23.4,23.4,0,0,1,6.917,7.611,14.722,14.722,0,0,1,1.928,9.116A13.221,13.221,0,0,1,409.2,89.8a13.526,13.526,0,0,1,2.935,2.96,13.35,13.35,0,0,1,2.175,9.564,19.129,19.129,0,0,1-4.223,9.439,20.272,20.272,0,0,1-10.677,6.569c-3.957,1.032-6.3,1.294-12.031-.141h-.04c-3.685-1.042-5.422-1.465-10.345-5.583l-3.64-.342a32.68,32.68,0,0,0,56.154-26.237Z" transform="translate(-154.683 0)" fill="#f45803"/>
    </g>
    <path id="Line_1" data-name="Line 1" d="M219,1.5H0A1.5,1.5,0,0,1-1.5,0,1.5,1.5,0,0,1,0-1.5H219A1.5,1.5,0,0,1,220.5,0,1.5,1.5,0,0,1,219,1.5Z" transform="translate(606.5 572.5)" fill="#2f314a"/>
  </g>
</svg>
